<svg width="244" height="52" viewBox="0 0 244 52" fill="none" xmlns="http://www.w3.org/2000/svg">
<path d="M1.06445 21V0.957031H14.8047V4.34766H5.11133V9.0918H13.4785V12.4824H5.11133V21H1.06445ZM18.168 21V0.957031H26.6855C28.8275 0.957031 30.3815 1.13932 31.3477 1.50391C32.3229 1.85938 33.1022 2.4974 33.6855 3.41797C34.2689 4.33854 34.5605 5.39128 34.5605 6.57617C34.5605 8.08008 34.1185 9.32422 33.2344 10.3086C32.3503 11.2839 31.0286 11.8991 29.2695 12.1543C30.1445 12.6647 30.8646 13.2253 31.4297 13.8359C32.0039 14.4466 32.7741 15.5312 33.7402 17.0898L36.1875 21H31.3477L28.4219 16.6387C27.3828 15.0801 26.6719 14.1003 26.2891 13.6992C25.9062 13.2891 25.5007 13.0111 25.0723 12.8652C24.6439 12.7103 23.9648 12.6328 23.0352 12.6328H22.2148V21H18.168ZM22.2148 9.43359H25.209C27.1504 9.43359 28.3626 9.35156 28.8457 9.1875C29.3288 9.02344 29.707 8.74089 29.9805 8.33984C30.2539 7.9388 30.3906 7.4375 30.3906 6.83594C30.3906 6.16146 30.2083 5.61914 29.8438 5.20898C29.4883 4.78971 28.9824 4.52539 28.3262 4.41602C27.998 4.37044 27.0137 4.34766 25.373 4.34766H22.2148V9.43359ZM56.4629 21H52.0605L50.3105 16.4473H42.2988L40.6445 21H36.3516L44.1582 0.957031H48.4375L56.4629 21ZM49.0117 13.0703L46.25 5.63281L43.543 13.0703H49.0117ZM71.4473 13.6309L75.3711 14.875C74.7695 17.0625 73.7669 18.6895 72.3633 19.7559C70.9688 20.8132 69.196 21.3418 67.0449 21.3418C64.3835 21.3418 62.196 20.4349 60.4824 18.6211C58.7689 16.7982 57.9121 14.3099 57.9121 11.1562C57.9121 7.82031 58.7734 5.23177 60.4961 3.39062C62.2188 1.54036 64.4837 0.615234 67.291 0.615234C69.7428 0.615234 71.7344 1.33984 73.2656 2.78906C74.1771 3.64583 74.8607 4.8763 75.3164 6.48047L71.3105 7.4375C71.0736 6.39844 70.5768 5.57812 69.8203 4.97656C69.0729 4.375 68.1615 4.07422 67.0859 4.07422C65.6003 4.07422 64.3926 4.60742 63.4629 5.67383C62.5423 6.74023 62.082 8.46745 62.082 10.8555C62.082 13.3893 62.5378 15.194 63.4492 16.2695C64.3607 17.3451 65.5456 17.8828 67.0039 17.8828C68.0794 17.8828 69.0046 17.541 69.7793 16.8574C70.554 16.1738 71.11 15.0983 71.4473 13.6309ZM83.3691 21V4.34766H77.4219V0.957031H93.3496V4.34766H87.416V21H83.3691ZM95.8516 21V0.957031H99.8984V21H95.8516ZM102.947 11.1016C102.947 9.0599 103.253 7.34635 103.863 5.96094C104.319 4.9401 104.939 4.02409 105.723 3.21289C106.516 2.40169 107.382 1.80013 108.32 1.4082C109.569 0.879557 111.009 0.615234 112.641 0.615234C115.594 0.615234 117.954 1.53125 119.723 3.36328C121.5 5.19531 122.389 7.74284 122.389 11.0059C122.389 14.2415 121.509 16.7754 119.75 18.6074C117.991 20.4303 115.639 21.3418 112.695 21.3418C109.715 21.3418 107.345 20.4349 105.586 18.6211C103.827 16.7982 102.947 14.2917 102.947 11.1016ZM107.117 10.9648C107.117 13.2344 107.641 14.957 108.689 16.1328C109.738 17.2995 111.068 17.8828 112.682 17.8828C114.295 17.8828 115.617 17.304 116.646 16.1465C117.686 14.9798 118.205 13.2344 118.205 10.9102C118.205 8.61328 117.699 6.89974 116.688 5.76953C115.685 4.63932 114.35 4.07422 112.682 4.07422C111.014 4.07422 109.669 4.64844 108.648 5.79688C107.628 6.9362 107.117 8.65885 107.117 10.9648ZM125.602 21V0.957031H129.539L137.742 14.3418V0.957031H141.502V21H137.441L129.361 7.92969V21H125.602ZM144.77 14.4785L148.707 14.0957C148.944 15.4173 149.423 16.388 150.143 17.0078C150.872 17.6276 151.852 17.9375 153.082 17.9375C154.385 17.9375 155.365 17.6641 156.021 17.1172C156.687 16.5612 157.02 15.9141 157.02 15.1758C157.02 14.7018 156.878 14.3008 156.596 13.9727C156.322 13.6354 155.839 13.3438 155.146 13.0977C154.673 12.9336 153.592 12.6419 151.906 12.2227C149.737 11.6849 148.215 11.0241 147.34 10.2402C146.109 9.13737 145.494 7.79297 145.494 6.20703C145.494 5.1862 145.781 4.23372 146.355 3.34961C146.939 2.45638 147.773 1.77734 148.857 1.3125C149.951 0.847656 151.268 0.615234 152.809 0.615234C155.324 0.615234 157.215 1.16667 158.482 2.26953C159.758 3.3724 160.428 4.8444 160.492 6.68555L156.445 6.86328C156.272 5.83333 155.898 5.09505 155.324 4.64844C154.759 4.19271 153.907 3.96484 152.768 3.96484C151.592 3.96484 150.671 4.20638 150.006 4.68945C149.577 4.99935 149.363 5.41406 149.363 5.93359C149.363 6.40755 149.564 6.81315 149.965 7.15039C150.475 7.57878 151.715 8.02539 153.684 8.49023C155.652 8.95508 157.106 9.43815 158.045 9.93945C158.993 10.4316 159.731 11.1107 160.26 11.9766C160.798 12.8333 161.066 13.8952 161.066 15.1621C161.066 16.3105 160.747 17.3861 160.109 18.3887C159.471 19.3913 158.569 20.1387 157.402 20.6309C156.236 21.1139 154.782 21.3555 153.041 21.3555C150.507 21.3555 148.561 20.7721 147.203 19.6055C145.845 18.4297 145.034 16.7207 144.77 14.4785ZM171.238 14.4785L175.176 14.0957C175.413 15.4173 175.891 16.388 176.611 17.0078C177.34 17.6276 178.32 17.9375 179.551 17.9375C180.854 17.9375 181.834 17.6641 182.49 17.1172C183.156 16.5612 183.488 15.9141 183.488 15.1758C183.488 14.7018 183.347 14.3008 183.064 13.9727C182.791 13.6354 182.308 13.3438 181.615 13.0977C181.141 12.9336 180.061 12.6419 178.375 12.2227C176.206 11.6849 174.684 11.0241 173.809 10.2402C172.578 9.13737 171.963 7.79297 171.963 6.20703C171.963 5.1862 172.25 4.23372 172.824 3.34961C173.408 2.45638 174.242 1.77734 175.326 1.3125C176.42 0.847656 177.737 0.615234 179.277 0.615234C181.793 0.615234 183.684 1.16667 184.951 2.26953C186.227 3.3724 186.897 4.8444 186.961 6.68555L182.914 6.86328C182.741 5.83333 182.367 5.09505 181.793 4.64844C181.228 4.19271 180.376 3.96484 179.236 3.96484C178.061 3.96484 177.14 4.20638 176.475 4.68945C176.046 4.99935 175.832 5.41406 175.832 5.93359C175.832 6.40755 176.033 6.81315 176.434 7.15039C176.944 7.57878 178.184 8.02539 180.152 8.49023C182.121 8.95508 183.575 9.43815 184.514 9.93945C185.462 10.4316 186.2 11.1107 186.729 11.9766C187.266 12.8333 187.535 13.8952 187.535 15.1621C187.535 16.3105 187.216 17.3861 186.578 18.3887C185.94 19.3913 185.038 20.1387 183.871 20.6309C182.704 21.1139 181.251 21.3555 179.51 21.3555C176.976 21.3555 175.03 20.7721 173.672 19.6055C172.314 18.4297 171.503 16.7207 171.238 14.4785ZM209.014 21H204.611L202.861 16.4473H194.85L193.195 21H188.902L196.709 0.957031H200.988L209.014 21ZM201.562 13.0703L198.801 5.63281L196.094 13.0703H201.562ZM211.283 21V1.12109H215.33V17.623H225.393V21H211.283ZM228.291 21V0.957031H243.152V4.34766H232.338V8.79102H242.4V12.168H232.338V17.623H243.535V21H228.291ZM13.8613 43.6309L17.7852 44.875C17.1836 47.0625 16.181 48.6895 14.7773 49.7559C13.3828 50.8132 11.61 51.3418 9.45898 51.3418C6.79753 51.3418 4.61003 50.4349 2.89648 48.6211C1.18294 46.7982 0.326172 44.3099 0.326172 41.1562C0.326172 37.8203 1.1875 35.2318 2.91016 33.3906C4.63281 31.5404 6.89779 30.6152 9.70508 30.6152C12.1569 30.6152 14.1484 31.3398 15.6797 32.7891C16.5911 33.6458 17.2747 34.8763 17.7305 36.4805L13.7246 37.4375C13.4876 36.3984 12.9909 35.5781 12.2344 34.9766C11.487 34.375 10.5755 34.0742 9.5 34.0742C8.01432 34.0742 6.80664 34.6074 5.87695 35.6738C4.95638 36.7402 4.49609 38.4674 4.49609 40.8555C4.49609 43.3893 4.95182 45.194 5.86328 46.2695C6.77474 47.3451 7.95964 47.8828 9.41797 47.8828C10.4935 47.8828 11.4186 47.541 12.1934 46.8574C12.9681 46.1738 13.5241 45.0983 13.8613 43.6309ZM20.4512 41.1016C20.4512 39.0599 20.7565 37.3464 21.3672 35.9609C21.8229 34.9401 22.4427 34.0241 23.2266 33.2129C24.0195 32.4017 24.8854 31.8001 25.8242 31.4082C27.0729 30.8796 28.513 30.6152 30.1445 30.6152C33.0977 30.6152 35.4583 31.5312 37.2266 33.3633C39.0039 35.1953 39.8926 37.7428 39.8926 41.0059C39.8926 44.2415 39.013 46.7754 37.2539 48.6074C35.4948 50.4303 33.1432 51.3418 30.1992 51.3418C27.2188 51.3418 24.849 50.4349 23.0898 48.6211C21.3307 46.7982 20.4512 44.2917 20.4512 41.1016ZM24.6211 40.9648C24.6211 43.2344 25.1452 44.957 26.1934 46.1328C27.2415 47.2995 28.5723 47.8828 30.1855 47.8828C31.7988 47.8828 33.1204 47.304 34.1504 46.1465C35.1895 44.9798 35.709 43.2344 35.709 40.9102C35.709 38.6133 35.2031 36.8997 34.1914 35.7695C33.1888 34.6393 31.8535 34.0742 30.1855 34.0742C28.5176 34.0742 27.1732 34.6484 26.1523 35.7969C25.1315 36.9362 24.6211 38.6589 24.6211 40.9648ZM43.0098 51V30.957H49.0664L52.7031 44.6289L56.2988 30.957H62.3691V51H58.6094V35.2227L54.6309 51H50.7344L46.7695 35.2227V51H43.0098ZM66.2656 51V30.957H70.3125V51H66.2656ZM74.2227 51V30.957H78.1602L86.3633 44.3418V30.957H90.123V51H86.0625L77.9824 37.9297V51H74.2227ZM103.74 43.6309V40.2539H112.463V48.2383C111.615 49.0586 110.385 49.7832 108.771 50.4121C107.167 51.0319 105.54 51.3418 103.891 51.3418C101.794 51.3418 99.9668 50.9043 98.4082 50.0293C96.8496 49.1452 95.6784 47.8874 94.8945 46.2559C94.1107 44.6152 93.7188 42.8333 93.7188 40.9102C93.7188 38.8229 94.1562 36.9681 95.0312 35.3457C95.9062 33.7233 97.1868 32.4792 98.873 31.6133C100.158 30.9479 101.758 30.6152 103.672 30.6152C106.16 30.6152 108.102 31.1393 109.496 32.1875C110.9 33.2266 111.802 34.6667 112.203 36.5078L108.184 37.2598C107.901 36.2754 107.368 35.5007 106.584 34.9355C105.809 34.3613 104.839 34.0742 103.672 34.0742C101.904 34.0742 100.495 34.6348 99.4473 35.7559C98.4082 36.877 97.8887 38.5404 97.8887 40.7461C97.8887 43.125 98.4173 44.9115 99.4746 46.1055C100.532 47.2904 101.917 47.8828 103.631 47.8828C104.479 47.8828 105.326 47.7188 106.174 47.3906C107.031 47.0534 107.764 46.6478 108.375 46.1738V43.6309H103.74ZM122.977 44.4785L126.914 44.0957C127.151 45.4173 127.63 46.388 128.35 47.0078C129.079 47.6276 130.059 47.9375 131.289 47.9375C132.592 47.9375 133.572 47.6641 134.229 47.1172C134.894 46.5612 135.227 45.9141 135.227 45.1758C135.227 44.7018 135.085 44.3008 134.803 43.9727C134.529 43.6354 134.046 43.3438 133.354 43.0977C132.88 42.9336 131.799 42.6419 130.113 42.2227C127.944 41.6849 126.422 41.0241 125.547 40.2402C124.316 39.1374 123.701 37.793 123.701 36.207C123.701 35.1862 123.988 34.2337 124.562 33.3496C125.146 32.4564 125.98 31.7773 127.064 31.3125C128.158 30.8477 129.475 30.6152 131.016 30.6152C133.531 30.6152 135.423 31.1667 136.689 32.2695C137.965 33.3724 138.635 34.8444 138.699 36.6855L134.652 36.8633C134.479 35.8333 134.105 35.0951 133.531 34.6484C132.966 34.1927 132.114 33.9648 130.975 33.9648C129.799 33.9648 128.878 34.2064 128.213 34.6895C127.785 34.9993 127.57 35.4141 127.57 35.9336C127.57 36.4076 127.771 36.8132 128.172 37.1504C128.682 37.5788 129.922 38.0254 131.891 38.4902C133.859 38.9551 135.313 39.4382 136.252 39.9395C137.2 40.4316 137.938 41.1107 138.467 41.9766C139.005 42.8333 139.273 43.8952 139.273 45.1621C139.273 46.3105 138.954 47.3861 138.316 48.3887C137.678 49.3913 136.776 50.1387 135.609 50.6309C134.443 51.1139 132.989 51.3555 131.248 51.3555C128.714 51.3555 126.768 50.7721 125.41 49.6055C124.052 48.4297 123.241 46.7207 122.977 44.4785ZM141.857 41.1016C141.857 39.0599 142.163 37.3464 142.773 35.9609C143.229 34.9401 143.849 34.0241 144.633 33.2129C145.426 32.4017 146.292 31.8001 147.23 31.4082C148.479 30.8796 149.919 30.6152 151.551 30.6152C154.504 30.6152 156.865 31.5312 158.633 33.3633C160.41 35.1953 161.299 37.7428 161.299 41.0059C161.299 44.2415 160.419 46.7754 158.66 48.6074C156.901 50.4303 154.549 51.3418 151.605 51.3418C148.625 51.3418 146.255 50.4349 144.496 48.6211C142.737 46.7982 141.857 44.2917 141.857 41.1016ZM146.027 40.9648C146.027 43.2344 146.551 44.957 147.6 46.1328C148.648 47.2995 149.979 47.8828 151.592 47.8828C153.205 47.8828 154.527 47.304 155.557 46.1465C156.596 44.9798 157.115 43.2344 157.115 40.9102C157.115 38.6133 156.609 36.8997 155.598 35.7695C154.595 34.6393 153.26 34.0742 151.592 34.0742C149.924 34.0742 148.579 34.6484 147.559 35.7969C146.538 36.9362 146.027 38.6589 146.027 40.9648ZM163.65 41.1016C163.65 39.0599 163.956 37.3464 164.566 35.9609C165.022 34.9401 165.642 34.0241 166.426 33.2129C167.219 32.4017 168.085 31.8001 169.023 31.4082C170.272 30.8796 171.712 30.6152 173.344 30.6152C176.297 30.6152 178.658 31.5312 180.426 33.3633C182.203 35.1953 183.092 37.7428 183.092 41.0059C183.092 44.2415 182.212 46.7754 180.453 48.6074C178.694 50.4303 176.342 51.3418 173.398 51.3418C170.418 51.3418 168.048 50.4349 166.289 48.6211C164.53 46.7982 163.65 44.2917 163.65 41.1016ZM167.82 40.9648C167.82 43.2344 168.344 44.957 169.393 46.1328C170.441 47.2995 171.771 47.8828 173.385 47.8828C174.998 47.8828 176.32 47.304 177.35 46.1465C178.389 44.9798 178.908 43.2344 178.908 40.9102C178.908 38.6133 178.402 36.8997 177.391 35.7695C176.388 34.6393 175.053 34.0742 173.385 34.0742C171.717 34.0742 170.372 34.6484 169.352 35.7969C168.331 36.9362 167.82 38.6589 167.82 40.9648ZM186.305 51V30.957H190.242L198.445 44.3418V30.957H202.205V51H198.145L190.064 37.9297V51H186.305Z" fill="white"/>
</svg>
