<svg width="1100" height="4" viewBox="0 0 1100 4" fill="none" xmlns="http://www.w3.org/2000/svg">
<path d="M1098.11 0.360352L1099.48 0.150391L1100 0.230225L1098.11 0.360352ZM1091.12 0.690186C1091.38 0.690186 1091.26 0.790322 1091.52 0.830322L1096.72 0.240234C1094.39 -0.0997656 1092.65 0.920186 1091.12 0.690186ZM1089.6 0.630371C1088.48 0.510983 1087.37 0.591582 1086.27 0.870361C1086.98 0.650361 1090.03 0.930371 1089.6 0.630371ZM912.135 0.770264H912.76C912.551 0.757181 912.343 0.763881 912.135 0.790283V0.770264ZM865.831 1.72021L865.35 1.94019C873.988 1.54019 883.733 1.94026 892.873 1.77026L892.254 1.85034C915.433 1.94034 936.819 1.57039 959.819 1.40039C959.462 1.40039 959.338 1.49025 958.967 1.51025C960.08 1.43025 961.31 1.2903 962.554 1.3103C962.877 1.3603 962.204 1.41019 961.805 1.44019C966.664 1.80019 976.071 1.20019 979.109 1.44019C980.483 1.44019 981.081 1.24037 980.318 1.13037C998.323 1.03037 1017.58 0.960176 1035.92 0.680176C1036.8 0.680176 1036.96 0.830195 1036.72 0.950195C1052.39 0.360195 1068.82 0.590186 1084.82 0.690186C1085.44 0.530186 1083.18 0.520352 1084.76 0.360352C1079.61 0.170352 1075.32 0.750205 1070.65 0.460205L1071.25 0.310303C1067.81 0.210303 1070.56 0.690244 1067.03 0.500244C1065.65 0.370244 1067.37 0.300283 1066.73 0.290283C1059.5 0.350283 1051.95 0.220332 1045.14 0.590332C1043.46 0.260332 1037.38 0.590254 1034.7 0.260254C1032.83 0.390254 1030.95 0.360313 1030.24 0.570312C1004.93 0.400312 979.074 0.720186 953.146 0.690186C941.017 1.33019 926.483 0.570273 912.087 0.780273C911.983 0.780273 912.004 0.780215 912.087 0.720215C907.393 0.880215 900.548 0.950361 894.948 0.870361L890.199 1.14038C856.486 0.590381 822.03 0.980244 787.807 0.750244C748.898 0.590244 714.8 0.130215 676.908 0.970215C676.956 0.910215 676.647 0.870342 677.595 0.850342C666.655 0.970342 656.691 0.750342 646.39 0.850342V0.790283C620.833 1.31028 593.194 0.720273 568.558 1.28027C538.562 1.22027 504.649 1.28019 472.9 1.44019L472.976 1.32031C447.55 1.58031 423.024 0.920361 397.68 1.12036C371.615 0.830361 344.079 1.8402 317.787 1.4502C301.528 0.840195 280.163 2.16026 264.873 1.52026C233.488 0.520264 203.025 1.18024 171.661 1.75024C142.71 1.41024 113.807 2.29033 85.7621 1.59033C72.4786 2.04033 57.807 1.04017 43.0255 1.17017L43.5546 1.32031C38.2426 0.850312 31.728 1.98031 28.4363 1.32031H28.9929C26.1892 0.960312 22.4715 2.16022 20.7466 1.73022L20.293 1.9104C16.8914 1.9104 19.8945 1.71038 17.2694 1.64038C16.2798 1.64038 16.8914 1.96035 14.8298 1.86035C14.3832 1.14035 6.50104 2.02021 6.2674 1.21021C8.1297 1.21021 3.35369 0.890215 7.53183 0.720215C6.33611 0.640215 0.659899 0.720264 1.14781 1.02026C0.666771 1.39026 -1.55976 1.71026 1.90371 2.02026L2.5909 1.75024C3.03371 1.78957 3.47189 1.90376 3.89659 2.09033C8.4252 2.09033 9.02994 2.51017 12.2735 2.67017C12.2391 2.67017 12.2116 2.67017 12.2735 2.67017C14.6188 2.4627 16.9698 2.43282 19.3172 2.58032L20.0044 2.73022C21.0765 3.04022 25.1584 2.1304 23.7771 2.6604C32.9855 2.5304 43.534 2.53027 53.8144 2.53027C55.2575 2.32027 61.6897 2.5304 59.4425 2.1604C62.0127 2.6004 69.668 2.71019 72.4993 2.69019C72.2755 2.77817 72.0425 2.80537 71.8121 2.77026C77.3096 3.34026 78.3404 2.23019 83.4944 2.94019C84.2984 2.44019 92.8746 3.10025 95.802 2.51025C96.4342 2.62025 96.6473 2.7203 96.4205 2.8103C105.718 2.8103 115.992 3.00026 123.86 3.02026C130.581 2.59026 140.14 3.22036 145.919 2.62036C150.73 2.75036 158.46 3.00025 165.161 2.76025L164.515 2.83032C172.074 2.83032 181.481 2.76037 186.656 2.38037C188.889 2.96037 192.154 2.85027 195.411 3.03027C200.448 2.76027 210.619 2.84034 218.308 2.60034C219.483 2.86034 224.644 2.49036 225.043 2.87036C246.579 2.13036 273.208 2.3902 296.202 2.9502H295.872C298.854 2.7402 302.297 2.27024 305.328 2.00024C305.63 2.00024 305.596 2.09033 304.957 2.09033C309.155 2.02033 313.086 2.40032 317.278 2.33032C317.244 2.39032 317.244 2.3902 316.591 2.4502C320.529 2.2802 324.727 2.7602 329.38 2.4502L329.641 2.55029L332.596 2.4104C332.52 2.5404 332.403 2.73019 330.83 2.69019C366.887 2.81019 404.112 2.15024 441.131 2.25024L439.757 2.37036L446.938 2.15039C446.714 2.24004 446.483 2.28368 446.251 2.28027C455.391 2.49027 464.881 2.13019 473.794 2.19019C473.752 2.25019 472.419 2.37019 473.649 2.44019C480.246 2.09019 484.246 2.89017 487.551 2.17017C487.861 2.17017 488.067 2.37018 487.393 2.43018C505.748 2.19018 524.598 2.20031 543.056 2.32031C558.456 1.66031 575.67 2.26023 591.668 1.74023L591.586 1.87036C612.298 1.41036 634.267 1.8703 655.728 1.8103C664.662 1.8103 670.661 1.7002 679.622 1.7002L679.842 1.86035C694.919 1.24035 711.536 2.41022 727.259 1.73022L726.173 1.9502C728.612 1.6102 735.684 2.08023 734.756 1.49023L737.505 1.67017C748.19 0.890166 756.952 2.02026 770.043 1.52026L769.184 1.6604C772.668 1.5504 776.744 1.47033 779.307 1.59033C778.901 1.59033 779.094 1.66019 778.262 1.69019C789.168 2.24019 801.304 1.63019 812.807 1.69019L811.509 1.94019C817.068 1.64019 827.266 1.94027 834.578 1.78027L834.131 1.9104L837.835 1.73022L837.931 1.98022C847.593 1.96022 856.568 1.79021 865.831 1.72021ZM961.805 1.44019H961.709C961.42 1.45019 961.558 1.45019 961.805 1.44019ZM13.5517 2.7002H12.3834C12.4728 2.7002 13.1806 2.6902 13.5517 2.7002Z" fill="black"/>
</svg>
