<svg width="249" height="35" viewBox="0 0 249 35" fill="none" xmlns="http://www.w3.org/2000/svg">
<path d="M20.3699 33.05C19.6399 33.05 18.5899 33.1 18.8599 33.22L17.48 33.0999C18.27 33.0899 20.0099 32.78 20.3699 33.05ZM16.8599 33.8699C17.5757 33.9799 18.3042 33.9799 19.02 33.8699C18.3009 33.9198 17.579 33.9198 16.8599 33.8699ZM26.99 33.49C24.41 33.57 23.0898 33.9499 21.8398 33.6599L19.6799 34.02C21.7399 34.08 21.2699 33.76 22.6799 33.79C23.4299 33.87 22.5098 33.9 23.0798 33.96C24.4879 34.064 25.9017 34.064 27.3098 33.96C26.9098 33.84 26.32 33.6 26.99 33.49ZM0.689941 29.4299C0.559941 29.2699 1.13985 30.9399 0.349854 29.0999C0.489682 29.6401 0.765081 30.1359 1.1499 30.54C1.3099 30.6 0.969971 30.25 0.469971 28.74C0.528176 28.9745 0.601637 29.205 0.689941 29.4299ZM16.3899 33.5601C15.8342 33.5109 15.2743 33.5479 14.73 33.6699L17.04 33.5999L16.3899 33.5601ZM45.4399 33.8C46.3132 33.7446 47.1893 33.7611 48.0598 33.8499L47.52 33.74C46.78 33.77 45.2899 33.65 45.4299 33.8H45.4399ZM39.8799 33.8599L41.95 33.8H41.5999L39.8799 33.8599ZM243.15 32.55C243.453 32.4913 243.751 32.4077 244.04 32.3C243.8 32.3601 243.49 32.47 243.15 32.55ZM0.149902 21.6099L0 20.3101C0.09 20.7401 0.0799316 22.6899 0.179932 21.6099H0.149902ZM38.95 33.55L36.95 33.6299L39.8799 33.5701L38.95 33.55ZM229.6 33.1599C231.1 33.0999 229.34 33.01 229.16 32.98C228.98 32.95 229.3 33.0999 229.63 33.1599H229.6ZM38.8499 33.71L38.9299 33.79L41.1699 33.6499L38.8499 33.71ZM229.16 32.98C229.16 32.98 229.17 32.95 229.19 32.95L229.16 32.98ZM0.159912 16.55L0.0598145 17.8899L0.139893 18.24L0.159912 16.55ZM13.8799 0.209961L13.0798 0.109863L14.0798 0.280029L13.8799 0.209961ZM17.24 0.129883C16.01 0.129883 15.2399 0.13001 15.6199 0.26001C16.1853 0.250849 16.7496 0.207309 17.3098 0.129883H17.24ZM168.88 0.699951C169.24 0.619951 166.72 0.499844 168.16 0.589844C167.87 0.689844 169.76 0.809951 168.95 0.699951H168.88ZM211.03 0.949951C211.743 0.796624 212.476 0.762732 213.2 0.849854C212.83 0.849854 212.6 0.95998 212.11 0.97998C213.92 0.86998 214.04 0.889834 215.48 0.829834C214.04 0.729834 211.87 0.67 212.1 0.5C211.1 0.63 209.78 0.819951 211.1 0.949951H211.03ZM223.27 0.399902C222.56 0.589902 220.99 0.30999 220.52 0.48999C221.461 0.543457 222.404 0.513251 223.34 0.399902H223.27ZM209.94 0.399902C207.94 0.399902 205.38 0.499844 204.42 0.589844L205.14 0.669922C206.9 0.519922 209.06 0.579883 210.01 0.379883L209.94 0.399902ZM0.469971 7.31006C0.329752 8.07242 0.312822 8.85216 0.419922 9.61987C0.538532 8.84925 0.578854 8.06877 0.540039 7.29004L0.469971 7.31006ZM0.0598145 12.6799C0.189814 17.0399 0.479834 11.6799 0.579834 16.6799C0.709834 11.9699 0.0899805 14.2899 0.22998 10.0999C0.0799805 12.0999 0.110049 8.74985 0.0500488 8.09985C0.0500488 9.56985 0.429883 11.7899 0.129883 12.6599L0.0598145 12.6799ZM5.82983 0.169922C5.23983 0.309922 4.74996 0.479873 5.20996 0.369873C5.4315 0.272254 5.66274 0.198535 5.8999 0.149902L5.82983 0.169922ZM6.82983 0.0898438L6.94995 0.0100098C6.67486 0.0268164 6.40096 0.060064 6.12988 0.109863C6.38098 0.0431858 6.64324 0.029768 6.8999 0.0700684L6.82983 0.0898438ZM4.02002 0.909912C3.47002 1.13991 2.91001 1.43004 3.76001 0.790039C3.27062 1.09355 2.82046 1.45612 2.41992 1.86987C2.96726 1.47548 3.57067 1.16544 4.20996 0.949951C5.20996 0.499951 4.64984 0.659893 4.08984 0.889893L4.02002 0.909912ZM229.41 0.439941L231.69 0.52002C232.48 0.42002 229.83 0.269922 229.48 0.419922L229.41 0.439941ZM232.34 0.969971C231.551 0.727177 230.711 0.702916 229.91 0.899902L230.15 0.949951C229.42 0.869951 228.34 1.00001 227.5 1.01001C227.601 1.04492 227.705 1.0715 227.81 1.08984H229.65C230.579 1.11898 231.509 1.07226 232.43 0.949951L232.34 0.969971ZM246.78 29.6099C246.294 30.5137 245.573 31.2696 244.693 31.7976C243.813 32.3256 242.806 32.6063 241.78 32.6099H234.51C235.37 32.7499 237.33 32.88 236.09 32.99C237.986 32.8908 239.887 32.9143 241.78 33.0601L241.01 33.1899C238.31 33.0099 240.23 33.2399 236.93 33.1899C237.27 33.1899 237.53 33.1899 237.45 33.1299H230.45L230.89 33.02C228.09 32.93 226.89 33.3299 224.06 33.3899C221.96 33.1999 224.49 33.28 224.06 33.01C221 33.01 221.8 33.8299 219.06 33.3499H219.75C216.02 33.2799 221.37 33.22 218.66 33.03C212.72 33.03 220.58 33.4999 215.32 33.6199C215.76 33.4299 214.56 33.36 213.32 33.25C212.45 33.48 208.37 33.57 206.65 33.79C205.761 33.5894 204.847 33.5318 203.94 33.6199C205.222 33.5263 206.508 33.5263 207.79 33.6199C208.05 33.5399 208.79 33.39 207.88 33.3C206.31 33.6301 200.73 33.5098 199.01 33.8298C199.15 33.7398 197.57 33.6501 197.66 33.5601C196.75 33.7001 195.1 33.68 194.56 33.72L196.02 33.79C193.28 33.66 189.79 33.96 186.52 33.99L186.59 33.9199C184.25 33.9199 182.36 34.1799 179.73 34.1299C180.96 34.0299 179.79 33.84 179.3 33.75C178.75 33.51 183.82 33.37 180.9 33.21C178.768 33.4838 176.62 33.6174 174.47 33.6099C173.56 33.7799 175.97 33.8399 176.74 33.8499C174.38 33.9399 170.74 33.74 169.59 33.95C170.59 33.95 170.91 33.9501 170.85 34.05L170.36 34.0999L169.18 34.23C168.368 34.3412 167.549 34.3879 166.73 34.3699C167.29 34.2499 166.65 34.2999 167.46 34.1599C166.407 34.1031 165.351 34.1198 164.3 34.21C164.41 33.94 167.66 34.2099 167.41 33.8499C162.53 33.7499 161.49 34.08 157.3 34.24C155.4 34.24 154.06 34.2399 152.18 34.1499C152.44 34.1499 153.04 34.1499 152.82 34.0999C148.99 33.8599 150 34.1899 147.03 33.9399C144.278 34.1348 141.517 34.1783 138.76 34.0701C139.07 34.0701 139.18 33.9399 139.58 33.9099C134.58 33.9699 130.25 34.22 125.45 34.02H125.58C122.58 34.02 119.91 34.02 116.58 34.02C117.42 34.02 117.7 33.9499 117.74 33.8999C113.39 33.7299 109.95 34.0399 105.23 33.8999C103.98 33.7699 101.16 33.8499 101.68 33.5999C97.8299 33.5999 103.17 33.8999 99.46 33.8599H99.8198C95.0398 34.0199 90.8198 33.7599 86.3198 33.8599C85.3198 33.7699 83.7 33.6199 81.54 33.5999C80.74 33.7399 79.2599 33.7899 77.8899 33.8699C76.8299 33.8699 75.76 33.8 74.22 33.78C76.22 33.94 72.9598 33.8799 72.3198 33.9299C73.3698 33.7899 71.9598 33.7399 74.0698 33.6299C69.9698 33.4499 71.52 34.0699 67.28 33.9199L66.5598 33.71C67.3698 33.71 68.14 33.71 68.99 33.71C67.3948 33.6129 65.7951 33.6129 64.2 33.71C63.53 33.81 67.45 33.89 64.04 33.98C64.33 33.68 61.5999 33.98 60.0999 33.71C59.0336 33.8933 57.9499 33.9537 56.8699 33.8899C56.6599 33.8399 56.87 33.83 57.04 33.8C54.43 33.8 56.18 34.05 53.77 34.03C53.34 33.95 55.24 33.79 53.97 33.71C52.02 33.55 52.71 33.81 50.48 33.71C51.15 33.79 50.28 34.03 48.95 34.05C48.79 33.9 48.81 33.6699 51 33.6299C49.86 33.5199 47.88 33.41 49.79 33.26C47 33.48 43.1599 33.4699 40.1399 33.6899C39.2834 33.5941 38.4213 33.5572 37.5598 33.5798C36.3669 33.7945 35.1609 33.9283 33.95 33.98C33.28 34.09 34.3399 34.1199 34.4199 34.2L32.2 34.29C30.83 34.18 33.92 34.0399 33.03 33.9099L30.9199 33.8398C29.0399 33.9398 30.6099 34.14 31.1499 34.25C29.1499 34.09 28.65 34.4 27.28 34.25C30.19 34.19 25.8 33.8899 29.54 33.8799L28.01 33.8101C28.8281 33.6755 29.6525 33.582 30.48 33.53C28.1 33.46 27.48 33.6399 25.26 33.5999C25.88 33.3699 28.0099 33.5999 29.1199 33.3699C26.3199 33.2199 24.3998 33.4199 23.5698 33.1899C24.9498 33.1099 26.9698 33.3499 27.5698 33.1199C26.3005 32.7748 24.9785 32.6665 23.6699 32.8C22.7599 32.91 24.3898 33 25.5898 33.01L25.76 32.9299L25.9099 33.0798C24.6899 33.0198 22.76 33.1298 21.45 33.0798C21.1718 33.0382 20.8911 33.015 20.6099 33.01C20.6099 33.01 20.61 33.01 20.73 33.01C20.5886 33.0076 20.4478 32.9908 20.3098 32.96C18.8198 32.96 16.87 33.17 15.54 33.03L18.1099 32.96C17.0067 32.7446 15.8838 32.6473 14.76 32.6699H10.4299C9.79993 32.6699 9.4299 32.7398 9.6499 32.8298H10.96C10.32 33.1298 7.76984 32.64 8.08984 33C8.54268 33.0302 8.99712 33.0302 9.44995 33C8.31995 33.1 8.50986 33.2899 10.3599 33.3799L11.75 33.1399C13.39 33.3599 14.55 33.05 16.55 33.21C16.46 33.28 16.8299 33.3299 16.3599 33.3599C14.5897 33.2902 12.8173 33.317 11.05 33.4399C13.27 33.4399 10.9699 33.6399 12.1399 33.6599C8.80989 33.6599 10.7399 33.99 7.13989 33.98L8.54004 33.76H6.54004C6.10064 33.7377 5.66304 33.6875 5.22998 33.6099C4.5854 33.5349 3.95713 33.3559 3.36987 33.0798C1.81757 31.9083 0.749907 30.2073 0.369873 28.3C0.313583 27.7452 0.287045 27.1876 0.290039 26.6299C0.282418 26.3588 0.258977 26.0885 0.219971 25.8201C0.0930165 25.2047 0.0260852 24.5783 0.0200195 23.95C0.166182 24.4263 0.240305 24.9217 0.23999 25.4199C0.23999 25.7799 0.240049 26.16 0.300049 26.54C0.300049 26.73 0.300049 26.9199 0.300049 27.0999C0.300049 27.2799 0.300049 27.51 0.300049 27.7C0.300049 27.53 0.300049 27.3699 0.300049 27.1899C0.305294 27.3113 0.321841 27.4319 0.349854 27.55C0.349854 27 0.349854 26.4899 0.349854 25.8999C0.349854 25.3099 0.350039 24.72 0.290039 24.23C0.240039 23.23 0.229932 22.6399 0.429932 23.3999C0.429932 24.2799 0.429932 25.0999 0.429932 25.9099C0.429932 26.3099 0.429932 26.7099 0.429932 27.1099C0.496257 28.2627 0.870845 29.3768 1.51465 30.3354C2.15845 31.2941 3.04777 32.0625 4.08984 32.5601C4.66644 32.8913 5.29566 33.1212 5.94995 33.24C6.46017 33.3199 6.97423 33.3733 7.48999 33.3999C7.87999 33.2199 8.01982 33.0599 6.81982 32.8899C6.14768 32.9157 5.47509 32.8519 4.81982 32.7C3.97482 32.4725 3.20752 32.0196 2.59985 31.3899C1.82124 30.5679 1.26097 29.5641 0.969971 28.47C0.830542 27.9172 0.756729 27.35 0.75 26.78C0.75 26.28 0.749951 25.7799 0.699951 25.3599L0.540039 25.75C0.450039 23.67 0.459814 19.7501 0.309814 19.3101C0.414882 18.7497 0.438528 18.1769 0.379883 17.6099L0.530029 18.8999C0.670029 18.2999 0.679824 14.98 0.819824 16.01C0.819824 12.75 0.609951 12.93 0.699951 9.70996C0.703181 9.14867 0.67304 8.58776 0.609863 8.03003C0.609863 7.77003 0.550029 7.54 0.530029 7.25C0.499814 6.94408 0.499814 6.63576 0.530029 6.32983C0.557008 5.57474 0.737117 4.8331 1.05981 4.1499C1.53529 3.16412 2.26775 2.32476 3.17993 1.71997C3.62993 1.54997 2.84985 2.07991 2.34985 2.65991C1.84985 3.23991 1.55985 3.72997 2.34985 2.96997C3.0186 2.24752 3.83807 1.68092 4.75 1.31006C5.36657 1.05139 6.01606 0.879735 6.67993 0.800049L8 0.649902L9.16992 0.48999C7.88992 0.41999 9.02002 0.319951 9.02002 0.199951L10.8098 0.26001C10.4098 0.44001 9.85994 0.209893 8.93994 0.389893C10.0307 0.482778 11.1255 0.5196 12.22 0.5L11.45 0.639893C12.4504 0.56611 13.4558 0.59636 14.45 0.72998L16.8398 0.459961C18.3741 0.545741 19.913 0.502128 21.4399 0.329834L19.8499 0.23999H21.9099C23.3299 0.13999 20.63 0.05 22.99 0C21.39 0.25 25.2699 0.159932 25.1099 0.429932C24.0099 0.429932 21.9899 0.430049 22.3799 0.550049C23.1799 0.550049 24.6 0.699834 25.76 0.829834C25.58 0.829834 27.44 0.83001 27.51 0.76001L26.02 0.119873C27.02 -0.030127 28.65 0.669893 29.97 0.639893C27.72 0.739893 30.4 0.709863 29.97 0.859863C32.68 0.739863 35.65 0.49001 38.45 0.51001L37.6699 0.639893C39.5499 0.509893 39.0599 0.759893 41.4099 0.639893C42.2999 0.539893 39.4598 0.63999 41.0698 0.48999H69.6199C69.3999 0.73999 73.3299 0.65998 74.8799 0.72998C75.7599 0.63998 74.95 0.529854 74.01 0.599854C75.88 0.459854 76.7299 0.469961 78.6199 0.459961C79.8459 0.632032 81.0882 0.655604 82.3198 0.530029C81.7598 0.630029 82.54 0.779932 79.98 0.679932C80.67 0.739932 76.66 1.01004 80.29 1.04004C83.67 0.730039 87.59 0.530029 91.7 0.530029C94.03 0.580029 95.11 0.459844 96.24 0.589844L95.6099 0.679932C96.2245 0.743415 96.8457 0.6892 97.4399 0.52002C99.3899 0.52002 98.33 0.769863 97.71 0.859863C102.23 0.789863 103.39 0.48001 108.13 0.51001C109.13 0.59001 108.28 0.800029 110.44 0.780029C117.39 0.700029 122.99 0.519951 130.29 0.699951L132.11 0.879883L133.91 0.599854C140.85 0.859854 146.91 0.869971 154.3 0.969971C153.57 0.969971 152.67 0.970059 152.3 1.06006C154.72 1.06006 157.15 0.65999 159.3 0.73999C159.3 0.65999 159.3 0.93 159.17 1C161.93 0.92 163.49 0.640049 166.54 0.550049C166.97 0.620049 165.19 0.680029 166.26 0.780029H168.09C166.7 0.880029 169.09 0.95999 168.61 0.98999C168.22 0.963492 167.829 0.963492 167.44 0.98999C168.344 1.12791 169.256 1.2014 170.17 1.20996C170.96 1.20996 171.57 1.10004 170.88 1.04004C172.21 1.14004 171.1 1.14001 171.12 1.26001C172.92 1.32001 173.12 1.25983 173.35 1.07983C173.23 0.949834 173.23 0.949844 172.02 0.839844C173.95 0.969844 176.22 0.999912 177.44 1.15991L178.51 1.04004H178.75C178.806 0.979832 178.879 0.937895 178.96 0.919922H178.74C184.13 0.539922 192.07 0.780068 198.43 0.570068L203.43 0.669922C200.91 0.859922 196.83 0.779912 195.74 0.909912H196.83C197.19 0.979912 194.9 0.910059 194.67 1.06006L196.23 1.17993C198.64 1.28993 197.55 0.770068 199.83 1.07007C196.59 1.14007 201.03 1.23989 198.88 1.38989C199.915 1.44783 200.953 1.37393 201.97 1.16992C201.16 1.16992 200.37 1.16992 199.72 1.16992C201.003 1.16175 202.285 1.08499 203.56 0.939941C203.864 0.942878 204.168 0.962968 204.47 1C204.909 1.00356 205.345 1.06057 205.77 1.16992H206.56C207.497 0.912605 208.473 0.83124 209.44 0.929932C209.8 0.929932 208.6 1.04989 208.44 1.13989C211.32 1.37989 213.96 1.31993 217.32 1.42993C216.598 1.40295 215.881 1.30238 215.18 1.12988C215.52 1.12988 215.88 1.12988 216.25 1.12988C216.679 1.05016 217.114 1.01011 217.55 1.01001L216.73 1.12988C217.531 1.15163 218.332 1.12844 219.13 1.06006C219.719 0.927225 220.331 0.927225 220.92 1.06006C220.584 1.05801 220.249 1.09138 219.92 1.15991C220.71 1.15991 221.48 1.15991 222.33 1.15991C222.973 1.37937 223.651 1.47442 224.33 1.43994L223.85 1.1499C226.65 1.3099 226.29 1.27003 227.77 1.28003C229.6 1.65003 234.94 1.09993 235.39 1.42993H232.63C233.11 1.54993 232.49 1.66002 231.88 1.77002H233.88C233.11 1.59002 237.82 1.48 237.28 1.25C238.642 1.34095 240.008 1.34095 241.37 1.25C242.58 1.31 240.37 1.45001 241.86 1.51001H242.86C243.311 1.53979 243.752 1.65503 244.16 1.84985C244.02 1.84985 243.53 1.72985 243.75 1.84985C244.5 2.15985 244.75 2.30993 245.03 2.42993C245.539 2.66102 245.99 3.00264 246.35 3.42993L246.1 3.13989C246.529 3.44927 246.873 3.86199 247.1 4.33984C247.273 4.69409 247.394 5.07136 247.46 5.45996C247.747 6.2039 247.899 6.99287 247.91 7.79004L248.01 10.0701C247.91 9.47007 247.78 7.19989 247.68 8.63989C247.61 8.24989 247.62 7.63996 247.58 6.95996C247.518 6.23678 247.333 5.52959 247.03 4.86987C246.48 3.66987 245.57 2.96005 245.4 3.05005C246.023 3.55919 246.531 4.19349 246.893 4.91187C247.255 5.63024 247.462 6.41656 247.5 7.21997C247.64 7.94997 247.64 9.50007 247.71 10.5701L247.65 10.9299C247.65 13.6799 248.02 10.9299 247.97 13.9299C247.91 14.2899 247.76 13.3299 247.76 15.1299C247.772 15.5343 247.826 15.9364 247.92 16.3298V15.8499C248.06 15.3699 248 18.13 247.98 19.45C247.89 18.73 247.77 18.5 247.72 19.7C247.75 18.8795 247.67 18.0588 247.48 17.26V27.1099C247.478 27.7002 247.387 28.2868 247.21 28.8499C247.323 28.4524 247.386 28.0428 247.4 27.6299C247.358 28.3217 247.189 28.9998 246.9 29.6299C246.873 29.6994 246.839 29.7663 246.8 29.8298L246.78 29.6099ZM247.34 19.47C247.19 17.32 247.27 16 247.22 13.23L247.06 15.6299V14.9099L246.96 16.3499C246.943 17.4021 247.102 18.4499 247.43 19.45L247.34 19.47ZM247.5 13.47V16.5999C247.57 17.3299 247.64 17.9799 247.72 17.1799C247.83 15.6099 247.61 14.1799 247.54 12.1799L247.5 13.47ZM237.25 1.57007H239.69C238.903 1.47381 238.108 1.46708 237.32 1.55005L237.25 1.57007ZM215.75 2.07007C216.269 2.11482 216.791 2.11482 217.31 2.07007C215.39 2.07007 217.18 1.88997 215.5 1.96997L215.27 2.18994C217.02 2.20994 215.22 2.11005 215.82 2.05005L215.75 2.07007ZM209.98 2.22998L207.83 2.32007L209.51 2.57007C212.11 2.46007 209.7 2.40996 210.05 2.20996L209.98 2.22998ZM121.15 31.45L118.33 31.54L118.75 31.4399C116.75 31.3399 117.45 31.6 115.33 31.52C115.13 31.66 115.63 31.64 114.01 31.73C116.23 31.65 118.13 31.6799 120.67 31.6499C120.31 31.5499 122.2 31.3999 121.22 31.4299L121.15 31.45ZM104.48 2.83984C104.11 2.83984 102.7 2.89996 103.14 2.95996C103.87 2.87996 104.78 2.95007 104.55 2.82007L104.48 2.83984ZM72.3 31.28L71.77 31.3599L73.95 31.1399C71.4399 31.1399 71.09 31.2801 68.95 31.3101C69.8999 31.3601 71.1999 31.2 72.3699 31.26L72.3 31.28ZM69.1799 31.0701C68.847 31.0927 68.5129 31.0927 68.1799 31.0701C67.6499 31.1401 67.97 31.21 68.29 31.27L69.1799 31.0701ZM78.5898 3.07007C79.4198 3.07007 79.83 3.07007 80.02 3.07007H78.5898ZM115.89 3.07007C116.892 3.11795 117.896 3.07431 118.89 2.93994C117.48 2.98994 116.24 3.01988 114.59 3.12988C115.26 3.03988 116.02 3.10995 115.96 2.94995L115.89 3.07007ZM114.26 2.65991C114.432 2.69424 114.605 2.71769 114.78 2.72998H115.56L114.26 2.65991ZM125.92 3.03003H124.77H125.92ZM147.02 2.52002C147.111 2.54847 147.209 2.54847 147.3 2.52002H147.02ZM147.42 2.52002C147.53 2.58002 148.29 2.52002 147.42 2.52002V2.52002ZM155.35 2.26001H156.24C156.54 2.26001 156.85 2.26001 157.24 2.26001H156.24C156.03 2.14001 155.75 2.12989 155.43 2.13989L155.35 2.26001ZM168.42 2.19995C168.005 2.15387 167.587 2.13378 167.17 2.13989L168.42 2.19995ZM170.09 2.66992H170.63C172.2 2.66992 176.11 2.67004 175.89 2.54004C174.97 2.46004 171.95 2.59992 170.63 2.66992H170.09ZM178.14 2.11987H178.73H178.64H178.14ZM194.07 2.35986H193.89C193.91 2.25986 194.05 2.25999 194.14 2.23999L194.07 2.35986ZM207.07 2.12988L203.84 2.46997C205.77 2.32997 205.89 2.34993 207.32 2.17993L207.07 2.12988ZM63.5999 31.4099L64.76 31.28C63.7 31.28 62.7099 31.28 61.8699 31.28C61.3399 31.4 62.4299 31.15 63.6899 31.29L63.5999 31.4099ZM96.73 31.27H96.1799H96.73ZM224.86 2.35986C225.98 2.45836 227.107 2.47846 228.23 2.41992C227.141 2.30297 226.046 2.24296 224.95 2.23999L224.86 2.35986ZM221.38 2.35986C222.58 2.40986 223.31 2.54003 224.75 2.53003C223.965 2.30355 223.143 2.22892 222.33 2.31006L222.93 2.1499C221.43 1.9499 223.64 2.27001 221.43 2.26001L221.38 2.35986ZM218.7 1.03003L218.99 0.969971L218.7 1.03003ZM216.49 1.6499H218.76C218.318 1.50648 217.853 1.45219 217.39 1.48999C217.119 1.49334 216.848 1.51344 216.58 1.55005L216.49 1.6499ZM240.71 2.10986C239.794 1.99302 238.866 1.99302 237.95 2.10986C239.39 2.04986 238.31 2.17993 239.51 2.17993L240.71 2.10986ZM233.71 1.02002C233.244 0.993396 232.776 0.993396 232.31 1.02002C232.811 1.05205 233.314 1.02851 233.81 0.949951L233.71 1.02002ZM82.28 0.47998L83.28 0.419922C82.9978 0.389364 82.7138 0.375966 82.4299 0.379883L82.28 0.47998ZM215.1 1.03003H215.23C215.24 0.950029 215.2 0.949951 215.2 0.949951L215.1 1.03003ZM243.05 32.6499C242.624 32.7263 242.192 32.7633 241.76 32.76C241.04 32.81 242.15 32.8 243.15 32.55L243.05 32.6499ZM246.77 29.6499C246.69 29.8185 246.6 29.9821 246.5 30.1399L246.67 29.95C246.896 29.542 247.074 29.1091 247.2 28.6599C247.113 28.9164 247.009 29.1669 246.89 29.4099C246.94 29.4199 246.9 29.49 246.87 29.55L246.77 29.6499ZM248.17 12.9299L248.11 14.49C248.186 14.0933 248.239 13.6927 248.27 13.29L248.17 12.9299ZM247.81 19.78V21.7C247.65 23.51 247.59 20.51 247.49 21.7C247.49 24.1 247.82 22.52 247.77 25.53C247.92 25.29 247.77 20.72 248 21.2C248.21 18.6 247.99 20.9999 247.91 19.6799L247.81 19.78ZM247.29 29.3101C246.924 30.0903 246.452 30.8169 245.89 31.47C246.809 30.722 247.455 29.6924 247.73 28.54C247.846 28.0525 247.89 27.5504 247.86 27.05C247.854 26.7844 247.807 26.5212 247.72 26.27C247.867 27.2589 247.767 28.2688 247.43 29.21L247.29 29.3101ZM12.29 32.78C14.03 32.78 13.82 32.8498 15.98 32.8398C14.7778 32.7114 13.5687 32.6581 12.3599 32.6799L12.29 32.78ZM247.19 29.4299C247.377 28.8788 247.479 28.302 247.49 27.72C247.452 28.2085 247.348 28.6896 247.18 29.1499C247.209 29.2089 247.236 29.2689 247.26 29.3298L247.19 29.4299ZM222.43 0.949951H222.49C222.43 0.949951 222.43 0.949951 222.43 0.949951ZM163.43 33.95C162.69 33.95 162.26 33.8999 161.55 33.8699C159.98 34.0899 164.8 33.8701 162.55 34.0701C163.24 34.0701 163.79 34.07 164.3 34.01L163.3 33.8C161.94 33.9501 164.23 33.8899 163.43 33.95ZM138.82 33.8599H137.99C138.275 33.8974 138.563 33.9042 138.85 33.8799L138.82 33.8599ZM21.0698 33.3298H20.75C20.97 33.4298 20.75 33.45 21.99 33.51C22.99 33.36 21.41 33.15 23.22 32.99C22.87 32.99 22.3499 32.99 21.8599 32.99C22.6299 33.11 21.8999 33.2399 21.0999 33.3499L21.0698 33.3298ZM0.429932 19.0999C0.429932 19.0999 0.429932 19.0899 0.429932 19.0999V19.0999ZM21.8899 32.98H21.8398L21.5698 32.9299C21.3098 32.9299 21.0599 32.9299 20.8499 32.9299C21.1958 32.9578 21.5431 32.9645 21.8899 32.95V32.98ZM199.1 33.6399H198.91H199.1ZM2.57983 31.04C2.49983 30.95 2.41985 30.87 2.34985 30.78L2.57983 31.04ZM15.02 32.8799H10.5999H11.8899C12.4999 32.8099 14.43 33.0199 15.02 32.8799ZM3.46997 31.8799C3.22997 31.6899 3.01001 31.46 2.76001 31.22L2.57983 31.03C2.83348 31.3446 3.11836 31.6326 3.42993 31.8899L3.46997 31.8799ZM0.409912 27.02C0.409912 26.78 0.409912 26.6101 0.409912 26.3101C0.429912 26.6201 0.429932 26.8 0.429932 27.03L0.409912 27.02ZM11.8899 32.9099C11.8285 32.9194 11.7702 32.9434 11.72 32.98H11.78L12.1299 32.9099H11.8899Z" fill="white"/>
</svg>
