<svg width="323" height="103" viewBox="0 0 323 103" fill="none" xmlns="http://www.w3.org/2000/svg">
<ellipse cx="168.5" cy="52.5" rx="141.5" ry="42.5" fill="#C41A1F"/>
<path d="M96.6536 33.922C96.6883 32.6913 96.931 31.66 97.3816 30.828C97.8323 29.9787 98.4303 29.294 99.1756 28.774C99.921 28.254 100.779 27.8813 101.75 27.656C102.738 27.4133 103.769 27.292 104.844 27.292C105.745 27.292 106.629 27.3787 107.496 27.552C108.38 27.708 109.177 27.8553 109.888 27.994C110.13 28.046 110.304 27.9767 110.408 27.786C110.512 27.5953 110.572 27.3873 110.59 27.162H113.684C113.684 27.7687 113.666 28.3667 113.632 28.956C113.614 29.528 113.606 30.1173 113.606 30.724C113.606 31.1573 113.614 31.582 113.632 31.998C113.666 32.414 113.684 32.8387 113.684 33.272H110.59C110.555 32.6133 110.442 32.076 110.252 31.66C110.061 31.244 109.645 30.8973 109.004 30.62C108.778 30.5507 108.475 30.4727 108.094 30.386C107.73 30.2993 107.331 30.23 106.898 30.178C106.482 30.1087 106.057 30.0827 105.624 30.1C105.19 30.1 104.8 30.152 104.454 30.256C104.107 30.36 103.821 30.5333 103.596 30.776C103.388 31.0013 103.284 31.322 103.284 31.738C103.284 32.1887 103.457 32.5353 103.804 32.778C104.15 33.0033 104.61 33.1853 105.182 33.324C105.754 33.4453 106.404 33.5493 107.132 33.636C107.877 33.7053 108.622 33.8093 109.368 33.948C110.13 34.0693 110.876 34.26 111.604 34.52C112.349 34.78 113.008 35.1527 113.58 35.638C114.152 36.106 114.611 36.7213 114.958 37.484C115.304 38.2467 115.478 39.2 115.478 40.344C115.478 41.748 115.226 42.8833 114.724 43.75C114.221 44.5993 113.554 45.2667 112.722 45.752C111.907 46.2373 110.962 46.5667 109.888 46.74C108.83 46.896 107.738 46.974 106.612 46.974C106.092 46.974 105.563 46.9393 105.026 46.87C104.506 46.8007 103.994 46.7227 103.492 46.636C102.989 46.532 102.504 46.4453 102.036 46.376C101.568 46.3067 101.117 46.272 100.684 46.272C100.441 46.272 100.268 46.3587 100.164 46.532C100.06 46.688 99.999 46.8787 99.9816 47.104H96.8876C96.8876 46.4973 96.8963 45.908 96.9136 45.336C96.9483 44.7467 96.9656 44.1487 96.9656 43.542C96.9656 43.1087 96.9483 42.684 96.9136 42.268C96.8963 41.852 96.8876 41.4273 96.8876 40.994H99.9816C100.016 41.6527 100.129 42.19 100.32 42.606C100.51 43.022 100.926 43.3687 101.568 43.646C101.81 43.7153 102.148 43.7933 102.582 43.88C103.032 43.9667 103.518 44.0447 104.038 44.114C104.575 44.166 105.121 44.192 105.676 44.192C106.23 44.192 106.733 44.14 107.184 44.036C107.634 43.932 107.998 43.7587 108.276 43.516C108.57 43.2733 108.718 42.944 108.718 42.528C108.718 42.1293 108.536 41.826 108.172 41.618C107.825 41.41 107.366 41.2453 106.794 41.124C106.222 40.9853 105.572 40.8727 104.844 40.786C104.116 40.682 103.37 40.552 102.608 40.396C101.845 40.2227 101.1 39.9973 100.372 39.72C99.6436 39.4427 99.0023 39.0613 98.4476 38.576C97.893 38.0907 97.451 37.4753 97.1216 36.73C96.7923 35.9673 96.6363 35.0313 96.6536 33.922ZM117.808 42.866C118.051 42.8487 118.294 42.814 118.536 42.762C118.779 42.71 118.996 42.632 119.186 42.528C119.377 42.4067 119.533 42.2507 119.654 42.06C119.776 41.852 119.836 41.592 119.836 41.28V33.012C119.836 32.7 119.776 32.4487 119.654 32.258C119.533 32.05 119.377 31.894 119.186 31.79C118.996 31.6687 118.779 31.582 118.536 31.53C118.294 31.478 118.051 31.4433 117.808 31.426V27.292C118.692 27.2573 119.568 27.2833 120.434 27.37C121.318 27.4393 122.202 27.474 123.086 27.474C123.97 27.474 124.846 27.448 125.712 27.396C126.579 27.3267 127.454 27.292 128.338 27.292V31.426C128.096 31.4433 127.853 31.478 127.61 31.53C127.368 31.582 127.151 31.6687 126.96 31.79C126.77 31.894 126.614 32.05 126.492 32.258C126.371 32.4487 126.31 32.7 126.31 33.012V41.28C126.31 41.592 126.371 41.852 126.492 42.06C126.614 42.2507 126.77 42.4067 126.96 42.528C127.151 42.632 127.368 42.71 127.61 42.762C127.853 42.814 128.096 42.8487 128.338 42.866V47C127.454 47.0347 126.579 47.0173 125.712 46.948C124.846 46.8613 123.97 46.818 123.086 46.818C122.202 46.818 121.318 46.8527 120.434 46.922C119.568 46.974 118.692 47 117.808 47V42.866ZM142.783 43.516C143.337 43.516 143.736 43.4293 143.979 43.256C144.239 43.0827 144.403 42.8487 144.473 42.554C144.559 42.2593 144.594 41.9127 144.577 41.514C144.559 41.1153 144.551 40.6993 144.551 40.266C144.551 39.6593 144.351 39.252 143.953 39.044C143.554 38.8187 142.869 38.6973 141.899 38.68V35.326C143.615 35.4127 145.374 35.456 147.177 35.456C148.979 35.456 150.73 35.4127 152.429 35.326V38.68C152.186 38.6973 151.943 38.732 151.701 38.784C151.458 38.836 151.241 38.9227 151.051 39.044C150.86 39.148 150.704 39.304 150.583 39.512C150.461 39.7027 150.401 39.954 150.401 40.266V46.792H149.283L146.631 45.18C145.903 45.7347 145.088 46.168 144.187 46.48C143.303 46.792 142.341 46.9913 141.301 47.078C137.765 47.3207 135.069 46.5753 133.215 44.842C131.36 43.1087 130.433 40.5173 130.433 37.068C130.433 35.4733 130.667 34.052 131.135 32.804C131.62 31.556 132.305 30.5073 133.189 29.658C134.073 28.8087 135.147 28.1673 136.413 27.734C137.678 27.2833 139.099 27.058 140.677 27.058C141.422 27.058 142.159 27.1273 142.887 27.266C143.632 27.3873 144.334 27.604 144.993 27.916C145.305 28.0547 145.565 28.0547 145.773 27.916C145.981 27.76 146.102 27.5087 146.137 27.162H149.231C149.231 27.7687 149.213 28.3667 149.179 28.956C149.161 29.528 149.153 30.1173 149.153 30.724C149.153 31.3653 149.17 32.0067 149.205 32.648C149.239 33.2893 149.248 33.9307 149.231 34.572H146.137C146.119 33.9653 146.033 33.376 145.877 32.804C145.738 32.2147 145.521 31.6947 145.227 31.244C144.949 30.7933 144.577 30.438 144.109 30.178C143.658 29.9007 143.103 29.762 142.445 29.762C141.578 29.762 140.867 30.0047 140.313 30.49C139.775 30.958 139.351 31.5473 139.039 32.258C138.744 32.9513 138.545 33.7053 138.441 34.52C138.337 35.3347 138.285 36.0887 138.285 36.782C138.285 37.51 138.345 38.2727 138.467 39.07C138.605 39.8673 138.839 40.5953 139.169 41.254C139.498 41.9127 139.957 42.4587 140.547 42.892C141.136 43.308 141.881 43.516 142.783 43.516ZM153.975 42.866C154.235 42.8487 154.486 42.814 154.729 42.762C154.972 42.71 155.188 42.6233 155.379 42.502C155.57 42.3807 155.717 42.2247 155.821 42.034C155.942 41.826 156.003 41.5747 156.003 41.28V33.012C156.003 32.7173 155.942 32.4747 155.821 32.284C155.717 32.076 155.57 31.9113 155.379 31.79C155.188 31.6687 154.972 31.582 154.729 31.53C154.486 31.478 154.235 31.4433 153.975 31.426V27.292C154.807 27.3613 155.63 27.4133 156.445 27.448C157.26 27.4653 158.083 27.474 158.915 27.474C159.799 27.474 160.674 27.4567 161.541 27.422C162.425 27.3873 163.309 27.344 164.193 27.292L169.523 39.928V33.012C169.523 32.7173 169.462 32.4747 169.341 32.284C169.237 32.076 169.09 31.9113 168.899 31.79C168.708 31.6687 168.492 31.582 168.249 31.53C168.006 31.478 167.755 31.4433 167.495 31.426V27.292H167.807C168.362 27.292 168.899 27.3093 169.419 27.344C169.956 27.3787 170.494 27.396 171.031 27.396C171.586 27.396 172.14 27.3787 172.695 27.344C173.267 27.3093 173.83 27.292 174.385 27.292V31.426C174.125 31.4433 173.874 31.478 173.631 31.53C173.388 31.582 173.172 31.6687 172.981 31.79C172.79 31.9113 172.634 32.076 172.513 32.284C172.409 32.4747 172.357 32.7173 172.357 33.012V46.974C171.664 46.922 170.97 46.8787 170.277 46.844C169.584 46.8093 168.89 46.792 168.197 46.792C166.845 46.792 165.493 46.87 164.141 47.026L158.863 35.014C158.863 36.054 158.854 37.1027 158.837 38.16C158.837 39.2 158.837 40.24 158.837 41.28C158.837 41.5747 158.889 41.826 158.993 42.034C159.114 42.2247 159.27 42.3807 159.461 42.502C159.652 42.6233 159.868 42.71 160.111 42.762C160.354 42.814 160.605 42.8487 160.865 42.866V47H160.631C160.111 47 159.591 46.974 159.071 46.922C158.551 46.87 158.022 46.844 157.485 46.844C156.896 46.844 156.306 46.87 155.717 46.922C155.145 46.974 154.564 47 153.975 47V42.866ZM186.823 42.866C187.083 42.8487 187.334 42.814 187.577 42.762C187.82 42.71 188.036 42.6233 188.227 42.502C188.418 42.3807 188.565 42.2247 188.669 42.034C188.79 41.826 188.851 41.5747 188.851 41.28V31.4C188.435 31.4173 188.123 31.53 187.915 31.738C187.724 31.946 187.586 32.206 187.499 32.518C187.43 32.83 187.395 33.1593 187.395 33.506C187.395 33.8527 187.386 34.1733 187.369 34.468H183.235C183.304 34.052 183.339 33.636 183.339 33.22C183.356 32.804 183.365 32.388 183.365 31.972C183.365 31.1747 183.365 30.386 183.365 29.606C183.365 28.8087 183.322 28.02 183.235 27.24C186.13 27.396 189.016 27.474 191.893 27.474C194.909 27.474 197.925 27.396 200.941 27.24C200.854 28.02 200.811 28.8087 200.811 29.606C200.811 30.386 200.811 31.1747 200.811 31.972C200.811 32.388 200.811 32.804 200.811 33.22C200.828 33.636 200.872 34.052 200.941 34.468H196.807C196.79 34.1733 196.781 33.8527 196.781 33.506C196.798 33.1593 196.764 32.83 196.677 32.518C196.608 32.206 196.469 31.946 196.261 31.738C196.053 31.53 195.741 31.4173 195.325 31.4V41.28C195.325 41.5747 195.377 41.826 195.481 42.034C195.602 42.2247 195.758 42.3807 195.949 42.502C196.14 42.6233 196.356 42.71 196.599 42.762C196.842 42.814 197.093 42.8487 197.353 42.866V47C196.469 47 195.594 46.974 194.727 46.922C193.86 46.8527 192.985 46.818 192.101 46.818C191.217 46.818 190.333 46.8527 189.449 46.922C188.582 46.974 187.707 47 186.823 47V42.866ZM203.273 42.866C203.516 42.8487 203.759 42.814 204.001 42.762C204.244 42.71 204.461 42.632 204.651 42.528C204.842 42.4067 204.998 42.2507 205.119 42.06C205.241 41.852 205.301 41.592 205.301 41.28V33.012C205.301 32.7 205.241 32.4487 205.119 32.258C204.998 32.05 204.842 31.894 204.651 31.79C204.461 31.6687 204.244 31.582 204.001 31.53C203.759 31.478 203.516 31.4433 203.273 31.426V27.292C204.157 27.2573 205.033 27.2833 205.899 27.37C206.783 27.4393 207.667 27.474 208.551 27.474C209.435 27.474 210.311 27.448 211.177 27.396C212.044 27.3267 212.919 27.292 213.803 27.292V31.426C213.561 31.4433 213.318 31.478 213.075 31.53C212.833 31.582 212.616 31.6687 212.425 31.79C212.235 31.894 212.079 32.05 211.957 32.258C211.836 32.4487 211.775 32.7 211.775 33.012V36.314H217.521V33.012C217.521 32.7 217.461 32.4487 217.339 32.258C217.218 32.05 217.062 31.894 216.871 31.79C216.681 31.6687 216.464 31.582 216.221 31.53C215.979 31.478 215.736 31.4433 215.493 31.426V27.292C216.377 27.2573 217.253 27.2833 218.119 27.37C219.003 27.4393 219.887 27.474 220.771 27.474C221.655 27.474 222.531 27.448 223.397 27.396C224.264 27.3267 225.139 27.292 226.023 27.292V31.426C225.781 31.4433 225.538 31.478 225.295 31.53C225.053 31.582 224.836 31.6687 224.645 31.79C224.455 31.894 224.299 32.05 224.177 32.258C224.056 32.4487 223.995 32.7 223.995 33.012V41.28C223.995 41.592 224.056 41.852 224.177 42.06C224.299 42.2507 224.455 42.4067 224.645 42.528C224.836 42.632 225.053 42.71 225.295 42.762C225.538 42.814 225.781 42.8487 226.023 42.866V47C225.139 47.0347 224.264 47.0173 223.397 46.948C222.531 46.8613 221.655 46.818 220.771 46.818C219.887 46.818 219.003 46.8527 218.119 46.922C217.253 46.974 216.377 47 215.493 47V42.866C215.736 42.8487 215.979 42.814 216.221 42.762C216.464 42.71 216.681 42.632 216.871 42.528C217.062 42.4067 217.218 42.2507 217.339 42.06C217.461 41.852 217.521 41.592 217.521 41.28V38.628H211.775V41.28C211.775 41.592 211.836 41.852 211.957 42.06C212.079 42.2507 212.235 42.4067 212.425 42.528C212.616 42.632 212.833 42.71 213.075 42.762C213.318 42.814 213.561 42.8487 213.803 42.866V47C212.919 47.0347 212.044 47.0173 211.177 46.948C210.311 46.8613 209.435 46.818 208.551 46.818C207.667 46.818 206.783 46.8527 205.899 46.922C205.033 46.974 204.157 47 203.273 47V42.866ZM239.336 39.33C239.319 39.0873 239.232 38.9053 239.076 38.784C238.92 38.6453 238.721 38.5413 238.478 38.472C238.253 38.4027 238.002 38.368 237.724 38.368C237.447 38.3507 237.161 38.342 236.866 38.342V41.28C236.866 41.956 237.04 42.398 237.386 42.606C237.733 42.7967 238.21 42.892 238.816 42.892C239.302 42.892 239.683 42.814 239.96 42.658C240.238 42.4847 240.446 42.2593 240.584 41.982C240.723 41.6873 240.81 41.358 240.844 40.994C240.896 40.63 240.931 40.24 240.948 39.824H245.082C244.996 40.3787 244.952 40.9333 244.952 41.488C244.952 42.0427 244.952 42.5973 244.952 43.152C244.952 43.8107 244.952 44.4693 244.952 45.128C244.97 45.7693 245.013 46.4107 245.082 47.052C243.349 47.0867 241.607 47.0693 239.856 47C238.123 46.9133 236.39 46.87 234.656 46.87C233.599 46.87 232.55 46.896 231.51 46.948C230.47 46.9827 229.422 47 228.364 47V42.866C228.607 42.8487 228.85 42.814 229.092 42.762C229.335 42.71 229.552 42.632 229.742 42.528C229.933 42.4067 230.089 42.2507 230.21 42.06C230.332 41.852 230.392 41.592 230.392 41.28V33.064C230.392 32.752 230.332 32.5007 230.21 32.31C230.089 32.102 229.933 31.946 229.742 31.842C229.552 31.7207 229.335 31.634 229.092 31.582C228.85 31.53 228.607 31.4953 228.364 31.478V27.344C229.404 27.3267 230.436 27.344 231.458 27.396C232.481 27.448 233.512 27.474 234.552 27.474C236.199 27.474 237.906 27.448 239.674 27.396C241.46 27.3267 243.176 27.292 244.822 27.292C244.753 27.9333 244.71 28.5833 244.692 29.242C244.692 29.8833 244.692 30.5333 244.692 31.192C244.692 31.7467 244.692 32.3013 244.692 32.856C244.692 33.4107 244.736 33.9653 244.822 34.52H240.688C240.671 34.1387 240.654 33.766 240.636 33.402C240.636 33.038 240.584 32.7173 240.48 32.44C240.394 32.1453 240.229 31.9113 239.986 31.738C239.744 31.5473 239.388 31.452 238.92 31.452C238.314 31.452 237.82 31.556 237.438 31.764C237.057 31.9547 236.866 32.388 236.866 33.064V36.028C237.161 36.028 237.447 36.028 237.724 36.028C238.019 36.0107 238.279 35.9673 238.504 35.898C238.747 35.8287 238.938 35.7333 239.076 35.612C239.232 35.4733 239.319 35.2827 239.336 35.04H241.65C241.616 35.3867 241.59 35.742 241.572 36.106C241.555 36.47 241.546 36.8253 241.546 37.172C241.546 37.536 241.555 37.9 241.572 38.264C241.59 38.6107 241.616 38.966 241.65 39.33H239.336ZM77.6862 70.866C77.9462 70.8487 78.1975 70.814 78.4402 70.762C78.6829 70.71 78.8995 70.6233 79.0902 70.502C79.2809 70.3807 79.4282 70.2247 79.5322 70.034C79.6535 69.826 79.7142 69.5747 79.7142 69.28V61.012C79.7142 60.7173 79.6535 60.4747 79.5322 60.284C79.4282 60.076 79.2809 59.9113 79.0902 59.79C78.8995 59.6687 78.6829 59.582 78.4402 59.53C78.1975 59.478 77.9462 59.4433 77.6862 59.426V55.292C78.5355 55.3613 79.3762 55.4133 80.2082 55.448C81.0575 55.4827 81.9155 55.5 82.7822 55.5C83.7009 55.5 84.6109 55.4827 85.5122 55.448C86.4309 55.4133 87.3495 55.3613 88.2682 55.292L92.6362 67.304L97.0042 55.292C97.7495 55.3613 98.4949 55.4133 99.2402 55.448C99.9855 55.4653 100.74 55.474 101.502 55.474C102.213 55.474 102.915 55.4653 103.608 55.448C104.319 55.4133 105.03 55.3613 105.74 55.292V59.426C105.48 59.4433 105.229 59.478 104.986 59.53C104.744 59.582 104.527 59.6687 104.336 59.79C104.146 59.9113 103.99 60.076 103.868 60.284C103.764 60.4747 103.712 60.7173 103.712 61.012V69.28C103.712 69.5747 103.764 69.826 103.868 70.034C103.99 70.2247 104.146 70.3807 104.336 70.502C104.527 70.6233 104.744 70.71 104.986 70.762C105.229 70.814 105.48 70.8487 105.74 70.866V75H105.428C104.596 75 103.773 74.974 102.958 74.922C102.144 74.8527 101.32 74.818 100.488 74.818C99.6042 74.818 98.7202 74.8527 97.8362 74.922C96.9695 74.974 96.0942 75 95.2102 75V70.866C95.4702 70.8487 95.7215 70.814 95.9642 70.762C96.2069 70.71 96.4235 70.6233 96.6142 70.502C96.8049 70.3807 96.9522 70.2247 97.0562 70.034C97.1775 69.826 97.2382 69.5747 97.2382 69.28V62.936L92.7662 75.026H86.9162L82.5742 63.274C82.5742 64.2793 82.5655 65.2847 82.5482 66.29C82.5482 67.278 82.5482 68.2747 82.5482 69.28C82.5482 69.5747 82.6002 69.826 82.7042 70.034C82.8255 70.2247 82.9815 70.3807 83.1722 70.502C83.3629 70.6233 83.5795 70.71 83.8222 70.762C84.0649 70.814 84.3162 70.8487 84.5762 70.866V75H84.3682C83.9002 75 83.4322 74.974 82.9642 74.922C82.5135 74.87 82.0542 74.844 81.5862 74.844C80.9275 74.844 80.2775 74.87 79.6362 74.922C78.9949 74.974 78.3449 75 77.6862 75V70.866ZM108.084 70.866C108.379 70.8487 108.691 70.814 109.02 70.762C109.367 70.71 109.696 70.632 110.008 70.528C110.32 70.4067 110.606 70.2507 110.866 70.06C111.126 69.852 111.308 69.592 111.412 69.28C111.499 69.0547 111.62 68.6993 111.776 68.214C111.949 67.7113 112.14 67.148 112.348 66.524C112.556 65.8827 112.764 65.2153 112.972 64.522C113.197 63.8287 113.397 63.1787 113.57 62.572C113.761 61.9653 113.908 61.4367 114.012 60.986C114.133 60.5353 114.194 60.2407 114.194 60.102C114.194 59.946 114.151 59.8247 114.064 59.738C113.995 59.634 113.899 59.5647 113.778 59.53C113.674 59.478 113.553 59.452 113.414 59.452C113.275 59.4347 113.145 59.426 113.024 59.426V55.292C113.804 55.344 114.567 55.3787 115.312 55.396C116.057 55.4133 116.82 55.422 117.6 55.422C118.363 55.422 119.108 55.422 119.836 55.422C120.581 55.4047 121.335 55.37 122.098 55.318L126.206 69.28C126.345 69.748 126.587 70.1207 126.934 70.398C127.298 70.6753 127.731 70.8313 128.234 70.866V75C127.35 75 126.466 74.974 125.582 74.922C124.715 74.8527 123.84 74.818 122.956 74.818C122.159 74.818 121.37 74.8527 120.59 74.922C119.81 74.974 119.021 75 118.224 75H117.704V70.866C117.895 70.866 118.103 70.8487 118.328 70.814C118.571 70.762 118.796 70.6927 119.004 70.606C119.229 70.5193 119.411 70.398 119.55 70.242C119.706 70.086 119.784 69.8867 119.784 69.644C119.784 69.3493 119.723 69.0633 119.602 68.786C119.498 68.5087 119.403 68.2313 119.316 67.954H114.896C114.809 68.214 114.714 68.4913 114.61 68.786C114.506 69.0633 114.454 69.3407 114.454 69.618C114.454 69.8607 114.523 70.06 114.662 70.216C114.818 70.372 115 70.502 115.208 70.606C115.433 70.6927 115.667 70.762 115.91 70.814C116.153 70.8487 116.361 70.866 116.534 70.866V75C115.823 75 115.121 74.974 114.428 74.922C113.735 74.8527 113.033 74.818 112.322 74.818C111.611 74.818 110.901 74.8527 110.19 74.922C109.497 74.974 108.795 75 108.084 75V70.866ZM118.536 65.77L117.002 60.83L115.598 65.77H118.536ZM130.585 70.866C130.845 70.8487 131.096 70.814 131.339 70.762C131.582 70.71 131.798 70.6233 131.989 70.502C132.18 70.3807 132.327 70.2247 132.431 70.034C132.552 69.826 132.613 69.5747 132.613 69.28V61.012C132.613 60.7173 132.552 60.4747 132.431 60.284C132.327 60.076 132.18 59.9113 131.989 59.79C131.798 59.6687 131.582 59.582 131.339 59.53C131.096 59.478 130.845 59.4433 130.585 59.426V55.292C131.417 55.3613 132.24 55.4133 133.055 55.448C133.87 55.4653 134.693 55.474 135.525 55.474C136.409 55.474 137.284 55.4567 138.151 55.422C139.035 55.3873 139.919 55.344 140.803 55.292L146.133 67.928V61.012C146.133 60.7173 146.072 60.4747 145.951 60.284C145.847 60.076 145.7 59.9113 145.509 59.79C145.318 59.6687 145.102 59.582 144.859 59.53C144.616 59.478 144.365 59.4433 144.105 59.426V55.292H144.417C144.972 55.292 145.509 55.3093 146.029 55.344C146.566 55.3787 147.104 55.396 147.641 55.396C148.196 55.396 148.75 55.3787 149.305 55.344C149.877 55.3093 150.44 55.292 150.995 55.292V59.426C150.735 59.4433 150.484 59.478 150.241 59.53C149.998 59.582 149.782 59.6687 149.591 59.79C149.4 59.9113 149.244 60.076 149.123 60.284C149.019 60.4747 148.967 60.7173 148.967 61.012V74.974C148.274 74.922 147.58 74.8787 146.887 74.844C146.194 74.8093 145.5 74.792 144.807 74.792C143.455 74.792 142.103 74.87 140.751 75.026L135.473 63.014C135.473 64.054 135.464 65.1027 135.447 66.16C135.447 67.2 135.447 68.24 135.447 69.28C135.447 69.5747 135.499 69.826 135.603 70.034C135.724 70.2247 135.88 70.3807 136.071 70.502C136.262 70.6233 136.478 70.71 136.721 70.762C136.964 70.814 137.215 70.8487 137.475 70.866V75H137.241C136.721 75 136.201 74.974 135.681 74.922C135.161 74.87 134.632 74.844 134.095 74.844C133.506 74.844 132.916 74.87 132.327 74.922C131.755 74.974 131.174 75 130.585 75V70.866ZM153.34 70.866C153.583 70.8487 153.825 70.814 154.068 70.762C154.311 70.71 154.527 70.632 154.718 70.528C154.909 70.4067 155.065 70.2507 155.186 70.06C155.307 69.852 155.368 69.592 155.368 69.28V61.012C155.368 60.7 155.307 60.4487 155.186 60.258C155.065 60.05 154.909 59.894 154.718 59.79C154.527 59.6687 154.311 59.582 154.068 59.53C153.825 59.478 153.583 59.4433 153.34 59.426V55.292C154.224 55.2573 155.099 55.2833 155.966 55.37C156.85 55.4393 157.734 55.474 158.618 55.474C159.502 55.474 160.377 55.448 161.244 55.396C162.111 55.3267 162.986 55.292 163.87 55.292V59.426C163.627 59.4433 163.385 59.478 163.142 59.53C162.899 59.582 162.683 59.6687 162.492 59.79C162.301 59.894 162.145 60.05 162.024 60.258C161.903 60.4487 161.842 60.7 161.842 61.012V69.28C161.842 69.592 161.903 69.852 162.024 70.06C162.145 70.2507 162.301 70.4067 162.492 70.528C162.683 70.632 162.899 70.71 163.142 70.762C163.385 70.814 163.627 70.8487 163.87 70.866V75C162.986 75.0347 162.111 75.0173 161.244 74.948C160.377 74.8613 159.502 74.818 158.618 74.818C157.734 74.818 156.85 74.8527 155.966 74.922C155.099 74.974 154.224 75 153.34 75V70.866ZM166.218 70.866C166.461 70.8487 166.704 70.814 166.946 70.762C167.189 70.71 167.406 70.632 167.596 70.528C167.787 70.4067 167.943 70.2507 168.064 70.06C168.186 69.852 168.246 69.592 168.246 69.28V61.012C168.246 60.7 168.186 60.4487 168.064 60.258C167.943 60.05 167.787 59.894 167.596 59.79C167.406 59.6687 167.189 59.582 166.946 59.53C166.704 59.478 166.461 59.4433 166.218 59.426V55.292C167.258 55.2747 168.29 55.292 169.312 55.344C170.335 55.396 171.366 55.422 172.406 55.422C174.053 55.422 175.76 55.396 177.528 55.344C179.314 55.2747 181.03 55.24 182.676 55.24C182.607 55.8813 182.564 56.5313 182.546 57.19C182.546 57.8313 182.546 58.4813 182.546 59.14C182.546 59.6947 182.546 60.2493 182.546 60.804C182.546 61.3587 182.59 61.9133 182.676 62.468H178.542C178.525 62.0867 178.508 61.714 178.49 61.35C178.49 60.986 178.438 60.6653 178.334 60.388C178.248 60.0933 178.083 59.8593 177.84 59.686C177.598 59.4953 177.242 59.4 176.774 59.4C176.168 59.4 175.674 59.504 175.292 59.712C174.911 59.9027 174.72 60.336 174.72 61.012V64.08C175.032 64.08 175.327 64.08 175.604 64.08C175.899 64.08 176.159 64.054 176.384 64.002C176.61 63.9327 176.792 63.8287 176.93 63.69C177.086 63.5513 177.173 63.352 177.19 63.092H179.504C179.47 63.4387 179.444 63.794 179.426 64.158C179.409 64.522 179.4 64.8773 179.4 65.224C179.4 65.588 179.409 65.952 179.426 66.316C179.444 66.6627 179.47 67.018 179.504 67.382H177.19C177.173 67.1393 177.086 66.9573 176.93 66.836C176.774 66.6973 176.575 66.5933 176.332 66.524C176.107 66.4547 175.856 66.42 175.578 66.42C175.301 66.4027 175.015 66.394 174.72 66.394V69.28C174.72 69.592 174.781 69.852 174.902 70.06C175.024 70.2507 175.18 70.4067 175.37 70.528C175.561 70.632 175.778 70.71 176.02 70.762C176.263 70.814 176.506 70.8487 176.748 70.866V75C175.864 75.0347 174.989 75.0173 174.122 74.948C173.256 74.8613 172.38 74.818 171.496 74.818C170.612 74.818 169.728 74.8527 168.844 74.922C167.978 74.974 167.102 75 166.218 75V70.866ZM195.984 67.33C195.967 67.0873 195.88 66.9053 195.724 66.784C195.568 66.6453 195.369 66.5413 195.126 66.472C194.901 66.4027 194.65 66.368 194.372 66.368C194.095 66.3507 193.809 66.342 193.514 66.342V69.28C193.514 69.956 193.688 70.398 194.034 70.606C194.381 70.7967 194.858 70.892 195.464 70.892C195.95 70.892 196.331 70.814 196.608 70.658C196.886 70.4847 197.094 70.2593 197.232 69.982C197.371 69.6873 197.458 69.358 197.492 68.994C197.544 68.63 197.579 68.24 197.596 67.824H201.73C201.644 68.3787 201.6 68.9333 201.6 69.488C201.6 70.0427 201.6 70.5973 201.6 71.152C201.6 71.8107 201.6 72.4693 201.6 73.128C201.618 73.7693 201.661 74.4107 201.73 75.052C199.997 75.0867 198.255 75.0693 196.504 75C194.771 74.9133 193.038 74.87 191.304 74.87C190.247 74.87 189.198 74.896 188.158 74.948C187.118 74.9827 186.07 75 185.012 75V70.866C185.255 70.8487 185.498 70.814 185.74 70.762C185.983 70.71 186.2 70.632 186.39 70.528C186.581 70.4067 186.737 70.2507 186.858 70.06C186.98 69.852 187.04 69.592 187.04 69.28V61.064C187.04 60.752 186.98 60.5007 186.858 60.31C186.737 60.102 186.581 59.946 186.39 59.842C186.2 59.7207 185.983 59.634 185.74 59.582C185.498 59.53 185.255 59.4953 185.012 59.478V55.344C186.052 55.3267 187.084 55.344 188.106 55.396C189.129 55.448 190.16 55.474 191.2 55.474C192.847 55.474 194.554 55.448 196.322 55.396C198.108 55.3267 199.824 55.292 201.47 55.292C201.401 55.9333 201.358 56.5833 201.34 57.242C201.34 57.8833 201.34 58.5333 201.34 59.192C201.34 59.7467 201.34 60.3013 201.34 60.856C201.34 61.4107 201.384 61.9653 201.47 62.52H197.336C197.319 62.1387 197.302 61.766 197.284 61.402C197.284 61.038 197.232 60.7173 197.128 60.44C197.042 60.1453 196.877 59.9113 196.634 59.738C196.392 59.5473 196.036 59.452 195.568 59.452C194.962 59.452 194.468 59.556 194.086 59.764C193.705 59.9547 193.514 60.388 193.514 61.064V64.028C193.809 64.028 194.095 64.028 194.372 64.028C194.667 64.0107 194.927 63.9673 195.152 63.898C195.395 63.8287 195.586 63.7333 195.724 63.612C195.88 63.4733 195.967 63.2827 195.984 63.04H198.298C198.264 63.3867 198.238 63.742 198.22 64.106C198.203 64.47 198.194 64.8253 198.194 65.172C198.194 65.536 198.203 65.9 198.22 66.264C198.238 66.6107 198.264 66.966 198.298 67.33H195.984ZM204.086 61.922C204.121 60.6913 204.364 59.66 204.814 58.828C205.265 57.9787 205.863 57.294 206.608 56.774C207.354 56.254 208.212 55.8813 209.182 55.656C210.17 55.4133 211.202 55.292 212.276 55.292C213.178 55.292 214.062 55.3787 214.928 55.552C215.812 55.708 216.61 55.8553 217.32 55.994C217.563 56.046 217.736 55.9767 217.84 55.786C217.944 55.5953 218.005 55.3873 218.022 55.162H221.116C221.116 55.7687 221.099 56.3667 221.064 56.956C221.047 57.528 221.038 58.1173 221.038 58.724C221.038 59.1573 221.047 59.582 221.064 59.998C221.099 60.414 221.116 60.8387 221.116 61.272H218.022C217.988 60.6133 217.875 60.076 217.684 59.66C217.494 59.244 217.078 58.8973 216.436 58.62C216.211 58.5507 215.908 58.4727 215.526 58.386C215.162 58.2993 214.764 58.23 214.33 58.178C213.914 58.1087 213.49 58.0827 213.056 58.1C212.623 58.1 212.233 58.152 211.886 58.256C211.54 58.36 211.254 58.5333 211.028 58.776C210.82 59.0013 210.716 59.322 210.716 59.738C210.716 60.1887 210.89 60.5353 211.236 60.778C211.583 61.0033 212.042 61.1853 212.614 61.324C213.186 61.4453 213.836 61.5493 214.564 61.636C215.31 61.7053 216.055 61.8093 216.8 61.948C217.563 62.0693 218.308 62.26 219.036 62.52C219.782 62.78 220.44 63.1527 221.012 63.638C221.584 64.106 222.044 64.7213 222.39 65.484C222.737 66.2467 222.91 67.2 222.91 68.344C222.91 69.748 222.659 70.8833 222.156 71.75C221.654 72.5993 220.986 73.2667 220.154 73.752C219.34 74.2373 218.395 74.5667 217.32 74.74C216.263 74.896 215.171 74.974 214.044 74.974C213.524 74.974 212.996 74.9393 212.458 74.87C211.938 74.8007 211.427 74.7227 210.924 74.636C210.422 74.532 209.936 74.4453 209.468 74.376C209 74.3067 208.55 74.272 208.116 74.272C207.874 74.272 207.7 74.3587 207.596 74.532C207.492 74.688 207.432 74.8787 207.414 75.104H204.32C204.32 74.4973 204.329 73.908 204.346 73.336C204.381 72.7467 204.398 72.1487 204.398 71.542C204.398 71.1087 204.381 70.684 204.346 70.268C204.329 69.852 204.32 69.4273 204.32 68.994H207.414C207.449 69.6527 207.562 70.19 207.752 70.606C207.943 71.022 208.359 71.3687 209 71.646C209.243 71.7153 209.581 71.7933 210.014 71.88C210.465 71.9667 210.95 72.0447 211.47 72.114C212.008 72.166 212.554 72.192 213.108 72.192C213.663 72.192 214.166 72.14 214.616 72.036C215.067 71.932 215.431 71.7587 215.708 71.516C216.003 71.2733 216.15 70.944 216.15 70.528C216.15 70.1293 215.968 69.826 215.604 69.618C215.258 69.41 214.798 69.2453 214.226 69.124C213.654 68.9853 213.004 68.8727 212.276 68.786C211.548 68.682 210.803 68.552 210.04 68.396C209.278 68.2227 208.532 67.9973 207.804 67.72C207.076 67.4427 206.435 67.0613 205.88 66.576C205.326 66.0907 204.884 65.4753 204.554 64.73C204.225 63.9673 204.069 63.0313 204.086 61.922ZM227.788 70.866C228.048 70.8487 228.3 70.814 228.542 70.762C228.785 70.71 229.002 70.6233 229.192 70.502C229.383 70.3807 229.53 70.2247 229.634 70.034C229.756 69.826 229.816 69.5747 229.816 69.28V59.4C229.4 59.4173 229.088 59.53 228.88 59.738C228.69 59.946 228.551 60.206 228.464 60.518C228.395 60.83 228.36 61.1593 228.36 61.506C228.36 61.8527 228.352 62.1733 228.334 62.468H224.2C224.27 62.052 224.304 61.636 224.304 61.22C224.322 60.804 224.33 60.388 224.33 59.972C224.33 59.1747 224.33 58.386 224.33 57.606C224.33 56.8087 224.287 56.02 224.2 55.24C227.095 55.396 229.981 55.474 232.858 55.474C235.874 55.474 238.89 55.396 241.906 55.24C241.82 56.02 241.776 56.8087 241.776 57.606C241.776 58.386 241.776 59.1747 241.776 59.972C241.776 60.388 241.776 60.804 241.776 61.22C241.794 61.636 241.837 62.052 241.906 62.468H237.772C237.755 62.1733 237.746 61.8527 237.746 61.506C237.764 61.1593 237.729 60.83 237.642 60.518C237.573 60.206 237.434 59.946 237.226 59.738C237.018 59.53 236.706 59.4173 236.29 59.4V69.28C236.29 69.5747 236.342 69.826 236.446 70.034C236.568 70.2247 236.724 70.3807 236.914 70.502C237.105 70.6233 237.322 70.71 237.564 70.762C237.807 70.814 238.058 70.8487 238.318 70.866V75C237.434 75 236.559 74.974 235.692 74.922C234.826 74.8527 233.95 74.818 233.066 74.818C232.182 74.818 231.298 74.8527 230.414 74.922C229.548 74.974 228.672 75 227.788 75V70.866ZM244.239 65.354C244.239 63.5513 244.447 62.0087 244.863 60.726C245.296 59.4433 245.946 58.3947 246.813 57.58C247.697 56.7653 248.797 56.1673 250.115 55.786C251.432 55.4047 252.983 55.214 254.769 55.214C256.589 55.214 258.166 55.396 259.501 55.76C260.835 56.124 261.927 56.7133 262.777 57.528C263.643 58.3253 264.285 59.374 264.701 60.674C265.117 61.9567 265.325 63.5167 265.325 65.354C265.325 67.1913 265.108 68.734 264.675 69.982C264.259 71.23 263.617 72.2353 262.751 72.998C261.884 73.7433 260.783 74.2807 259.449 74.61C258.131 74.922 256.571 75.078 254.769 75.078C253.001 75.078 251.458 74.9133 250.141 74.584C248.823 74.2547 247.723 73.7087 246.839 72.946C245.972 72.1833 245.322 71.1867 244.889 69.956C244.455 68.708 244.239 67.174 244.239 65.354ZM251.831 65.354C251.831 66.3073 251.848 67.2173 251.883 68.084C251.917 68.9507 252.021 69.7133 252.195 70.372C252.385 71.0133 252.663 71.5333 253.027 71.932C253.408 72.3133 253.937 72.504 254.613 72.504C255.289 72.504 255.809 72.3133 256.173 71.932C256.554 71.5333 256.831 71.0133 257.005 70.372C257.195 69.7133 257.308 68.9507 257.343 68.084C257.377 67.2173 257.395 66.3073 257.395 65.354C257.395 64.418 257.377 63.482 257.343 62.546C257.308 61.61 257.195 60.7693 257.005 60.024C256.831 59.2787 256.554 58.672 256.173 58.204C255.809 57.736 255.289 57.502 254.613 57.502C253.937 57.502 253.408 57.736 253.027 58.204C252.663 58.672 252.385 59.2787 252.195 60.024C252.021 60.7693 251.917 61.61 251.883 62.546C251.848 63.482 251.831 64.418 251.831 65.354Z" fill="white"/>
<path d="M313.833 54.96L313.853 54.62C313.803 54.33 313.763 54.04 313.693 53.75C313.763 54.15 313.793 54.56 313.833 54.96Z" fill="black"/>
<path d="M312.223 49.5601C312.283 49.7101 312.223 49.6501 312.273 49.8101C312.843 50.7501 313.293 51.7601 313.623 52.8501C313.493 51.3101 312.533 50.4601 312.223 49.5601Z" fill="black"/>
<path d="M311.783 48.6998C311.163 47.5798 310.713 47.2598 310.503 47.0498C310.893 47.3198 311.813 49.0098 311.783 48.6998Z" fill="black"/>
<path d="M209.764 17.1898C209.884 17.1998 210.034 17.2098 210.144 17.2198C209.954 17.1898 209.824 17.1798 209.764 17.1898Z" fill="black"/>
<path d="M181.443 15.81L181.143 15.91C186.433 15.92 192.383 16.44 197.963 16.74L197.583 16.75C211.733 17.78 224.773 18.9599 238.703 21.0399C238.483 21.0199 238.403 21.04 238.183 21.02C238.863 21.09 239.613 21.14 240.363 21.26C240.553 21.32 240.143 21.28 239.903 21.25C242.813 21.88 248.533 22.6 250.333 23.09C251.153 23.23 251.533 23.23 251.093 23.08C261.933 25.11 273.433 27.84 284.103 31.45C284.603 31.65 284.683 31.74 284.523 31.74C289.093 33.23 293.693 35.06 298.093 37.38C300.293 38.54 302.433 39.83 304.463 41.3C306.483 42.77 308.403 44.4 310.003 46.33C310.313 46.57 309.403 45.5 310.103 46.2C309.093 44.93 307.983 43.94 306.853 43.06C305.733 42.17 304.593 41.37 303.433 40.51L303.783 40.65C302.053 39.45 303.333 40.55 301.543 39.31C300.843 38.8 301.773 39.34 301.443 39.13C297.603 36.84 293.393 34.82 289.443 33.42C288.553 32.86 284.993 31.68 283.493 31.02C282.383 30.7 281.293 30.3199 280.853 30.2899C266.093 25.3799 250.453 22.46 234.753 20.11C227.353 19.35 218.563 17.91 209.763 17.21C209.703 17.19 209.713 17.18 209.773 17.18C206.903 16.99 202.723 16.69 199.303 16.4L196.393 16.33C175.803 14.69 154.663 14.61 133.703 15.27C121.793 15.67 110.623 16.36 99.5732 17.43C88.5232 18.52 77.5732 20 66.1832 22.25C66.2032 22.21 66.0232 22.23 66.6032 22.11C60.0232 23.35 54.0132 24.49 47.8932 26.05L47.9032 26.0099C40.3332 28.0099 32.4832 30.26 24.9532 33.21C21.1932 34.69 17.5132 36.34 14.0432 38.28C10.6032 40.23 7.33316 42.45 4.71316 45.19C3.89316 46 3.15315 46.9 2.45315 47.84C1.79315 48.81 1.20315 49.84 0.76315 50.95C-0.11685 53.17 -0.256848 55.71 0.453152 58.05C1.18315 60.39 2.59317 62.4699 4.28317 64.2599C5.97317 66.0499 7.92319 67.61 9.99319 68.99C14.1232 71.76 18.6532 73.93 23.2432 75.82C27.8432 77.7 32.5332 79.27 37.1932 80.64L37.1332 80.69C52.0832 84.98 66.8432 88.04 82.2332 90.09C98.0332 92.41 114.903 93.3 130.963 94.15C140.903 94.9 153.993 94.42 163.343 94.61C182.563 94.87 201.213 93.54 220.263 91.11C237.893 89.26 255.303 85.95 271.933 81.75C279.683 79.35 288.433 77.07 296.543 72.95L296.223 73.03C297.733 72.41 299.293 71.48 300.683 70.57C302.073 69.66 303.293 68.79 304.213 68.34L303.943 68.55C305.483 67.72 306.863 65.79 307.733 65.2299L307.873 64.9799C309.313 63.4899 308.123 64.89 309.253 63.75C309.633 63.28 309.303 63.4899 310.113 62.5399C310.333 62.5399 311.123 61.52 311.693 60.4C312.293 59.29 312.653 58.1 312.873 58.09C312.513 59.2 313.573 56.38 312.843 58.91C312.993 58.57 313.363 57.53 313.463 56.57C313.603 55.62 313.513 54.79 313.443 54.95C313.253 54.65 313.123 53.3 312.933 55.4L313.043 55.83C312.833 56.52 312.903 56.35 312.773 56.59C312.523 57.92 312.183 58.63 311.863 59.21C311.543 59.8 311.223 60.28 310.673 61.07C310.683 61.06 310.703 61.04 310.693 61.07C310.133 62.28 308.853 63.64 308.083 64.35C307.963 64.43 307.853 64.52 307.733 64.6C307.193 64.94 305.613 66.88 306.073 66.14C301.833 69.75 296.063 72.74 290.293 75.15C289.523 75.59 285.823 76.91 287.173 76.59C285.633 76.97 281.213 78.4599 279.563 78.9799C279.623 78.9399 279.683 78.89 279.943 78.82C276.653 79.56 276.223 80.28 273.093 80.81C272.693 81.2 267.553 82.25 265.883 82.94C265.493 82.98 265.353 82.96 265.483 82.89C259.973 84.25 253.803 85.44 249.073 86.3C245.073 87.28 239.263 87.91 235.813 88.72C232.903 89.09 228.203 89.6199 224.153 90.2299L224.543 90.15C219.963 90.74 214.243 91.35 211.103 91.82C209.713 91.66 207.733 91.9 205.743 91.97C202.683 92.37 196.483 92.79 191.793 93.18C191.063 93.09 187.923 93.45 187.673 93.27C174.543 94.34 158.223 94.47 144.173 93.89L144.373 93.88C142.543 93.94 140.443 94.14 138.573 94.21C138.393 94.19 138.413 94.16 138.803 94.17C136.233 94.13 133.833 93.8599 131.273 93.7899C131.293 93.7599 131.293 93.76 131.713 93.75C129.303 93.74 126.753 93.38 123.903 93.38L123.743 93.32L121.933 93.2899C121.983 93.2299 122.053 93.14 123.023 93.21C101.023 91.9 78.2832 89.8 56.1332 85.07L56.9532 85.19L52.6432 84.36C52.6732 84.33 52.8832 84.36 53.0932 84.4C47.6632 83.07 41.9932 81.81 36.7932 80.2C36.8232 80.18 37.6332 80.36 36.9132 80.1C33.0032 79.1 30.8232 77.91 28.8032 77.58C28.6332 77.5 28.5432 77.38 28.9332 77.49C23.6432 75.65 18.3732 73.48 13.4532 70.65C10.9932 69.24 8.63315 67.6499 6.51315 65.7899C4.41315 63.9299 2.51318 61.78 1.42318 59.24C0.933184 58.21 0.573194 57.09 0.433194 55.92C0.293194 54.75 0.393194 53.54 0.683194 52.37C0.983194 51.2 1.47318 50.07 2.10318 49.0099C2.74318 47.9599 3.52318 46.98 4.35318 46.05C7.78318 42.39 12.1832 39.73 16.4532 37.38L16.4432 37.46C22.0332 34.48 28.1832 32.18 34.4632 30.21C40.7532 28.25 47.2032 26.63 53.6032 25.19C58.9332 24.04 62.5332 23.27 67.9332 22.3L68.0832 22.36C77.1232 20.46 87.2832 19.67 96.8132 18.34L96.1632 18.52C97.6332 18.19 101.963 17.99 101.363 17.76L103.063 17.69C109.543 16.72 114.943 16.86 122.923 16.16L122.403 16.26C124.523 16.08 127.003 15.92 128.583 15.91C128.333 15.93 128.453 15.95 127.943 15.99C134.623 15.95 142.033 15.43 149.073 15.35L148.273 15.49C151.673 15.29 157.923 15.4 162.393 15.38L162.123 15.44L164.383 15.38L164.443 15.5C170.283 15.56 175.763 15.6 181.443 15.81Z" fill="black"/>
<path d="M239.904 21.2601C239.884 21.2601 239.864 21.2502 239.844 21.2502C239.674 21.2302 239.754 21.2401 239.904 21.2601Z" fill="black"/>
<path d="M310.283 61.6401C310.433 61.4301 310.553 61.2501 310.683 61.0801C310.633 61.1101 310.403 61.4601 310.283 61.6401Z" fill="black"/>
<path d="M14.7836 53.78L14.8736 53.5L14.6836 52.75L14.7836 53.78Z" fill="black"/>
<path d="M15.3944 48.8301C15.3044 48.9501 15.2744 48.8601 15.1744 48.9901C14.9444 50.0001 14.8644 51.0201 14.9044 52.0001C15.0144 51.7001 15.1144 51.4101 15.1244 51.1201C15.1344 50.8301 15.1244 50.5501 15.1244 50.2701C15.1044 49.7201 15.1044 49.2001 15.3944 48.8301Z" fill="black"/>
<path d="M15.8339 48.05C16.4839 47.06 16.5739 46.53 16.6239 46.23C16.6039 46.47 16.2939 46.93 16.0439 47.34C15.8139 47.75 15.6439 48.1 15.8339 48.05Z" fill="black"/>
<path d="M114.814 7.10986C114.704 7.12986 114.544 7.16986 114.434 7.19986C114.634 7.16986 114.754 7.13986 114.814 7.10986Z" fill="black"/>
<path d="M143.094 2.10999L143.374 1.85999C138.084 2.80999 132.034 3.18 126.444 4.19L126.814 4.04999C112.564 6.10999 99.5838 9.05998 85.8038 12.73C86.0138 12.65 86.0738 12.57 86.2838 12.49C85.6338 12.74 84.9338 13.06 84.1838 13.23C83.9738 13.23 84.3638 13.08 84.6038 12.99C81.5838 13.38 76.1238 15.52 74.2438 15.79C73.4438 16.07 73.1238 16.32 73.6138 16.3C62.9438 19.55 51.6438 23.51 41.5038 28.57C40.9938 28.76 40.8538 28.71 40.9338 28.53C36.6838 30.87 32.3538 33.26 28.2238 35.97C26.1638 37.33 24.1437 38.77 22.2737 40.36C20.4037 41.94 18.6438 43.66 17.2338 45.6C17.1538 45.99 17.9337 44.91 17.5237 45.76C18.4937 44.59 19.3437 43.47 20.2737 42.44C21.1837 41.39 22.1638 40.44 23.3538 39.65L23.1638 40C24.8438 38.8 23.2338 39.42 25.0638 38.27C25.8238 37.87 25.0037 38.55 25.3337 38.32C28.8237 35.64 32.8938 33.43 36.4338 31.16C37.4938 30.97 40.7138 29.02 42.3538 28.63C43.3438 28.03 44.4138 27.59 44.7338 27.21C59.1138 21.12 74.3838 16.15 89.9838 12.35C97.1438 9.95001 106.114 8.79 114.854 7.03C114.914 7.04 114.914 7.07001 114.854 7.10001C117.684 6.43001 121.854 5.66 125.304 5.22L128.174 4.51999C138.554 3.28999 149.054 2.2 159.634 1.59C170.214 0.989996 180.864 0.82999 191.464 1.23999C203.504 1.65999 214.784 2.62 225.924 3.91C237.064 5.2 248.084 6.8 259.644 8.87C259.604 8.92 259.784 8.99999 259.184 8.89999C265.834 10.21 271.754 11.95 277.884 13.68L277.844 13.73C285.464 15.8 293.244 18.65 300.454 22.43C304.064 24.31 307.514 26.45 310.664 28.87C313.784 31.31 316.644 34.03 318.744 37.19C319.954 39.15 320.924 41.32 321.394 43.64C321.924 45.95 321.864 48.39 321.454 50.78C320.624 55.58 318.094 60.05 314.794 63.77C311.474 67.51 307.464 70.65 303.234 73.36C299.004 76.07 294.544 78.37 290.054 80.4L290.044 80.27C282.894 83.58 275.504 86 268.054 88.06C260.594 90.11 253.044 91.78 245.364 93.42C229.494 96.31 212.634 99.42 196.304 100.13C191.254 100.16 185.434 100.62 179.684 100.94C173.934 101.26 168.234 101.44 163.504 101.04C153.774 100.39 144.234 99.7 134.684 98.87C125.134 98.05 115.594 97.08 105.934 95.77C88.3038 92.46 70.5038 89.36 54.1838 83.15C46.2138 80.92 38.0338 76.69 30.0438 72.33L30.2538 72.63C28.9338 71.63 27.3038 70.81 25.8238 70.01C24.3538 69.19 23.0437 68.38 22.4637 67.45L22.7538 67.64C21.6138 66.34 19.1037 65.68 18.6537 64.57L18.3238 64.49C16.8438 62.95 18.2938 64.17 17.2538 62.9C16.8638 62.43 16.8537 62.92 16.1437 61.83C16.3537 61.5 15.5737 60.48 14.9637 59.36C14.3437 58.24 13.9437 57.02 14.3337 56.84C14.6437 57.89 14.1438 55.11 15.0338 57.4C14.9838 57.23 14.8838 56.91 14.7838 56.52C14.7338 56.33 14.6738 56.12 14.6138 55.91C14.5738 55.69 14.5238 55.47 14.4838 55.26C14.3038 54.41 14.2037 53.66 14.0237 53.81C13.6637 53.52 13.2837 52.12 13.0938 54.31L13.3937 54.73C13.2037 55.5 13.3438 55.3 13.1838 55.6C13.4138 57.05 13.6538 57.85 13.8038 58.58C13.9938 59.29 14.1238 59.94 14.6138 60.89C14.6138 60.87 14.6038 60.85 14.6338 60.87C15.6438 61.96 16.7137 63.6 17.4537 64.46C17.5137 64.61 17.5837 64.75 17.6537 64.89C17.9037 65.64 20.4438 66.74 19.4338 66.53C23.8738 70.39 29.6238 73.76 35.4238 76.53C36.3138 76.77 39.8837 78.6 38.7637 77.67C40.0337 78.75 44.4237 80.68 46.0938 81.28C46.0137 81.29 45.9338 81.31 45.6738 81.2C48.6938 82.97 49.6738 82.14 52.4738 83.86C53.1038 83.57 57.9837 85.87 59.9037 85.83C60.2537 86.05 60.3538 86.18 60.1838 86.23C65.7238 87.94 71.8638 89.77 76.6138 90.95C80.7738 91.53 86.4538 93.44 90.1038 93.57C92.9938 94.3 97.6838 95.47 101.824 95.95H101.414C106.044 96.75 111.844 97.62 115.084 97.7C116.374 98.47 118.404 98.64 120.394 99.08C123.534 99.23 129.814 100.07 134.594 100.28C135.294 100.62 138.534 100.53 138.744 100.94C145.444 101.19 152.934 101.47 160.534 101.75C168.134 102 175.854 102.13 183.014 102.18L182.804 102.21C184.654 101.93 186.774 101.38 188.644 101.01C188.834 101.03 188.814 101.1 188.414 101.12C191.014 100.93 193.474 101.16 196.074 100.92C196.054 100.99 196.054 100.99 195.634 101.07C198.064 100.74 200.704 101.03 203.564 100.49L203.734 100.58L205.554 100.28C205.524 100.41 205.464 100.61 204.484 100.65C215.664 99.74 226.974 98.18 238.254 96.05C249.524 93.92 260.774 91.23 271.804 87.9L271.034 88.27C272.434 87.76 273.844 87.26 275.234 86.71C275.234 86.78 275.034 86.88 274.844 86.97C280.334 85.41 285.764 83.01 290.844 80.78C290.844 80.85 290.124 81.31 290.864 81.05C294.464 79.05 297.054 78.61 298.534 76.98C298.714 76.92 298.914 77 298.574 77.25C303.554 74.4 308.454 71.17 312.734 67.15C314.864 65.14 316.834 62.93 318.474 60.47C320.094 58 321.374 55.29 322.124 52.42C322.534 49.98 322.684 47.45 322.324 44.89C321.924 42.35 321.014 39.89 319.724 37.63C317.134 33.1 313.144 29.52 308.974 26.85L309.094 26.77C303.684 23.24 297.734 20.28 291.574 17.7C285.404 15.13 278.994 12.96 272.554 11.24C267.224 9.73999 263.544 9.02999 258.104 7.87L258.004 7.67999C248.744 6.33999 238.734 3.56001 228.934 3.07001L229.634 2.92999C228.094 3.06999 223.774 2.13 224.284 2.78L222.584 2.41998C215.924 2.51998 210.594 0.92998 202.444 0.97998L202.984 0.869995C200.824 0.859995 198.304 0.830005 196.704 0.630005C196.954 0.620005 196.844 0.569998 197.354 0.559998C190.604 -0.270002 183.054 0.199989 175.914 0.269989L176.724 0C173.274 0.32 166.934 0.199987 162.404 0.579987L162.674 0.440002L160.394 0.72998L160.324 0.48999C154.354 0.79999 148.824 1.47999 143.094 2.10999Z" fill="black"/>
<path d="M84.5938 13.0001C84.6137 13.0001 84.6337 12.9901 84.6537 12.9901C84.8237 12.9301 84.7438 12.9501 84.5938 13.0001Z" fill="black"/>
<path d="M14.923 61.5501C14.773 61.3101 14.653 61.1001 14.553 60.8701C14.543 60.9601 14.793 61.3501 14.923 61.5501Z" fill="black"/>
</svg>
