<svg width="27" height="21" viewBox="0 0 27 21" fill="none" xmlns="http://www.w3.org/2000/svg">
<path d="M22.3919 1.67246C20.6768 0.885352 18.867 0.32358 17.0077 0.00114829C16.9908 -0.00168871 16.9735 0.000761511 16.9581 0.00816214C16.9427 0.0155628 16.93 0.0275503 16.9217 0.0424764C16.6886 0.455758 16.4307 0.996331 16.2505 1.41953C14.2463 1.11537 12.2076 1.11537 10.2034 1.41953C10.0024 0.948092 9.77499 0.488346 9.52229 0.0424764C9.51381 0.0277138 9.50106 0.0158643 9.48572 0.0084875C9.47037 0.00111065 9.45316 -0.00144791 9.43633 0.00114829C7.57656 0.321855 5.76639 0.883918 4.05209 1.67246C4.03743 1.67806 4.02515 1.68858 4.01738 1.70222C0.588793 6.82526 -0.351837 11.8227 0.109386 16.7572C0.111039 16.7804 0.125917 16.8035 0.144101 16.8184C2.14062 18.2973 4.37378 19.4265 6.74834 20.1577C6.76511 20.163 6.78313 20.1628 6.79977 20.1572C6.81642 20.1515 6.83084 20.1407 6.84092 20.1263C7.35008 19.432 7.80304 18.6997 8.19318 17.9293C8.20131 17.9134 8.20409 17.8954 8.20112 17.8778C8.19814 17.8602 8.18955 17.8441 8.17665 17.8318C8.1681 17.8237 8.15797 17.8175 8.14689 17.8136C7.43466 17.5399 6.74487 17.211 6.08379 16.83C6.06532 16.8195 6.05159 16.8024 6.04544 16.782C6.03928 16.7617 6.04118 16.7398 6.05073 16.7209C6.05635 16.7086 6.06486 16.6978 6.07552 16.6895C6.21439 16.5853 6.35325 16.4762 6.4855 16.3671C6.49718 16.3577 6.5112 16.3517 6.52605 16.3496C6.5409 16.3476 6.55603 16.3496 6.56981 16.3555C10.8993 18.3327 15.586 18.3327 19.8626 16.3555C19.8769 16.3493 19.8926 16.3472 19.908 16.3492C19.9234 16.3512 19.938 16.3574 19.9502 16.3671C20.0825 16.4762 20.2213 16.5853 20.3602 16.6895C20.3714 16.6977 20.3805 16.7086 20.3865 16.7211C20.3925 16.7337 20.3953 16.7476 20.3947 16.7615C20.394 16.7754 20.3899 16.789 20.3828 16.8009C20.3756 16.8129 20.3656 16.8229 20.3536 16.83C19.694 17.2145 19.0033 17.543 18.2888 17.8119C18.2774 17.8161 18.2671 17.8226 18.2585 17.8312C18.2499 17.8398 18.2434 17.8501 18.2392 17.8615C18.2354 17.8726 18.2339 17.8843 18.2347 17.8959C18.2356 17.9076 18.2388 17.9189 18.2442 17.9293C18.6409 18.698 19.0956 19.432 19.5948 20.1263C19.6049 20.1407 19.6193 20.1515 19.6359 20.1572C19.6526 20.1628 19.6706 20.163 19.6874 20.1577C22.0659 19.4287 24.3027 18.2994 26.3015 16.8184C26.3115 16.8115 26.3199 16.8024 26.3259 16.7918C26.3319 16.7812 26.3354 16.7694 26.3363 16.7572C26.8884 11.0523 25.4122 6.09623 22.425 1.70387C22.4219 1.69661 22.4174 1.69007 22.4118 1.68466C22.4061 1.67925 22.3993 1.67509 22.3919 1.67246ZM8.83955 13.7519C7.53523 13.7519 6.46235 12.555 6.46235 11.087C6.46235 9.61739 7.5154 8.42052 8.83955 8.42052C10.1736 8.42052 11.2366 9.62731 11.2167 11.087C11.2167 12.555 10.1637 13.7519 8.83955 13.7519ZM17.6276 13.7519C16.3249 13.7519 15.2504 12.555 15.2504 11.087C15.2504 9.61739 16.3034 8.42052 17.6276 8.42052C18.9617 8.42052 20.0263 9.62731 20.0048 11.087C20.0048 12.555 18.9617 13.7519 17.6276 13.7519Z" fill="#898989"/>
</svg>
