<svg width="42" height="42" viewBox="0 0 42 42" fill="none" xmlns="http://www.w3.org/2000/svg">
<g id="ic_metamask02">
<g id="ic_metamask">
<g id="Group">
<path id="Vector" d="M39.5841 2.22699L23.7271 13.96L26.6761 7.04499L39.5841 2.22699Z" fill="#E17726" stroke="#E17726" stroke-width="0.25" stroke-linecap="round" stroke-linejoin="round"/>
<path id="Vector_2" d="M3.00781 2.22699L18.7238 14.07L15.9158 7.04499L3.00781 2.22699Z" fill="#E27625" stroke="#E27625" stroke-width="0.25" stroke-linecap="round" stroke-linejoin="round"/>
<path id="Vector_3" d="M33.8748 29.432L29.6558 35.877L38.6898 38.364L41.2778 29.572L33.8748 29.432Z" fill="#E27625" stroke="#E27625" stroke-width="0.25" stroke-linecap="round" stroke-linejoin="round"/>
<path id="Vector_4" d="M1.33008 29.573L3.90208 38.365L12.9211 35.878L8.72108 29.433L1.33008 29.573Z" fill="#E27625" stroke="#E27625" stroke-width="0.25" stroke-linecap="round" stroke-linejoin="round"/>
<path id="Vector_5" d="M12.4318 18.544L9.92383 22.33L18.8638 22.737L18.5638 13.116L12.4318 18.544Z" fill="#E27625" stroke="#E27625" stroke-width="0.25" stroke-linecap="round" stroke-linejoin="round"/>
<path id="Vector_6" d="M30.158 18.544L23.931 13.006L23.731 22.737L32.671 22.33L30.158 18.544Z" fill="#E27625" stroke="#E27625" stroke-width="0.25" stroke-linecap="round" stroke-linejoin="round"/>
<path id="Vector_7" d="M12.9199 35.878L18.3309 33.265L13.6729 29.634L12.9199 35.878Z" fill="#E27625" stroke="#E27625" stroke-width="0.25" stroke-linecap="round" stroke-linejoin="round"/>
<path id="Vector_8" d="M24.2598 33.265L29.6598 35.878L28.9178 29.634L24.2598 33.265Z" fill="#E27625" stroke="#E27625" stroke-width="0.25" stroke-linecap="round" stroke-linejoin="round"/>
<path id="Vector_9" d="M29.6549 35.878L24.2549 33.265L24.6939 36.765L24.6519 38.257L29.6549 35.878Z" fill="#D5BFB2" stroke="#D5BFB2" stroke-width="0.25" stroke-linecap="round" stroke-linejoin="round"/>
<path id="Vector_10" d="M12.9199 35.878L17.9389 38.257L17.9079 36.771L18.3309 33.271L12.9199 35.878Z" fill="#D5BFB2" stroke="#D5BFB2" stroke-width="0.25" stroke-linecap="round" stroke-linejoin="round"/>
<path id="Vector_11" d="M18.0339 27.32L13.5479 26.006L16.7159 24.551L18.0339 27.32Z" fill="#233447" stroke="#233447" stroke-width="0.25" stroke-linecap="round" stroke-linejoin="round"/>
<path id="Vector_12" d="M24.5581 27.32L25.8761 24.551L29.0601 26.006L24.5581 27.32Z" fill="#233447" stroke="#233447" stroke-width="0.25" stroke-linecap="round" stroke-linejoin="round"/>
<path id="Vector_13" d="M12.9198 35.878L13.7038 29.433L8.71582 29.574L12.9198 35.878Z" fill="#CC6228" stroke="#CC6228" stroke-width="0.25" stroke-linecap="round" stroke-linejoin="round"/>
<path id="Vector_14" d="M28.8892 29.432L29.6582 35.877L33.8772 29.577L28.8892 29.432Z" fill="#CC6228" stroke="#CC6228" stroke-width="0.25" stroke-linecap="round" stroke-linejoin="round"/>
<path id="Vector_15" d="M32.6671 22.33L23.7271 22.737L24.5581 27.321L25.8761 24.552L29.0601 26.007L32.6671 22.33Z" fill="#CC6228" stroke="#CC6228" stroke-width="0.25" stroke-linecap="round" stroke-linejoin="round"/>
<path id="Vector_16" d="M13.5469 26.006L16.7149 24.551L18.0319 27.32L18.8629 22.736L9.92285 22.329L13.5469 26.006Z" fill="#CC6228" stroke="#CC6228" stroke-width="0.25" stroke-linecap="round" stroke-linejoin="round"/>
<path id="Vector_17" d="M9.9248 22.33L13.6738 29.636L13.5478 26.007L9.9248 22.33Z" fill="#E27525" stroke="#E27525" stroke-width="0.25" stroke-linecap="round" stroke-linejoin="round"/>
<path id="Vector_18" d="M29.059 26.006L28.918 29.635L32.667 22.329L29.059 26.006Z" fill="#E27525" stroke="#E27525" stroke-width="0.25" stroke-linecap="round" stroke-linejoin="round"/>
<path id="Vector_19" d="M18.8652 22.736L18.0342 27.32L19.0852 32.733L19.3202 25.599L18.8652 22.736Z" fill="#E27525" stroke="#E27525" stroke-width="0.25" stroke-linecap="round" stroke-linejoin="round"/>
<path id="Vector_20" d="M23.7271 22.736L23.2881 25.583L23.5081 32.732L24.5591 27.319L23.7271 22.736Z" fill="#E27525" stroke="#E27525" stroke-width="0.25" stroke-linecap="round" stroke-linejoin="round"/>
<path id="Vector_21" d="M24.5578 27.32L23.5068 32.733L24.2598 33.265L28.9178 29.636L29.0588 26.007L24.5578 27.32Z" fill="#F5841F" stroke="#F5841F" stroke-width="0.25" stroke-linecap="round" stroke-linejoin="round"/>
<path id="Vector_22" d="M13.5479 26.01L13.6739 29.639L18.3319 33.268L19.0849 32.736L18.0339 27.32L13.5479 26.01Z" fill="#F5841F" stroke="#F5841F" stroke-width="0.25" stroke-linecap="round" stroke-linejoin="round"/>
<path id="Vector_23" d="M24.6519 38.255L24.6989 36.769L24.2909 36.425H18.2999L17.9079 36.769L17.9389 38.255L12.9199 35.877L14.6769 37.316L18.2369 39.772H24.3369L27.9129 37.316L29.6539 35.877L24.6519 38.255Z" fill="#C0AC9D" stroke="#C0AC9D" stroke-width="0.25" stroke-linecap="round" stroke-linejoin="round"/>
<path id="Vector_24" d="M24.2598 33.265L23.5068 32.733H19.0838L18.3308 33.265L17.9028 36.765L18.2948 36.421H24.2858L24.6938 36.765L24.2598 33.265Z" fill="#161616" stroke="#161616" stroke-width="0.25" stroke-linecap="round" stroke-linejoin="round"/>
<path id="Vector_25" d="M40.2578 14.727L41.5938 8.24999L39.5838 2.22699L24.2598 13.569L30.1598 18.544L38.4878 20.969L40.3208 18.827L39.5208 18.248L40.7908 17.09L39.8188 16.339L41.0888 15.369L40.2578 14.727Z" fill="#763E1A" stroke="#763E1A" stroke-width="0.25" stroke-linecap="round" stroke-linejoin="round"/>
<path id="Vector_26" d="M1 8.24999L2.349 14.727L1.486 15.368L2.772 16.338L1.8 17.089L3.07 18.247L2.27 18.826L4.105 20.969L12.434 18.544L18.334 13.569L3.008 2.22699L1 8.24999Z" fill="#763E1A" stroke="#763E1A" stroke-width="0.25" stroke-linecap="round" stroke-linejoin="round"/>
<path id="Vector_27" d="M38.4859 20.969L30.1579 18.544L32.6679 22.33L28.9189 29.636L33.8749 29.573H41.2749L38.4859 20.969Z" fill="#F5841F" stroke="#F5841F" stroke-width="0.25" stroke-linecap="round" stroke-linejoin="round"/>
<path id="Vector_28" d="M12.4341 18.544L4.10608 20.969L1.33008 29.569H8.71708L13.6731 29.632L9.92508 22.329L12.4341 18.544Z" fill="#F5841F" stroke="#F5841F" stroke-width="0.25" stroke-linecap="round" stroke-linejoin="round"/>
<path id="Vector_29" d="M23.726 22.736L24.259 13.568L26.674 7.04401H15.916L18.331 13.568L18.864 22.736L19.064 25.614L19.08 32.732H23.503L23.519 25.614L23.726 22.736Z" fill="#F5841F" stroke="#F5841F" stroke-width="0.25" stroke-linecap="round" stroke-linejoin="round"/>
</g>
</g>
</g>
</svg>
