<svg width="95" height="95" viewBox="0 0 95 95" fill="none" xmlns="http://www.w3.org/2000/svg">
<mask id="mask0_1350_534" style="mask-type:alpha" maskUnits="userSpaceOnUse" x="0" y="0" width="95" height="95">
<rect width="95" height="95" fill="#C4C4C4"/>
</mask>
<g mask="url(#mask0_1350_534)">
<path d="M7.61972 62.5921C7.41048 62.0976 7.32019 61.561 7.35607 61.0252C7.39318 60.5702 7.53829 60.1306 7.77938 59.7428C8.03328 59.3451 8.36017 58.9989 8.74282 58.7226C9.15856 58.4177 9.60846 58.1623 10.0834 57.9616C10.4917 57.7873 10.9154 57.6514 11.3489 57.5555L12.5252 57.3004C12.5767 57.2973 12.6253 57.2755 12.6619 57.2391C12.6985 57.2027 12.7205 57.1542 12.7239 57.1028C12.7343 56.995 12.7211 56.8863 12.6851 56.7842L14.1009 56.1809C14.2189 56.4576 14.3339 56.7275 14.4303 57.0012C14.5268 57.275 14.6418 57.5448 14.7597 57.8215C14.8442 58.0197 14.9272 58.2144 15.0243 58.395C15.1215 58.5756 15.2059 58.7738 15.2904 58.9719L13.8746 59.5753C13.763 59.3232 13.604 59.095 13.4062 58.903C13.1864 58.7319 12.9105 58.6494 12.6327 58.6715C12.517 58.6845 12.3642 58.7052 12.1772 58.7405C11.9902 58.7758 11.8032 58.8111 11.5863 58.8712C11.3801 58.9275 11.1785 58.9999 10.9836 59.0877C10.804 59.1665 10.6355 59.2682 10.4821 59.3902C10.3521 59.4941 10.2527 59.6313 10.1946 59.7872C10.1422 59.9567 10.1566 60.1398 10.2349 60.2989C10.2695 60.393 10.3282 60.4764 10.4052 60.5406C10.4823 60.6048 10.5749 60.6477 10.6737 60.6649C10.9179 60.7044 11.1673 60.698 11.4093 60.6461C11.7335 60.5835 12.0542 60.5034 12.3698 60.4063C12.7264 60.2947 13.0888 60.1968 13.4555 60.1091C13.8307 60.0225 14.2123 59.9666 14.5965 59.9417C14.9714 59.916 15.3479 59.958 15.708 60.0655C16.0788 60.1787 16.4179 60.377 16.6983 60.6446C17.0473 60.985 17.3191 61.3964 17.4953 61.851C17.7485 62.3787 17.8585 62.9638 17.8142 63.5476C17.7567 64.0204 17.5783 64.4704 17.2962 64.8543C16.9946 65.2543 16.6188 65.5926 16.1893 65.8508C15.7237 66.139 15.2367 66.3911 14.7326 66.6048C14.4926 66.7074 14.2464 66.7948 13.9955 66.8664C13.7393 66.9352 13.4873 66.9982 13.2395 67.0554C12.9915 67.1086 12.7532 67.1658 12.5232 67.2234C12.3055 67.2812 12.0923 67.3545 11.8852 67.4428C11.8378 67.4586 11.7955 67.4867 11.7625 67.5241C11.7295 67.5616 11.707 67.6071 11.6973 67.6561C11.682 67.7576 11.6929 67.8614 11.7288 67.9575L10.3129 68.5609C10.195 68.2842 10.0785 68.0109 9.98354 67.7406C9.88854 67.4702 9.75497 67.2042 9.63559 66.9241C9.5526 66.7294 9.46962 66.5346 9.38809 66.3433C9.30656 66.152 9.20794 65.968 9.1235 65.7699L10.5393 65.1665C10.65 65.4177 10.8086 65.6449 11.0062 65.8354C11.226 66.0064 11.5019 66.089 11.7797 66.0669C11.9037 66.0544 12.0756 66.0215 12.2948 65.9765C12.5141 65.9315 12.7495 65.8675 13.0039 65.7914C13.2621 65.714 13.5157 65.6221 13.7635 65.5161C13.9937 65.4192 14.2132 65.2986 14.4184 65.1563C14.5865 65.0379 14.7248 64.8822 14.8226 64.7015C14.8631 64.6183 14.8844 64.5272 14.8848 64.4347C14.8853 64.3423 14.865 64.251 14.8254 64.1675C14.7914 64.0813 14.7341 64.0063 14.6598 63.951C14.5856 63.8956 14.4973 63.8621 14.4049 63.8541C14.1593 63.8315 13.9117 63.8445 13.6698 63.8929C13.3811 63.9487 13.0617 64.0243 12.7117 64.1196C12.3508 64.2209 11.9841 64.3086 11.6101 64.3792C11.2288 64.4528 10.8425 64.4974 10.4545 64.5124C10.0803 64.5298 9.70604 64.4801 9.34945 64.3657C8.98788 64.2426 8.65794 64.0414 8.38308 63.7764C8.04786 63.4399 7.78772 63.0363 7.61972 62.5921ZM18.4534 62.8191C18.5656 62.7633 18.6731 62.6986 18.775 62.6255C18.8709 62.5601 18.9552 62.4792 19.0245 62.386C19.0918 62.2962 19.1345 62.1904 19.1482 62.079C19.1615 61.95 19.1396 61.8198 19.0847 61.7024L17.4614 57.8933C17.4136 57.773 17.3351 57.6673 17.2338 57.5867C17.1436 57.5216 17.0384 57.4803 16.928 57.4667C16.8129 57.4521 16.6961 57.4569 16.5825 57.4807C16.4592 57.5036 16.3381 57.5364 16.2201 57.5786L15.415 55.6895C15.8104 55.5008 16.2181 55.3392 16.6353 55.2057C17.05 55.0694 17.4608 54.9145 17.8644 54.7425C18.2679 54.5705 18.668 54.4 19.0473 54.19C19.4265 53.9799 19.8266 53.8094 20.2336 53.636L21.0387 55.5251C20.9267 55.5814 20.8192 55.6461 20.7171 55.7187C20.622 55.7851 20.5378 55.8659 20.4676 55.9582C20.4033 56.0477 20.3615 56.1514 20.3458 56.2604C20.3304 56.3896 20.3512 56.5205 20.4059 56.6385L22.0161 60.4168C22.0625 60.5385 22.1426 60.6443 22.2472 60.722C22.3363 60.7885 22.4408 60.8314 22.551 60.8468C22.6662 60.8601 22.7828 60.8554 22.8965 60.8328C23.0196 60.8094 23.1408 60.7767 23.2589 60.7348L24.064 62.624C23.6698 62.8123 23.2632 62.9735 22.8471 63.1063C22.4358 63.2412 22.0284 63.3946 21.6249 63.5666C21.2213 63.7386 20.8178 63.9106 20.4351 64.1221C20.0525 64.3336 19.6489 64.5056 19.2454 64.6775L18.4534 62.8191ZM29.404 58.5036C29.6014 58.4364 29.775 58.3133 29.9036 58.1494C29.9856 58.0267 30.0174 57.8773 29.9925 57.732C29.9657 57.5603 29.9124 57.3937 29.8346 57.2382C29.7574 57.0572 29.6759 56.8659 29.5914 56.6677C29.5572 56.5521 29.4906 56.4487 29.3996 56.3695C29.3087 56.2903 29.197 56.2387 29.0776 56.2206C28.7278 56.2255 28.3833 56.3075 28.0687 56.4609L27.4165 54.9304C28.2196 54.6339 29.0327 54.3103 29.8557 53.9596C30.6799 53.6083 31.4748 53.2453 32.2249 52.8813L32.8771 54.4117C32.7651 54.468 32.6576 54.5327 32.5555 54.6053C32.4604 54.6717 32.3762 54.7525 32.306 54.8448C32.2408 54.935 32.1995 55.0401 32.1857 55.1504C32.1737 55.2794 32.1955 55.4092 32.2492 55.527L33.5202 58.5094L33.0072 58.728L31.4787 58.5075C31.2538 58.9085 30.9638 59.2694 30.6205 59.5756C30.2552 59.9065 29.8483 60.1884 29.4101 60.4143C27.8412 61.2148 26.4633 61.3983 25.2764 60.9649C24.0896 60.5315 23.1613 59.5291 22.4916 57.9577C22.1977 57.2977 22.0261 56.5899 21.9852 55.8686C21.9549 55.2405 22.0645 54.6134 22.3059 54.0325C22.5635 53.4579 22.9419 52.9456 23.4154 52.5303C23.9546 52.0536 24.5703 51.6711 25.2367 51.3989C25.5799 51.2504 25.936 51.1338 26.3005 51.0505C26.656 50.9664 27.0211 50.9302 27.3862 50.943C27.4509 50.9509 27.5166 50.9415 27.5767 50.9159C27.6367 50.8903 27.6889 50.8494 27.7282 50.7973C27.7612 50.7342 27.78 50.6646 27.7832 50.5935C27.7864 50.5224 27.7739 50.4515 27.7467 50.3857L29.1626 49.7823C29.2805 50.059 29.3955 50.3289 29.4919 50.6027C29.5884 50.8764 29.7205 51.139 29.8384 51.4157C29.9564 51.6925 30.0889 52.0033 30.2365 52.2835C30.3842 52.5637 30.504 52.8638 30.6122 53.1649L29.1963 53.7683C29.073 53.4965 28.9189 53.2399 28.737 53.0033C28.5704 52.7784 28.3681 52.5824 28.1381 52.4229C27.9242 52.2728 27.6768 52.1773 27.4174 52.1447C27.127 52.1157 26.8341 52.1653 26.5693 52.2882C26.2104 52.4277 25.9169 52.6968 25.7471 53.0423C25.5895 53.3713 25.5083 53.7316 25.5093 54.0963C25.5076 54.4832 25.5603 54.8684 25.6656 55.2406C25.7649 55.5998 25.8868 55.9523 26.0306 56.2961C26.1817 56.6456 26.3604 56.9824 26.565 57.3036C26.7671 57.6267 27.0164 57.9177 27.3047 58.167C27.5771 58.4016 27.9035 58.5649 28.2548 58.6421C28.6423 58.7154 29.0432 58.662 29.3982 58.4899L29.404 58.5036ZM33.8052 56.2767C33.9173 56.2207 34.0248 56.1559 34.1268 56.0831C34.2244 56.0179 34.3082 55.9342 34.3734 55.8368C34.4384 55.7462 34.4782 55.6401 34.4889 55.5292C34.4996 55.4005 34.4765 55.2712 34.4219 55.1541L32.803 51.3553C32.7564 51.2348 32.6791 51.1286 32.5788 51.0472C32.4914 50.9781 32.3873 50.9333 32.277 50.9174C32.1615 50.897 32.0431 50.8995 31.9285 50.9247C31.8053 50.9478 31.6842 50.9806 31.5661 51.0226L30.761 49.1334C31.1572 49.0009 31.5435 48.8645 31.9207 48.7159C32.2978 48.5673 32.6696 48.3967 33.0492 48.235C33.4288 48.0732 33.8563 47.891 34.2463 47.6966C34.6362 47.5021 35.0354 47.3199 35.4287 47.124L40.3275 51.8583L38.9896 48.7188C38.9429 48.5983 38.8656 48.4921 38.7653 48.4107C38.6786 48.3425 38.5759 48.2973 38.467 48.2795C38.3514 48.2605 38.2332 48.263 38.1185 48.2867C37.9954 48.3101 37.8742 48.3428 37.7561 48.3846L36.951 46.4955L37.0912 46.4357C37.3477 46.3264 37.5939 46.2215 37.847 46.1419C38.1 46.0623 38.3428 45.9589 38.589 45.8539C38.8352 45.749 39.0986 45.6368 39.3449 45.5035C39.5912 45.3703 39.8477 45.261 40.1007 45.1532L40.9058 47.0423C40.794 47.0988 40.6865 47.1635 40.5842 47.2359C40.4876 47.3022 40.404 47.3857 40.3376 47.4823C40.2751 47.5732 40.2365 47.6785 40.2256 47.7884C40.2149 47.9171 40.238 48.0464 40.2925 48.1635L43.015 54.5518C42.6868 54.6634 42.3649 54.7804 42.0395 54.8989C41.7142 55.0174 41.3933 55.1461 41.0786 55.2802C40.4587 55.5458 39.8538 55.8454 39.2668 56.1774L34.5142 51.72C34.7166 52.1948 34.9204 52.6731 35.1242 53.1514C35.328 53.6296 35.5319 54.1079 35.7342 54.5827C35.7797 54.7034 35.8558 54.81 35.955 54.8923C36.0431 54.9602 36.1469 55.0048 36.2568 55.022C36.3724 55.041 36.4906 55.0385 36.6053 55.0148C36.7284 54.9914 36.8496 54.9587 36.9677 54.9169L37.7728 56.806L37.6668 56.8512C37.4278 56.9524 37.1839 57.0415 36.936 57.1183C36.6913 57.1983 36.4426 57.2881 36.1964 57.3931C35.9502 57.498 35.6595 57.6219 35.4073 57.7697C35.1551 57.9176 34.8898 58.0347 34.6197 58.1498L33.8052 56.2767ZM43.2612 52.2469C43.3809 52.1959 43.5075 52.1137 43.6581 52.0213C43.8061 51.9311 43.9438 51.8251 44.0688 51.705C44.193 51.5912 44.2988 51.459 44.3826 51.3129C44.4596 51.179 44.4913 51.0239 44.473 50.8707C44.4601 50.7551 44.4449 50.5678 44.4241 50.3103L44.3515 49.4289C44.3235 49.0977 44.2912 48.7563 44.2564 48.3997C44.2216 48.0432 44.1888 47.71 44.15 47.3915C44.1113 47.073 44.0812 46.8032 44.05 46.5783C44.0352 46.4271 44.0041 46.278 43.9574 46.1334C43.9344 46.071 43.8905 46.0184 43.8333 45.9845C43.7809 45.9563 43.7211 45.9451 43.662 45.9525C43.5989 45.9595 43.5364 45.9713 43.475 45.9878L43.2972 46.0636L42.4921 44.1744C42.8443 44.0526 43.1936 43.9239 43.5385 43.785C43.8834 43.6461 44.2224 43.4935 44.5918 43.3361L45.6177 42.8989C45.9597 42.7532 46.293 42.5869 46.6262 42.4207L51.2253 47.9972C51.3649 48.1808 51.5631 48.3114 51.7871 48.3673C52.012 48.42 52.2475 48.4053 52.4641 48.325L53.2692 50.2141C52.8657 50.3861 52.4621 50.5581 52.0445 50.6876C51.6269 50.8171 51.2234 50.9891 50.8198 51.1611C50.4163 51.3331 50.0948 51.4701 49.7566 51.6626C49.4184 51.8552 49.0559 52.0097 48.69 52.1656L48.454 52.2662L47.6489 50.377C47.7461 50.3343 47.839 50.2825 47.9265 50.2224C48.0248 50.1599 48.1154 50.0861 48.1965 50.0024C48.2756 49.9266 48.337 49.8343 48.3762 49.732C48.4137 49.6287 48.4087 49.5147 48.3624 49.415C48.303 49.2812 48.2196 49.1594 48.1163 49.0557C48.0067 48.9409 47.9084 48.8334 47.8179 48.7348L45.7967 49.5961C45.8086 49.7283 45.818 49.8736 45.8284 50.0307C45.8344 50.1715 45.8648 50.3101 45.9182 50.4405C45.9375 50.4915 45.9668 50.538 46.0044 50.5774C46.0421 50.6169 46.0872 50.6484 46.1372 50.6701C46.2385 50.7153 46.3487 50.7374 46.4597 50.7345C46.5793 50.738 46.6989 50.7251 46.8151 50.6961C46.9165 50.675 47.0159 50.6448 47.112 50.6058L47.9171 52.495L47.6914 52.5912C47.4075 52.7122 47.1237 52.8331 46.8258 52.9116C46.5279 52.9902 46.2406 53.1126 45.9568 53.2336C45.6729 53.3545 45.307 53.5105 45.003 53.6885C44.699 53.8664 44.3775 54.0035 44.0526 54.1419L43.2612 52.2469ZM47.0562 47.8767L45.3942 45.9207L45.7121 48.4494L47.0562 47.8767ZM53.4114 47.9213C53.5235 47.8652 53.631 47.8005 53.733 47.7277C53.8306 47.6625 53.9143 47.5788 53.9796 47.4813C54.0446 47.3908 54.0844 47.2847 54.0951 47.1738C54.1058 47.045 54.0827 46.9157 54.0281 46.7986L52.0991 42.2722C51.9411 42.3348 51.8132 42.4558 51.742 42.61C51.6897 42.7442 51.675 42.89 51.6995 43.0318C51.7248 43.1952 51.771 43.3545 51.837 43.5061C51.9054 43.6666 51.9665 43.8101 52.0248 43.9468L50.1336 44.7527C50.0867 44.5501 50.0237 44.3515 49.9452 44.1589C49.8636 43.9676 49.7835 43.7797 49.702 43.5884L49.2391 42.502C49.086 42.1424 48.9123 41.7919 48.7189 41.4522C50.0769 40.9596 51.412 40.4323 52.7243 39.8704C54.1059 39.2816 55.4713 38.6579 56.8206 37.9995C56.9317 38.3743 57.0643 38.7423 57.2176 39.1018L57.6806 40.1882C57.7621 40.3795 57.8422 40.5674 57.9237 40.7587C58.0082 40.9488 58.1078 41.1317 58.2216 41.3059L56.3304 42.1119C56.2722 41.9752 56.211 41.8317 56.1426 41.6712C56.083 41.5172 56.0022 41.3723 55.9025 41.2406C55.8145 41.1252 55.6969 41.0359 55.562 40.9821C55.3986 40.9287 55.2211 40.9382 55.0641 41.0086L56.9888 45.5248C57.0354 45.6453 57.1127 45.7515 57.213 45.8329C57.3004 45.902 57.4045 45.9467 57.5148 45.9626C57.6303 45.983 57.7487 45.9806 57.8633 45.9554C57.9865 45.9323 58.1076 45.8995 58.2257 45.8575L59.0308 47.7467C58.6238 47.9201 58.2237 48.0906 57.8095 48.2187C57.3953 48.3467 56.9986 48.5158 56.5917 48.6892C56.1847 48.8627 55.7846 49.0332 55.4019 49.2447C55.0193 49.4562 54.6191 49.6267 54.2122 49.8002L53.4114 47.9213ZM67.8593 35.588C67.7481 35.6457 67.6407 35.7103 67.5377 35.7816C67.4268 35.8535 67.3285 35.9431 67.2467 36.0469C67.1682 36.1426 67.1124 36.2547 67.0834 36.3749C67.0577 36.5045 67.074 36.6389 67.1298 36.7587L68.705 40.4551C68.9415 40.9494 69.0593 41.4921 69.0491 42.0401C69.0271 42.4536 68.8871 42.8523 68.6457 43.1889C68.3914 43.5277 68.0709 43.8112 67.7037 44.0223C67.289 44.2688 66.8578 44.4862 66.4132 44.6732C66.1259 44.7956 65.8215 44.9253 65.4966 45.0638C65.1668 45.1889 64.8301 45.2947 64.488 45.3806C64.154 45.4647 63.8123 45.5143 63.4681 45.5286C63.139 45.5413 62.8103 45.4955 62.4972 45.3934C62.1773 45.285 61.8852 45.1077 61.6415 44.8741C61.3521 44.5816 61.1253 44.2333 60.9749 43.8503L59.3516 40.0412C59.3049 39.9208 59.2276 39.8146 59.1273 39.7331C59.04 39.664 58.9358 39.6193 58.8255 39.6034C58.7112 39.5832 58.5941 39.5852 58.4805 39.6092C58.3574 39.6328 58.2363 39.6655 58.1181 39.7071L57.313 37.8179C57.7165 37.646 58.1225 37.4891 58.5309 37.3474C58.9392 37.2056 59.3452 37.0488 59.7487 36.8768C60.1522 36.7048 60.5558 36.5328 60.9385 36.3213C61.3211 36.1098 61.7247 35.9378 62.1282 35.7659L62.9333 37.655C62.8213 37.7113 62.7138 37.776 62.6117 37.8486C62.5151 37.9149 62.4315 37.9984 62.3651 38.0949C62.3014 38.1861 62.2617 38.2919 62.2497 38.4025C62.2403 38.5311 62.2645 38.6599 62.32 38.7762L63.7759 42.1924C63.8874 42.4633 64.0342 42.7184 64.2123 42.951C64.3623 43.1546 64.5597 43.3185 64.7875 43.4284C65.0167 43.5355 65.27 43.5807 65.5222 43.5593C65.8401 43.5267 66.1483 43.4311 66.4287 43.278C66.6255 43.1908 66.8018 43.0633 66.9461 42.9038C67.0904 42.7442 67.1996 42.5561 67.2665 42.3518C67.3759 41.8766 67.3151 41.3783 67.0947 40.9435C66.8414 40.3491 66.591 39.7615 66.3406 39.1739C66.0902 38.5863 65.8398 37.9987 65.5864 37.4043C65.5387 37.2811 65.453 37.1763 65.3417 37.105C65.2349 37.0427 65.1153 37.0053 64.992 36.9956C64.8605 36.9828 64.7278 36.9916 64.5991 37.0218C64.4763 37.0467 64.3553 37.0794 64.2367 37.1197L63.4316 35.2306C63.6847 35.1227 63.972 35.0003 64.308 34.8975C64.644 34.7946 64.9327 34.6756 65.1858 34.5678C65.5038 34.4322 65.8219 34.2967 66.1239 34.1236C66.426 33.9504 66.7421 33.8198 67.0601 33.6842L67.8593 35.588ZM70.5621 40.6122C70.6742 40.5562 70.7817 40.4914 70.8838 40.4187C70.9796 40.3532 71.064 40.2723 71.1332 40.1792C71.1994 40.0887 71.242 39.9831 71.257 39.8721C71.2703 39.7431 71.2483 39.613 71.1935 39.4955L69.5702 35.6864C69.5223 35.5661 69.4439 35.4604 69.3425 35.3798C69.2517 35.3159 69.1469 35.2748 69.0368 35.2598C68.9216 35.2453 68.8048 35.25 68.6912 35.2739C68.5681 35.297 68.4469 35.3298 68.3288 35.3718L67.5238 33.4826C67.8587 33.3195 68.2061 33.1835 68.5628 33.0761C68.9183 32.9649 69.268 32.8361 69.6106 32.6901C70.2228 32.4293 70.8281 32.1713 71.4062 31.8684C71.9843 31.5655 72.5876 31.3124 73.1998 31.0516C73.6219 30.8679 74.0612 30.7267 74.5113 30.6299C74.9067 30.5394 75.3167 30.5324 75.7148 30.6095C76.094 30.6861 76.4466 30.8599 76.738 31.114C77.0853 31.4441 77.3501 31.8511 77.5111 32.3023C77.6419 32.5919 77.722 32.9018 77.7481 33.2185C77.7687 33.4894 77.7396 33.7617 77.6622 34.0221C77.5843 34.2727 77.4628 34.5076 77.3032 34.716C77.1399 34.9328 76.9535 35.1314 76.7474 35.3081C77.034 35.2355 77.3332 35.228 77.623 35.2861C77.8378 35.3392 78.0386 35.4382 78.2114 35.5763C78.3663 35.7081 78.5021 35.8608 78.6149 36.03C78.7147 36.1875 78.827 36.3367 78.9505 36.4763C79.0544 36.5966 79.1858 36.6902 79.3335 36.7491C79.5119 36.798 79.7024 36.7761 79.8651 36.688L80.6556 38.543L80.0037 38.9097C79.7898 39.0365 79.5677 39.1487 79.3386 39.2456C78.8702 39.4517 78.363 39.555 77.8513 39.5484C77.3371 39.5266 76.8469 39.3257 76.4656 38.9804C76.2348 38.7828 76.0371 38.5495 75.8802 38.2894C75.714 38.0131 75.5433 37.7548 75.3667 37.5111C75.2102 37.2836 75.0128 37.0872 74.7844 36.9318C74.6695 36.8629 74.5406 36.8204 74.4072 36.8074C74.2738 36.7945 74.1391 36.8114 74.013 36.8569L73.6334 37.0187L74.1546 38.2417C74.2013 38.3626 74.28 38.4686 74.3822 38.5483C74.4721 38.6155 74.578 38.6581 74.6894 38.6717C74.8046 38.6862 74.9214 38.6815 75.035 38.6576C75.1581 38.6345 75.2793 38.6017 75.3974 38.5597L76.2025 40.4489C75.8094 40.6367 75.404 40.7973 74.989 40.9297C74.5777 41.0646 74.1703 41.218 73.7667 41.39C73.3598 41.5634 72.9597 41.734 72.577 41.9455C72.1943 42.157 71.7908 42.329 71.3873 42.5009L70.5621 40.6122ZM73.0224 35.6038L73.6653 35.3298C73.8506 35.2516 74.0191 35.1386 74.162 34.9971C74.291 34.8672 74.3739 34.6986 74.3979 34.5171C74.4202 34.2713 74.3737 34.0242 74.2634 33.8034C74.2098 33.6105 74.116 33.4311 73.9883 33.2769C73.8606 33.1227 73.7018 32.997 73.5223 32.9082C73.1343 32.8244 72.729 32.8839 72.3813 33.0756L72.0017 33.2374L73.0224 35.6038ZM84.6543 32.6974C84.633 32.6488 84.6016 32.6054 84.5621 32.57C84.5226 32.5346 84.476 32.508 84.4254 32.4922C84.3197 32.4628 84.2092 32.455 84.1004 32.4692C83.9756 32.4852 83.8534 32.5169 83.7366 32.5637L83.3433 32.7313L83.9154 34.0739C84.0465 34.3813 84.211 34.5494 84.4096 34.5697C84.6552 34.5866 84.901 34.5389 85.1225 34.4314C85.3077 34.3622 85.4711 34.2452 85.5962 34.0922C85.6894 33.9682 85.7427 33.8188 85.7491 33.6638C85.7566 33.4954 85.7354 33.327 85.6863 33.1658C85.615 32.9984 85.5749 32.8096 85.4988 32.6119L87.39 31.806C87.4565 32.0753 87.5445 32.3388 87.6531 32.594L87.9763 33.3524C88.1044 33.6531 88.2325 33.9537 88.3592 34.2509C88.4858 34.5481 88.635 34.8317 88.791 35.1124C88.0053 35.4687 87.203 35.7985 86.384 36.1018C85.5649 36.4051 84.7597 36.7281 83.9682 37.0708C83.486 37.2763 83.0072 37.4803 82.5435 37.7102C82.0798 37.9402 81.599 38.1491 81.1168 38.3546L80.3117 36.4654C80.4238 36.4093 80.5313 36.3446 80.6333 36.2718C80.7292 36.2064 80.8135 36.1254 80.8828 36.0323C80.949 35.9418 80.9915 35.8363 81.0066 35.7252C81.0199 35.5963 80.9979 35.4661 80.943 35.3486L79.3416 31.5908C79.2938 31.4705 79.2153 31.3648 79.1139 31.2842C79.0231 31.2203 78.9183 31.1792 78.8082 31.1642C78.6931 31.1497 78.5763 31.1544 78.4626 31.1782C78.3395 31.2014 78.2183 31.2342 78.1003 31.2762L77.2952 29.387C77.7705 29.1844 78.2425 28.9833 78.7212 28.8075C79.1999 28.6318 79.6728 28.4424 80.1482 28.2398C80.9028 27.9182 81.6801 27.5708 82.4801 27.1975C83.2802 26.8243 84.0575 26.4769 84.8121 26.1553C84.9066 26.4622 85.0113 26.7647 85.1345 27.0634C85.2577 27.3621 85.3893 27.6612 85.5174 27.9619L85.8406 28.7203C85.9483 28.9758 86.0763 29.2222 86.2234 29.4573L84.3322 30.2633C84.2579 30.089 84.1866 29.9217 84.1138 29.7508C84.0485 29.6005 83.9604 29.461 83.8527 29.3373C83.7561 29.2262 83.6268 29.1485 83.4833 29.1153C83.2995 29.0842 83.1106 29.1124 82.9438 29.1959C82.7044 29.2873 82.49 29.434 82.3181 29.624C82.183 29.7906 82.1834 30.0286 82.3144 30.336L82.8968 31.7025L83.2935 31.5334C83.4137 31.4787 83.5265 31.4089 83.6293 31.3257C83.7136 31.2588 83.7824 31.1744 83.8309 31.0783C83.853 31.0307 83.8648 30.979 83.8654 30.9266C83.866 30.8741 83.8555 30.8221 83.8346 30.774L84.8948 30.3222C84.9632 30.4828 85.0043 30.655 85.0653 30.8268C85.1264 30.9985 85.2109 31.1684 85.2721 31.3119C85.3332 31.4554 85.4177 31.6535 85.4832 31.8072C85.5487 31.961 85.6493 32.1401 85.7304 32.2831L84.6543 32.6974ZM64.2886 52.9536L64.8381 52.7921C64.4507 52.9451 64.3105 52.9765 64.2886 52.9536ZM61.7816 30.1735L61.9047 30.121C61.8114 30.1486 61.7855 30.1637 61.7816 30.1735ZM43.685 59.4332L43.7123 59.4215L43.8491 59.3632L43.685 59.4332ZM70.3909 48.2418C63.3701 51.1491 61.4015 51.6691 54.217 54.8561C50.7493 56.3056 47.0903 57.9416 43.726 59.4157C42.2138 60.3145 39.2802 61.3104 37.4744 62.2979L36.6833 62.4897C36.0262 62.8592 35.3367 63.1679 34.6235 63.4119L34.6485 63.3569C33.7112 63.8694 32.5852 64.2806 32.12 64.5354L32.1465 64.4837L30.9598 64.9895L31.1431 64.8508C29.4754 65.6785 27.7307 66.4301 26.166 67.0445L26.3552 67.1374C22.9783 68.3828 21.8987 69.2062 18.8321 70.2789L18.8586 70.2273C17.4491 70.9949 15.9818 71.6513 14.4701 72.1903C13.7745 72.4545 13.095 72.6996 12.3833 72.9828L11.8498 73.2101L11.4873 73.3646C11.3896 73.4122 11.2951 73.4659 11.2043 73.5256C11.1737 73.4538 11.0943 73.3908 11.0072 73.2907C11.107 73.4016 11.049 73.1801 11.0938 73.1811C10.9133 72.7575 10.7059 72.3373 10.5224 71.9351C10.3389 71.5329 10.1369 71.1063 9.96303 70.7647C9.61524 70.0813 9.32986 69.6298 9.17699 69.6788C8.62084 68.3738 8.81654 68.577 8.8566 68.3581C8.72665 68.4135 8.19637 67.3114 7.75226 66.2977L8.00302 66.7439L6.71525 63.8454L6.72044 64.5213C6.12933 62.9447 6.84713 64.0031 6.15715 62.5453L5.96411 62.6518C5.59183 61.7211 5.26817 60.7717 4.99442 59.8074C4.86664 59.3654 4.73545 58.9248 4.60236 58.4608L4.37959 57.7484C4.33009 57.6322 4.30162 57.499 4.25947 57.3717L4.22015 57.2794C4.20705 57.2487 4.20997 57.2555 4.20414 57.2419L4.1823 57.1906C4.14154 57.095 4.10077 56.9993 4.05855 56.9002L4.58521 56.6758L6.15494 56.0068L9.29402 54.6206L15.5757 51.8185C19.7428 49.9619 23.8486 48.1798 27.7537 46.7134L28.1597 46.718C28.4068 46.871 30.2234 45.4349 30.6243 45.5223L31.5158 45.0254C31.7931 44.9556 32.3646 44.7605 31.9131 45.0095C32.4227 44.8096 32.9131 44.5641 33.3785 44.276L34.3601 44.0191C37.808 42.6749 40.5891 41.1788 44.1916 39.7041C48.6098 38.1523 56.5954 34.4463 61.1961 32.3081C67.6064 29.1726 75.6079 26.8122 82.161 23.5754C82.4297 23.4809 82.6835 23.3483 82.9145 23.1817L84.9459 22.3159L85.8908 24.5331C85.8908 24.5331 98.4859 54.3247 90.6752 30.9428L90.7871 31.0727C89.4723 27.665 88.6014 25.5456 87.3686 23.326C87.3565 22.9347 87.2516 22.5519 87.0624 22.2092C86.9066 21.8437 86.7348 21.4406 86.5644 21.0409C86.3941 20.6412 86.1903 20.1629 85.9945 19.77C85.4166 20.0163 84.9275 20.2247 84.6095 20.3602L84.7293 20.281L84.1111 20.5847L83.6035 20.8253C83.3436 20.9361 83.0837 21.0468 82.8203 21.1591C82.2971 21.382 81.7588 21.5792 81.2239 21.7748C80.1671 22.136 79.1384 22.5744 78.146 23.0865C78.2827 22.9185 78.4666 22.7951 78.6739 22.7323C77.2468 23.385 75.2977 24.2923 75.1258 24.1637C71.7043 25.6743 66.8693 27.642 64.7799 28.8553L64.9134 28.7419C63.7335 29.4627 63.2972 29.4629 61.931 30.1542C61.847 30.1658 61.7435 30.1978 61.7562 30.1802C60.4654 30.9443 57.7734 31.9098 56.6988 32.4606L56.579 32.3785L53.8533 33.5684L54.8894 33.155C54.6814 33.6151 52.7545 33.8348 50.854 34.8748C48.9878 35.6257 47.3702 37.1305 45.3929 37.7915C44.539 38.3289 46.0981 37.2084 44.7797 37.9075C44.6653 37.7625 45.374 37.5291 44.9665 37.5494C43.6559 38.2007 42.6893 38.322 41.0787 39.1416L40.955 39.0409C38.8941 40.1977 36.8037 40.6122 35.4586 41.4479C33.2705 42.5055 33.8005 41.7105 31.5847 42.9494L30.6076 43.16C29.6008 43.5567 29.9865 43.6749 28.8489 44.0588C28.8688 43.9252 27.4172 44.568 28.0199 44.1901C25.4506 45.0832 23.0584 46.5911 19.6482 47.7013C19.0271 48.2163 17.3195 48.7987 16.8564 49.1817C16.7281 49.1274 13.5391 50.5954 15.3044 49.5888C15.4651 49.5203 15.7489 49.3993 15.7386 49.432L15.907 49.2109C13.9325 49.7738 12.5425 50.7981 10.6866 51.5446C11.2561 51.3544 11.9821 51.0288 11.5309 51.3261L9.82099 52.0548L10.1349 51.7959L7.54041 52.8289L7.93772 52.813C6.65009 53.281 6.10403 53.2513 4.77853 54.0382C4.18269 54.4132 6.0429 53.7053 4.73346 54.3117L3.4932 54.7676L1.07016 55.7195C1.69394 57.3065 2.3769 59.0418 2.99974 60.6171C3.0609 60.3529 3.3001 60.9331 3.58275 61.511L3.48191 61.6347C4.62935 63.8342 3.55671 62.5878 4.65539 64.7676L4.48203 64.6074L5.0021 65.0881C6.12869 67.03 5.20415 66.3018 6.51188 68.4127C6.11138 67.5299 6.61666 67.8716 7.02877 68.9998L6.78772 68.7755C7.00044 69.1623 7.19063 69.5611 7.35732 69.9699C7.13802 69.6354 7.09795 69.8543 7.4999 70.7406L7.08978 70.205L8.04343 71.8169C8.22842 72.4122 8.53561 73.133 8.82437 73.8011L9.43293 75.2291C9.64548 75.7278 9.83329 76.1686 9.95196 76.5418C10.0979 76.4861 10.2482 76.4423 10.4013 76.4109L12.7785 75.418C13.4466 75.1584 14.0886 74.8361 14.696 74.4555C14.1812 74.8121 15.7508 74.1997 15.3679 74.5244C16.5347 73.8227 17.7767 73.2541 19.0704 72.8294L18.9063 72.8994C22.1562 71.688 24.2731 70.3781 27.2078 69.3373C27.0138 69.2424 28.5467 68.6861 28.1041 68.6526C30.9856 67.2026 33.6637 66.7354 34.4852 65.6951C35.8161 65.0916 36.1371 65.1526 36.8444 64.8874L36.5395 65.0537C39.0396 63.9318 39.7685 63.6131 41.6518 62.8266C42.5622 62.3741 42.5904 62.023 44.2962 61.3889C43.8024 61.7285 44.4777 61.4165 45.1069 61.1483C44.7034 61.3203 44.605 61.4308 45.4598 61.1513C45.5961 61.0505 45.7402 60.9607 45.8909 60.8828C45.8909 60.8828 45.9319 60.8653 45.9265 60.9C46.9569 60.4164 46.7577 60.4609 46.2663 60.6542C46.2936 60.6426 46.2488 60.6132 46.073 60.6559C47.2168 60.3339 49.0996 59.366 49.3038 59.4849C52.4326 58.1031 54.6014 56.9527 57.1855 55.7627C57.5204 55.733 56.9447 56.0793 56.2015 56.4404L58.0439 55.6148C58.085 55.7588 57.0104 56.1481 56.4509 56.4189C58.7548 55.6994 60.915 54.2541 63.6019 53.3714L64.0922 53.0332L64.2534 52.9847C64.5183 52.7483 64.821 52.5579 65.1489 52.4215C65.5657 52.3851 65.2394 52.7098 66.5224 52.155C67.5964 51.8305 69.3806 50.8683 70.6833 50.2365C69.9564 50.522 70.1613 50.358 70.4501 50.1825C71.0931 49.9085 71.5256 49.8614 71.986 49.6046L72.1159 49.739C71.7988 49.6965 73.7218 48.8608 73.9301 48.6954C74.347 48.659 72.9786 49.222 72.8557 49.3793L76.708 47.7133C78.0236 47.0074 76.3929 47.666 76.9898 47.2461C78.2151 46.627 79.4719 46.0725 80.7552 45.5849L80.2563 45.628C81.9406 44.762 83.6899 44.0287 85.4882 43.4347C101.96 35.0346 88.3821 40.3163 88.3821 40.3163C81.5671 42.8533 78.2975 44.7391 70.3953 48.2521L70.3909 48.2418ZM66.1033 27.7504C66.2041 27.8447 66.2937 27.9317 66.3959 28.0294L66.4267 28.0163L66.1033 27.7504ZM20.1134 44.0517C19.9458 45.2307 19.8855 46.4224 19.9334 47.612L20.2075 47.5154C20.205 47.4916 20.2042 47.4677 20.2052 47.4438C20.2254 45.3991 20.4686 43.3626 20.9305 41.3703C21.3722 39.4593 22.0125 37.5995 22.841 35.8211C21.5193 38.4076 20.6039 41.1817 20.127 44.0459L20.1134 44.0517ZM15.8388 49.5629C15.8317 49.4892 15.8294 49.4175 15.8237 49.3473L15.7567 49.4364C15.7599 49.4915 15.7632 49.5466 15.7685 49.5969L15.8388 49.5629ZM73.9756 48.6598C73.7195 48.8108 73.4559 48.9488 73.1859 49.0731L73.1749 49.1706C73.5815 48.9489 74.2802 48.635 73.9756 48.6598ZM60.3754 76.0962L60.3994 76.086C60.4355 76.0622 60.4705 76.0365 60.504 76.0091C60.4517 76.0475 60.4053 76.0714 60.3652 76.1006L60.3754 76.0962ZM59.2792 75.9135L59.8297 75.5457C57.4175 76.6373 54.8925 77.4602 52.3004 77.9995C49.0821 78.6996 45.7692 78.8532 42.5007 78.454C39.0952 78.0358 35.7904 77.0215 32.7377 75.4577C30.0124 74.0439 27.5126 72.2334 25.3202 70.0853L25.3373 70.078C25.4911 70.2304 25.643 70.3877 25.7954 70.5367L25.3441 70.0751L25.6177 69.9585C25.9537 70.2916 26.3018 70.6155 26.6305 70.9316C27.5146 71.7245 28.4544 72.4531 29.4427 73.1118C30.6349 73.899 31.8884 74.5891 33.1913 75.1755C34.1925 75.6289 35.2363 75.9819 36.3074 76.2292C37.043 76.3719 37.3599 76.3378 37.0307 76.03C35.9454 75.9677 33.7241 75.2593 31.2819 73.8337C29.3597 72.7141 27.585 71.3591 25.9988 69.8001C26.4092 69.6252 26.8386 69.4665 27.2811 69.3102C27.1695 69.2568 27.6199 69.0527 27.9469 68.8811C28.7454 69.5994 29.5876 70.2678 30.4687 70.8823C31.4479 71.5872 32.5566 72.0835 33.9681 72.8262C35.4 73.5189 36.8933 74.0771 38.4288 74.4936C38.0631 74.3467 37.7043 74.1686 37.3485 73.9973C38.4491 74.4309 39.5934 74.7444 40.7616 74.9325C41.2977 75.0148 41.8241 75.1215 42.3979 75.1878L43.2667 75.3302C43.5761 75.3638 43.8947 75.4097 44.2342 75.4668C44.4857 75.3653 44.7593 75.3308 45.028 75.3667C46.9673 75.4606 48.9248 75.4741 50.4547 75.1572C52.2484 74.9038 54.005 74.4345 55.6861 73.7593C56.0455 73.6546 56.7157 73.2075 57.4091 72.8716L58.6736 72.2641L59.9037 71.5946L59.7826 71.6139L58.7691 72.1467C58.4387 72.3198 58.0791 72.4811 57.7366 72.6634C55.5551 73.7604 53.2242 74.5307 50.8188 74.9495C45.2633 75.8637 39.5624 75.0913 34.4535 72.7324C33.3673 72.2484 32.3121 71.6978 31.294 71.0837C30.1805 70.4017 29.1278 69.6254 28.1473 68.7634C28.2582 68.6919 28.2964 68.6393 28.1637 68.6313C28.583 68.4203 28.9958 68.2323 29.3979 68.0569C30.1753 68.7394 30.9927 69.375 31.8457 69.9604C36.017 72.8218 40.9122 74.4489 45.9692 74.6548C46.3484 74.6627 46.7033 74.6609 47.0435 74.6531L48.0461 74.5689C48.3756 74.5456 48.7022 74.4871 49.0376 74.4491C49.373 74.4112 49.7284 74.3727 50.1 74.3153C51.5917 74.1305 53.0638 73.8112 54.4981 73.3613C54.4981 73.3613 54.4879 73.3374 54.4328 73.3407C57.3753 72.4161 60.1276 70.9697 62.5579 69.0708C65.0054 67.1465 67.0754 64.7862 68.6632 62.1093C70.2231 59.589 71.3571 56.8295 72.0198 53.9417C72.0647 53.7276 72.1232 53.5166 72.1951 53.3099C72.2364 53.1768 72.2861 53.0464 72.3439 52.9195C72.4683 52.6791 72.5648 52.4253 72.6318 52.1631C72.8617 51.1949 73.0347 50.214 73.1499 49.2257L76.0016 47.9902C76.0217 48.1511 76.037 48.3101 76.0527 48.4609C76.1193 49.3851 76.1973 50.0139 76.3137 49.7181C76.3834 49.2866 76.4069 48.849 76.3837 48.4126L76.3505 47.8415L76.7814 47.6579C76.8478 49.2091 76.7843 50.7634 76.5915 52.3042C76.3641 53.9826 76.003 55.6402 75.5116 57.2613C75.0429 58.8139 74.4479 60.3258 73.7324 61.7816C73.0231 63.2339 72.2055 64.6308 71.2864 65.9605C70.3258 67.3365 69.2573 68.6342 68.0911 69.8412C67.8763 70.0578 67.6727 70.2818 67.4487 70.4863C66.2605 71.6334 64.9684 72.6678 63.589 73.5763C62.2264 74.4917 60.7799 75.2758 59.269 75.9179L59.2792 75.9135ZM74.4941 51.7731L74.456 52.3948L74.3906 53.0282L74.4584 52.846C74.5206 52.4918 74.5326 52.1306 74.4941 51.7731ZM71.7864 60.6573C72.5134 59.2915 73.0861 57.8493 73.4938 56.3572C73.9545 54.6914 74.2532 52.9852 74.3856 51.2623C74.3754 51.2384 74.3681 51.2213 74.3495 51.2252C74.1684 52.7959 73.8799 54.3526 73.4861 55.8841C73.0657 57.5233 72.4968 59.121 71.7864 60.6573ZM64.4249 68.4164L64.4864 68.3902L64.4777 68.3697L64.4249 68.4164ZM20.0059 42.6807C19.6827 44.3342 19.5736 46.0223 19.6814 47.7033L19.76 47.6698C19.7644 47.0826 19.7839 46.493 19.818 45.9093C19.8975 44.8176 20.0375 43.7311 20.2373 42.6547C20.6067 40.7246 21.153 38.8325 21.8694 37.0022C21.0555 38.8265 20.4311 40.7293 20.0059 42.6807ZM80.1137 48.2803L79.9013 48.7301C79.8371 47.6312 79.765 46.7698 79.7132 45.9846C78.9267 46.3198 78.2123 46.6727 77.4955 47.0104C77.5308 47.5201 77.5662 48.0298 77.5913 48.5439C77.75 51.5664 77.4181 54.595 76.6086 57.5123C75.8258 59.922 74.7032 62.2081 73.2749 64.3017C72.9781 64.7431 72.6876 65.1898 72.3507 65.6321L71.8385 66.3267L71.2858 67.0305C70.9239 67.5278 70.4913 68.0109 70.0307 68.5705C69.5701 69.1301 69.0475 69.696 68.4408 70.3016C67.2437 71.4639 65.9657 72.54 64.6165 73.5219C63.2725 74.4885 61.8579 75.353 60.3847 76.1084C60.0164 76.3633 59.6295 76.5902 59.2273 76.7873C58.7778 77.0031 58.2732 77.194 57.7705 77.4082C57.2677 77.6224 56.711 77.7668 56.2269 77.9489C55.7526 78.0962 55.2863 78.268 54.8298 78.4636C54.5892 78.4773 54.3423 78.4574 54.1027 78.4546C53.7945 78.5786 53.4794 78.6846 53.159 78.772C52.8361 78.8494 52.5065 78.8953 52.1747 78.9088L52.2051 78.8474C51.7598 78.9926 51.3006 79.0909 50.835 79.1407C50.4 79.201 50.0241 79.2482 49.7965 79.2927L49.8298 79.2381L48.7007 79.3479L48.8956 79.2648C47.3126 79.4895 45.7062 79.4949 44.122 79.2809L44.2181 79.5063C42.6468 79.2233 41.5733 79.1035 40.5401 78.9263C40.0107 78.8488 39.4869 78.7376 38.9718 78.5935C38.7016 78.5189 38.4124 78.4283 38.1198 78.339C37.8272 78.2498 37.5181 78.1029 37.1871 77.9615L37.2486 77.9352C35.695 77.6554 34.2116 77.0739 32.8823 76.2236C31.6416 75.4646 30.4448 74.6668 28.7641 73.8047C29.1902 74.0268 28.6753 73.5963 28.73 73.573C27.2906 72.6323 25.929 71.4001 25.6126 71.6722C25.3395 71.4664 25.1093 71.2095 24.9346 70.9157C24.8822 70.7927 24.953 70.7504 24.9519 70.6338C24.9054 70.6859 24.7533 70.6135 24.5443 70.4644C23.6707 70.8609 22.8112 71.2716 21.9014 71.6875C22.0364 71.7955 22.1893 71.908 22.3779 72.0375C21.6952 71.3839 22.3622 71.4508 23.1103 72.3148L22.7806 72.2333C23.2573 72.6598 23.4479 72.7562 23.7414 73.0751C23.3949 72.8878 23.4119 73.1268 24.1303 73.741L23.5161 73.4376C24.0341 73.7618 24.5384 74.0918 25.0765 74.3873C25.3348 74.6694 25.6131 74.9325 25.9091 75.1748C26.2326 75.4406 26.5663 75.6738 26.8815 75.9108C27.5178 76.3703 28.0928 76.7429 28.2561 77.0124C28.3825 77.1085 28.5137 77.1981 28.6493 77.2807C28.8895 77.4367 29.2111 77.6508 29.5762 77.8626C30.163 78.2407 30.8051 78.5254 31.4795 78.7065C30.8633 78.5977 32.3046 79.3721 31.7981 79.3498C32.5682 79.5544 34.7227 80.2671 35.5136 80.7576L35.3443 80.7207C36.7414 81.3073 38.2067 81.7162 39.706 81.9378C41.0881 82.1845 42.4309 82.3105 43.9241 82.5905C43.8046 82.3669 45.3858 82.5973 45.0098 82.2933L46.146 82.2854C46.5139 82.286 46.8707 82.3076 47.2181 82.317C47.9078 82.3137 48.5567 82.3762 49.141 82.3533C49.6641 82.3613 50.1867 82.317 50.7011 82.2212C51.0862 82.154 51.4447 81.9803 51.736 81.7196C52.2112 81.6241 52.6944 81.5736 53.179 81.5689C53.4964 81.5898 53.8152 81.5784 54.1303 81.5349L53.8191 81.6675L55.4419 81.2463L56.6532 80.8835C57.0155 80.7856 57.3634 80.6536 57.7184 80.5386C58.0735 80.4236 58.4877 80.2955 58.9401 80.1148C59.8216 79.6705 59.8221 79.2828 61.4346 78.6481C60.9857 79.017 61.6317 78.7216 62.2054 78.4084C61.8476 78.6215 61.7541 78.7339 62.5635 78.4334C62.6791 78.3161 62.806 78.2106 62.9425 78.1185C62.9425 78.1185 62.9836 78.101 62.9845 78.141C63.9165 77.5783 63.7149 77.6077 63.2653 77.8518C63.2756 77.8191 63.2259 77.8161 63.0657 77.848C63.6882 77.5965 64.2854 77.2866 64.8493 76.9224C65.4076 76.5634 65.8646 76.2798 65.9981 76.3561C67.1886 75.5075 68.299 74.552 69.3155 73.5013C69.545 73.2622 69.7822 73.032 70.0078 72.8026L70.6538 72.0712C71.099 71.5989 71.4893 71.0733 71.9317 70.5658C72.2429 70.4332 71.9063 70.9803 71.409 71.596C71.8284 71.1104 72.2653 70.6376 72.6531 70.1252C72.7257 70.1911 72.5714 70.4265 72.3516 70.6977C72.1318 70.969 71.827 71.2684 71.6381 71.4983C72.0968 71.1286 72.5111 70.7068 72.8725 70.2416C73.0614 70.0117 73.2411 69.7697 73.4242 69.5261C73.6074 69.2826 73.7652 69.0175 73.9342 68.7598C74.6253 67.7266 75.2362 66.5903 76.0689 65.529C76.1236 65.3443 76.1587 65.1517 76.2035 64.963L76.3029 64.8359C76.2283 64.8031 76.4171 64.2221 76.5825 63.861C76.9082 63.6011 76.9309 64.0717 77.5078 62.8652C77.865 62.271 78.1463 61.6344 78.345 60.9704C78.5767 60.2056 78.7973 59.4052 78.9468 58.7319C78.6928 59.4255 78.6754 59.1665 78.7074 58.834C78.9076 58.2037 79.1934 57.8882 79.2556 57.3894L79.442 57.3906C79.3792 57.3286 79.4299 56.9639 79.4929 56.5617C79.5697 56.1742 79.6172 55.7816 79.6348 55.387C79.8953 55.05 79.5693 56.4282 79.646 56.6175C79.9342 55.312 80.0008 54.9848 80.0578 54.6538L80.1588 54.0375C80.1966 53.7469 80.2679 53.3452 80.3491 52.6728C80.3403 51.2395 80.0986 52.9006 79.9749 52.2025C80.0673 50.9118 79.9565 49.7036 80.1137 48.2803ZM15.3361 49.5874C14.2981 50.167 14.9683 49.9097 15.7245 49.6076C15.7027 49.5563 15.7136 49.4871 15.7123 49.4271C15.582 49.4684 15.4561 49.5221 15.3361 49.5874ZM79.4768 57.3395L79.4217 57.3428C79.4217 57.3428 79.4524 57.358 79.4768 57.3395ZM38.7512 21.4479C37.1953 21.9383 35.6841 22.5607 34.2341 23.3083C31.4308 24.7532 28.9072 26.6857 26.7819 29.0151C24.807 31.1924 23.2237 33.6944 22.1021 36.4105C22.0255 36.6006 21.9328 36.8096 21.8571 37.0114C24.0253 32.1567 27.5287 28.0164 31.9594 25.0729C28.9088 27.1593 26.3214 29.8519 24.3589 32.9824C23.7994 33.8991 23.2926 34.8469 22.841 35.8211C23.8241 33.9192 25.0155 32.1321 26.3933 30.4926C27.7806 28.8683 29.3491 27.4076 31.0681 26.139C33.8982 24.0023 37.1082 22.422 40.5276 21.482C43.9887 20.5347 47.5976 20.2514 51.1632 20.647L52.3771 20.8119L53.5737 21.0407C50.3192 20.2432 46.9469 20.0394 43.619 20.4391C41.9689 20.6253 40.3394 20.963 38.7512 21.4479ZM20.5637 34.0427C20.6917 33.7742 20.8208 33.4891 20.9762 33.2089C21.1316 32.9288 21.2987 32.6476 21.4706 32.3685C22.3652 30.9076 23.369 29.5164 24.4735 28.2066C22.2799 30.6931 20.5596 33.559 19.3972 36.6631C19.568 36.2673 19.7876 35.8912 19.9828 35.5053C20.1476 35.0086 20.3426 34.5225 20.5666 34.0495L20.5637 34.0427ZM12.7167 50.5907C12.527 49.6072 12.5184 48.5972 12.6913 47.6104L12.8664 47.8506C12.8162 47.8276 12.8062 48.1265 12.8258 48.2958C12.8841 48.7836 12.953 48.9358 12.979 48.8925C13.0174 48.6963 13.038 48.497 13.0405 48.2971C13.0781 47.6837 13.0963 46.8161 13.1755 46.7743C13.1042 46.2927 13.0955 45.8039 13.1497 45.3199C13.2224 44.7858 13.2174 44.2441 13.1351 43.7115C13.6013 42.0273 13.8798 40.5282 14.2155 39.1256C14.3783 38.4266 14.5627 37.7532 14.769 37.1056C14.9736 36.4709 15.2331 35.8551 15.5446 35.2653C15.4282 35.9406 15.9915 34.5219 16.0946 34.6596C16.6802 33.6632 16.2548 33.7839 16.7476 32.8635C16.9673 32.6205 17.1982 32.3848 17.4209 32.1487C17.525 31.8621 17.6227 31.6267 17.7164 31.4294C17.7983 31.2663 17.8903 31.1084 17.9918 30.9567C18.1254 30.7557 18.2832 30.5718 18.4617 30.4093C18.9636 29.9826 19.3806 29.4653 19.6909 28.8844C20.0949 28.1161 20.625 27.4208 21.2591 26.8275L21.7685 26.2875C21.9475 26.1103 22.1271 25.9248 22.3086 25.7344C22.4901 25.544 22.661 25.338 22.8265 25.11C23.0164 24.9081 23.1961 24.6968 23.3649 24.4769L23.5462 24.5611C24.668 23.2393 25.5985 22.9478 26.6076 21.997C27.0099 21.9264 26.4 22.2873 26.5851 22.4466C27.5943 21.4675 26.533 22.9693 27.1488 22.2427C27.5706 21.9953 27.963 21.7008 28.3183 21.3648C28.6876 21.046 29.0388 20.6945 29.3887 20.3395C30.0562 19.6183 30.8383 19.0122 31.7034 18.5457C32.1092 18.254 32.5521 18.0177 33.0204 17.8432C33.4094 17.6821 33.8099 17.5506 34.2186 17.4496C34.9462 17.2606 35.461 17.122 35.5573 16.8549C35.2227 16.9612 34.8934 17.0894 34.5584 17.2039C35.427 16.8337 36.3219 16.525 37.2182 16.2198L37.3379 16.3585C38.1406 16.0812 38.9633 15.8656 39.7988 15.7134C40.2856 15.5947 40.7871 15.5102 41.2495 15.41C41.7119 15.3098 42.1368 15.1974 42.4811 15.095C42.4811 15.095 42.5699 15.1137 42.6567 15.1373C43.0249 15.053 43.3091 15.0086 43.5693 14.9744C43.8295 14.9402 44.0559 14.9406 44.2751 14.9239C44.7857 14.888 45.2922 14.8072 45.7886 14.6825L45.6313 14.7496C47.2691 14.4818 48.9361 14.4425 50.5843 14.6329C52.5714 14.8283 54.5375 15.1966 56.4602 15.7335C56.5016 15.9823 58.3516 16.4735 59.754 16.986C59.6083 16.9297 59.448 16.9241 59.2987 16.9701C60.3342 17.2592 61.3212 17.6996 62.2277 18.277C63.1474 18.8714 64.1034 19.4077 65.0901 19.8828L65.0043 19.871C65.3277 20.1368 66.0343 20.5623 66.6883 20.9779C67.3422 21.3935 67.8789 21.8753 67.9139 22.147C68.427 22.4692 68.9304 22.7875 69.4107 23.156C69.9027 23.5362 70.3731 23.9435 70.8197 24.3761C71.1902 24.7429 71.5729 25.1288 71.9476 25.5625C71.0653 25.9385 70.1761 26.3175 69.3177 26.6833C69.0777 26.4425 68.842 26.2119 68.622 25.9989L67.6485 25.118C67.3758 24.8669 67.1385 24.6895 67.0008 24.5463L66.7567 24.3435C65.2379 23.0819 63.6021 21.9678 61.8716 21.0163C61.6208 20.9758 61.381 20.8842 61.167 20.7474C60.228 20.3645 59.2689 19.982 58.2908 19.6117L58.1308 19.5588C56.9073 19.1626 55.6644 18.8287 54.407 18.5582C52.646 18.1764 50.8513 17.9704 49.0492 17.9432C49.3732 17.9828 49.6982 18.0057 50.0182 18.055L50.9852 18.2C50.3659 18.1692 49.7481 18.1419 49.2029 18.1522C48.5456 18.1175 47.7804 18.1045 47.0713 18.0999C46.4683 18.0998 45.866 18.1407 45.2686 18.2223C43.755 18.4637 42.1457 18.7458 40.5191 19.1484C38.8523 19.536 37.233 20.1056 35.6906 20.8469C35.1947 21.0582 34.7025 21.3729 34.2011 21.6471C33.6997 21.9214 33.1903 22.2717 32.6678 22.5912C31.6243 23.2941 30.6262 24.0619 29.6792 24.8901C29.6996 24.938 29.4629 25.1317 29.2595 25.2991C29.0561 25.4665 28.9054 25.6155 29.1008 25.5241C28.6465 25.8994 28.1542 26.2707 27.7139 26.6884C27.4933 26.8914 27.2678 27.0925 27.0555 27.296L26.4615 27.9124C26.1161 28.2736 25.795 28.6573 25.5002 29.0608C25.2789 29.3389 25.0955 29.6451 24.9548 29.9714L24.8549 30.1068C24.7167 30.274 24.5892 30.4497 24.4729 30.6329C23.3756 31.9713 22.4588 33.4478 21.7458 35.0244C21.0792 36.5111 20.5407 38.0519 20.1363 39.6299C19.7823 40.7932 19.4898 41.9742 19.26 43.1681C19.341 42.7703 19.4647 42.2735 19.5796 41.7846C19.6945 41.2956 19.8494 40.8057 19.9396 40.4201L20.1421 39.6436C20.5817 38.1898 21.1223 36.7684 21.7601 35.3897C22.3981 34.0423 23.1345 32.7436 23.9633 31.504C24.0863 31.2901 24.2862 30.9627 24.4729 30.6329C24.608 30.4663 24.7392 30.3095 24.8943 30.1424C24.9111 30.0869 24.9312 30.0299 24.9548 29.9714C26.6467 27.6357 29.1268 25.4808 31.126 24.0274C32.0946 23.3443 33.1111 22.7317 34.1675 22.1943C35.2501 21.6577 36.3661 21.1915 37.5087 20.7987C39.7986 20.0166 42.1796 19.5324 44.5928 19.358C42.4647 19.6129 40.3736 20.1166 38.3626 20.8586C38.8511 20.6867 39.3478 20.5437 39.8289 20.3831C40.5024 20.2091 41.1607 20.0092 41.8297 19.8816C43.1347 19.5936 44.4583 19.3977 45.7906 19.2956C46.1923 19.2899 46.5882 19.2706 46.9928 19.2717L48.2568 19.2982L49.5069 19.387L48.3383 19.2715L47.1725 19.2193C48.74 19.1605 50.3096 19.2258 51.8666 19.4148C53.9977 19.7065 56.089 20.2371 58.101 20.9964C60.1374 21.7765 62.0799 22.782 63.8922 23.994C65.341 24.9612 66.6952 26.0627 67.937 27.2838L67.6327 27.4135C66.5789 26.4263 65.4247 25.5517 64.189 24.8041C65.1448 25.5108 65.9432 26.1232 66.6923 26.7809C66.9597 27.0101 67.2202 27.2421 67.4768 27.484L66.954 27.727C66.4327 27.2306 65.8926 26.7597 65.3337 26.3144C64.832 25.8863 64.2936 25.5143 63.7748 25.1219C63.256 24.7294 62.6985 24.3695 62.138 24.0594C59.9119 22.6982 57.5016 21.6632 54.9809 20.9859C52.7312 20.3265 50.4097 19.9414 48.067 19.8392C45.7451 19.7492 43.4205 19.944 41.1456 20.4194C45.3718 19.4 49.7694 19.3171 54.0297 20.1763C49.6813 19.229 45.1683 19.3363 40.8682 20.4891C36.7249 21.4152 32.8494 23.2809 29.5415 25.9418C26.4962 28.3997 24.0463 31.5138 22.3753 35.0508C21.5861 36.7375 20.9365 38.486 20.4329 40.2785C19.8512 42.3458 19.5172 44.4746 19.438 46.6202C19.416 47.0333 19.4165 47.461 19.4257 47.8809C18.6793 48.3483 17.2901 48.8435 16.8778 49.1847C16.5964 49.2545 16.3222 49.351 16.0592 49.473C16.0469 49.0745 16.0382 48.6746 16.0294 48.2747C16.0169 46.7663 16.1219 45.3248 16.193 43.9746C16.1384 43.9696 16.3632 42.6386 16.1806 43.0635C16.2278 42.7286 16.2955 42.3849 16.3612 42.046C16.4269 41.7072 16.4986 41.3537 16.5751 41.0022C16.6879 40.5747 16.7978 40.1404 16.9194 39.7051C16.6489 40.5247 16.4227 41.3581 16.2418 42.2019C15.8379 44.5258 15.6976 46.8876 15.8235 49.2424L15.7483 49.2745C15.7233 48.7039 15.712 48.1274 15.7241 47.549C15.7316 47.1018 15.7212 46.5371 15.7226 45.9714C15.6472 47.0771 15.6381 48.1863 15.6955 49.293C14.6661 49.6369 13.6701 50.0735 12.7196 50.5975L12.7167 50.5907ZM36.6693 19.7678C36.5359 19.8246 36.4026 19.8814 36.2803 19.9739C35.5564 20.238 34.8979 20.4661 34.2843 20.7236C33.6707 20.9811 33.0874 21.2337 32.4976 21.5092L32.6946 21.393L32.3672 21.5729C31.5309 21.9925 30.7302 22.4795 29.9732 23.0291C29.585 23.3035 29.2143 23.619 28.8363 23.9173C28.277 24.3211 27.761 24.7792 27.2323 25.2265C26.7036 25.6738 26.2032 26.1495 25.7383 26.6705C24.7717 27.6444 23.8779 28.6877 23.064 29.7922C22.2766 30.8702 21.5651 32.0016 20.9348 33.1781C20.3429 34.2974 19.8343 35.4586 19.4129 36.6524C18.9192 38.0037 18.5441 39.3953 18.292 40.8115C18.1503 41.4935 18.071 42.1893 17.9649 42.8885C17.8587 43.5876 17.8131 44.3054 17.7776 45.0472L17.8837 44.348C17.9238 44.1008 17.9782 43.8395 18.0242 43.5777L18.1612 42.8088C18.2097 42.5621 18.2556 42.3286 18.2732 42.1233C18.3617 41.4397 18.5215 40.7621 18.6672 40.0703C18.8128 39.3785 19.0204 38.7088 19.2539 38.024C19.4874 37.3391 19.7379 36.6753 20.0075 35.9993C20.277 35.3234 20.59 34.6733 20.9322 34.035C21.5888 32.7446 22.345 31.5073 23.194 30.3343C23.6093 29.7536 24.0621 29.1852 24.5047 28.6212C24.9472 28.0572 25.4239 27.5352 25.9161 27.0307C27.4622 25.4257 29.2086 24.0262 31.1122 22.8666C32.9343 21.7782 34.815 20.7907 36.7456 19.9088L36.6693 19.7678ZM54.4554 18.3116C53.5269 18.0291 52.5709 17.7866 51.604 17.5851C49.0548 17.0334 46.4342 16.8874 43.8388 17.1524L43.5994 17.2544C43.0458 17.5105 42.788 17.7495 43.461 17.7453C45.2751 17.5303 47.1038 17.4666 48.9281 17.5548C50.7161 17.6406 52.4937 17.8755 54.2423 18.2571L54.4554 18.3116ZM28.4657 24.3658C29.7556 23.3383 31.1039 22.3863 32.504 21.5146L32.3535 21.5788C31.1256 22.2812 29.9464 23.0655 28.8241 23.9265C27.2488 25.2179 25.7933 26.6488 24.4754 28.2017C25.6938 26.8119 27.0288 25.5286 28.4657 24.3658ZM33.5103 22.5107C34.1637 22.1474 34.8463 21.8525 35.5201 21.5371C36.1938 21.2217 36.888 20.9542 37.6026 20.7344C38.3171 20.5147 39.0273 20.2847 39.7242 20.0805C40.4212 19.8764 41.1663 19.7283 41.9025 19.6164C43.3712 19.3488 44.8609 19.2138 46.3536 19.2131C48.1936 19.1009 50.04 19.1684 51.8666 19.4148C52.5834 19.4848 53.2863 19.6171 53.9966 19.7383C54.7069 19.8594 55.4044 20.0264 56.0984 20.2231C59.636 21.2192 62.9362 22.9167 65.8024 25.2144C66.5922 25.8446 67.3487 26.5152 68.0689 27.2236L68.688 26.9598C67.7295 25.9997 66.7033 25.1096 65.6173 24.2963C62.3165 21.8341 58.5748 20.0253 54.5934 18.9672L54.4022 18.9357C52.2853 18.5654 50.1434 18.3542 47.9946 18.3038C45.6404 18.2547 43.2902 18.527 41.0092 19.1131C36.8579 20.305 32.9294 22.181 29.6821 24.897C30.2933 24.4347 30.9307 24.0339 31.5608 23.616C32.1909 23.1981 32.8438 22.8432 33.5138 22.5092L33.5103 22.5107ZM45.4657 19.2726L44.5903 19.3712C44.9862 19.3518 45.3973 19.3018 45.8018 19.3029C46.2714 19.2764 46.7342 19.2245 47.1974 19.2209C46.9119 19.2053 46.6283 19.2131 46.3467 19.216L45.4657 19.2726ZM59.7506 16.9874C59.8042 17.009 59.8598 17.0256 59.91 17.0486C59.8569 17.0188 59.8047 17.0007 59.7574 16.9845L59.7506 16.9874ZM42.446 15.0979L42.5657 15.0469C42.5259 15.0573 42.4878 15.0735 42.4528 15.095L42.446 15.0979ZM76.6135 64.3604L76.2771 64.7944C76.3249 64.8022 76.4194 64.7015 76.6237 64.356L76.6135 64.3604ZM40.074 20.7307L41.1612 20.4369L40.8823 20.5033L40.074 20.7307ZM36.9455 30.0404L33.0153 32.4338L37.3032 34.0941L38.3646 38.5665L41.2879 34.9956L45.8712 35.3675L43.3803 31.5043L45.1525 27.2614L40.7074 28.4372L37.2173 25.4439L36.9455 30.0404ZM52.7666 63.059L49.6873 64.9364L53.0498 66.2363L53.8822 69.7446L56.1618 66.9485L59.7576 67.2407L57.8034 64.2104L59.1946 60.8847L55.7043 61.8071L52.9706 59.4602L52.7666 63.059ZM41.7449 65.9275L39.2358 66.5164L41.2275 68.1461L41.0153 70.711L43.1822 69.3193L45.562 70.3234L44.9067 67.8376L46.5884 65.8857L44.0162 65.7386L42.6755 63.5408L41.7449 65.9275ZM63.332 57.2041L61.9493 59.0326L64.2383 59.0179L65.5461 60.8825L66.2342 58.7042L68.4232 58.0377L66.5631 56.7072L66.6087 54.4151L64.7635 55.7747L62.5979 55.0264L63.332 57.2041Z" fill="#9F9E9D"/>
</g>
</svg>
