<svg width="1058" height="504" viewBox="0 0 1058 504" fill="none" xmlns="http://www.w3.org/2000/svg">
<g id="line5">
<path id="Vector" d="M503.305 503L503.305 1.31469L504.533 1.31469L504.532 503L503.305 503ZM503.305 502.95L504.513 502.95L504.513 501.915L504.432 501.034L504.461 502.891L503.305 502.95ZM504.793 491.548L504.76 486.764C504.519 489.5 504.588 485.815 504.415 493.281C504.454 495.894 504.536 501.664 504.63 500.897C504.63 499.018 504.529 496.264 504.559 493.468C504.627 494.667 504.62 497.668 504.712 499.064C504.783 494.558 504.653 496.236 504.686 491.279L504.793 491.548ZM504.555 485.897C504.594 486.353 504.637 486.809 504.673 486.709C504.633 486.235 504.581 483.918 504.559 485.874L504.555 485.897ZM504.529 482.983C504.529 479.968 504.617 483.037 504.63 482.727L504.477 479.302L504.529 482.983ZM504.529 470.454L504.529 469.054C504.513 469.513 504.518 469.973 504.542 470.431L504.529 470.454ZM504.513 464.297C504.458 465.529 504.49 467.084 504.513 469.054L504.513 468.858C504.559 467.134 504.669 468.762 504.64 471.544C504.663 474.459 504.555 474.194 504.64 476.721L504.728 473.255C504.728 468.657 504.568 466.053 504.526 464.274L504.513 464.297ZM504.529 470.454L504.529 472.092C504.568 471.344 504.559 470.856 504.542 470.431L504.529 470.454ZM504.529 476.753L504.552 478.313L504.601 477.934L504.529 476.753ZM504.529 454.013C504.679 454.738 504.513 461.365 504.63 462.163C504.63 458.117 504.734 454.866 504.816 455.778L504.77 451.29C504.699 449.744 504.588 451.646 504.516 453.99L504.529 454.013ZM504.91 445.224C504.91 444.932 504.888 444.59 504.884 444.202C504.878 444.668 504.884 445.083 504.897 445.201L504.91 445.224ZM504.65 422.53L504.803 433.019C504.717 432.033 504.679 431.039 504.689 430.046C504.669 434.689 504.767 435.291 504.751 439.113C504.611 440.266 504.751 432.363 504.614 434.552C504.614 437.238 504.614 441.293 504.744 443.454L504.65 447.742L504.803 446.291C504.848 444.549 504.682 442.784 504.803 441.73C504.868 441.192 504.881 442.93 504.897 444.161C504.865 441.393 505.018 436.591 504.998 430.967C504.956 425.011 504.712 426.415 504.637 422.507L504.65 422.53ZM504.822 422.133L504.881 421.435L504.8 421.914L504.822 422.133ZM504.62 410.69L504.715 416.163C504.715 416.751 504.673 417.075 504.643 417.472C504.679 417.262 504.738 418.726 504.767 418.493C504.907 415.971 504.725 411.807 504.699 408.884C504.76 401.13 504.774 409.235 504.904 406.225L504.858 411.479C505.015 406.74 504.858 400.784 504.832 397.746C504.832 398.631 504.777 398.859 504.787 400.538L504.741 397.382C504.607 400.606 504.588 403.397 504.607 410.667L504.62 410.69ZM504.62 420.445C504.62 418.411 504.62 417.663 504.64 417.481C504.58 418.459 504.57 419.442 504.607 420.423L504.62 420.445ZM504.829 396.095C504.829 396.433 504.829 397.008 504.829 397.733C504.826 397.34 504.826 396.852 504.816 396.073L504.829 396.095ZM504.663 399.192L504.679 395.37L504.614 396.875C504.607 397.382 504.607 399.261 504.65 399.169L504.663 399.192ZM504.878 252.919C504.819 253.261 504.793 254.661 504.803 257.617C504.728 257.265 504.741 253.434 504.699 251.642C504.65 255.551 504.611 251.583 504.536 252.554C504.536 256.905 504.627 258.843 504.607 263.5C504.588 263.276 504.552 263.363 504.526 263.956C504.575 269.557 504.647 279.052 504.581 284.525C504.552 289.802 504.581 293.715 504.62 299.516C504.581 318.571 504.66 338.452 504.588 358.948L504.738 361.844C504.663 362.843 504.738 366.729 504.64 366.149C504.66 365.027 504.64 363.965 504.64 362.619C504.51 367.007 504.64 374.249 504.604 379.494C504.63 378.897 504.757 378.039 504.78 379.617C504.617 379.193 504.78 385.834 504.594 387.371C504.549 392.638 504.738 387.576 504.712 393.049C504.809 393.633 504.76 387.795 504.832 386.805C504.91 388.525 504.8 391.767 504.901 391.526C504.949 382.732 504.747 366.409 504.692 352.982L504.783 354.392C504.718 347.505 504.715 336.39 504.861 330.885C504.777 332.185 504.91 320.747 504.712 321.764C504.757 320.031 504.751 319.483 504.767 317.03L504.705 316.364C504.705 312.829 504.803 313.404 504.796 309.359C504.712 311.999 504.686 309.076 504.617 307.899L504.871 293.761C504.845 294.085 504.813 294.449 504.777 295.863C504.824 294.839 504.797 293.81 504.695 292.794C504.695 290.094 504.803 290.381 504.855 290.513C504.891 285.56 504.682 283.353 504.751 279.65L504.666 280.94C504.643 275.846 504.738 271.541 504.708 265.926C504.829 263.19 504.813 270.555 504.865 272.881C504.888 271.737 504.894 269.315 504.933 268.535L504.734 259.099C504.861 261.986 504.855 254.816 504.865 252.896L504.878 252.919ZM504.936 268.581L504.985 270.209C504.985 269.671 504.969 269.155 504.985 268.334C504.933 268.234 504.933 268.353 504.933 268.558L504.936 268.581ZM504.878 252.919C504.876 252.879 504.876 252.84 504.878 252.8C504.868 252.217 504.865 252.381 504.865 252.896L504.878 252.919ZM504.572 285.3L504.572 284.571L504.572 283.659L504.572 285.3ZM504.966 289.51L504.874 293.82C504.901 293.3 504.933 292.908 504.953 289.474L504.966 289.51ZM504.868 323.894C504.875 324.291 504.899 324.687 504.94 325.08C504.933 322.872 504.901 322.124 504.855 323.857L504.868 323.894ZM504.933 262.383L504.907 258.105L504.884 256.536L504.933 262.383ZM504.497 175.628C504.392 179.408 504.454 184.95 504.435 189.602C504.49 198.149 504.663 190.683 504.673 198.792L504.461 197.396C504.461 205.505 504.428 216.985 504.617 223.849C504.591 224.446 504.559 225.883 504.529 223.78C504.529 229.18 504.832 226.581 504.76 233.814C504.627 227.087 504.633 236.017 504.503 234.174L504.487 233.121C504.487 237.681 504.572 243.756 504.562 246.776C504.617 246.903 504.702 244.258 504.708 248.313C504.708 246.671 504.78 247.337 504.835 247.464C504.774 243.282 504.813 241.011 504.741 238.466C504.813 236.135 504.764 240.048 504.835 237.7L504.767 234.343C504.783 231.862 504.839 236.892 504.855 233.043C504.813 232.587 504.767 229.472 504.777 226.462L504.803 227.324C504.774 225.044 504.803 221.76 504.689 222.877L504.809 220.141L504.728 220.597C504.76 214.276 504.953 211.931 504.852 203.758C504.826 205.701 504.783 203.913 504.767 202.869C504.712 206.262 504.829 207.065 504.839 210.28C504.76 210.759 504.663 205.291 504.614 209.209C504.712 204.903 504.614 201.104 504.803 199.261C504.803 194.08 504.718 192.142 504.764 186.884L504.793 187.025C504.663 186.049 504.855 182.751 504.718 178.866L504.689 181.639C504.621 180.522 504.599 179.402 504.624 178.282C504.643 178.501 504.643 178.501 504.669 177.89C504.575 177.31 504.559 171.386 504.529 170.647C504.513 173.124 504.591 176.184 504.617 179.103C504.522 177.949 504.482 176.788 504.497 175.628V175.628ZM504.848 228.989L504.803 227.315C504.809 228.003 504.822 228.628 504.848 228.993L504.848 228.989ZM504.666 152.176C504.686 148.869 504.747 153.088 504.79 149.982C504.725 146.616 504.653 153.827 504.552 150.557C504.611 148.518 504.51 145.23 504.51 143.875C504.565 145.371 504.692 144.514 504.721 143.907C504.686 142.635 504.747 139.803 504.751 137.6C504.673 142.945 504.702 133.107 504.617 137.924C504.539 137.568 504.484 132.551 504.542 130.508C504.597 131.555 504.612 132.605 504.588 133.655C504.692 134.763 504.643 130.271 504.738 129.5C504.594 124.415 504.604 108.133 504.373 112.762C504.327 114.495 504.373 115.982 504.396 117.861C504.441 112.584 504.516 117.829 504.559 118.276C504.523 120.556 504.594 124.415 504.513 123.534L504.425 119.95C504.383 131.438 504.399 147.123 504.425 160.335L504.425 154.616C504.487 155.282 504.49 157.982 504.519 160.089L504.673 157.289C504.673 158.94 504.673 160.513 504.63 160.381C504.695 162.388 504.734 161.475 504.787 160.271C504.813 164.536 504.754 165.234 504.852 168.517C504.979 161.434 504.747 162.534 504.852 154.406L504.666 152.176ZM504.747 167.683L504.673 165.972L504.708 168.581L504.747 167.683ZM504.422 164.946C504.454 164.869 504.471 165.913 504.503 165.831C504.516 162.565 504.471 162.958 504.412 164.987L504.422 164.946ZM504.747 125.103L504.721 120.839L504.692 123.616C504.739 124.123 504.757 124.634 504.744 125.144L504.747 125.103ZM504.35 95.1663C504.366 101.095 504.438 103.631 504.35 110.322C504.451 113.601 504.536 108.785 504.627 110.199C504.65 106.883 504.48 107.289 504.448 103.855C504.536 102.568 504.428 98.8149 504.448 95.5266C504.422 95.969 504.379 95.969 504.347 95.2074L504.35 95.1663ZM504.676 74.7797C504.676 72.0797 504.611 69.3432 504.653 67.1996C504.722 68.3798 504.741 69.5646 504.712 70.7479C504.835 69.7172 504.692 67.7561 504.774 64.8189C504.774 65.0789 504.741 66.1461 504.715 65.3252C504.744 58.0279 504.614 61.2205 504.682 51.7842C504.65 50.416 504.65 49.0478 504.568 49.2895C504.673 43.9306 504.673 46.6397 504.761 40.1679C504.715 40.4188 504.604 42.5304 504.503 42.4894C504.647 33.3678 504.484 33.1717 504.591 27.3567C504.591 28.0044 504.62 28.7934 504.607 30.3577C504.751 29.6006 504.581 25.4731 504.607 22.2486L504.728 22.5542C504.708 19.5715 504.63 14.3996 504.728 10.646L504.79 11.4989L504.747 6.44557L504.728 1L503.132 1L503.161 12.3381L503.086 15.8271C503.178 24.7936 503.129 6.91532 503.311 13.4874C503.086 14.468 503.383 18.112 503.295 23.2155C503.204 25.6236 503.249 18.0619 503.145 20.7208C503.262 21.8519 503.178 23.4573 503.213 26.1618C503.103 25.578 503.197 31.84 503.073 30.1707L503.275 39.7255C503.213 41.2625 503.226 44.0309 503.239 46.065C503.239 40.9113 503.402 47.4834 503.451 41.6958C503.399 33.2857 503.363 19.1929 503.422 8.6621C503.351 7.58883 503.327 6.51046 503.35 5.43307L503.35 3.28495C503.35 2.55979 503.35 1.87111 503.35 1.35118C503.624 1.35118 503.875 1.32381 504.057 1.30101C504.155 1.33293 504.35 1.36942 504.49 1.40135C504.481 1.57843 504.46 1.75398 504.428 1.92584C504.461 8.69403 504.51 0.329566 504.565 1.97601C504.585 4.95875 504.493 7.3486 504.441 7.07039C504.441 11.9322 504.48 7.62681 504.562 10.1033L504.399 13.2958C504.448 28.465 504.559 48.5461 504.464 65.8177L504.568 64.5225C504.513 72.3305 504.796 77.6073 504.568 84.5397L504.656 86.9113C504.607 85.6069 504.503 88.2796 504.435 86.2044C504.467 88.3434 504.435 90.6055 504.461 92.8038L504.51 88.8907C504.587 91.1157 504.573 93.345 504.467 95.5677C504.572 101.405 504.643 92.0969 504.731 90.8017C504.542 82.5923 504.917 82.5284 504.835 74.6337C504.767 69.7263 504.731 75.1172 504.676 74.8207L504.676 74.7797ZM504.425 86.1405L504.396 84.9456L504.425 86.1405ZM503.233 46.0878L503.233 48.3682C503.266 49.212 503.249 47.9623 503.233 46.1289L503.233 46.0878ZM504.708 99.5036L504.708 97.3281L504.66 97.7067L504.708 99.5036ZM503.106 69.2246L503.158 69.252C503.142 69.0285 503.125 68.9419 503.106 69.2064L503.106 69.2246ZM503.073 131.707L503.073 130.362C503.067 130.777 503.07 131.256 503.073 131.707V131.707ZM503.184 281.666C503.217 285.738 503.249 291.166 503.337 294.171L503.282 293.879C503.308 296.064 503.396 303.129 503.494 298.577L503.445 297.469C503.366 292.297 503.536 293.715 503.568 289.67C503.542 284.794 503.34 282.003 503.389 277.693C503.389 275.796 503.438 276.092 503.477 276.649C503.494 272.321 503.337 270.633 503.318 267.65C503.725 266.469 503.207 254.347 503.464 247.952C503.432 243.889 503.464 238.489 503.386 233.312C503.49 236.049 503.386 228.441 503.51 229.572C503.272 228.122 503.617 214.736 503.318 213.806C503.402 206.805 503.298 213.514 503.37 205.428C503.402 205.428 503.402 206.796 503.409 207.339C503.471 204.146 503.282 202.413 503.409 199.763C503.428 193.287 503.327 198.655 503.246 194.838C503.282 188.078 503.321 189.98 503.445 186.259C503.301 185.661 503.37 181.625 503.298 178.341C503.298 179.153 503.262 183.741 503.207 180.74C503.23 172.9 503.116 174.469 503.077 167.149C503.233 163.437 503.077 174.446 503.204 168.025C503.279 172.658 503.272 176.175 503.386 178.656C503.386 172.426 503.386 164.841 503.305 158.046C503.324 154.269 503.376 159.979 503.393 157.006C503.461 150.274 503.23 146.653 503.301 141.267L503.383 142.393C503.275 139.091 503.406 130.485 503.347 124.246C503.305 125.035 503.279 125.564 503.249 124.734C503.454 124.834 503.145 116.036 503.288 109.879C503.158 110.363 503.086 104.379 503.073 100.585C503.109 99.2482 503.161 99.5355 503.197 99.5492C503.119 105.747 503.337 105.565 503.396 110.468C503.331 106.363 503.396 99.6359 503.305 96.0785L503.409 97.4741C503.409 91.8005 503.178 92.512 503.275 86.5921L503.35 87.1713C503.35 75.2585 503.471 61.2478 503.305 51.7021C503.243 50.863 503.099 55.6746 503.051 55.93C503.106 61.6309 503.213 64.9238 503.266 69.2657L503.148 69.2246C503.23 70.2143 503.275 75.4455 503.34 72.5494C503.399 76.0886 503.236 75.2175 503.305 79.2948C503.181 78.9801 503.168 76.5356 503.067 76.4945L503.125 80.0337C503.08 78.93 503.086 82.1772 503.038 81.0918C503.187 87.6456 502.982 90.2635 503.038 97.0545L503.06 93.2645C503.125 93.2964 503.119 95.4673 503.139 97.0955C503.044 98.9472 503.057 100.037 503.015 103.535C503.07 106.532 503.191 108.206 503.191 112.269C503.06 111.394 503.119 119.005 503.011 119.772C503.139 120.634 503.057 127.639 503.132 128.205C503.132 129.29 503.148 130.581 503.132 131.598C503.148 132.177 503.128 132.757 503.07 133.331L503.047 131.694L503.047 133.865C503.033 133.738 503.024 133.61 503.021 133.481C503.021 135.415 503.112 135.433 503.047 137.919C503.015 137.892 503.015 136.551 503.002 135.456C502.979 140.601 503.194 144.482 503.08 148.751C503.139 149.59 503.145 155.546 503.282 154.251C503.155 156.03 503.108 157.818 503.142 159.606C503.259 162.087 503.103 164.454 503.174 167.737C503.054 163.35 503.142 167.737 503.028 163.884C502.979 166.839 503.132 171.235 503.112 176.38C503.086 176.891 503.051 176.882 503.025 177.415C503.064 179.335 503.158 181.52 503.064 183.381L503.145 183.148C503.103 186.66 503.129 191.531 503.038 195.289L503.194 199.672C503.031 205.564 503.178 213.468 503.318 218.129L503.292 221.637L503.272 223.005C503.274 223.182 503.266 223.359 503.249 223.534L503.191 221.185C503.191 224.378 503.096 228.245 503.226 230.024C503.266 233.289 503.139 232.414 503.116 234.84C503.298 241.426 502.982 254.274 503.259 256.276C503.259 253.567 503.318 248.454 503.305 243.305C503.337 244.673 503.393 243.615 503.399 245.512C503.399 250.671 503.308 253.32 503.353 258.479L503.178 257.858C503.018 266.72 503.438 274.747 503.184 281.666ZM503.184 215.653L503.096 219.388L503.171 218.987C503.161 217.842 503.161 216.661 503.187 215.662L503.184 215.653ZM503.184 218.987L503.22 221.167C503.22 220.35 503.22 219.561 503.22 218.886L503.184 218.987ZM503.223 296.547C503.223 297.373 503.204 298.992 503.223 300.62C503.233 299.557 503.243 297.387 503.213 296.556L503.223 296.547ZM503.279 300.907L503.305 299.024L503.285 298.75L503.279 300.907ZM503.432 410.293L503.539 416.309C503.484 417.358 503.539 424.153 503.454 421.95C503.585 425.526 503.454 433.307 503.643 430.42C503.581 412.802 503.689 388.493 503.523 368.12L503.598 371.399C503.451 360.8 503.757 356.868 503.467 348.353L503.617 349.489C503.66 344.636 503.402 340.203 503.559 335.127L503.5 335.642L503.526 332.4L503.5 332.942C503.441 329.394 503.448 327.232 503.5 323.734C503.549 323.488 503.523 325.371 503.536 326.471C503.581 324.865 503.48 322.115 503.484 319.406C503.523 317.262 503.549 319.433 503.572 319.725C503.503 311.571 503.663 307.867 503.438 302.084C503.399 301.519 503.363 304.205 503.344 301.227C503.275 306.604 503.363 310.973 503.422 315.876L503.422 314.508C503.64 318.398 503.373 317.468 503.467 323.73C503.38 322.079 503.38 319.36 503.334 318.257C503.168 325.495 503.458 328.596 503.246 333.371L503.246 332.833C503.226 333.905 503.269 335.816 503.288 337.444C503.314 336.915 503.327 335.309 503.35 334.251C503.362 335.268 503.413 336.284 503.503 337.293C503.409 339.145 503.552 339.742 503.503 342.702C503.415 343.751 503.422 340.235 503.376 339.136L503.435 342.68C503.435 345.922 503.337 345.872 503.292 347.487C503.36 350.223 503.337 345.877 503.435 348.093C503.324 351.573 503.353 366.455 503.435 373.538C503.435 371.084 503.34 372.68 503.353 369.702C503.334 370.783 503.38 374.573 503.448 374.61C503.507 379.508 503.464 385.715 503.402 390.29L503.471 388.971C503.585 392.812 503.386 398.677 503.454 405.463L503.454 405.317C503.454 407.502 503.634 409.376 503.601 413.385C503.497 412.236 503.503 410.079 503.422 410.302L503.432 410.293ZM503.588 434.182L503.494 431.98C503.471 434.406 503.594 437.43 503.656 436.914C503.634 435.295 503.676 433.133 503.621 432.837C503.578 433.286 503.564 433.739 503.578 434.192L503.588 434.182ZM503.604 479.649C503.605 479.997 503.632 480.344 503.686 480.684C503.686 471.056 503.637 459.18 503.712 455.344C503.738 452.093 503.598 451.513 503.565 447.431L503.66 445.607C503.598 443.404 503.702 436.682 503.546 439.053C503.546 439.318 503.621 440.978 503.591 442.871L503.539 442.565L503.555 446.902L503.49 445.534C503.393 451.463 503.692 449.68 503.63 456.936L503.494 456.881C503.494 461.757 503.533 464.211 503.451 468.493C503.451 468.493 503.516 468.53 503.49 467.713C503.464 466.897 503.552 465.839 503.591 466.404C503.699 473.756 503.513 465.278 503.458 470.4C503.549 476.666 503.627 488.592 503.52 492.068C503.601 489.126 503.689 493.504 503.679 497.012C503.63 498.608 503.598 495.89 503.559 495.333C503.542 496.961 503.51 498.284 503.529 499.931C503.604 497.801 503.705 499.187 503.754 503C503.826 494.654 503.578 488.036 503.594 479.658L503.604 479.649ZM503.718 482.139C503.718 481.272 503.702 480.894 503.686 480.684L503.686 484.023L503.718 482.139Z" fill="black"/>
<path id="Vector_2" d="M1052.01 5.62743L1051.72 2.51042L1051.82 1.30924L1052.01 5.62743ZM1052.48 21.8012C1052.54 21.2006 1052.62 21.489 1052.68 20.8764L1051.83 8.86469C1051.35 14.2099 1052.8 18.2578 1052.48 21.8012ZM1052.39 25.3388C1052.23 27.9051 1052.34 30.4756 1052.73 33.0323C1052.42 31.3987 1052.8 24.3298 1052.39 25.3388ZM1052.6 327.121C1052.6 326.682 1052.6 326.106 1052.6 325.673C1052.56 326.406 1052.57 326.875 1052.6 327.121ZM1053.95 434.326L1054.27 435.449C1053.7 415.449 1054.27 392.879 1054.03 371.721L1054.14 373.156C1054.27 319.469 1053.73 379.097 1053.49 325.837C1053.49 326.666 1053.62 326.948 1053.66 327.807C1053.55 325.236 1053.34 322.402 1053.37 319.507C1053.45 318.756 1053.52 320.312 1053.55 321.236C1054.08 309.993 1053.22 288.204 1053.63 281.171C1053.57 278.006 1053.35 276.607 1053.18 278.373C1053.04 236.686 1052.95 192.086 1052.53 149.624C1052.61 147.582 1052.75 147.222 1052.93 147.775C1052.08 111.481 1052.41 73.4399 1052.56 36.3115C1052.33 34.8821 1052.32 40.0952 1052.08 36.4376C1051.8 48.3773 1052.63 58.305 1052.22 69.1336L1052.01 67.7462C1051.87 75.6199 1052.56 69.3378 1052.27 77.5118C1052.09 80.7369 1052 76.7071 1051.98 78.2086C1052.07 94.9529 1051.88 112.442 1052.4 128.183C1051.94 132.081 1052.4 146.201 1051.94 152.363C1052.13 156.699 1052.08 161.042 1052.39 162.693C1052.14 221.293 1052.6 281.171 1052.56 341.206C1053.47 369.295 1052.39 293.806 1052.69 327.151C1052.69 327.379 1052.62 327.343 1052.6 327.121C1052.83 337.985 1052.93 353.829 1052.82 366.802L1053.2 377.793C1052.99 398.565 1052.86 419.447 1052.82 440.44C1052.82 461.208 1052.79 482.045 1052.75 502.949L876.42 502.877C732.986 502.739 607.271 502.324 467.557 503.075C467.738 503.021 466.6 502.991 470.215 502.967C429.891 503.081 393.162 502.877 355.19 502.967L355.305 502.913C261.088 503.381 159.193 502.847 68.3607 503.357H2.2184C2.13233 446.302 2.0368 383.408 1.95074 323.83L2.13237 323.998C1.74988 265.182 2.70615 317.471 2.41928 258.781C2.83046 198.428 1.38656 134.664 1.94117 73.8002C2.18979 62.8575 2.21844 50.9177 2.14194 38.6237C2.06544 26.3297 1.88373 13.6214 1.75942 1.21921L23.0259 1.14106L43.537 1.111C56.9242 1.111 69.7089 1.15305 81.5088 1.27317C197.212 2.14402 309.473 1.57956 425.158 1.06305C531.882 1.36935 638.396 0.57657 741.793 1.20719C790.761 0.804794 844.846 1.71162 899.341 1.5915L897.429 1.45338C916.993 1.87979 941.013 0.852823 953.224 1.48945L951.168 1.51951C961.524 1.83782 975.218 0.762688 981.51 1.14106L983.193 0.9849C995.729 0.936853 984.675 1.16502 994.352 1.22508C997.985 1.22508 995.729 0.936894 1003.33 1.02698C1004.98 1.68162 1034.04 0.888847 1034.89 1.62757C1028.03 1.62757 1045.63 1.91584 1030.23 2.06599C1034.62 2.13806 1055.64 2.10205 1053.75 1.79575C1055.54 1.46543 1063.75 1.19505 1050.98 0.924782L1048.42 1.16511C1044.11 0.92487 1045.15 1.04499 1043.64 0.864812C1026.95 0.834782 1024.71 0.486371 1012.75 0.34223C1012.86 0.34223 1012.98 0.34223 1012.8 0.34223C1004.62 0.630512 993.309 0.462423 986.836 0.420382L984.235 0.288271C980.305 0.00599416 965.254 0.828718 970.331 0.354253C936.404 0.468365 897.505 0.468476 859.6 0.468476C854.293 0.654659 830.579 0.468365 838.86 0.804694C829.364 0.408306 801.155 0.306318 790.685 0.318329C791.505 0.249225 792.335 0.227048 793.162 0.2522C772.842 -0.264306 769.074 0.73267 750.036 0.102053C747.052 0.546488 715.439 -0.0421526 704.663 0.486365C702.32 0.384265 701.536 0.294206 702.387 0.21613L601.228 0.0239004C576.442 0.414283 541.205 -0.156212 519.891 0.390324C502.229 0.270206 473.658 0.0480119 449.006 0.264224L451.397 0.198094C423.58 0.228124 388.831 0.258253 369.754 0.600588C361.53 0.0780765 349.501 0.186182 337.481 0C318.911 0.240235 281.418 0.168106 253.085 0.390324C248.743 0.150088 229.705 0.48647 228.223 0.144135C193.98 0.432418 156.238 0.552494 117.645 0.552494L59.4295 0.480353L0.29637 0.264224C0.191185 8.45624 0.0956227 16.2638 0 23.9033V23.1287C0.305993 30.0414 0.956162 38.0052 1.36734 45.0381C1.36734 45.7288 1.23357 45.6386 1.23357 44.1731C1.33876 53.8967 0.793612 62.9896 0.898797 72.7071C0.803175 72.629 0.803231 72.629 0.71717 71.0494C0.965789 80.1664 0.277306 89.8899 0.71717 100.652L0.573713 101.253L0.784055 108.094C0.592809 107.932 0.325141 107.667 0.382514 104.01C0.200831 187.492 1.14741 273.694 1.01354 359.422L0.841484 356.275L1.14743 372.899C1.02395 372.344 0.966484 371.784 0.97537 371.223C0.659815 392.394 1.17618 305.235 1.09968 325.866C1.01362 325.769 0.831936 322.647 0.736313 325.535C1.23355 340.808 0.0861025 350.075 1.11883 357.721C1.11883 358.429 0.841517 358.922 0.755457 357.361C1.0997 399.858 1.0805 443.497 0.91794 486.313C0.975314 489.115 1.03594 491.946 1.09968 494.805C1.15068 497.82 1.19532 500.885 1.23357 504L39.4826 503.904H77.7317C103.311 503.904 128.966 503.904 153.819 503.688L153.522 503.802C229.877 503.393 310.869 503.832 389.997 503.748C422.863 503.796 445.057 503.658 478.075 503.652L478.907 503.796C534.483 503.237 595.729 504.294 653.715 503.682L649.708 503.88C658.706 503.574 684.792 503.994 681.36 503.466L691.591 503.622C730.988 502.925 763.308 503.946 811.569 503.489L808.394 503.616C821.227 503.52 836.192 503.441 845.687 503.556C844.205 503.556 844.893 503.616 841.862 503.646C882.024 504.144 926.804 503.592 969.222 503.616L964.441 503.844C984.952 503.574 1022.55 503.844 1049.55 503.7L1047.91 503.814L1054.28 503.742L1054.14 498.781L1054.49 498.559C1054.3 476.559 1053.99 455.815 1053.95 434.326ZM1053.55 321.242V321.477C1053.57 322.131 1053.57 321.807 1053.55 321.236V321.242ZM1008.41 0.294282L1012.71 0.34223C1012.38 0.288177 1009.77 0.300282 1008.41 0.288271V0.294282Z" fill="black"/>
</g>
</svg>
