<svg width="231" height="49" viewBox="0 0 231 49" fill="none" xmlns="http://www.w3.org/2000/svg">
<path d="M74.9523 33.9092C74.3395 33.9289 73.7274 33.8535 73.1366 33.6853C72.7539 33.5763 72.4092 33.3579 72.1425 33.0555C71.928 32.7858 71.7829 32.465 71.7204 32.1226C71.6549 31.7313 71.623 31.3348 71.6251 30.9377C71.6251 30.2334 71.6251 29.431 71.675 28.526C71.725 27.6211 71.7567 26.6601 71.8157 25.6012C71.8747 24.5423 71.9383 23.4787 72.0064 22.3592L74.108 22.5971C74.0308 23.2735 73.9627 23.9686 73.9082 24.6776C73.8538 25.3867 73.7993 26.077 73.763 26.7441C73.7267 27.4112 73.6949 28.0176 73.6677 28.5633C73.6405 29.1091 73.6268 29.5663 73.6177 29.9301C73.6087 30.294 73.6177 30.5319 73.6177 30.6345C73.6064 30.8703 73.6388 31.1062 73.7131 31.3296C73.7451 31.4079 73.7954 31.477 73.8595 31.5307C73.9236 31.5844 73.9996 31.6211 74.0807 31.6374C74.3455 31.7005 74.6172 31.7271 74.8887 31.7167C75.3954 31.7131 75.9016 31.6804 76.4048 31.6188C76.9786 31.5518 77.5484 31.4522 78.1115 31.3202C78.6495 31.203 79.1788 31.0471 79.6956 30.8538L80.1496 33.1208C79.6276 33.2701 79.0647 33.4101 78.4565 33.5313C77.8482 33.6526 77.2491 33.7506 76.6408 33.8206C76.08 33.8829 75.5163 33.9125 74.9523 33.9092ZM83.8127 33.9885C83.25 33.9937 82.7002 33.8157 82.2421 33.48C81.7639 33.1263 81.3799 32.6547 81.1255 32.1086C80.8472 31.5038 80.7075 30.8416 80.7169 30.1727C80.7092 29.5521 80.8187 28.9359 81.0393 28.3581C81.2504 27.8354 81.5588 27.36 81.9471 26.9587C82.3116 26.579 82.7449 26.2763 83.2226 26.0677C83.6985 25.8634 84.2093 25.7587 84.725 25.7598C85.1643 25.7597 85.6008 25.8305 86.0187 25.9697C86.0504 25.7878 86.0777 25.6012 86.1003 25.4146L88.0749 25.7971C88.0069 26.0454 87.9538 26.2978 87.916 26.5528C87.8615 26.884 87.8162 27.2619 87.7844 27.6724C87.7526 28.0829 87.7208 28.5027 87.6981 28.9132C87.6754 29.3237 87.6618 29.7016 87.6618 30.0374C87.6624 30.3041 87.679 30.5705 87.7118 30.8351C87.7345 31.0628 87.8126 31.2809 87.9387 31.4695C88.0005 31.5523 88.0815 31.6178 88.1743 31.6602C88.267 31.7026 88.3686 31.7204 88.4698 31.7121H88.6332L88.3427 34.0118C87.9053 34.0281 87.4715 33.9252 87.0854 33.7133C86.7594 33.5188 86.485 33.2448 86.2865 32.9156C85.9966 33.306 85.6023 33.6011 85.1517 33.7646C84.7206 33.9159 84.2682 33.9931 83.8127 33.9932V33.9885ZM82.6143 30.4386C82.6353 30.8216 82.7976 31.1819 83.0682 31.4462C83.3453 31.702 83.7082 31.8375 84.0805 31.8241C84.4404 31.8353 84.791 31.7052 85.0609 31.4602C85.3471 31.1814 85.5688 30.8403 85.71 30.4619C85.71 30.322 85.71 30.1774 85.71 30.0281C85.71 29.7202 85.71 29.403 85.71 29.0951C85.71 28.7873 85.7463 28.4514 85.769 28.1342C85.4476 27.9931 85.1018 27.9201 84.7522 27.9196C84.3624 27.9143 83.9779 28.0123 83.6356 28.2042C83.3145 28.3898 83.0491 28.6625 82.8685 28.9925C82.6773 29.3475 82.5817 29.7485 82.5916 30.1541V30.3126C82.5953 30.3568 82.6029 30.4005 82.6143 30.4433V30.4386ZM89.2551 33.8672C89.2324 33.3214 89.2188 32.7383 89.2097 32.1179C89.2006 31.4975 89.2097 30.8771 89.2097 30.252C89.2097 29.4357 89.2097 28.638 89.2369 27.8636C89.2641 27.0893 89.2687 26.3849 89.2914 25.7505H91.2795C91.2477 26.1563 91.2296 26.6555 91.2205 27.2525C91.2114 27.8496 91.2205 28.4654 91.2205 29.1185C91.2205 29.7715 91.2205 30.3919 91.2205 31.017C91.2205 31.6421 91.2205 32.2066 91.2523 32.715C91.2841 33.2235 91.2523 33.6107 91.2795 33.8812L89.2551 33.8672ZM89.3005 24.4164C89.3005 24.3371 89.3005 24.2578 89.3005 24.1738C89.3005 24.0898 89.3005 23.9965 89.3005 23.8893C89.3005 23.6094 89.3005 23.3108 89.3005 22.9936C89.3005 22.6764 89.3322 22.4058 89.3458 22.1866L91.4021 22.2286C91.3794 22.5271 91.3567 22.863 91.3294 23.2408C91.3022 23.6187 91.284 24.0152 91.275 24.4164H89.3005ZM95.2966 33.9885C94.895 33.988 94.4972 33.9072 94.1256 33.7506C93.7358 33.5862 93.3857 33.3363 93.0997 33.0182C92.7799 32.6583 92.533 32.2364 92.3735 31.7774C92.1872 31.2145 92.0981 30.6225 92.1102 30.0281C92.0951 29.3615 92.1982 28.6976 92.4143 28.0689C92.5927 27.562 92.8709 27.0983 93.2314 26.7068C93.5516 26.3649 93.9361 26.0935 94.3616 25.9091C94.7566 25.7368 95.1808 25.6464 95.6099 25.6432C95.8456 25.6439 96.0809 25.6641 96.3134 25.7038C96.5266 25.7405 96.7363 25.7968 96.9398 25.8718C96.9625 25.228 96.9898 24.5796 97.0261 23.9312C97.0624 23.2828 97.1033 22.6344 97.1486 22L99.0869 22.1493C99.0279 22.877 98.9733 23.6654 98.9279 24.505C98.8826 25.3447 98.8463 26.1983 98.8281 27.0706C98.8099 27.943 98.8009 28.7919 98.8009 29.6176C98.8009 30.4433 98.8009 31.129 98.8281 31.8287C98.8553 32.5284 98.8735 33.1675 98.9053 33.7366L96.9035 33.9092C96.9035 33.7413 96.9035 33.578 96.9035 33.4427C96.6771 33.6123 96.4298 33.7503 96.1682 33.8532C95.889 33.9565 95.5932 34.004 95.2966 33.9932V33.9885ZM93.9712 29.9068C93.9517 30.2809 94.0317 30.6535 94.2027 30.9844C94.3324 31.2217 94.5285 31.4135 94.7656 31.5348C94.9691 31.6323 95.1902 31.6847 95.4147 31.6888C95.6714 31.6858 95.9243 31.6236 96.1545 31.5068C96.4327 31.3519 96.6696 31.1293 96.8445 30.8584V30.5552C96.8445 29.8415 96.8445 29.1138 96.8718 28.3628C96.7194 28.1972 96.5367 28.0641 96.3342 27.9713C96.1317 27.8784 95.9132 27.8276 95.6915 27.8217C95.4991 27.8248 95.308 27.8562 95.1241 27.915C94.9174 27.9813 94.7269 28.0927 94.5658 28.2415C94.3785 28.415 94.2325 28.6305 94.1392 28.8712C94.0156 29.2028 93.9585 29.5566 93.9712 29.9115V29.9068ZM104.379 33.8579C104.379 33.7599 104.379 33.6526 104.379 33.5407V33.1442C104.379 32.7663 104.379 32.3139 104.379 31.7914C104.379 31.2689 104.416 30.7091 104.448 30.1121C104.479 29.515 104.511 28.9226 104.538 28.3208C104.566 27.719 104.602 27.1359 104.638 26.5808C104.675 26.0257 104.706 25.5312 104.738 25.0928L104.284 25.2607L103.985 23.0449C104.782 22.7823 105.595 22.5704 106.418 22.4105C107.089 22.2784 107.772 22.2082 108.456 22.2006C109.464 22.1317 110.466 22.4162 111.297 23.0076C111.629 23.2889 111.891 23.6468 112.062 24.0522C112.233 24.4576 112.309 24.8989 112.282 25.34C112.299 25.8488 112.183 26.3529 111.946 26.8001C111.713 27.1996 111.387 27.5331 110.998 27.7704C111.485 28.047 111.885 28.4609 112.151 28.9633C112.417 29.4658 112.538 30.0358 112.5 30.6065C112.515 31.1089 112.419 31.6082 112.219 32.0666C112.048 32.4288 111.802 32.7475 111.497 32.9996C111.225 33.228 110.918 33.4093 110.589 33.536C110.296 33.6489 109.991 33.7287 109.681 33.7739C109.457 33.8098 109.231 33.8301 109.005 33.8346C108.575 33.8306 108.146 33.7853 107.725 33.6993C107.27 33.613 106.825 33.4818 106.395 33.3074V33.8066L104.379 33.8579ZM107.489 28.9319H107.003H106.499L106.458 30.0934C106.458 30.4806 106.458 30.8631 106.418 31.241C106.831 31.386 107.257 31.4937 107.688 31.5628C108.044 31.6262 108.404 31.6606 108.764 31.6654C109.233 31.6975 109.702 31.6043 110.126 31.3949C110.265 31.2972 110.377 31.1633 110.45 31.0067C110.522 30.8502 110.553 30.6767 110.539 30.5039C110.537 30.2493 110.46 30.0012 110.32 29.7916C110.179 29.5821 109.98 29.4207 109.749 29.3284C109.034 29.0243 108.261 28.8904 107.489 28.9366V28.9319ZM108.515 24.4024C108.238 24.4024 107.947 24.4024 107.643 24.449C107.339 24.4957 107.039 24.5283 106.735 24.589C106.69 25.2327 106.644 25.9884 106.599 26.8327C106.699 26.8327 106.799 26.8327 106.903 26.8327H107.221C109.254 26.8327 110.271 26.3569 110.271 25.4053C110.272 25.2496 110.229 25.0968 110.149 24.9648C110.069 24.8327 109.954 24.7267 109.817 24.6589C109.411 24.4635 108.963 24.3769 108.515 24.407V24.4024ZM116.467 33.9885C115.903 33.9943 115.352 33.8163 114.892 33.48C114.414 33.1276 114.031 32.6555 113.78 32.1086C113.5 31.5042 113.359 30.8419 113.367 30.1727C113.358 29.5516 113.469 28.9349 113.694 28.3581C113.895 27.8366 114.194 27.3611 114.574 26.9587C114.941 26.5788 115.375 26.2762 115.854 26.0677C116.33 25.8625 116.841 25.7578 117.357 25.7598C117.796 25.7604 118.233 25.8312 118.651 25.9697C118.678 25.7878 118.705 25.6012 118.728 25.4146L120.707 25.7971C120.635 26.0446 120.58 26.2972 120.543 26.5528C120.489 26.884 120.448 27.2619 120.412 27.6724C120.375 28.0829 120.348 28.5027 120.325 28.9132C120.303 29.3237 120.289 29.7016 120.289 30.0374C120.289 30.3043 120.307 30.5709 120.344 30.8351C120.365 31.0623 120.441 31.2805 120.566 31.4695C120.628 31.5517 120.709 31.6167 120.802 31.659C120.895 31.7013 120.996 31.7196 121.097 31.7121H121.261L120.97 34.0118C120.533 34.0277 120.099 33.9247 119.713 33.7133C119.387 33.5188 119.112 33.2448 118.914 32.9156C118.625 33.3047 118.232 33.5996 117.784 33.7646C117.36 33.9131 116.915 33.9902 116.467 33.9932V33.9885ZM115.264 30.4386C115.285 30.8216 115.448 31.1819 115.718 31.4462C115.995 31.702 116.358 31.8375 116.73 31.8241C117.092 31.8365 117.444 31.7063 117.715 31.4602C118 31.1811 118.22 30.84 118.36 30.4619C118.36 30.322 118.36 30.1774 118.36 30.0281C118.36 29.7202 118.36 29.403 118.36 29.0951C118.36 28.7873 118.392 28.4514 118.414 28.1342C118.093 27.9931 117.747 27.9201 117.398 27.9196C117.009 27.9151 116.626 28.0131 116.286 28.2042C115.963 28.3895 115.696 28.6622 115.514 28.9925C115.325 29.3484 115.23 29.7487 115.237 30.1541V30.3126C115.242 30.3569 115.251 30.4007 115.264 30.4433V30.4386ZM125.387 34.0165C124.752 34.0245 124.127 33.8638 123.571 33.55C123.023 33.2376 122.568 32.778 122.255 32.2205C121.91 31.5907 121.739 30.8763 121.76 30.1541C121.74 29.3425 121.895 28.5365 122.214 27.7937C122.492 27.1537 122.941 26.6072 123.507 26.217C124.085 25.8334 124.762 25.6368 125.45 25.6525C126.089 25.6304 126.721 25.8024 127.266 26.147C127.823 26.5504 128.275 27.0887 128.582 27.7144L126.98 28.9785C126.807 28.6438 126.584 28.3399 126.317 28.0782C126.064 27.859 125.74 27.7472 125.409 27.7657C125.164 27.76 124.921 27.8141 124.7 27.9236C124.479 28.0331 124.287 28.1947 124.138 28.3954C123.796 28.8772 123.626 29.4653 123.657 30.0608C123.642 30.4114 123.733 30.7582 123.916 31.0544C124.077 31.2976 124.298 31.4924 124.556 31.6188C124.778 31.7358 125.023 31.7995 125.273 31.8054C125.5 31.8059 125.727 31.7729 125.945 31.7074C126.185 31.623 126.396 31.4691 126.553 31.2643C126.79 30.9529 126.967 30.5984 127.075 30.2194L128.809 31.2783C128.587 31.7473 128.327 32.1967 128.033 32.6217C127.754 33.0312 127.394 33.3748 126.975 33.6293C126.489 33.9023 125.941 34.0375 125.387 34.0211V34.0165ZM129.662 33.9092C129.631 33.4847 129.603 32.9436 129.585 32.2859C129.567 31.6281 129.558 30.9097 129.558 30.1354C129.558 29.445 129.558 28.7359 129.558 28.0082C129.558 27.2805 129.59 26.5575 129.617 25.8484C129.644 25.1394 129.676 24.477 129.712 23.8566C129.749 23.2362 129.785 22.6951 129.83 22.2286L131.841 22.3872C131.732 23.2828 131.651 24.1909 131.596 25.1114C131.542 26.0319 131.504 26.9649 131.483 27.9103C131.937 27.5698 132.418 27.2059 132.994 26.8234C133.571 26.4409 134.256 26.0071 135.064 25.5219L136.153 27.5931C135.386 27.8618 134.646 28.2054 133.943 28.6193C133.381 28.9453 132.855 29.3316 132.372 29.7715C132.32 29.8119 132.27 29.8555 132.223 29.9021C132.207 29.9175 132.196 29.9369 132.191 29.9581C132.191 30.0095 132.318 30.1074 132.572 30.2474C132.908 30.4479 133.257 30.6485 133.621 30.8398C133.984 31.031 134.388 31.2316 134.833 31.4275C135.277 31.6234 135.795 31.838 136.371 32.0573L135.572 34.0118C134.852 33.7637 134.149 33.4629 133.471 33.1115C132.772 32.7523 132.136 32.3838 131.564 32.0153C131.564 32.3138 131.564 32.6171 131.605 32.9483C131.646 33.2795 131.642 33.564 131.655 33.8812L129.662 33.9092ZM142.658 33.9885L140.72 33.7879L141.146 24.7196C140.958 24.7706 140.774 24.8329 140.593 24.9062L140.243 22.6624C140.652 22.5645 141.151 22.4665 141.759 22.3592C142.372 22.2516 142.994 22.1986 143.616 22.2006C144.121 22.2028 144.625 22.2622 145.118 22.3779C145.63 22.4988 146.122 22.6952 146.58 22.961C147.057 23.2355 147.481 23.5994 147.828 24.0339C148.216 24.523 148.51 25.0833 148.695 25.6852C148.923 26.4398 149.031 27.2275 149.013 28.0176C149.041 29.1093 148.863 30.1963 148.486 31.2176C148.188 32.0363 147.657 32.7436 146.961 33.2468C146.248 33.7282 145.408 33.9725 144.555 33.9465C143.918 33.9427 143.289 33.8079 142.703 33.55C142.69 33.7086 142.672 33.8625 142.658 33.9932V33.9885ZM143.539 24.4164H143.203C143.126 26.0537 143.053 27.4485 142.994 28.6147C142.935 29.7809 142.88 30.7185 142.83 31.4835C143.082 31.5789 143.34 31.6568 143.602 31.7167C143.891 31.7831 144.187 31.8159 144.483 31.8147C145.035 31.8403 145.577 31.6466 145.994 31.2736C146.392 30.8836 146.676 30.3878 146.816 29.8415C146.993 29.2141 147.08 28.5635 147.075 27.9103C147.083 27.4338 147.008 26.9597 146.852 26.5109C146.725 26.1537 146.53 25.8256 146.28 25.5452C146.059 25.302 145.8 25.0987 145.513 24.9435C145.253 24.8055 144.979 24.6976 144.696 24.6216C144.464 24.5577 144.227 24.5109 143.988 24.4817C143.77 24.435 143.629 24.421 143.539 24.421V24.4164ZM149.961 33.9745C149.993 33.2421 150.016 32.5144 150.03 31.7821C150.043 31.0497 150.03 30.3313 150.03 29.6176C150.03 28.9039 150.03 28.3254 150.002 27.6864C149.975 27.0473 149.971 26.4269 149.939 25.8205L151.882 25.7552C151.882 26.0817 151.881 26.4129 151.913 26.7581C152.147 26.4224 152.439 26.1345 152.776 25.9091C153.111 25.6883 153.503 25.5747 153.901 25.5826C154.112 25.5893 154.322 25.6159 154.528 25.6619C154.799 25.722 155.059 25.8243 155.299 25.9651L155.082 28.1948C154.893 28.0666 154.684 27.972 154.464 27.915C154.286 27.8617 154.101 27.8319 153.915 27.8263C153.66 27.8337 153.411 27.9073 153.191 28.0403C152.971 28.1732 152.788 28.3612 152.658 28.5867C152.272 29.2243 152.033 29.9438 151.959 30.6905C151.959 31.3125 151.959 31.9002 151.959 32.4538C151.959 33.0136 151.922 33.5174 151.895 33.9652L149.961 33.9745ZM159.285 34.0025C158.605 34.0163 157.933 33.8458 157.338 33.508C156.782 33.1771 156.329 32.6921 156.03 32.1086C155.715 31.4755 155.559 30.7716 155.576 30.0608C155.582 29.5636 155.652 29.0694 155.785 28.5913C155.926 28.0729 156.153 27.5836 156.457 27.1453C156.774 26.6876 157.19 26.3122 157.673 26.0491C158.244 25.7525 158.877 25.6066 159.516 25.6245C159.966 25.6141 160.414 25.6819 160.842 25.8251C161.164 25.9352 161.462 26.1096 161.718 26.3383C161.93 26.5301 162.106 26.7591 162.24 27.0146C162.43 27.3896 162.534 27.8046 162.544 28.2275C162.562 28.6111 162.485 28.9931 162.321 29.338C162.156 29.6829 161.91 29.9797 161.604 30.2007C160.807 30.7098 159.877 30.9527 158.94 30.8957C158.691 30.8965 158.443 30.8825 158.195 30.8538C157.959 30.8258 157.742 30.7978 157.542 30.7605C157.66 31.166 157.92 31.5119 158.273 31.7308C158.587 31.9334 158.95 32.0417 159.321 32.0433C159.803 32.0542 160.281 31.942 160.71 31.7167C161.149 31.4681 161.533 31.13 161.84 30.7231L162.871 32.4118C162.621 32.6404 162.349 32.8783 162.045 33.1255C161.707 33.3898 161.33 33.5961 160.928 33.7366C160.4 33.924 159.844 34.0156 159.285 34.0072V34.0025ZM159.539 27.6258C159.107 27.6183 158.684 27.7577 158.336 28.0222C157.991 28.2875 157.727 28.6484 157.574 29.0625C157.769 29.0998 157.959 29.1278 158.146 29.1511C158.332 29.1735 158.52 29.1844 158.708 29.1838C158.903 29.1808 159.097 29.1636 159.289 29.1325C159.509 29.0962 159.726 29.0431 159.938 28.9739C160.127 28.9132 160.305 28.8219 160.465 28.7033C160.527 28.6592 160.578 28.6008 160.614 28.5327C160.651 28.4647 160.671 28.389 160.674 28.3115C160.666 28.2171 160.633 28.1268 160.578 28.0502C160.496 27.9218 160.379 27.82 160.243 27.7564C160.021 27.6576 159.78 27.6144 159.539 27.6304V27.6258ZM166.647 33.9885C166.083 33.9943 165.532 33.8163 165.072 33.48C164.594 33.1276 164.211 32.6555 163.96 32.1086C163.678 31.5049 163.537 30.8422 163.547 30.1727C163.539 29.5516 163.65 28.9349 163.874 28.3581C164.075 27.8366 164.374 27.3611 164.754 26.9587C165.121 26.5788 165.555 26.2762 166.035 26.0677C166.51 25.8625 167.021 25.7578 167.537 25.7598C167.976 25.7604 168.413 25.8312 168.831 25.9697C168.858 25.7878 168.885 25.6012 168.908 25.4146L170.887 25.7971C170.815 26.0446 170.76 26.2972 170.723 26.5528C170.669 26.884 170.624 27.2619 170.592 27.6724C170.56 28.0829 170.528 28.5027 170.506 28.9132C170.483 29.3237 170.469 29.7016 170.469 30.0374C170.469 30.3043 170.487 30.5709 170.524 30.8351C170.545 31.0623 170.622 31.2805 170.746 31.4695C170.809 31.5517 170.89 31.6167 170.982 31.659C171.075 31.7013 171.176 31.7196 171.277 31.7121H171.441L171.15 34.0118C170.713 34.0277 170.279 33.9247 169.893 33.7133C169.567 33.5188 169.292 33.2448 169.094 32.9156C168.805 33.3047 168.412 33.5996 167.964 33.7646C167.54 33.9131 167.095 33.9902 166.647 33.9932V33.9885ZM165.444 30.4386C165.465 30.8216 165.628 31.1819 165.898 31.4462C166.175 31.702 166.538 31.8375 166.911 31.8241C167.271 31.8372 167.622 31.7068 167.891 31.4602C168.179 31.1826 168.401 30.8412 168.54 30.4619C168.54 30.322 168.54 30.1774 168.54 30.0281C168.54 29.7202 168.54 29.403 168.54 29.0951C168.54 28.7873 168.576 28.4514 168.599 28.1342C168.278 27.9931 167.932 27.9201 167.582 27.9196C167.194 27.9151 166.811 28.0131 166.47 28.2042C166.147 28.3881 165.88 28.6611 165.699 28.9925C165.51 29.3484 165.414 29.7487 165.422 30.1541V30.3126C165.425 30.3568 165.433 30.4005 165.444 30.4433V30.4386ZM172.167 33.9745C172.167 33.8439 172.167 33.6246 172.167 33.3214C172.167 33.0182 172.167 32.6544 172.167 32.2345C172.167 31.8147 172.167 31.3529 172.167 30.8677V29.3937C172.167 28.8479 172.167 28.3301 172.167 27.8356C172.167 27.3412 172.167 26.9027 172.167 26.5575C172.167 26.2123 172.167 25.9371 172.167 25.7785L174.119 25.7365C174.119 25.9837 174.092 26.2823 174.082 26.6368C174.264 26.3484 174.5 26.1008 174.777 25.9091C175.047 25.7288 175.363 25.6362 175.685 25.6432C175.872 25.6365 176.058 25.6694 176.232 25.74C176.407 25.8107 176.565 25.9174 176.697 26.0537C176.984 26.3596 177.207 26.7233 177.351 27.1219C177.904 26.1392 178.587 25.6463 179.398 25.6432C179.799 25.629 180.194 25.7484 180.523 25.9837C180.828 26.219 181.069 26.5306 181.222 26.8887C181.401 27.296 181.526 27.7258 181.595 28.1669C181.678 28.6511 181.731 29.1404 181.754 29.6316C181.776 30.1354 181.79 30.6159 181.79 31.0823C181.79 31.6374 181.79 32.1459 181.763 32.6031C181.735 33.0602 181.763 33.494 181.763 33.9092H179.761V33.1115C179.761 32.7896 179.761 32.4631 179.761 32.1319C179.761 31.8007 179.761 31.5162 179.761 31.2736V30.8444C179.761 30.3173 179.761 29.8228 179.725 29.3564C179.716 28.9708 179.658 28.5881 179.552 28.2182C179.461 27.9289 179.31 27.7843 179.098 27.7843C178.99 27.7903 178.885 27.8237 178.792 27.8815C178.7 27.9393 178.622 28.0197 178.567 28.1155C178.391 28.3803 178.252 28.6692 178.154 28.9739C178.032 29.3408 177.931 29.7146 177.85 30.0934C177.85 30.4386 177.877 30.7791 177.886 31.115C177.895 31.4509 177.886 31.7821 177.886 32.0993C177.886 32.4165 177.886 32.7757 177.886 33.0322C177.886 33.2888 177.886 33.5873 177.886 33.8952H175.943C175.943 33.183 175.943 32.5611 175.943 32.0293C175.943 31.4835 175.943 30.9564 175.898 30.4479C175.893 29.7687 175.81 29.0924 175.653 28.4327C175.526 28.0083 175.349 27.7937 175.126 27.7937C174.904 27.7937 174.672 27.9616 174.5 28.3021C174.313 28.6935 174.175 29.1071 174.087 29.5336C174.087 30.238 174.087 30.975 174.132 31.7401C174.178 32.5051 174.187 33.2468 174.223 33.9558L172.167 33.9745ZM186.238 34.0025C185.558 34.0163 184.886 33.8458 184.291 33.508C183.736 33.1771 183.283 32.6921 182.984 32.1086C182.666 31.4765 182.51 30.7719 182.53 30.0608C182.533 29.5634 182.604 29.0689 182.739 28.5913C182.876 28.0724 183.102 27.5827 183.406 27.1453C183.725 26.6875 184.143 26.3122 184.627 26.0491C185.197 25.7515 185.831 25.6056 186.47 25.6245C186.918 25.6144 187.364 25.6822 187.791 25.8251C188.114 25.9354 188.413 26.1097 188.671 26.3383C188.882 26.5302 189.057 26.7593 189.189 27.0146C189.3 27.2275 189.383 27.4551 189.434 27.691C189.471 27.8675 189.492 28.0471 189.497 28.2275C189.515 28.6116 189.438 28.994 189.272 29.339C189.107 29.6841 188.86 29.9805 188.553 30.2007C187.758 30.7089 186.828 30.9517 185.893 30.8957C185.643 30.8965 185.393 30.8825 185.144 30.8538C184.913 30.8258 184.69 30.7978 184.495 30.7605C184.611 31.1654 184.87 31.5114 185.221 31.7308C185.538 31.9329 185.902 32.0411 186.275 32.0433C186.755 32.0542 187.231 31.942 187.659 31.7167C188.098 31.467 188.484 31.1292 188.794 30.7231L189.82 32.4118C189.574 32.6404 189.298 32.8783 188.993 33.1255C188.656 33.3898 188.279 33.5961 187.877 33.7366C187.352 33.9235 186.799 34.015 186.243 34.0072L186.238 34.0025ZM186.488 27.6258C186.057 27.6176 185.635 27.7571 185.29 28.0222C184.941 28.2839 184.675 28.6459 184.527 29.0625C184.718 29.0998 184.908 29.1278 185.099 29.1511C185.284 29.1735 185.471 29.1844 185.657 29.1838C185.853 29.1808 186.049 29.1636 186.243 29.1325C186.461 29.0962 186.677 29.0431 186.887 28.9739C187.077 28.9153 187.255 28.8238 187.414 28.7033C187.478 28.6612 187.53 28.6032 187.567 28.5347C187.603 28.4663 187.623 28.3895 187.623 28.3115C187.614 28.2179 187.583 28.128 187.532 28.0502C187.447 27.924 187.331 27.8227 187.196 27.7564C186.974 27.6587 186.733 27.6156 186.492 27.6304L186.488 27.6258ZM190.65 33.9745C190.682 33.2421 190.705 32.5144 190.718 31.7821C190.732 31.0497 190.718 30.3313 190.718 29.6176C190.718 28.9039 190.718 28.3254 190.691 27.6864C190.664 27.0473 190.659 26.4269 190.628 25.8205L192.57 25.7552C192.57 26.0817 192.57 26.4129 192.602 26.7581C192.835 26.4216 193.127 26.1335 193.465 25.9091C193.8 25.6883 194.192 25.5747 194.59 25.5826C194.799 25.5891 195.008 25.6157 195.212 25.6619C195.485 25.721 195.746 25.8233 195.988 25.9651L195.77 28.1948C195.58 28.0658 195.37 27.9711 195.149 27.915C194.97 27.861 194.785 27.8312 194.599 27.8263C194.345 27.8345 194.097 27.9085 193.878 28.0414C193.659 28.1743 193.476 28.3619 193.346 28.5867C192.959 29.2234 192.72 29.9433 192.647 30.6905C192.647 31.3125 192.647 31.9002 192.647 32.4538C192.647 33.0136 192.611 33.5174 192.584 33.9652L190.65 33.9745ZM204.967 34.0025C204.099 34.0228 203.245 33.7758 202.516 33.2934C201.806 32.8032 201.248 32.1134 200.909 31.3062C200.513 30.3515 200.321 29.3208 200.346 28.2835C200.35 27.7903 200.397 27.2986 200.487 26.8141C200.585 26.2589 200.737 25.7151 200.94 25.1907C201.157 24.6538 201.449 24.1524 201.807 23.7027C202.174 23.2515 202.627 22.8817 203.137 22.6158C203.712 22.3277 204.346 22.1854 204.985 22.2006C205.528 22.1888 206.069 22.2756 206.583 22.4572C207.366 22.7482 208.058 23.253 208.584 23.9172C208.779 24.1591 208.955 24.4164 209.111 24.6869C209.243 24.9202 209.338 25.0928 209.401 25.1954L207.726 26.6601C207.55 26.2926 207.349 25.9387 207.123 25.6012C206.898 25.2563 206.607 24.9613 206.269 24.7336C205.89 24.4956 205.452 24.3772 205.008 24.393C204.55 24.3746 204.099 24.5142 203.727 24.7896C203.386 25.0532 203.11 25.3971 202.924 25.7925C202.727 26.1987 202.59 26.6325 202.516 27.08C202.441 27.4955 202.402 27.9169 202.398 28.3394C202.398 28.7513 202.438 29.1622 202.516 29.5663C202.587 29.9561 202.721 30.3311 202.91 30.6765C203.097 31.0031 203.359 31.2771 203.673 31.4742C204.042 31.6819 204.46 31.7834 204.88 31.768C205.343 31.7884 205.802 31.6753 206.206 31.4415C206.562 31.2062 206.858 30.8862 207.068 30.5086C207.319 30.0606 207.535 29.5926 207.713 29.1091L209.606 30.0841C209.305 30.8216 208.922 31.5212 208.466 32.1692C208.073 32.7316 207.563 33.1969 206.973 33.5313C206.355 33.8588 205.667 34.0224 204.971 34.0072L204.967 34.0025ZM212.974 34.0025C212.6 34.0188 212.232 33.909 211.925 33.69C211.641 33.4705 211.419 33.1775 211.281 32.841C211.111 32.4452 210.993 32.0279 210.931 31.6001C210.856 31.1043 210.81 30.6043 210.795 30.1027C210.795 29.571 210.763 29.0345 210.763 28.4981C210.763 27.9616 210.763 27.5184 210.799 26.9587C210.836 26.3989 210.854 25.8345 210.886 25.256C210.917 24.6776 210.958 24.1365 211.004 23.628C211.049 23.1196 211.085 22.6717 211.122 22.2939L213.214 22.3219C213.155 22.7883 213.096 23.2782 213.042 23.8426C212.987 24.407 212.942 24.9855 212.91 25.5686C212.878 26.1517 212.847 26.6835 212.828 27.1779C212.81 27.6724 212.797 28.0642 212.797 28.3535C212.797 29.1511 212.797 29.7809 212.838 30.2194C212.848 30.5464 212.89 30.8715 212.965 31.1896C213.024 31.3809 213.101 31.4742 213.205 31.4742C213.292 31.4606 213.375 31.4282 213.448 31.3792C213.522 31.3301 213.585 31.2655 213.632 31.1896C213.798 30.9881 213.95 30.7745 214.086 30.5505L215.066 32.7803C214.818 33.0923 214.531 33.3698 214.213 33.606C213.854 33.8703 213.42 34.0064 212.978 33.9932L212.974 34.0025ZM218.62 34.0398C218.197 34.0569 217.776 33.9553 217.404 33.7459C217.085 33.5487 216.822 33.2688 216.641 32.9342C216.446 32.5727 216.305 32.1826 216.224 31.7774C216.135 31.3375 216.077 30.8917 216.051 30.4433C216.024 29.9768 216.01 29.5383 216.01 29.1045C216.01 28.6707 216.01 28.1109 216.051 27.6024C216.092 27.0939 216.106 26.5295 216.138 25.9231L218.253 25.7785C218.253 25.9651 218.194 26.245 218.148 26.6088C218.103 26.9727 218.058 27.4018 218.021 27.8776C217.985 28.3534 217.962 28.8479 217.962 29.3704C217.938 30.0083 218.005 30.6465 218.162 31.2643C218.289 31.6701 218.489 31.8754 218.748 31.8754C219.274 31.8754 219.655 31.4415 219.905 30.5692C220.199 29.2133 220.322 27.8244 220.273 26.4362V25.8298H221.258L222.447 25.8018C222.338 26.6275 222.256 27.3925 222.202 28.0876C222.147 28.7826 222.116 29.3657 222.102 29.8322C222.088 30.2987 222.075 30.6205 222.075 30.7651C222.06 31.0562 222.093 31.3477 222.17 31.6281C222.187 31.7021 222.229 31.7678 222.287 31.8144C222.346 31.861 222.418 31.8858 222.492 31.8847C222.579 31.8821 222.665 31.8648 222.746 31.8334C222.861 31.785 222.969 31.7224 223.069 31.6468L222.992 33.9185C222.74 33.9663 222.485 33.9928 222.229 33.9978C221.91 34.0118 221.594 33.9291 221.321 33.7599C221.085 33.6005 220.891 33.3823 220.758 33.1255C220.52 33.4193 220.218 33.6524 219.878 33.8066C219.48 33.971 219.053 34.0473 218.625 34.0305L218.62 34.0398ZM224.113 33.9092C224.113 33.1862 224.113 32.4118 224.149 31.5768C224.185 30.7418 224.199 29.9115 224.24 29.0578C224.281 28.2042 224.317 27.3645 224.362 26.5482C224.408 25.7318 224.449 24.9575 224.494 24.2158C224.539 23.4741 224.58 22.8443 224.607 22.2846H226.541C226.491 22.7884 226.45 23.3528 226.405 23.9779C226.36 24.603 226.323 25.2653 226.287 25.9697C226.518 25.8604 226.76 25.7791 227.009 25.7272C227.283 25.6653 227.563 25.6356 227.844 25.6386C228.247 25.6383 228.646 25.7175 229.02 25.8718C229.4 26.0307 229.744 26.2708 230.027 26.5762C230.348 26.9276 230.591 27.3461 230.74 27.803C230.924 28.3871 231.012 28.999 230.999 29.6129C231.013 30.2711 230.919 30.9271 230.722 31.5535C230.563 32.0501 230.308 32.5086 229.973 32.9016C229.685 33.2267 229.335 33.487 228.944 33.666C228.553 33.8451 228.131 33.939 227.703 33.9419C227.395 33.9481 227.088 33.8992 226.795 33.7972C226.528 33.703 226.273 33.5745 226.037 33.4147V33.8346L224.113 33.9092ZM227.581 27.9056C227.319 27.8948 227.058 27.9408 226.815 28.0404C226.572 28.1401 226.352 28.2912 226.169 28.4841C226.137 29.2957 226.11 30.0841 226.087 30.8584C226.257 31.13 226.492 31.3518 226.769 31.5023C227.047 31.6527 227.358 31.7266 227.671 31.7167C227.908 31.715 228.14 31.6542 228.348 31.5395C228.595 31.4015 228.795 31.188 228.92 30.9284C229.092 30.548 229.172 30.1301 229.151 29.7109C229.185 29.2277 229.042 28.7489 228.752 28.3674C228.604 28.2075 228.423 28.0825 228.223 28.0011C228.024 27.9198 227.809 27.884 227.594 27.8963L227.581 27.9056Z" fill="black"/>
<path d="M30.2817 42.204C30.2819 42.1278 30.2672 42.0524 30.2384 41.9819C30.2096 41.9115 30.1674 41.8475 30.114 41.7936C30.0607 41.7396 29.9973 41.6969 29.9275 41.6677C29.8577 41.6385 29.7829 41.6235 29.7073 41.6235H27.7025C27.6245 41.6193 27.5464 41.6313 27.4731 41.6586C27.3997 41.6859 27.3327 41.7279 27.276 41.7821C27.2193 41.8364 27.1742 41.9017 27.1433 41.9741C27.1125 42.0464 27.0966 42.1244 27.0966 42.2032C27.0966 42.282 27.1125 42.3599 27.1433 42.4323C27.1742 42.5047 27.2193 42.57 27.276 42.6242C27.3327 42.6785 27.3997 42.7205 27.4731 42.7478C27.5464 42.7751 27.6245 42.787 27.7025 42.7829H29.7073C29.8597 42.7829 30.0057 42.7219 30.1135 42.6133C30.2212 42.5048 30.2817 42.3575 30.2817 42.204ZM33.4556 42.7829H31.4523C31.3743 42.787 31.2962 42.7751 31.2229 42.7478C31.1496 42.7205 31.0825 42.6785 31.0258 42.6242C30.9691 42.57 30.924 42.5047 30.8931 42.4323C30.8623 42.3599 30.8464 42.282 30.8464 42.2032C30.8464 42.1244 30.8623 42.0464 30.8931 41.9741C30.924 41.9017 30.9691 41.8364 31.0258 41.7821C31.0825 41.7279 31.1496 41.6859 31.2229 41.6586C31.2962 41.6313 31.3743 41.6193 31.4523 41.6235H33.4556C33.5336 41.6193 33.6117 41.6313 33.685 41.6586C33.7583 41.6859 33.8254 41.7279 33.8821 41.7821C33.9387 41.8364 33.9839 41.9017 34.0147 41.9741C34.0456 42.0464 34.0615 42.1244 34.0615 42.2032C34.0615 42.282 34.0456 42.3599 34.0147 42.4323C33.9839 42.5047 33.9387 42.57 33.8821 42.6242C33.8254 42.6785 33.7583 42.7205 33.685 42.7478C33.6117 42.7751 33.5336 42.787 33.4556 42.7829ZM30.579 45.6839C30.4263 45.6839 30.2798 45.6227 30.1718 45.5139C30.0638 45.405 30.0031 45.2573 30.0031 45.1034V43.0826C30.0031 42.9287 30.0638 42.781 30.1718 42.6721C30.2798 42.5633 30.4263 42.5021 30.579 42.5021C30.7318 42.5021 30.8783 42.5633 30.9863 42.6721C31.0943 42.781 31.155 42.9287 31.155 43.0826V45.1034C31.155 45.2573 31.0943 45.405 30.9863 45.5139C30.8783 45.6227 30.7318 45.6839 30.579 45.6839ZM30.579 41.8979C30.4263 41.8979 30.2798 41.8368 30.1718 41.7279C30.0638 41.619 30.0031 41.4714 30.0031 41.3174V39.303C30.0031 39.149 30.0638 39.0014 30.1718 38.8925C30.2798 38.7836 30.4263 38.7225 30.579 38.7225C30.7318 38.7225 30.8783 38.7836 30.9863 38.8925C31.0943 39.0014 31.155 39.149 31.155 39.303V41.3237C31.155 41.4777 31.0943 41.6253 30.9863 41.7342C30.8783 41.8431 30.7318 41.9042 30.579 41.9042V41.8979ZM51.1153 27.3504H9.88001C9.80695 27.3504 9.73689 27.3211 9.68524 27.2691C9.63358 27.217 9.60456 27.1464 9.60456 27.0728C9.60456 26.9991 9.63358 26.9285 9.68524 26.8764C9.73689 26.8244 9.80695 26.7951 9.88001 26.7951H51.1153C51.1883 26.7951 51.2584 26.8244 51.3101 26.8764C51.3617 26.9285 51.3907 26.9991 51.3907 27.0728C51.3907 27.1464 51.3617 27.217 51.3101 27.2691C51.2584 27.3211 51.1883 27.3504 51.1153 27.3504ZM58.6274 35.1305L61 39.1373H52.6099V37.3863H55.9653V31.1363H61L58.6274 35.1305ZM8.3901 37.3816V39.1373H0L2.37258 35.1305L0 31.1363H5.03626V37.3926L8.3901 37.3816ZM25.7728 33.1981C25.8401 33.4013 25.8703 33.6151 25.862 33.8291C25.8689 34.0347 25.837 34.2397 25.7681 34.4333C25.7111 34.5822 25.6121 34.7111 25.4833 34.804C25.3374 34.9015 25.1716 34.9646 24.9982 34.9886C24.763 35.0241 24.5254 35.0405 24.2876 35.0375V32.6492C24.5266 32.6468 24.7655 32.6599 25.0028 32.6886C25.1763 32.706 25.3442 32.7597 25.4958 32.8463C25.625 32.9308 25.7224 33.0563 25.7728 33.2029V33.1981ZM24.8338 31.4313C24.6773 31.4471 24.488 31.4597 24.2829 31.466V29.8822C24.4394 29.8822 24.596 29.8822 24.7618 29.8822C24.9085 29.883 25.0542 29.9064 25.1938 29.9517C25.3161 29.9896 25.4248 30.0624 25.5068 30.1615C25.5929 30.2817 25.6349 30.4283 25.6257 30.5763C25.6336 30.7396 25.6008 30.9023 25.5303 31.0496C25.4694 31.1646 25.3741 31.2573 25.2579 31.3146C25.1266 31.3804 24.9845 31.4215 24.8385 31.4361L24.8338 31.4313ZM35.6325 32.1097C35.6403 32.2926 35.6435 32.4504 35.6435 32.5829C35.6435 32.8022 35.6356 33.0561 35.62 33.3511C35.6048 33.6351 35.5522 33.9157 35.4635 34.1856C35.3805 34.4415 35.234 34.6718 35.0378 34.8545C34.7983 35.0517 34.4934 35.1498 34.1849 35.129V29.9832C34.3901 29.9775 34.5934 30.0236 34.7764 30.1173C34.9384 30.2037 35.0782 30.3268 35.1849 30.477C35.2936 30.632 35.3795 30.802 35.44 30.9818C35.5023 31.1665 35.5479 31.3566 35.5762 31.5496C35.6082 31.7366 35.6306 31.9251 35.6435 32.1144L35.6325 32.1097ZM5.1818 27.9404V37.2239H55.7932V27.9451L5.1818 27.9404ZM19.2373 36.2632C18.4026 36.2758 17.5679 36.2674 16.7333 36.2379C15.8986 36.2085 15.0639 36.1932 14.2292 36.1922C13.7159 36.1922 13.2041 36.2016 12.6955 36.2174C12.1869 36.2332 11.6751 36.2427 11.1618 36.2427V34.6557C11.2732 34.6551 11.3844 34.6435 11.4936 34.621C11.5967 34.6005 11.6964 34.5649 11.7893 34.5153C11.874 34.472 11.947 34.4086 12.0022 34.3307C12.0602 34.2479 12.0894 34.1481 12.0851 34.0468V30.8918C12.0899 30.787 12.0608 30.6835 12.0022 30.5968C11.9468 30.5204 11.8737 30.4587 11.7893 30.417C11.6955 30.3719 11.596 30.3401 11.4936 30.3224C11.3839 30.3022 11.2731 30.2891 11.1618 30.2829V28.6944C11.5626 28.6815 11.9638 28.6899 12.3637 28.7196C12.7623 28.7491 13.1629 28.7643 13.5656 28.7654C13.9679 28.7654 14.3669 28.7528 14.7613 28.7307C15.1557 28.7086 15.5548 28.6944 15.9586 28.6944V30.2829C15.8473 30.289 15.7364 30.3021 15.6268 30.3224C15.5244 30.3401 15.4248 30.3719 15.331 30.417C15.2464 30.459 15.173 30.5207 15.1166 30.5968C15.0586 30.6838 15.0295 30.7871 15.0336 30.8918V34.0468C15.0224 34.139 15.0351 34.2325 15.0705 34.3182C15.1059 34.4039 15.1628 34.4789 15.2355 34.5358C15.4213 34.6359 15.629 34.6874 15.8396 34.6857C16.1476 34.7178 16.4588 34.6801 16.7505 34.5753C16.939 34.4989 17.0943 34.3575 17.1887 34.1762C17.2805 33.9847 17.3291 33.7751 17.3311 33.5625C17.3311 33.3259 17.3515 33.0688 17.3671 32.788H19.2451C19.2058 33.049 19.1859 33.3127 19.1857 33.5767V35.3198C19.1832 35.6351 19.2005 35.9501 19.2373 36.2632ZM28.906 35.0012C28.7466 35.2916 28.516 35.536 28.2362 35.711C27.9267 35.9007 27.5858 36.0327 27.2299 36.1007C26.8128 36.183 26.3887 36.2232 25.9638 36.2206C25.3863 36.2206 24.8119 36.2127 24.2422 36.2001C23.6726 36.1874 23.0951 36.1796 22.5207 36.1796C21.8258 36.1796 21.1273 36.1995 20.4251 36.2395V34.6557C20.5402 34.6554 20.655 34.6438 20.7679 34.621C20.8711 34.6005 20.9707 34.5649 21.0637 34.5153C21.1475 34.4727 21.2192 34.4091 21.2718 34.3307C21.325 34.246 21.3517 34.147 21.3485 34.0468V30.8713C21.3517 30.7711 21.325 30.6722 21.2718 30.5874C21.2192 30.509 21.1475 30.4455 21.0637 30.4028C20.9707 30.3533 20.8711 30.3177 20.7679 30.2971C20.6552 30.2736 20.5403 30.2619 20.4251 30.2624V28.6755C21.1106 28.7154 21.8013 28.7354 22.4972 28.7354C23.0659 28.7354 23.6261 28.7233 24.1781 28.6991C24.7305 28.6771 25.2908 28.6644 25.8605 28.6644C26.2312 28.6625 26.6014 28.6925 26.967 28.7543C27.281 28.8056 27.5835 28.9124 27.8606 29.0698C28.1078 29.2095 28.314 29.4125 28.4584 29.6582C28.6144 29.9419 28.6902 30.2633 28.6775 30.5874C28.6768 30.8723 28.5948 31.1511 28.4412 31.3903C28.3604 31.5158 28.2582 31.6259 28.1392 31.7153C28.0125 31.8102 27.8699 31.8813 27.7182 31.9251C27.9613 31.9863 28.1907 32.0934 28.3943 32.2406C28.7416 32.4991 28.9854 32.8747 29.0813 33.2991C29.1284 33.5103 29.152 33.7262 29.1517 33.9427C29.159 34.3124 29.0722 34.6779 28.8998 35.0043L28.906 35.0012ZM38.7938 34.0026C38.7058 34.4323 38.5145 34.8337 38.2367 35.1715C37.9281 35.5228 37.5345 35.7875 37.0942 35.9398C36.4839 36.1455 35.8422 36.2406 35.199 36.2206C34.9627 36.2206 34.7436 36.2206 34.5417 36.2206C34.3398 36.2206 34.141 36.2206 33.9438 36.2064L33.346 36.1906C33.1457 36.1906 32.9266 36.1906 32.6887 36.1906C32.2943 36.1906 31.902 36.2006 31.5118 36.2206C31.1216 36.2406 30.7288 36.2505 30.3333 36.2505V34.6557C30.4484 34.6554 30.5632 34.6438 30.6761 34.621C30.7792 34.6005 30.8789 34.5649 30.9719 34.5153C31.0557 34.4727 31.1274 34.4091 31.18 34.3307C31.2332 34.246 31.2599 34.147 31.2567 34.0468V30.8713C31.2599 30.7711 31.2332 30.6722 31.18 30.5874C31.1274 30.509 31.0557 30.4455 30.9719 30.4028C30.8789 30.3533 30.7792 30.3177 30.6761 30.2971C30.5633 30.2736 30.4485 30.2619 30.3333 30.2624V28.6755C30.7355 28.6944 31.1362 28.7086 31.5353 28.7149C31.9343 28.7212 32.3334 28.7244 32.7372 28.7244C32.997 28.7244 33.2318 28.7212 33.4415 28.7149C33.6496 28.7149 33.8562 28.6991 34.0565 28.6897L34.6825 28.6644C34.8969 28.6644 35.1286 28.655 35.3821 28.655C35.9858 28.6341 36.5865 28.7483 37.1412 28.9894C37.5735 29.1875 37.95 29.4911 38.2367 29.8728C38.5078 30.2444 38.6976 30.6696 38.7938 31.1206C38.8977 31.5866 38.9502 32.0627 38.9504 32.5403C38.9487 33.0333 38.8942 33.5247 38.7876 34.0058L38.7938 34.0026ZM48.8351 34.8071C48.627 35.1623 48.3337 35.459 47.9821 35.67C47.5921 35.9003 47.1652 36.0605 46.7207 36.1433C46.2177 36.2447 45.7062 36.2975 45.1932 36.301C44.5126 36.3217 43.8322 36.2517 43.1697 36.0928C42.6073 35.9607 42.0757 35.7196 41.6046 35.3829C41.1752 35.0703 40.8294 34.6551 40.5983 34.1746C40.3501 33.6378 40.2285 33.0503 40.2431 32.4583C40.2329 31.8952 40.344 31.3365 40.5686 30.8209C40.7787 30.3492 41.0974 29.935 41.4982 29.6125C41.934 29.2691 42.4329 29.0161 42.9662 28.8679C43.5985 28.6913 44.2524 28.6058 44.9084 28.614C45.1497 28.613 45.3907 28.6283 45.6299 28.6597C45.8506 28.6881 46.0509 28.7244 46.2277 28.7638C46.4046 28.8033 46.5642 28.8443 46.6972 28.8837C46.8303 28.9231 46.9602 28.9531 47.0697 28.9736C47.1127 28.9876 47.159 28.9873 47.2018 28.9728C47.2446 28.9584 47.2817 28.9304 47.3076 28.8932C47.3545 28.8214 47.383 28.739 47.3905 28.6534H48.7991C48.7991 28.8869 48.7991 29.1156 48.7819 29.338C48.7646 29.5604 48.7631 29.7892 48.7631 30.0211C48.7631 30.253 48.7631 30.5148 48.7881 30.7609C48.8131 31.007 48.8069 31.2531 48.7991 31.4992H47.3905C47.383 31.2675 47.3451 31.0378 47.2779 30.8161C47.2151 30.6017 47.115 30.4003 46.9821 30.2214C46.8467 30.0446 46.6719 29.9025 46.4719 29.8065C46.2325 29.696 45.9713 29.6421 45.7081 29.6488C45.3659 29.6335 45.0278 29.7298 44.7441 29.9233C44.5001 30.1006 44.3011 30.3336 44.1635 30.6032C44.0237 30.8771 43.9296 31.1724 43.8849 31.4771C43.8399 31.7641 43.8164 32.0541 43.8145 32.3447C43.8156 32.6356 43.837 32.926 43.8786 33.2139C43.9188 33.5013 44.0072 33.7798 44.14 34.0373C44.2736 34.2912 44.4719 34.5046 44.7144 34.6557C45.0155 34.8335 45.3591 34.9251 45.7081 34.9207C45.9355 34.9268 46.1627 34.9035 46.3842 34.8513C46.6055 34.8017 46.8171 34.7154 47.0102 34.5958C47.193 34.4822 47.3486 34.3292 47.4657 34.1478C47.5881 33.9492 47.6461 33.717 47.6316 33.4836H49.1481C49.1646 33.947 49.0541 34.406 48.8288 34.8103L48.8351 34.8071ZM13.6517 22.0832C13.6127 22.2921 13.5419 22.4938 13.442 22.681C13.3783 22.803 13.2811 22.9038 13.1619 22.9713C13.056 23.0257 12.9378 23.0513 12.8191 23.0454C12.6863 23.0391 12.5543 23.0207 12.4247 22.9902C12.1942 22.9387 11.9333 22.8735 11.6422 22.7946C11.348 22.7157 11.0334 22.6369 10.6954 22.5328L9.64839 22.2283L9.88471 21.5326C10.1007 21.6084 10.3229 21.6825 10.5514 21.7551C10.7783 21.826 11.0006 21.8939 11.2165 21.957L11.805 22.1147L12.2495 22.233C12.3684 22.263 12.4451 22.2835 12.4795 22.2898C12.5553 22.3114 12.6344 22.3183 12.7127 22.3103C12.7409 22.3048 12.7673 22.2926 12.7899 22.2748C12.8125 22.257 12.8305 22.234 12.8426 22.2078C12.8825 22.1225 12.9115 22.0324 12.9287 21.9396C12.9661 21.7679 12.9932 21.5941 13.0101 21.4191C13.0309 21.2189 13.0414 21.0177 13.0414 20.8165C13.0428 20.6255 13.0308 20.4347 13.0054 20.2454L13.7879 20.2596C13.7973 20.4489 13.7988 20.6492 13.7879 20.8638C13.7769 21.0783 13.7691 21.2897 13.7472 21.4948C13.725 21.6938 13.691 21.8914 13.6455 22.0863L13.6517 22.0832ZM14.4734 19.2784C14.4064 19.4622 14.2837 19.62 14.1228 19.7296C13.9544 19.8434 13.7599 19.9118 13.5578 19.9283C13.3343 19.9478 13.1093 19.9149 12.9005 19.8321C12.7042 19.7633 12.5234 19.6561 12.3684 19.5166C12.2302 19.3888 12.118 19.235 12.0382 19.0639C11.9636 18.9001 11.9211 18.7233 11.913 18.5433C11.9063 18.3642 11.9356 18.1855 11.9991 18.018C12.0515 17.8748 12.1266 17.7411 12.2213 17.6221C12.1665 17.5889 12.1117 17.559 12.057 17.529L12.4169 16.9311C12.4853 16.9842 12.5575 17.0322 12.6329 17.0747C12.7315 17.1315 12.8442 17.1898 12.9694 17.2498C13.0946 17.3097 13.2213 17.3697 13.3497 17.4264C13.478 17.4832 13.5922 17.5306 13.6971 17.5716C13.7809 17.6029 13.8667 17.6287 13.9538 17.6489C14.0283 17.6676 14.1062 17.6676 14.1807 17.6489C14.2143 17.6388 14.2448 17.6204 14.2694 17.5953C14.294 17.5702 14.3119 17.5393 14.3215 17.5053L14.3419 17.4533L15.0274 17.8192C14.9802 17.9642 14.8954 18.0939 14.7817 18.1947C14.6805 18.2753 14.5612 18.3295 14.4342 18.3524C14.5229 18.4938 14.568 18.6585 14.5641 18.8257C14.5569 18.982 14.5242 19.136 14.4671 19.2816L14.4734 19.2784ZM13.212 19.2469C13.3351 19.286 13.4685 19.2758 13.5844 19.2185C13.6984 19.159 13.7848 19.0572 13.8254 18.9345C13.8724 18.8182 13.8724 18.688 13.8254 18.5717C13.7729 18.4454 13.6926 18.3327 13.5907 18.242L13.453 18.1947C13.3559 18.1584 13.2573 18.1174 13.1572 18.0748C13.057 18.0322 12.9584 17.9865 12.8614 17.9407C12.7788 18.0291 12.7145 18.1331 12.672 18.2467C12.6227 18.3724 12.6071 18.509 12.6266 18.6427C12.6457 18.7699 12.7 18.889 12.7831 18.9866C12.872 19.0904 12.9864 19.1688 13.1149 19.2137L13.1634 19.2327L13.212 19.2469ZM12.262 16.1976L12.1869 16.1645L12.1008 16.125C12.0163 16.0824 11.9271 16.0367 11.8332 15.9846C11.7393 15.9326 11.661 15.89 11.5969 15.8521L11.9099 15.2211L12.2072 15.3931C12.3168 15.4578 12.4326 15.5208 12.5531 15.5824L12.262 16.1976ZM15.1103 17.6015C14.9434 17.529 14.765 17.4485 14.5751 17.3602L14.0085 17.0889C13.7613 16.969 13.5218 16.8496 13.2902 16.7308C13.0586 16.6109 12.8489 16.502 12.6642 16.4011L12.9584 15.7701C13.0758 15.8395 13.2245 15.9184 13.4029 16.0083C13.5813 16.0982 13.7691 16.1913 13.9647 16.2859C14.1604 16.3806 14.3513 16.4721 14.5407 16.562C14.73 16.6519 14.9038 16.7324 15.0571 16.8018L15.4155 16.9595L15.1103 17.6015ZM16.0697 15.8427C15.9993 15.965 15.9057 16.0722 15.7942 16.1582C15.6783 16.2463 15.5448 16.3082 15.403 16.3396C15.2429 16.3728 15.0779 16.3728 14.9178 16.3396C14.7219 16.2996 14.5347 16.2243 14.3654 16.1171C14.1705 16.007 13.9976 15.8616 13.8552 15.6881C13.7406 15.5492 13.6554 15.3881 13.6048 15.2148C13.5629 15.0608 13.5528 14.8997 13.575 14.7416C13.5941 14.594 13.6425 14.4518 13.7175 14.3235C13.7589 14.253 13.806 14.186 13.8583 14.1232C13.9057 14.066 13.9581 14.0132 14.0148 13.9655C13.8333 13.8471 13.6517 13.7273 13.4702 13.6042C13.2886 13.4812 13.1102 13.3581 12.9349 13.2351L13.3184 12.6798C13.5187 12.8249 13.7362 12.9769 13.971 13.1357C14.2057 13.2945 14.4468 13.4522 14.694 13.6089C14.9413 13.7667 15.1854 13.915 15.4233 14.0569C15.6612 14.1989 15.8615 14.3157 16.0666 14.4308C16.2716 14.546 16.4594 14.6469 16.63 14.7368L16.3279 15.3678L16.1855 15.2874C16.1935 15.3837 16.1899 15.4806 16.1746 15.5761C16.1534 15.6718 16.1158 15.7631 16.0634 15.8458L16.0697 15.8427ZM14.6612 15.535C14.7653 15.6054 14.8865 15.6458 15.0117 15.6518C15.1031 15.6529 15.1929 15.6272 15.27 15.5776C15.3331 15.5335 15.3864 15.4765 15.4265 15.4104C15.4705 15.3332 15.4967 15.2469 15.5032 15.158C15.5074 15.049 15.4848 14.9406 15.4374 14.8425L15.3513 14.7905C15.1448 14.6674 14.9351 14.5381 14.7253 14.4056C14.6507 14.4219 14.58 14.4532 14.5176 14.4976C14.4552 14.5421 14.4024 14.5988 14.3622 14.6643C14.3285 14.7217 14.3037 14.7839 14.2887 14.8488C14.273 14.9227 14.273 14.999 14.2887 15.0728C14.3067 15.1589 14.3436 15.2397 14.3967 15.3095C14.4661 15.4024 14.5534 15.4802 14.6533 15.5382L14.6612 15.535ZM17.6472 13.3755C17.6185 13.3543 17.5913 13.3311 17.5658 13.3061L17.4688 13.2161C17.3749 13.1289 17.2654 13.0237 17.1402 12.9007C17.015 12.7776 16.8819 12.6435 16.7427 12.4984L16.3217 12.063C16.1808 11.9179 16.0447 11.7759 15.9163 11.6402L15.572 11.2727C15.547 11.3311 15.5266 11.3831 15.5094 11.4304L14.8834 10.9998C15.0054 10.7359 15.1434 10.4799 15.2966 10.2331C15.4206 10.0308 15.5625 9.84016 15.7207 9.66366C16.0118 9.34816 16.2982 9.16675 16.5846 9.12258C16.817 9.10562 17.0485 9.16521 17.2444 9.29238C17.4403 9.41955 17.5899 9.60743 17.6707 9.82771C17.7155 9.97827 17.7219 10.1378 17.6895 10.2915C17.8716 10.2306 18.0671 10.2233 18.2531 10.2706C18.4391 10.3178 18.6079 10.4175 18.7396 10.5581C18.867 10.6696 18.9676 10.8087 19.0338 10.9651C19.0843 11.0922 19.1057 11.2292 19.0964 11.3658C19.0882 11.49 19.0596 11.6121 19.0119 11.727C18.9697 11.8289 18.9173 11.9261 18.8554 12.0173C18.8115 12.082 18.764 12.1442 18.713 12.2034C18.6117 12.3129 18.5 12.4122 18.3797 12.5C18.2518 12.5962 18.115 12.6796 17.9712 12.7492L18.0948 12.8644L17.6472 13.3755ZM16.2747 10.1558C16.2105 10.2268 16.1464 10.3041 16.0822 10.3893C16.018 10.4745 15.9601 10.5612 15.9054 10.6527C16.0525 10.8115 16.2262 10.9945 16.4265 11.2017C16.4526 11.1786 16.4771 11.1538 16.5001 11.1276L16.5752 11.0455C17.051 10.526 17.1715 10.1579 16.9367 9.94129C16.8979 9.90541 16.8497 9.88156 16.7978 9.87261C16.7458 9.86366 16.6925 9.86998 16.6441 9.89081C16.5006 9.94612 16.3735 10.0373 16.2747 10.1558ZM17.1511 11.4573L17.0369 11.5819C16.9977 11.6245 16.9602 11.6686 16.9226 11.7128L17.1996 11.9904L17.4735 12.2633C17.6062 12.1908 17.7324 12.1069 17.8507 12.0125C17.9484 11.9358 18.0405 11.8519 18.1261 11.7617C18.2449 11.6485 18.3323 11.5061 18.3797 11.3484C18.3895 11.2896 18.3834 11.2292 18.3619 11.1737C18.3404 11.1181 18.3043 11.0695 18.2576 11.0329C18.1945 10.9765 18.1164 10.94 18.0329 10.9279C17.9495 10.9159 17.8643 10.9288 17.7881 10.9651C17.5414 11.0782 17.3236 11.2465 17.1511 11.4573ZM20.5112 10.5896C20.3596 10.7122 20.1733 10.7829 19.9791 10.7916C19.7761 10.8017 19.574 10.7587 19.3922 10.6669C19.1914 10.5666 19.0162 10.4209 18.8805 10.241C18.7492 10.0777 18.6509 9.89018 18.5909 9.6889C18.5379 9.50735 18.5214 9.31695 18.5424 9.12889C18.5617 8.95001 18.6162 8.7768 18.7027 8.61942C18.7893 8.46204 18.9061 8.32365 19.0464 8.21237C19.1654 8.11819 19.2985 8.04365 19.4408 7.99153C19.4105 7.93474 19.3792 7.88215 19.3468 7.83378L19.9619 7.51828C19.994 7.59867 20.0316 7.67669 20.0746 7.75175C20.1294 7.85271 20.1951 7.96155 20.2718 8.07986C20.3485 8.19818 20.4283 8.31333 20.505 8.42691C20.5817 8.54049 20.6615 8.6446 20.7288 8.73294C20.7838 8.80459 20.844 8.87207 20.9088 8.93486C20.962 8.9904 21.0282 9.03162 21.1012 9.05475C21.1351 9.06297 21.1704 9.06282 21.2042 9.05431C21.238 9.04579 21.2693 9.02917 21.2953 9.00585L21.3391 8.96957L21.7366 9.64315C21.6218 9.74175 21.483 9.80765 21.3344 9.83403C21.2058 9.85294 21.0744 9.83884 20.9526 9.79301C20.9565 9.96021 20.9113 10.1249 20.8227 10.2663C20.7361 10.3896 20.631 10.4987 20.5112 10.5896ZM19.4486 9.90343C19.5337 10.0015 19.6532 10.0625 19.7819 10.0738C19.9074 10.0782 20.0304 10.0382 20.1296 9.96069C20.2289 9.88316 20.298 9.77304 20.325 9.64946C20.344 9.51416 20.3334 9.3763 20.2937 9.24562C20.2624 9.21092 20.2311 9.17306 20.1998 9.13205C20.1356 9.05002 20.0715 8.96483 20.0089 8.87492C19.9463 8.785 19.8837 8.69508 19.8242 8.60674C19.7103 8.63734 19.6038 8.69101 19.5112 8.76449C19.4039 8.84606 19.3202 8.95496 19.2686 9.07999C19.2187 9.19777 19.2029 9.32741 19.2232 9.45385C19.2446 9.58969 19.3019 9.71721 19.3891 9.82298L19.422 9.86558C19.43 9.87877 19.4389 9.89142 19.4486 9.90343ZM22.9182 8.94748C22.7316 9.05647 22.5204 9.11566 22.3047 9.11943C22.0898 9.12407 21.8777 9.06953 21.6913 8.96168C21.4833 8.8355 21.313 8.65511 21.1983 8.43953C21.0587 8.20367 20.9721 7.93981 20.9447 7.66656C20.9217 7.43052 20.9651 7.19269 21.0699 6.98036C21.1801 6.76872 21.35 6.59471 21.5582 6.4803C21.7469 6.36663 21.9647 6.31175 22.1842 6.32255C22.4178 6.34594 22.6423 6.42605 22.8384 6.55602L22.5677 7.20436C22.4609 7.13349 22.3436 7.08024 22.2202 7.04661C22.1073 7.02661 21.9911 7.05027 21.8947 7.11287C21.8203 7.15314 21.7565 7.21058 21.7083 7.28049C21.6602 7.35041 21.6291 7.43081 21.6177 7.51513C21.5955 7.71624 21.6425 7.91893 21.7507 8.08933C21.7988 8.18727 21.8749 8.26846 21.9692 8.32244C22.0635 8.37642 22.1716 8.40072 22.2797 8.39221C22.3652 8.38797 22.4487 8.36424 22.5239 8.3228C22.5924 8.28486 22.6547 8.23644 22.7085 8.17925C22.7667 8.11311 22.8047 8.03152 22.8181 7.9442C22.8372 7.81231 22.8313 7.67796 22.8009 7.54825L23.4957 7.5593C23.5091 7.73572 23.5091 7.91291 23.4957 8.08933C23.4769 8.25635 23.4236 8.41755 23.3392 8.56257C23.2356 8.72657 23.0902 8.8595 22.9182 8.94748ZM24.0607 8.27705C23.9997 8.1477 23.9246 7.98048 23.8385 7.77541C23.7524 7.57034 23.6601 7.34476 23.5646 7.10183C23.4801 6.88571 23.3956 6.66171 23.3095 6.42982C23.2234 6.19793 23.142 5.97077 23.0638 5.74361C22.9855 5.51646 22.9073 5.3035 22.8494 5.11262C22.7915 4.92174 22.7304 4.73718 22.6929 4.58416L23.3564 4.37751C23.4316 4.67408 23.5129 4.97065 23.6115 5.26721C23.7101 5.56378 23.8087 5.8635 23.9245 6.1648C24.0216 6.00705 24.1374 5.82406 24.2751 5.63003C24.4128 5.436 24.5881 5.212 24.7822 4.95803L25.3847 5.47229C25.1714 5.65374 24.9759 5.85555 24.801 6.07488C24.6599 6.24838 24.5387 6.43728 24.4394 6.63805C24.4273 6.65733 24.4163 6.67735 24.4066 6.69799C24.4066 6.70903 24.4066 6.71692 24.4066 6.7185C24.4066 6.72008 24.4661 6.75005 24.5631 6.76267C24.6961 6.78317 24.8338 6.80053 24.9731 6.81472C25.1124 6.82892 25.2673 6.83996 25.4426 6.84627C25.6179 6.85258 25.801 6.84627 26.0123 6.84627L25.9966 7.56245C25.7358 7.57636 25.4743 7.57162 25.2141 7.54825C24.9449 7.52301 24.6961 7.48831 24.4692 7.44414C24.5083 7.53879 24.549 7.63186 24.5928 7.72651C24.6366 7.82116 24.6805 7.91581 24.7227 8.01046L24.0607 8.27705ZM28.0875 7.02768L27.4146 7.04977L27.1642 3.98945C27.1021 4.01492 27.0415 4.04389 26.9826 4.07621L26.7651 3.33953C26.9012 3.28905 27.0687 3.23226 27.2706 3.16916C27.4753 3.1067 27.6846 3.06081 27.8966 3.03192C28.07 3.0095 28.2453 3.00685 28.4193 3.02403C28.5993 3.04148 28.7759 3.08505 28.9436 3.15339C29.1171 3.22465 29.2762 3.3273 29.4131 3.45626C29.5665 3.60298 29.6913 3.77742 29.7809 3.97052C29.8911 4.21089 29.9619 4.46767 29.9906 4.73087C30.0489 5.09801 30.0356 5.4731 29.9515 5.83511C29.8849 6.1231 29.7338 6.38421 29.5179 6.58441C29.2951 6.77798 29.0187 6.898 28.726 6.9283C28.5085 6.95593 28.2876 6.9393 28.0766 6.8794C28.0828 6.93409 28.0865 6.98351 28.0875 7.02768ZM27.9686 3.77965L27.8543 3.79542C27.8997 4.34754 27.9357 4.81763 27.9655 5.20569C27.9952 5.59375 28.0187 5.91556 28.0359 6.17427C28.1278 6.19295 28.2209 6.2056 28.3144 6.21213C28.4184 6.22438 28.5235 6.22438 28.6275 6.21213C28.8169 6.19576 28.9929 6.10651 29.1189 5.96288C29.2383 5.81421 29.3147 5.63514 29.3395 5.44547C29.3709 5.22628 29.3709 5.00369 29.3395 4.7845C29.3232 4.62272 29.277 4.46544 29.2034 4.32072C29.0913 4.10509 28.9031 3.93962 28.676 3.85694C28.5812 3.82287 28.4831 3.79907 28.3833 3.78596C28.3008 3.77554 28.2176 3.7708 28.1345 3.77176C28.0791 3.77104 28.0237 3.77367 27.9686 3.77965ZM30.4241 6.77686C30.4382 6.5292 30.4507 6.28311 30.4617 6.03545C30.4726 5.78778 30.4789 5.54485 30.4836 5.3035C30.4883 5.06214 30.4836 4.86653 30.4836 4.65042C30.4836 4.4343 30.4836 4.2245 30.4742 4.01942L31.144 4.00996C31.144 4.12038 31.144 4.23396 31.144 4.34912C31.2263 4.23684 31.3288 4.14107 31.4461 4.06675C31.5638 3.99506 31.6999 3.95994 31.8373 3.96579C31.9096 3.96862 31.9814 3.97866 32.0517 3.99576C32.1446 4.01829 32.2337 4.05443 32.3162 4.10303L32.227 4.85707C32.1625 4.81213 32.0911 4.77804 32.0157 4.75611C31.9542 4.73759 31.8905 4.72699 31.8264 4.72456C31.7386 4.7248 31.6525 4.74769 31.576 4.79105C31.4996 4.83441 31.4355 4.89678 31.3897 4.97222C31.2517 5.18479 31.1644 5.42667 31.1346 5.67894C31.1346 5.88874 31.1252 6.08593 31.1174 6.27523C31.1096 6.46452 31.1002 6.63489 31.0861 6.78633L30.4241 6.77686ZM33.479 7.00087C33.2468 6.96839 33.0271 6.8748 32.8421 6.72954C32.6711 6.59092 32.542 6.40675 32.4696 6.19793C32.3931 5.97006 32.3753 5.72633 32.4179 5.48964C32.445 5.32325 32.4945 5.16137 32.5651 5.00851C32.6401 4.84287 32.7434 4.69178 32.8702 4.56208C33.0016 4.42685 33.1623 4.32424 33.3397 4.26236C33.55 4.19417 33.7738 4.18007 33.9908 4.22134C34.144 4.24187 34.2927 4.28826 34.4306 4.35858C34.5344 4.41418 34.6268 4.48912 34.7029 4.57943C34.7644 4.6544 34.8121 4.73989 34.8437 4.83183C34.8703 4.90917 34.8862 4.98987 34.8907 5.07161C34.8967 5.13245 34.8967 5.19375 34.8907 5.25459C34.8765 5.38367 34.8303 5.50704 34.7561 5.61322C34.6819 5.71941 34.5823 5.80497 34.4666 5.86192C34.1701 5.98828 33.8419 6.01859 33.5276 5.94869C33.4426 5.93572 33.3585 5.91781 33.2756 5.89505C33.1973 5.87454 33.1191 5.85246 33.058 5.8288C33.0775 5.97042 33.1476 6.1 33.2552 6.1932C33.3529 6.27552 33.4708 6.32999 33.5964 6.35094C33.7599 6.38038 33.9281 6.36901 34.0863 6.31782C34.2441 6.25929 34.3888 6.16975 34.5119 6.05438L34.7749 6.67433C34.6778 6.73743 34.573 6.8021 34.4619 6.86678C34.3335 6.93767 34.1945 6.98671 34.0503 7.01191C33.8606 7.04084 33.6674 7.0371 33.479 7.00087ZM33.9 4.88389C33.7531 4.85861 33.6019 4.88243 33.4696 4.95172C33.3386 5.02177 33.2301 5.1279 33.1566 5.25775C33.2208 5.28141 33.285 5.30034 33.3476 5.31769C33.4098 5.33563 33.473 5.34986 33.5369 5.36028C33.6039 5.36902 33.6713 5.37324 33.7388 5.37291C33.8154 5.37417 33.8918 5.36836 33.9673 5.35555C34.0345 5.34629 34.0996 5.32548 34.1598 5.29403C34.1835 5.28342 34.2042 5.26706 34.22 5.24641C34.2358 5.22576 34.2464 5.20147 34.2506 5.17572C34.2537 5.14368 34.2477 5.11141 34.2334 5.08265C34.2115 5.03594 34.1774 4.99613 34.1348 4.96749C34.0637 4.91932 33.9821 4.88952 33.8969 4.88073L33.9 4.88389ZM35.778 7.53879C35.5932 7.4789 35.432 7.36121 35.3179 7.20278C35.1973 7.03743 35.1213 6.84341 35.0973 6.63962C35.07 6.41573 35.0942 6.18854 35.1677 5.9755C35.2301 5.77478 35.3318 5.58866 35.4666 5.42812C35.5875 5.2832 35.736 5.16413 35.9033 5.07792C36.0625 4.99529 36.2365 4.94543 36.415 4.93121C36.5923 4.91731 36.7706 4.93931 36.9393 4.99589C37.0827 5.04476 37.2178 5.11552 37.34 5.20569C37.3697 5.15048 37.3979 5.09369 37.4245 5.0369L38.0317 5.37606C37.9819 5.44729 37.9374 5.52217 37.8987 5.60006C37.8455 5.70102 37.7907 5.81618 37.7422 5.94553C37.6936 6.07488 37.6342 6.20424 37.5857 6.33359C37.5371 6.46294 37.4918 6.58283 37.4558 6.6901C37.4277 6.77581 37.4052 6.86329 37.3885 6.95197C37.3699 7.02706 37.3699 7.1056 37.3885 7.1807C37.4004 7.21397 37.4202 7.24383 37.4461 7.26773C37.472 7.29163 37.5032 7.30886 37.5372 7.31794L37.5904 7.33529L37.2351 8.03727C37.0901 7.99463 36.9589 7.91408 36.8548 7.8038C36.7684 7.70577 36.7076 7.58758 36.6779 7.45991C36.5433 7.55694 36.3832 7.61181 36.2178 7.61766C36.0648 7.61428 35.9132 7.58659 35.7687 7.53563L35.778 7.53879ZM35.7608 6.26734C35.7432 6.32917 35.7378 6.39392 35.745 6.45786C35.7522 6.52181 35.7718 6.58369 35.8028 6.63996C35.8337 6.69624 35.8754 6.7458 35.9254 6.7858C35.9754 6.82581 36.0328 6.85547 36.0942 6.87309C36.211 6.91611 36.3397 6.91273 36.4541 6.86363C36.5756 6.80501 36.6825 6.71987 36.7672 6.61438C36.7797 6.56864 36.7938 6.52131 36.8094 6.47399C36.8428 6.37513 36.8788 6.27417 36.9174 6.17111C36.9581 6.06857 36.9972 5.96762 37.0395 5.86823C36.9479 5.78816 36.8415 5.72705 36.7265 5.6884C36.5997 5.64454 36.4639 5.63422 36.3321 5.65843C36.2074 5.68244 36.0916 5.74025 35.9972 5.82564C35.8975 5.91881 35.824 6.03691 35.7843 6.16796C35.7843 6.18531 35.7734 6.20266 35.7671 6.22001C35.7599 6.23395 35.7546 6.24881 35.7514 6.26418L35.7608 6.26734ZM37.4088 8.06409L37.509 7.8669L37.678 7.54037C37.7453 7.41417 37.8173 7.28008 37.8971 7.13495L38.1365 6.69957C38.2242 6.54182 38.3103 6.38407 38.3916 6.23894L38.6029 5.86192C38.6624 5.75623 38.7062 5.68051 38.7313 5.63319L39.326 5.94869C39.2821 6.01967 39.2289 6.10643 39.1695 6.20897C39.2709 6.15438 39.3821 6.12061 39.4965 6.10959C39.6058 6.10313 39.7146 6.1289 39.8096 6.18373C39.867 6.21331 39.9177 6.25448 39.9586 6.30469C39.9996 6.3549 40.0298 6.41307 40.0474 6.47556C40.0843 6.61439 40.0923 6.7594 40.0709 6.90149C40.398 6.70272 40.6828 6.67275 40.927 6.80841C41.0506 6.87132 41.151 6.97249 41.2134 7.09709C41.2662 7.21857 41.2877 7.35149 41.276 7.48358C41.2644 7.63437 41.2328 7.78292 41.1821 7.92527C41.1274 8.08193 41.0637 8.23521 40.9912 8.38432C40.916 8.53681 40.8409 8.68194 40.7658 8.8197C40.675 8.97745 40.5905 9.1352 40.5107 9.26455C40.4309 9.39391 40.3542 9.52642 40.2963 9.64946L39.6922 9.31346L39.8221 9.07683L39.9786 8.78973C40.0334 8.69193 40.0803 8.60832 40.1194 8.53576L40.1899 8.40956C40.2744 8.25181 40.3464 8.10353 40.4215 7.96155C40.4809 7.84639 40.5251 7.72388 40.5529 7.59716C40.5733 7.4962 40.553 7.42679 40.4888 7.39208C40.4557 7.37467 40.4189 7.36557 40.3816 7.36557C40.3442 7.36557 40.3075 7.37467 40.2744 7.39208C40.1784 7.44056 40.0898 7.50272 40.0114 7.57665C39.9146 7.6651 39.8226 7.75883 39.736 7.85744C39.6859 7.96155 39.6327 8.06409 39.5795 8.17294C39.5263 8.28178 39.4746 8.3717 39.423 8.46477L39.2665 8.74399C39.2211 8.82286 39.1742 8.90173 39.1241 8.99796L38.5388 8.67142C38.6546 8.46161 38.7547 8.2739 38.8408 8.11141C38.9269 7.94893 39.0083 7.79592 39.0849 7.63817C39.1928 7.43834 39.2774 7.2266 39.3369 7.00718C39.3682 6.85889 39.3494 6.7674 39.2821 6.72954C39.2375 6.70976 39.1881 6.70356 39.14 6.71168C39.0919 6.71981 39.0472 6.74191 39.0114 6.77529C38.8907 6.85905 38.7813 6.9582 38.6859 7.07028C38.5732 7.2785 38.4589 7.49935 38.3416 7.72966C38.2242 7.95998 38.1131 8.18398 38.0098 8.40167L37.4088 8.06409ZM41.3417 10.5723C41.1559 10.4282 41.0112 10.2372 40.9223 10.0186C40.8427 9.81237 40.8215 9.58788 40.8613 9.37024C40.9103 9.13355 41.018 8.91322 41.1743 8.72979C41.2804 8.6001 41.403 8.48502 41.5389 8.38747C41.6856 8.28085 41.8498 8.20127 42.0241 8.15243C42.2054 8.10098 42.3962 8.09287 42.5812 8.12877C42.7969 8.17467 42.9976 8.27448 43.165 8.41902C43.2879 8.51369 43.3938 8.62895 43.478 8.75976C43.5412 8.85911 43.5843 8.97009 43.6047 9.0863C43.6228 9.18219 43.6228 9.28066 43.6047 9.37656C43.5899 9.45725 43.5635 9.53535 43.5265 9.60845C43.5006 9.66444 43.4686 9.71735 43.431 9.76619C43.3556 9.8715 43.2548 9.95572 43.1382 10.0109C43.0216 10.0661 42.8929 10.0905 42.7643 10.0817C42.443 10.0423 42.1417 9.90337 41.902 9.68417C41.8316 9.62738 41.769 9.56901 41.7111 9.51222C41.6532 9.45543 41.6015 9.39706 41.5546 9.34501C41.5039 9.47858 41.5039 9.62631 41.5546 9.75988C41.5962 9.88359 41.6716 9.99294 41.7721 10.0754C41.8987 10.183 42.0498 10.2572 42.2119 10.2915C42.3823 10.3213 42.5569 10.3159 42.7252 10.2757L42.6469 10.9446C42.5327 10.9446 42.4075 10.954 42.2745 10.9446C42.1282 10.9405 41.9835 10.9134 41.8456 10.8641C41.6585 10.7973 41.4847 10.6974 41.3323 10.5691L41.3417 10.5723ZM42.7502 8.94906C42.6361 8.85285 42.4936 8.79739 42.3449 8.79131C42.196 8.78493 42.0485 8.82277 41.9208 8.90016C41.9646 8.95063 42.01 8.99954 42.0554 9.04686C42.1011 9.093 42.1491 9.1367 42.1993 9.17779C42.2527 9.21929 42.3086 9.25723 42.3668 9.29137C42.4339 9.32924 42.5034 9.36244 42.575 9.39075C42.6379 9.41582 42.7045 9.43021 42.7722 9.43334C42.798 9.43614 42.8241 9.43242 42.8481 9.4225C42.8722 9.41259 42.8934 9.3968 42.9099 9.37656C42.9279 9.34983 42.9387 9.31884 42.9412 9.28664C42.9456 9.23231 42.9353 9.17779 42.9114 9.12889C42.8701 9.05489 42.8116 8.9921 42.7409 8.9459L42.7502 8.94906ZM42.4091 11.473C42.5922 11.3153 42.7737 11.1418 42.9521 10.9745C43.1305 10.8073 43.3074 10.637 43.478 10.4697L43.9365 10.006C44.093 9.84822 44.2307 9.70152 44.3669 9.55323L44.8505 10.0265C44.7738 10.1054 44.694 10.1842 44.6173 10.2726C44.7541 10.2502 44.894 10.2551 45.0289 10.2868C45.1626 10.3186 45.2839 10.3894 45.3779 10.4903C45.4268 10.5442 45.4703 10.6028 45.5078 10.6654C45.5588 10.7469 45.5973 10.8357 45.6221 10.9288L45.032 11.402C45.0185 11.3243 44.9915 11.2495 44.9522 11.1812C44.9208 11.1248 44.8836 11.0719 44.8411 11.0234C44.778 10.9618 44.7003 10.9173 44.6155 10.8941C44.5306 10.8709 44.4413 10.8699 44.356 10.8909C44.1105 10.9425 43.8802 11.0504 43.683 11.2064C43.5265 11.3516 43.3919 11.4888 43.2542 11.6182C43.1165 11.7475 42.9913 11.8611 42.8755 11.9589L42.4091 11.473ZM45.3826 15.1391C45.2158 14.8892 45.127 14.5948 45.1275 14.2936C45.1336 13.9964 45.2243 13.7073 45.3889 13.4607C45.5847 13.1705 45.8398 12.9258 46.137 12.7429C46.2778 12.6548 46.426 12.5794 46.5799 12.5173C46.7557 12.445 46.9389 12.3921 47.126 12.3596C47.3175 12.3231 47.5134 12.3172 47.7067 12.3422C47.9023 12.3664 48.0908 12.4308 48.2607 12.5315C48.4499 12.6463 48.6085 12.8061 48.7224 12.9969C48.826 13.1533 48.9018 13.3268 48.9462 13.5096C48.9812 13.6615 48.9939 13.8177 48.9837 13.9733C48.9738 14.1059 48.948 14.2367 48.907 14.363C48.8746 14.4641 48.8348 14.5627 48.7881 14.658C48.7458 14.7384 48.7161 14.7968 48.6973 14.8346L47.9727 14.6122C48.0449 14.4938 48.1077 14.3699 48.1605 14.2415C48.2149 14.1127 48.2436 13.9745 48.245 13.8345C48.2431 13.6803 48.1951 13.5302 48.1073 13.4039C48.0275 13.2661 47.9041 13.1594 47.7568 13.101C47.619 13.0489 47.4708 13.0311 47.3248 13.0489C47.1733 13.0647 47.025 13.1035 46.885 13.1641C46.7539 13.218 46.6277 13.2835 46.5079 13.3597C46.391 13.4347 46.282 13.5214 46.1824 13.6184C46.0856 13.7093 46.0046 13.816 45.9429 13.9339C45.8835 14.0475 45.8549 14.1748 45.8599 14.303C45.8685 14.4492 45.9173 14.5902 46.0008 14.71C46.0809 14.8492 46.1987 14.9624 46.3404 15.0366C46.4727 15.0977 46.6176 15.1258 46.763 15.1186C46.9373 15.111 47.1106 15.0883 47.281 15.0508L47.3577 15.7843C47.0925 15.829 46.8233 15.8443 46.5548 15.83C46.3235 15.818 46.0978 15.7539 45.8944 15.6423C45.6813 15.5209 45.5021 15.3473 45.3732 15.1375L45.3826 15.1391ZM46.6581 17.4485C46.5984 17.3343 46.577 17.2037 46.5971 17.0762C46.62 16.955 46.674 16.8419 46.7536 16.7481C46.8492 16.6386 46.958 16.5417 47.0775 16.4595C47.2168 16.3642 47.3616 16.2773 47.5111 16.1992C47.6676 16.1156 47.8241 16.0414 47.9931 15.9562C48.1621 15.8711 48.2904 15.8174 48.4626 15.7449C48.6347 15.6723 48.8116 15.5966 48.9916 15.524C49.1715 15.4514 49.3406 15.3852 49.5018 15.3237L49.9243 15.1659L50.2248 15.8348C50.0793 15.8805 49.9118 15.9357 49.7365 16.002C49.5612 16.0682 49.3766 16.1361 49.195 16.2102C49.0135 16.2844 48.8476 16.3538 48.6958 16.4184C48.544 16.4831 48.4235 16.5383 48.3343 16.5762C48.0917 16.6913 47.9039 16.7876 47.7693 16.8617C47.6714 16.9123 47.5791 16.9731 47.4938 17.0431C47.4453 17.0889 47.4281 17.1267 47.4422 17.1583C47.4601 17.1842 47.4833 17.206 47.5103 17.2221C47.5373 17.2381 47.5675 17.2481 47.5987 17.2513C47.6841 17.2735 47.7709 17.2898 47.8585 17.3002L47.3279 17.9312C47.1973 17.897 47.0712 17.8473 46.9523 17.783C46.8186 17.7069 46.7131 17.5889 46.6519 17.447L46.6581 17.4485ZM47.3561 19.1569C47.3018 19.0193 47.2861 18.8692 47.3107 18.7231C47.3373 18.5969 47.3955 18.4796 47.4797 18.3824C47.5706 18.2786 47.6761 18.1888 47.7927 18.1158C47.922 18.0379 48.0564 17.9688 48.195 17.9092C48.339 17.8492 48.4782 17.794 48.6144 17.7514C48.7505 17.7088 48.9274 17.6441 49.0949 17.5937L49.6348 17.4359L49.9243 18.1127L49.6489 18.1726C49.5268 18.1978 49.3875 18.2325 49.2341 18.2736C49.0808 18.3146 48.9211 18.3635 48.7552 18.4218C48.5501 18.485 48.3555 18.5785 48.1778 18.6995C48.0635 18.7878 48.0212 18.8762 48.051 18.9613C48.112 19.1333 48.2936 19.2106 48.5972 19.1932C49.0601 19.137 49.5139 19.0214 49.9478 18.8493L50.1387 18.7815L50.2608 19.097L50.4048 19.4835C50.1309 19.5419 49.8805 19.6002 49.6551 19.6617C49.4298 19.7233 49.2404 19.7753 49.0886 19.8195L48.7881 19.9173C48.6943 19.9456 48.6056 19.9887 48.5252 20.0451C48.5038 20.0594 48.4879 20.0806 48.4799 20.1052C48.472 20.1299 48.4725 20.1564 48.4814 20.1807C48.4915 20.2092 48.5069 20.2354 48.5268 20.258C48.5551 20.2901 48.5872 20.3187 48.6222 20.3432L47.8929 20.5672C47.8487 20.4901 47.8111 20.4093 47.7802 20.3259C47.7395 20.2232 47.7297 20.1107 47.7521 20.0025C47.7752 19.907 47.822 19.8191 47.8882 19.7469C47.7694 19.7005 47.6624 19.6277 47.5752 19.534C47.4743 19.4253 47.3975 19.2963 47.3499 19.1554L47.3561 19.1569ZM47.9649 20.8275C48.2012 20.7754 48.4563 20.7218 48.7286 20.6698C49.0009 20.6177 49.2795 20.5656 49.5612 20.512L50.3923 20.37C50.663 20.3243 50.9197 20.2833 51.1607 20.2454C51.4017 20.2076 51.6161 20.1744 51.8023 20.1429L51.9385 20.8007C51.7695 20.8212 51.5817 20.848 51.3751 20.878C51.1685 20.908 50.9463 20.9442 50.7131 20.9837C50.7654 21.0544 50.81 21.1305 50.8461 21.2108C50.8861 21.2998 50.9166 21.3929 50.9369 21.4885C50.9671 21.6247 50.9708 21.7656 50.9478 21.9033C50.9242 22.0445 50.8708 22.179 50.7913 22.2977C50.6996 22.4318 50.5806 22.5447 50.4423 22.629C50.265 22.7341 50.0714 22.8082 49.8695 22.8483C49.6546 22.9011 49.4325 22.9176 49.2122 22.8972C49.038 22.879 48.8692 22.8253 48.7161 22.7394C48.5831 22.6628 48.4678 22.5585 48.3781 22.4334C48.2944 22.3148 48.2349 22.1808 48.2028 22.039C48.1795 21.9356 48.1737 21.8289 48.1856 21.7235C48.1963 21.6257 48.2194 21.5298 48.2544 21.438L48.1152 21.4695L47.9649 20.8275ZM50.1904 21.5642C50.1744 21.4747 50.1398 21.3896 50.0888 21.3145C50.0378 21.2395 49.9716 21.1762 49.8946 21.1288L49.1121 21.2755C49.037 21.3534 48.9832 21.4495 48.9558 21.5545C48.9283 21.6595 48.9283 21.7699 48.9556 21.8749C48.9745 21.9548 49.012 22.0289 49.0651 22.0911C49.1287 22.1651 49.2134 22.2175 49.3077 22.2409C49.4448 22.2716 49.5872 22.2678 49.7224 22.2299C49.8837 22.2066 50.0306 22.1233 50.134 21.9964C50.1736 21.9323 50.1985 21.8601 50.2072 21.7852C50.2158 21.7102 50.208 21.6342 50.1841 21.5626L50.1904 21.5642ZM35.4791 26.7778C35.3715 26.7776 35.2682 26.7352 35.1912 26.6595C34.6418 26.1184 34.0957 25.5552 33.5401 24.9952L33.2693 24.716C32.4446 23.8642 32.1941 23.6118 31.9484 23.6118C31.8483 23.6118 31.3224 23.6717 30.6964 24.8312C30.6716 24.8813 30.6371 24.9259 30.5948 24.9623C30.5525 24.9987 30.5034 25.0261 30.4504 25.0429C30.3974 25.0596 30.3415 25.0655 30.2862 25.06C30.2309 25.0545 30.1772 25.0379 30.1284 25.011C30.0797 24.9841 30.0368 24.9476 30.0023 24.9037C29.9679 24.8597 29.9426 24.8092 29.9279 24.7551C29.9133 24.7011 29.9097 24.6446 29.9172 24.5891C29.9247 24.5336 29.9433 24.4802 29.9718 24.432C30.7543 22.995 31.5462 22.7788 31.9531 22.7788C32.5572 22.7788 32.9125 23.148 33.8625 24.1307L34.1317 24.4084C34.4447 24.7239 34.7577 25.0504 35.0707 25.3675C35.0445 24.9513 34.9758 24.539 34.8656 24.1371C34.7532 23.6493 34.5532 23.1863 34.2756 22.771C34.0522 22.4477 33.7803 22.1614 33.4696 21.9223C33.3825 21.8553 33.3253 21.7562 33.3106 21.6468C33.2959 21.5373 33.325 21.4265 33.3914 21.3386C33.4578 21.2507 33.5561 21.1931 33.6647 21.1783C33.7733 21.1635 33.8833 21.1928 33.9705 21.2597C34.3502 21.5508 34.6823 21.8999 34.9549 22.2946C35.2853 22.788 35.5249 23.3373 35.6622 23.9162C35.8803 24.7211 35.9571 25.5582 35.8892 26.3897C35.8824 26.4685 35.8537 26.5438 35.8064 26.6069C35.759 26.67 35.695 26.7183 35.6215 26.7462C35.5763 26.7651 35.528 26.7752 35.4791 26.7762V26.7778ZM30.3052 18.302C30.3052 18.4296 30.2676 18.5543 30.1973 18.6604C30.127 18.7665 30.027 18.8492 29.91 18.898C29.7931 18.9469 29.6643 18.9596 29.5402 18.9347C29.416 18.9098 29.302 18.8484 29.2124 18.7582C29.1229 18.6679 29.062 18.553 29.0373 18.4278C29.0126 18.3027 29.0252 18.1729 29.0737 18.055C29.1221 17.9372 29.2042 17.8364 29.3094 17.7655C29.4147 17.6946 29.5385 17.6568 29.6651 17.6568C29.8344 17.6572 29.9968 17.7251 30.1167 17.8456C30.2366 17.9662 30.3043 18.1297 30.3052 18.3004V18.302ZM33.3742 18.302C33.3745 18.43 33.3371 18.5553 33.2667 18.6619C33.1963 18.7685 33.0961 18.8516 32.9788 18.9008C32.8615 18.9499 32.7323 18.9628 32.6077 18.9379C32.4831 18.913 32.3686 18.8514 32.2788 18.7609C32.189 18.6703 32.1278 18.5549 32.1031 18.4293C32.0784 18.3037 32.0912 18.1735 32.14 18.0553C32.1888 17.937 32.2712 17.8361 32.377 17.7651C32.4828 17.6942 32.607 17.6565 32.7341 17.6568C32.9034 17.6572 33.0658 17.7251 33.1857 17.8456C33.3056 17.9662 33.3733 18.1297 33.3742 18.3004V18.302ZM32.1832 20.7833H30.2316V19.9504H32.0924L32.1832 20.7833ZM29.6181 26.7431C27.654 26.732 26.5475 26.3219 26.2361 25.489C25.7869 24.2885 27.2142 22.8072 28.5054 21.6494C28.5977 21.5673 28.6619 21.5074 28.701 21.4711C28.7652 21.3886 28.858 21.3336 28.9607 21.3171C29.0635 21.3005 29.1686 21.3236 29.2552 21.3818C29.3417 21.4399 29.4033 21.5289 29.4277 21.6308C29.452 21.7328 29.4373 21.8402 29.3865 21.9317C29.3395 22.0169 29.2801 22.0706 29.0547 22.2725C27.1109 24.0077 26.8637 24.8217 27.0092 25.1955C27.0875 25.4069 27.5006 25.8991 29.6228 25.9101C29.7324 25.9101 29.8375 25.954 29.915 26.0321C29.9925 26.1102 30.036 26.2162 30.036 26.3266C30.036 26.4371 29.9925 26.543 29.915 26.6211C29.8375 26.6992 29.7324 26.7431 29.6228 26.7431H29.6181ZM22.9261 17.2072C22.8738 17.2076 22.8225 17.1929 22.7781 17.165C22.7338 17.1371 22.6982 17.097 22.6757 17.0494C22.4914 16.6431 22.4017 16.1997 22.4135 15.7531C22.4254 15.3066 22.5384 14.8686 22.7439 14.4728C22.9495 14.077 23.2421 13.7338 23.5995 13.4695C23.9568 13.2053 24.3694 13.0268 24.8057 12.948C24.91 12.9301 25.0143 12.9175 25.1187 12.9101C25.2898 12.2343 25.6476 11.6212 26.1505 11.1421C26.6535 10.6631 27.281 10.3376 27.9601 10.2037C28.6392 10.0697 29.3421 10.1327 29.9872 10.3853C30.6322 10.6379 31.1929 11.0698 31.6041 11.6308C31.8101 11.5522 32.0228 11.4931 32.2395 11.4541C32.7127 11.3687 33.1979 11.3781 33.6674 11.4818C34.137 11.5855 34.5816 11.7815 34.9759 12.0585C35.3703 12.3355 35.7066 12.6882 35.9656 13.0964C36.2246 13.5045 36.4012 13.9601 36.4854 14.4371C36.4854 14.4545 36.4854 14.4718 36.4854 14.4892C36.4973 14.5627 36.4803 14.638 36.4379 14.699C36.3955 14.76 36.3311 14.8019 36.2585 14.8157C36.2234 14.8218 36.1874 14.8209 36.1526 14.8129C36.1178 14.8049 36.0849 14.7901 36.0558 14.7693C36.0267 14.7485 36.002 14.7221 35.9831 14.6916C35.9642 14.6611 35.9514 14.6272 35.9455 14.5917V14.5491C35.8694 14.0766 35.6864 13.6281 35.4106 13.2383C35.1349 12.8485 34.7738 12.5279 34.3554 12.3014C33.937 12.0749 33.4725 11.9486 32.9978 11.9321C32.5231 11.9156 32.0511 12.0096 31.6182 12.2066L31.4022 12.3028L31.2739 12.1024C30.9373 11.5766 30.4521 11.1644 29.8809 10.9192C29.3097 10.6739 28.6787 10.6068 28.0693 10.7265C27.4599 10.8462 26.9 11.1472 26.462 11.5907C26.0239 12.0342 25.7277 12.5998 25.6116 13.2146L25.5694 13.4417H25.3393C25.1929 13.4391 25.0467 13.4512 24.9027 13.478C24.2864 13.5891 23.7391 13.9423 23.3811 14.4599C23.0231 14.9776 22.8836 15.6173 22.9934 16.2386C23.03 16.4364 23.091 16.6287 23.1749 16.8112C23.2048 16.8785 23.2073 16.9548 23.1818 17.0239C23.1563 17.0929 23.105 17.1491 23.0388 17.1804C23.0032 17.196 22.9649 17.2046 22.9261 17.2056V17.2072ZM41.4121 18.4692H41.3996C41.3285 18.4675 41.2609 18.4375 41.2117 18.3858C41.1624 18.3341 41.1354 18.2648 41.1367 18.1931C41.1367 18.1931 41.1367 18.1679 41.1367 18.1631C41.1382 17.9046 41.0809 17.6492 40.9691 17.4165C40.8574 17.1838 40.6943 16.9801 40.4922 16.8209C40.2901 16.6617 40.0545 16.5513 39.8035 16.4982C39.5525 16.4451 39.2928 16.4508 39.0443 16.5147L38.8142 16.5715L38.7234 16.3522C38.593 16.0394 38.3727 15.7731 38.0909 15.5875C37.8091 15.4019 37.4786 15.3056 37.142 15.3109C36.8054 15.3161 36.4781 15.4227 36.2021 15.617C35.9261 15.8113 35.7141 16.0844 35.5934 16.4011C35.582 16.4372 35.5635 16.4705 35.5389 16.4991C35.5143 16.5277 35.4841 16.551 35.4503 16.5674C35.4164 16.5838 35.3796 16.5931 35.3421 16.5946C35.3045 16.5962 35.2671 16.59 35.232 16.5764C35.197 16.5628 35.165 16.5422 35.1382 16.5157C35.1113 16.4892 35.0901 16.4575 35.0759 16.4224C35.0617 16.3874 35.0547 16.3498 35.0554 16.3119C35.0561 16.2741 35.0645 16.2368 35.08 16.2023C35.2331 15.8 35.4973 15.4503 35.8413 15.1945C36.1854 14.9388 36.5949 14.7877 37.0214 14.7592C37.448 14.7306 37.8737 14.8258 38.2483 15.0335C38.6228 15.2411 38.9306 15.5526 39.135 15.931C39.4524 15.8848 39.776 15.908 40.0837 15.9991C40.3914 16.0901 40.676 16.2468 40.9183 16.4585C41.1606 16.6703 41.3549 16.9321 41.4879 17.2262C41.6209 17.5204 41.6895 17.8399 41.6891 18.1631V18.201C41.6845 18.2723 41.6534 18.3393 41.6021 18.3886C41.5508 18.438 41.483 18.4662 41.4121 18.4676V18.4692ZM24.6898 20.4095H24.6789C24.6079 20.407 24.5406 20.3768 24.4913 20.3253C24.4419 20.2738 24.4144 20.205 24.4144 20.1334C24.4152 20.124 24.4152 20.1145 24.4144 20.105C24.4148 19.9215 24.3736 19.7404 24.2938 19.5754C24.2141 19.4105 24.0979 19.2662 23.9542 19.1535C23.8105 19.0408 23.6432 18.9628 23.465 18.9254C23.2868 18.888 23.1024 18.8922 22.9261 18.9377L22.6976 18.9945L22.6052 18.7752C22.513 18.552 22.3565 18.3618 22.1559 18.2293C21.9553 18.0967 21.7199 18.0279 21.4801 18.0316C21.2402 18.0353 21.007 18.1115 20.8106 18.2502C20.6142 18.389 20.4635 18.584 20.3782 18.8099C20.3521 18.8787 20.2998 18.9343 20.2331 18.9643C20.1663 18.9943 20.0904 18.9964 20.0222 18.97C19.9539 18.9437 19.8988 18.891 19.869 18.8237C19.8392 18.7564 19.8372 18.68 19.8633 18.6111C19.9816 18.3 20.1848 18.0289 20.4495 17.8293C20.7142 17.6296 21.0295 17.5096 21.3591 17.483C21.6886 17.4564 22.0189 17.5244 22.3117 17.6791C22.6045 17.8338 22.8479 18.0689 23.0137 18.3572C23.2591 18.3284 23.5077 18.3524 23.7432 18.4275C23.9787 18.5025 24.1958 18.627 24.3801 18.7927C24.5645 18.9584 24.7119 19.1616 24.8128 19.3889C24.9136 19.6161 24.9656 19.8624 24.9653 20.1113V20.1445C24.9606 20.2154 24.9297 20.2819 24.8787 20.331C24.8277 20.38 24.7603 20.408 24.6898 20.4095ZM21.8978 25.713H21.8869C21.8159 25.7113 21.7484 25.6816 21.6989 25.6303C21.6495 25.5789 21.622 25.5101 21.6224 25.4385C21.6224 25.4385 21.6224 25.4148 21.6224 25.4101C21.6229 25.2264 21.5816 25.0451 21.5018 24.88C21.4219 24.7149 21.3056 24.5705 21.1617 24.4578C21.0179 24.3451 20.8503 24.2671 20.6719 24.2298C20.4935 24.1925 20.3089 24.197 20.1325 24.2428L19.904 24.2995L19.8132 24.0803C19.721 23.8571 19.5645 23.6669 19.3639 23.5344C19.1633 23.4018 18.9279 23.3329 18.6881 23.3367C18.4482 23.3404 18.215 23.4166 18.0186 23.5553C17.8222 23.6941 17.6715 23.889 17.5862 24.115C17.5732 24.1491 17.5538 24.1802 17.5289 24.2067C17.504 24.2332 17.4741 24.2545 17.4411 24.2694C17.408 24.2842 17.3724 24.2924 17.3362 24.2934C17.3 24.2943 17.264 24.2881 17.2302 24.2751C17.1964 24.262 17.1654 24.2424 17.1391 24.2173C17.1129 24.1922 17.0917 24.1621 17.077 24.1288C17.0622 24.0955 17.0541 24.0596 17.0532 24.0231C17.0522 23.9866 17.0584 23.9503 17.0713 23.9162C17.1893 23.605 17.3923 23.3338 17.6569 23.1341C17.9214 22.9343 18.2367 22.8142 18.5662 22.7876C18.8957 22.7611 19.2259 22.8291 19.5186 22.9839C19.8113 23.1387 20.0546 23.3739 20.2201 23.6622C20.4655 23.6333 20.7141 23.657 20.9497 23.7319C21.1853 23.8068 21.4025 23.9311 21.587 24.0966C21.7715 24.2622 21.9191 24.4652 22.0202 24.6924C22.1212 24.9196 22.1734 25.1658 22.1733 25.4148V25.4495C22.1682 25.5201 22.1372 25.5863 22.0862 25.635C22.0353 25.6838 21.9681 25.7116 21.8978 25.713ZM35.0018 19.3352C34.8822 20.3543 34.3754 21.2871 33.588 21.9376C32.8005 22.5881 31.7936 22.9057 30.7788 22.8238C29.7639 22.7418 28.82 22.2667 28.1453 21.4982C27.4706 20.7296 27.1176 19.7275 27.1605 18.7022C27.2033 17.6768 27.6386 16.7081 28.375 15.9995C29.1114 15.2908 30.0916 14.8974 31.1097 14.9017C32.1278 14.9061 33.1046 15.3079 33.8351 16.0228C34.5655 16.7377 34.9926 17.7101 35.0268 18.7358L34.1896 19.1254C34.1896 19.0386 34.2036 18.9519 34.2036 18.8635C34.2043 18.0727 33.9081 17.3109 33.3744 16.7312C32.8408 16.1515 32.1093 15.7967 31.3269 15.7382C30.5445 15.6797 29.7691 15.9218 29.1564 16.4158C28.5438 16.9098 28.1392 17.6192 28.0241 18.4014C27.909 19.1837 28.0918 19.9809 28.5358 20.6329C28.9798 21.2849 29.6521 21.7435 30.4176 21.9164C31.1832 22.0894 31.9854 21.9639 32.663 21.5653C33.3406 21.1667 33.8435 20.5244 34.0706 19.7674L35.0018 19.3352ZM32.1848 20.7818C32.159 20.782 32.1337 20.7748 32.1118 20.7611C32.0899 20.7475 32.0724 20.7278 32.0611 20.7045L31.8311 20.2312C31.8237 20.2143 31.82 20.196 31.82 20.1776C31.82 20.1591 31.8237 20.1409 31.8311 20.1239C31.8372 20.1064 31.8467 20.0902 31.859 20.0764C31.8714 20.0626 31.8864 20.0514 31.9031 20.0435L36.426 17.9407C36.4589 17.926 36.4961 17.9246 36.53 17.937C36.5638 17.9493 36.5916 17.9744 36.6075 18.007L36.8376 18.4802C36.8517 18.5146 36.8517 18.5531 36.8376 18.5875C36.8247 18.6222 36.7989 18.6505 36.7656 18.6663L32.2427 20.7691C32.2242 20.7782 32.2037 20.7825 32.1832 20.7818H32.1848ZM32.1394 20.2312L32.2505 20.4599L36.5214 18.4739L36.4119 18.2436L32.1394 20.2312ZM33.1488 20.3148C33.1225 20.3147 33.0968 20.307 33.0747 20.2928C33.0525 20.2786 33.0348 20.2583 33.0236 20.2344L32.817 19.7801C32.8094 19.7635 32.8051 19.7456 32.8043 19.7273C32.8036 19.7091 32.8064 19.6908 32.8127 19.6737C32.8189 19.6565 32.8285 19.6408 32.8408 19.6274C32.8531 19.614 32.8679 19.6031 32.8843 19.5955C32.9176 19.5804 32.9554 19.579 32.9896 19.5917C33.0239 19.6044 33.0518 19.6301 33.0674 19.6633L33.274 20.1176C33.2816 20.1342 33.286 20.1521 33.2867 20.1704C33.2875 20.1886 33.2846 20.2069 33.2784 20.224C33.2721 20.2411 33.2626 20.2569 33.2503 20.2703C33.238 20.2837 33.2232 20.2946 33.2067 20.3022C33.1882 20.3113 33.1678 20.3156 33.1472 20.3148H33.1488ZM38.8001 13.0947C38.7639 13.0947 38.7281 13.0875 38.6947 13.0735C38.6613 13.0596 38.6309 13.0391 38.6054 13.0134C38.5798 12.9876 38.5595 12.957 38.5456 12.9233C38.5318 12.8896 38.5247 12.8535 38.5247 12.817V11.85C38.5247 11.7764 38.5537 11.7058 38.6054 11.6537C38.657 11.6017 38.7271 11.5724 38.8001 11.5724C38.8732 11.5724 38.9432 11.6017 38.9949 11.6537C39.0465 11.7058 39.0756 11.7764 39.0756 11.85V12.817C39.0756 12.8535 39.0684 12.8896 39.0546 12.9233C39.0407 12.957 39.0205 12.9876 38.9949 13.0134C38.9693 13.0391 38.9389 13.0596 38.9055 13.0735C38.8721 13.0875 38.8363 13.0947 38.8001 13.0947ZM38.8001 14.9025C38.7271 14.9025 38.657 14.8732 38.6054 14.8212C38.5537 14.7691 38.5247 14.6985 38.5247 14.6248V13.6578C38.5247 13.5842 38.5537 13.5136 38.6054 13.4615C38.657 13.4095 38.7271 13.3802 38.8001 13.3802C38.8732 13.3802 38.9432 13.4095 38.9949 13.4615C39.0465 13.5136 39.0756 13.5842 39.0756 13.6578V14.6248C39.0758 14.6614 39.0688 14.6976 39.055 14.7313C39.0413 14.7651 39.021 14.7958 38.9953 14.8216C38.9697 14.8474 38.9393 14.8679 38.9058 14.8818C38.8723 14.8956 38.8363 14.9027 38.8001 14.9025ZM40.1773 13.5159H39.218C39.1449 13.5159 39.0749 13.4866 39.0232 13.4346C38.9716 13.3825 38.9425 13.3119 38.9425 13.2382C38.9425 13.1646 38.9716 13.094 39.0232 13.0419C39.0749 12.9898 39.1449 12.9606 39.218 12.9606H40.1773C40.2504 12.9606 40.3205 12.9898 40.3721 13.0419C40.4238 13.094 40.4528 13.1646 40.4528 13.2382C40.4528 13.3119 40.4238 13.3825 40.3721 13.4346C40.3205 13.4866 40.2504 13.5159 40.1773 13.5159ZM38.3838 13.5159H37.4245C37.3514 13.5159 37.2813 13.4866 37.2297 13.4346C37.178 13.3825 37.149 13.3119 37.149 13.2382C37.149 13.1646 37.178 13.094 37.2297 13.0419C37.2813 12.9898 37.3514 12.9606 37.4245 12.9606H38.3838C38.4569 12.9606 38.5269 12.9898 38.5786 13.0419C38.6302 13.094 38.6593 13.1646 38.6593 13.2382C38.6593 13.3119 38.6302 13.3825 38.5786 13.4346C38.5269 13.4866 38.4569 13.5159 38.3838 13.5159ZM36.1928 10.7048C36.1197 10.7048 36.0497 10.6755 35.998 10.6235C35.9464 10.5714 35.9173 10.5008 35.9173 10.4272V9.82614C35.9173 9.7525 35.9464 9.68189 35.998 9.62982C36.0497 9.57775 36.1197 9.5485 36.1928 9.5485C36.2658 9.5485 36.3359 9.57775 36.3876 9.62982C36.4392 9.68189 36.4682 9.7525 36.4682 9.82614V10.4272C36.4683 10.4648 36.4607 10.5021 36.446 10.5368C36.4313 10.5714 36.4097 10.6027 36.3826 10.6287C36.3555 10.6546 36.3235 10.6748 36.2884 10.6879C36.2534 10.701 36.216 10.7067 36.1787 10.7048H36.1928ZM36.1928 11.9447C36.1197 11.9447 36.0497 11.9154 35.998 11.8634C35.9464 11.8113 35.9173 11.7407 35.9173 11.6671V11.066C35.9173 10.9924 35.9464 10.9218 35.998 10.8697C36.0497 10.8177 36.1197 10.7884 36.1928 10.7884C36.2658 10.7884 36.3359 10.8177 36.3876 10.8697C36.4392 10.9218 36.4682 10.9924 36.4682 11.066V11.6671C36.4683 11.7047 36.4607 11.742 36.446 11.7767C36.4313 11.8113 36.4097 11.8426 36.3826 11.8686C36.3555 11.8945 36.3235 11.9147 36.2884 11.9278C36.2534 11.9409 36.216 11.9466 36.1787 11.9447H36.1928ZM37.1318 11.0219H36.5355C36.4625 11.0219 36.3924 10.9926 36.3408 10.9406C36.2891 10.8885 36.2601 10.8179 36.2601 10.7442C36.2601 10.6706 36.2891 10.6 36.3408 10.5479C36.3924 10.4958 36.4625 10.4666 36.5355 10.4666H37.1318C37.2048 10.4666 37.2749 10.4958 37.3266 10.5479C37.3782 10.6 37.4072 10.6706 37.4072 10.7442C37.4072 10.8179 37.3782 10.8885 37.3266 10.9406C37.2749 10.9926 37.2048 11.0219 37.1318 11.0219ZM35.8281 11.0219H35.2319C35.1588 11.0219 35.0887 10.9926 35.0371 10.9406C34.9854 10.8885 34.9564 10.8179 34.9564 10.7442C34.9564 10.6706 34.9854 10.6 35.0371 10.5479C35.0887 10.4958 35.1588 10.4666 35.2319 10.4666H35.8281C35.9012 10.4666 35.9712 10.4958 36.0229 10.5479C36.0746 10.6 36.1036 10.6706 36.1036 10.7442C36.1036 10.8179 36.0746 10.8885 36.0229 10.9406C35.9712 10.9926 35.9012 11.0219 35.8281 11.0219ZM17.6206 40.453C17.5476 40.453 17.4775 40.4237 17.4259 40.3716C17.3742 40.3196 17.3452 40.249 17.3452 40.1753V39.5743C17.3452 39.5007 17.3742 39.43 17.4259 39.378C17.4775 39.3259 17.5476 39.2967 17.6206 39.2967C17.6937 39.2967 17.7637 39.3259 17.8154 39.378C17.8671 39.43 17.8961 39.5007 17.8961 39.5743V40.1753C17.8961 40.249 17.8671 40.3196 17.8154 40.3716C17.7637 40.4237 17.6937 40.453 17.6206 40.453ZM17.6206 41.6929C17.5476 41.6929 17.4775 41.6636 17.4259 41.6115C17.3742 41.5595 17.3452 41.4889 17.3452 41.4152V40.8142C17.3452 40.7406 17.3742 40.67 17.4259 40.6179C17.4775 40.5658 17.5476 40.5366 17.6206 40.5366C17.6937 40.5366 17.7637 40.5658 17.8154 40.6179C17.8671 40.67 17.8961 40.7406 17.8961 40.8142V41.4152C17.8961 41.4889 17.8671 41.5595 17.8154 41.6115C17.7637 41.6636 17.6937 41.6929 17.6206 41.6929ZM18.5597 40.7716H17.9649C17.8919 40.7716 17.8218 40.7424 17.7702 40.6903C17.7185 40.6382 17.6895 40.5676 17.6895 40.494C17.6895 40.4203 17.7185 40.3497 17.7702 40.2977C17.8218 40.2456 17.8919 40.2163 17.9649 40.2163H18.5597C18.6327 40.2163 18.7028 40.2456 18.7544 40.2977C18.8061 40.3497 18.8351 40.4203 18.8351 40.494C18.8351 40.5676 18.8061 40.6382 18.7544 40.6903C18.7028 40.7424 18.6327 40.7716 18.5597 40.7716ZM17.256 40.7716H16.6597C16.5867 40.7716 16.5166 40.7424 16.4649 40.6903C16.4133 40.6382 16.3843 40.5676 16.3843 40.494C16.3843 40.4203 16.4133 40.3497 16.4649 40.2977C16.5166 40.2456 16.5867 40.2163 16.6597 40.2163H17.256C17.329 40.2163 17.3991 40.2456 17.4507 40.2977C17.5024 40.3497 17.5314 40.4203 17.5314 40.494C17.5314 40.5676 17.5024 40.6382 17.4507 40.6903C17.3991 40.7424 17.329 40.7716 17.256 40.7716ZM43.5719 40.4561C43.4988 40.4561 43.4288 40.4269 43.3771 40.3748C43.3255 40.3227 43.2964 40.2521 43.2964 40.1785V39.5775C43.2964 39.5038 43.3255 39.4332 43.3771 39.3811C43.4288 39.3291 43.4988 39.2998 43.5719 39.2998C43.6449 39.2998 43.715 39.3291 43.7666 39.3811C43.8183 39.4332 43.8473 39.5038 43.8473 39.5775V40.1785C43.8469 40.2151 43.8393 40.2512 43.825 40.2849C43.8107 40.3185 43.7899 40.3489 43.7639 40.3744C43.7379 40.3999 43.7071 40.42 43.6733 40.4335C43.6396 40.447 43.6035 40.4536 43.5672 40.453L43.5719 40.4561ZM43.5719 41.696C43.4988 41.696 43.4288 41.6668 43.3771 41.6147C43.3255 41.5626 43.2964 41.492 43.2964 41.4184V40.8174C43.2964 40.7437 43.3255 40.6731 43.3771 40.621C43.4288 40.569 43.4988 40.5397 43.5719 40.5397C43.6449 40.5397 43.715 40.569 43.7666 40.621C43.8183 40.6731 43.8473 40.7437 43.8473 40.8174V41.4184C43.8469 41.455 43.8393 41.4911 43.825 41.5248C43.8107 41.5584 43.7899 41.5888 43.7639 41.6143C43.7379 41.6399 43.7071 41.6599 43.6733 41.6734C43.6396 41.6869 43.6035 41.6935 43.5672 41.6929L43.5719 41.696ZM44.5109 40.7748H43.9146C43.8416 40.7748 43.7715 40.7455 43.7199 40.6934C43.6682 40.6414 43.6392 40.5708 43.6392 40.4971C43.6392 40.4235 43.6682 40.3529 43.7199 40.3008C43.7715 40.2487 43.8416 40.2195 43.9146 40.2195H44.5109C44.5839 40.2195 44.654 40.2487 44.7057 40.3008C44.7573 40.3529 44.7863 40.4235 44.7863 40.4971C44.7863 40.5708 44.7573 40.6414 44.7057 40.6934C44.654 40.7455 44.5839 40.7748 44.5109 40.7748ZM43.2072 40.7748H42.611C42.5379 40.7748 42.4678 40.7455 42.4162 40.6934C42.3645 40.6414 42.3355 40.5708 42.3355 40.4971C42.3355 40.4235 42.3645 40.3529 42.4162 40.3008C42.4678 40.2487 42.5379 40.2195 42.611 40.2195H43.2072C43.2803 40.2195 43.3503 40.2487 43.402 40.3008C43.4537 40.3529 43.4827 40.4235 43.4827 40.4971C43.4827 40.5708 43.4537 40.6414 43.402 40.6934C43.3503 40.7455 43.2803 40.7748 43.2072 40.7748ZM23.9778 21.9869C23.9047 21.9869 23.8347 21.9577 23.783 21.9056C23.7313 21.8536 23.7023 21.7829 23.7023 21.7093V21.2124C23.7023 21.1388 23.7313 21.0682 23.783 21.0161C23.8347 20.964 23.9047 20.9348 23.9778 20.9348C24.0508 20.9348 24.1209 20.964 24.1725 21.0161C24.2242 21.0682 24.2532 21.1388 24.2532 21.2124V21.7093C24.2532 21.7829 24.2242 21.8536 24.1725 21.9056C24.1209 21.9577 24.0508 21.9869 23.9778 21.9869ZM23.9778 23.3136C23.9047 23.3136 23.8347 23.2844 23.783 23.2323C23.7313 23.1802 23.7023 23.1096 23.7023 23.036V22.5391C23.7023 22.4654 23.7313 22.3948 23.783 22.3428C23.8347 22.2907 23.9047 22.2614 23.9778 22.2614C24.0508 22.2614 24.1209 22.2907 24.1725 22.3428C24.2242 22.3948 24.2532 22.4654 24.2532 22.5391V23.036C24.252 23.1088 24.2224 23.1782 24.1709 23.2292C24.1194 23.2803 24.05 23.3089 23.9778 23.3089V23.3136ZM24.8166 22.4034H24.3236C24.2506 22.4034 24.1805 22.3742 24.1289 22.3221C24.0772 22.27 24.0482 22.1994 24.0482 22.1258C24.0482 22.0521 24.0772 21.9815 24.1289 21.9295C24.1805 21.8774 24.2506 21.8481 24.3236 21.8481H24.8166C24.8897 21.8481 24.9597 21.8774 25.0114 21.9295C25.063 21.9815 25.0921 22.0521 25.0921 22.1258C25.0921 22.1994 25.063 22.27 25.0114 22.3221C24.9597 22.3742 24.8897 22.4034 24.8166 22.4034ZM23.5959 22.4034H23.1013C23.0283 22.4034 22.9582 22.3742 22.9066 22.3221C22.8549 22.27 22.8259 22.1994 22.8259 22.1258C22.8259 22.0521 22.8549 21.9815 22.9066 21.9295C22.9582 21.8774 23.0283 21.8481 23.1013 21.8481H23.5959C23.6689 21.8481 23.739 21.8774 23.7907 21.9295C23.8423 21.9815 23.8713 22.0521 23.8713 22.1258C23.8713 22.1994 23.8423 22.27 23.7907 22.3221C23.739 22.3742 23.6689 22.4034 23.5959 22.4034ZM42.8301 20.329C42.757 20.329 42.6869 20.2998 42.6353 20.2477C42.5836 20.1956 42.5546 20.125 42.5546 20.0514V19.5529C42.5599 19.4827 42.5912 19.417 42.6425 19.3692C42.6937 19.3213 42.761 19.2947 42.8308 19.2947C42.9007 19.2947 42.968 19.3213 43.0192 19.3692C43.0704 19.417 43.1018 19.4827 43.1071 19.5529V20.0514C43.1058 20.1245 43.0761 20.1941 43.0242 20.2452C42.9723 20.2963 42.9026 20.3247 42.8301 20.3243V20.329ZM42.8301 21.6557C42.757 21.6557 42.6869 21.6264 42.6353 21.5744C42.5836 21.5223 42.5546 21.4517 42.5546 21.378V20.8827C42.5599 20.8125 42.5912 20.7469 42.6425 20.699C42.6937 20.6511 42.761 20.6245 42.8308 20.6245C42.9007 20.6245 42.968 20.6511 43.0192 20.699C43.0704 20.7469 43.1018 20.8125 43.1071 20.8827V21.3812C43.105 21.4537 43.0749 21.5226 43.0231 21.573C42.9713 21.6234 42.902 21.6514 42.8301 21.6509V21.6557ZM43.6689 20.7455H43.1822C43.1091 20.7455 43.0391 20.7162 42.9874 20.6642C42.9358 20.6121 42.9067 20.5415 42.9067 20.4678C42.9067 20.3942 42.9358 20.3236 42.9874 20.2715C43.0391 20.2194 43.1091 20.1902 43.1822 20.1902H43.6752C43.7482 20.1902 43.8183 20.2194 43.8699 20.2715C43.9216 20.3236 43.9506 20.3942 43.9506 20.4678C43.9506 20.5415 43.9216 20.6121 43.8699 20.6642C43.8183 20.7162 43.7482 20.7455 43.6752 20.7455H43.6689ZM42.4482 20.7455H41.9536C41.8806 20.7455 41.8105 20.7162 41.7589 20.6642C41.7072 20.6121 41.6782 20.5415 41.6782 20.4678C41.6782 20.3942 41.7072 20.3236 41.7589 20.2715C41.8105 20.2194 41.8806 20.1902 41.9536 20.1902H42.4482C42.5213 20.1902 42.5913 20.2194 42.643 20.2715C42.6946 20.3236 42.7236 20.3942 42.7236 20.4678C42.7236 20.5415 42.6946 20.6121 42.643 20.6642C42.5913 20.7162 42.5213 20.7455 42.4482 20.7455ZM26.1485 16.308C26.0964 16.3083 26.0453 16.2936 26.0013 16.2656C25.9572 16.2377 25.9219 16.1977 25.8996 16.1503C25.8459 16.0366 25.7653 15.938 25.6649 15.8632C25.4957 15.7475 25.289 15.7017 25.0874 15.7354C25.0151 15.7471 24.9413 15.7294 24.882 15.6862C24.8227 15.643 24.7829 15.5779 24.7712 15.5051C24.7596 15.4323 24.7771 15.3578 24.82 15.298C24.8629 15.2383 24.9275 15.1981 24.9997 15.1864C25.345 15.1298 25.6985 15.2107 25.9857 15.412C26.1628 15.5407 26.3045 15.7128 26.3973 15.9121C26.4129 15.9451 26.4219 15.9809 26.4237 16.0174C26.4256 16.054 26.4202 16.0905 26.408 16.125C26.3958 16.1594 26.3769 16.1911 26.3525 16.2182C26.3281 16.2453 26.2987 16.2672 26.2658 16.2828C26.2289 16.2995 26.1889 16.3081 26.1485 16.308ZM26.1485 16.308C26.1074 16.3076 26.0669 16.2985 26.0295 16.2812C25.9968 16.2655 25.9675 16.2434 25.9432 16.2163C25.919 16.1891 25.9003 16.1574 25.8883 16.123C25.8762 16.0886 25.871 16.0521 25.8729 16.0156C25.8749 15.9791 25.8839 15.9434 25.8996 15.9105C25.9929 15.7116 26.1345 15.5396 26.3112 15.4104C26.5984 15.2091 26.9519 15.1282 27.2972 15.1848C27.3329 15.1906 27.3672 15.2035 27.3981 15.2226C27.4289 15.2418 27.4557 15.2669 27.4769 15.2965C27.4981 15.3261 27.5133 15.3596 27.5217 15.3951C27.5301 15.4306 27.5314 15.4675 27.5257 15.5035C27.5199 15.5395 27.5072 15.5741 27.4882 15.6052C27.4692 15.6363 27.4443 15.6633 27.4149 15.6846C27.3856 15.706 27.3523 15.7214 27.3171 15.7298C27.2818 15.7383 27.2453 15.7396 27.2095 15.7338C27.0079 15.7002 26.8012 15.7459 26.632 15.8616C26.5309 15.9357 26.4501 16.0345 26.3973 16.1487C26.3752 16.1964 26.3401 16.2367 26.296 16.265C26.2519 16.2932 26.2007 16.3081 26.1485 16.308ZM38.4183 41.3427C38.3662 41.3429 38.3151 41.3282 38.2711 41.3003C38.227 41.2723 38.1917 41.2323 38.1694 41.1849C38.115 41.0713 38.0338 40.9727 37.9331 40.8978C37.7645 40.7822 37.5583 40.7365 37.3572 40.77C37.2849 40.7817 37.2111 40.7641 37.1518 40.7209C37.0925 40.6777 37.0527 40.6125 37.041 40.5397C37.0294 40.4669 37.047 40.3925 37.0898 40.3327C37.1327 40.2729 37.1973 40.2328 37.2695 40.2211C37.6147 40.1653 37.968 40.2461 38.2555 40.4466C38.4318 40.5762 38.5733 40.7481 38.6671 40.9467C38.6982 41.0135 38.7018 41.0899 38.6772 41.1594C38.6526 41.2289 38.6017 41.2857 38.5356 41.3174C38.4986 41.3336 38.4586 41.3417 38.4183 41.3411V41.3427ZM38.4183 41.3427C38.3777 41.3423 38.3377 41.3331 38.3009 41.3158C38.2682 41.3001 38.2388 41.2781 38.2146 41.2509C38.1904 41.2238 38.1717 41.1921 38.1596 41.1577C38.1475 41.1232 38.1423 41.0867 38.1443 41.0503C38.1462 41.0138 38.1553 40.9781 38.171 40.9451C38.2637 40.7463 38.4047 40.5743 38.581 40.4451C38.8682 40.2439 39.2217 40.163 39.567 40.2195C39.6386 40.2311 39.7028 40.2708 39.7456 40.3299C39.7884 40.389 39.8063 40.4627 39.7955 40.535C39.7901 40.5709 39.7778 40.6054 39.7591 40.6365C39.7404 40.6676 39.7158 40.6946 39.6867 40.7161C39.6576 40.7375 39.6245 40.7529 39.5895 40.7613C39.5544 40.7698 39.5181 40.7711 39.4825 40.7653C39.2808 40.7316 39.0741 40.7774 38.905 40.8931C38.8042 40.9675 38.7235 41.0662 38.6702 41.1802C38.6476 41.2286 38.6117 41.2694 38.5667 41.2979C38.5218 41.3264 38.4698 41.3414 38.4167 41.3411L38.4183 41.3427ZM22.743 41.3427C22.6909 41.3429 22.6398 41.3282 22.5958 41.3003C22.5517 41.2723 22.5164 41.2323 22.4941 41.1849C22.4402 41.0709 22.359 40.9722 22.2578 40.8978C22.0893 40.7821 21.883 40.7363 21.6819 40.77C21.6463 40.7756 21.61 40.7741 21.575 40.7656C21.54 40.7571 21.5071 40.7417 21.478 40.7203C21.4489 40.6989 21.4243 40.6719 21.4056 40.6409C21.3869 40.61 21.3744 40.5756 21.3689 40.5397C21.3585 40.4675 21.3765 40.394 21.4193 40.335C21.462 40.276 21.5259 40.2363 21.5974 40.2242C21.9426 40.1684 22.2958 40.2492 22.5833 40.4498C22.7601 40.5789 22.9016 40.7509 22.9949 40.9499C23.026 41.0166 23.0297 41.0931 23.005 41.1625C22.9804 41.232 22.9295 41.2888 22.8635 41.3206C22.8248 41.3363 22.7831 41.3433 22.7414 41.3411L22.743 41.3427ZM22.743 41.3427C22.7019 41.3422 22.6614 41.3331 22.624 41.3158C22.5913 41.3001 22.562 41.2781 22.5377 41.2509C22.5135 41.2238 22.4948 41.1921 22.4828 41.1577C22.4707 41.1232 22.4655 41.0867 22.4674 41.0503C22.4694 41.0138 22.4785 40.9781 22.4941 40.9451C22.5869 40.7459 22.7286 40.5738 22.9057 40.4451C23.1929 40.2437 23.5464 40.1628 23.8917 40.2195C23.9274 40.2253 23.9617 40.2381 23.9926 40.2573C24.0234 40.2764 24.0502 40.3015 24.0714 40.3311C24.0926 40.3607 24.1078 40.3942 24.1162 40.4297C24.1246 40.4653 24.1259 40.5021 24.1202 40.5381C24.1144 40.5742 24.1017 40.6087 24.0827 40.6398C24.0637 40.6709 24.0388 40.6979 24.0094 40.7193C23.9801 40.7407 23.9468 40.756 23.9116 40.7645C23.8764 40.7729 23.8398 40.7743 23.8041 40.7685C23.6024 40.7348 23.3957 40.7805 23.2265 40.8962C23.1257 40.9707 23.045 41.0694 22.9918 41.1833C22.9692 41.2309 22.9337 41.271 22.8893 41.2989C22.845 41.3268 22.7937 41.3415 22.7414 41.3411L22.743 41.3427ZM24.6695 17.0715C24.6174 17.0718 24.5664 17.0571 24.5223 17.0291C24.4782 17.0012 24.443 16.9612 24.4207 16.9138C24.3951 16.8583 24.3558 16.8105 24.3064 16.775C24.2233 16.7187 24.1219 16.6966 24.0231 16.7134C23.9509 16.7249 23.8771 16.707 23.818 16.6637C23.7588 16.6204 23.7192 16.5551 23.7078 16.4823C23.6964 16.4095 23.7141 16.3351 23.7571 16.2755C23.8001 16.2159 23.8649 16.176 23.9371 16.1645C24.1792 16.1239 24.4275 16.1805 24.6288 16.3222C24.7536 16.4126 24.8533 16.5337 24.9184 16.674C24.9496 16.7406 24.9534 16.8169 24.9291 16.8863C24.9048 16.9557 24.8542 17.0127 24.7884 17.0447C24.7505 17.0616 24.7094 17.0702 24.6679 17.0699L24.6695 17.0715ZM24.6695 17.0715C24.6289 17.0711 24.5889 17.062 24.5521 17.0447C24.5193 17.0291 24.4898 17.0072 24.4654 16.9801C24.441 16.953 24.4222 16.9213 24.4099 16.8869C24.3977 16.8524 24.3924 16.8159 24.3942 16.7794C24.3961 16.7428 24.405 16.707 24.4207 16.674C24.4868 16.5344 24.5863 16.4135 24.7102 16.3222C24.9119 16.1801 25.1608 16.1235 25.4035 16.1645C25.4757 16.1762 25.5404 16.2163 25.5832 16.2761C25.6261 16.3358 25.6436 16.4103 25.632 16.4831C25.6204 16.5559 25.5805 16.6211 25.5212 16.6643C25.462 16.7075 25.3881 16.7251 25.3159 16.7134C25.2171 16.6968 25.1158 16.7188 25.0326 16.775C24.9832 16.8105 24.9439 16.8583 24.9184 16.9138C24.8957 16.9611 24.8601 17.001 24.8157 17.0287C24.7714 17.0563 24.7201 17.0706 24.6679 17.0699L24.6695 17.0715ZM17.6676 20.6997C17.6153 20.6999 17.5641 20.6852 17.5198 20.6573C17.4755 20.6294 17.4399 20.5894 17.4172 20.542C17.3919 20.4864 17.3531 20.4381 17.3045 20.4016C17.2205 20.3461 17.1189 20.3241 17.0197 20.3401C16.9474 20.3516 16.8736 20.3337 16.8145 20.2903C16.7554 20.247 16.7157 20.1818 16.7043 20.109C16.6929 20.0362 16.7106 19.9618 16.7536 19.9022C16.7966 19.8426 16.8614 19.8026 16.9336 19.7911C17.1757 19.7525 17.4233 19.809 17.6253 19.9488C17.7501 20.0398 17.8498 20.1615 17.9149 20.3022C17.9305 20.335 17.9395 20.3706 17.9415 20.407C17.9434 20.4433 17.9382 20.4797 17.9261 20.514C17.914 20.5483 17.8953 20.5799 17.8711 20.6069C17.8469 20.6339 17.8176 20.6558 17.785 20.6713C17.7497 20.6881 17.7112 20.6967 17.6723 20.6966L17.6676 20.6997ZM17.6676 20.6997C17.6269 20.7001 17.5867 20.6909 17.5502 20.6729C17.4843 20.6415 17.4334 20.5849 17.4087 20.5157C17.3841 20.4465 17.3877 20.3703 17.4187 20.3038C17.4848 20.1633 17.5849 20.0417 17.7098 19.9504C17.9119 19.8106 18.1595 19.7541 18.4016 19.7927C18.4738 19.8042 18.5385 19.8441 18.5815 19.9037C18.6245 19.9634 18.6423 20.0377 18.6309 20.1105C18.6194 20.1833 18.5798 20.2486 18.5207 20.2919C18.4615 20.3353 18.3877 20.3531 18.3155 20.3416C18.2162 20.3249 18.1144 20.3469 18.0307 20.4032C17.9816 20.4397 17.9424 20.4879 17.9164 20.5436C17.8937 20.5892 17.8588 20.6277 17.8157 20.6547C17.7726 20.6817 17.723 20.6962 17.6723 20.6966L17.6676 20.6997ZM37.8314 23.6969C37.7794 23.697 37.7284 23.6822 37.6843 23.6543C37.6403 23.6264 37.605 23.5865 37.5825 23.5392C37.5561 23.4838 37.517 23.4357 37.4683 23.3988C37.3839 23.344 37.2827 23.3221 37.1835 23.3373C37.1137 23.344 37.0439 23.3237 36.9885 23.2804C36.9331 23.2371 36.8961 23.1742 36.8851 23.1044C36.8741 23.0346 36.89 22.9632 36.9294 22.9047C36.9689 22.8463 37.0289 22.8052 37.0974 22.7899C37.3395 22.7493 37.5879 22.8059 37.7891 22.9476C37.914 23.039 38.0141 23.1605 38.0802 23.301C38.1113 23.3675 38.1148 23.4438 38.0902 23.513C38.0656 23.5822 38.0147 23.6387 37.9488 23.6701C37.9115 23.6897 37.8702 23.6999 37.8282 23.7001L37.8314 23.6969ZM37.8314 23.6969C37.7907 23.6971 37.7506 23.6879 37.714 23.6701C37.6813 23.6546 37.6521 23.6327 37.6278 23.6057C37.6036 23.5787 37.5849 23.5471 37.5729 23.5128C37.5608 23.4785 37.5555 23.4421 37.5575 23.4058C37.5594 23.3694 37.5685 23.3338 37.5841 23.301C37.6491 23.1602 37.7488 23.0386 37.8736 22.9476C38.0752 22.8067 38.3232 22.7502 38.5654 22.7899C38.6028 22.7935 38.6391 22.8048 38.672 22.8231C38.705 22.8414 38.7338 22.8663 38.7568 22.8962C38.7799 22.9262 38.7966 22.9606 38.8059 22.9973C38.8152 23.034 38.817 23.0723 38.8111 23.1097C38.8052 23.1472 38.7918 23.183 38.7717 23.215C38.7515 23.247 38.7251 23.2745 38.694 23.2958C38.6629 23.3171 38.6278 23.3318 38.5909 23.3389C38.554 23.3461 38.516 23.3455 38.4793 23.3373C38.38 23.3213 38.2785 23.3433 38.1945 23.3988C38.1461 23.4357 38.1074 23.4839 38.0818 23.5392C38.059 23.5878 38.0229 23.6288 37.9776 23.6574C37.9324 23.6859 37.88 23.7007 37.8267 23.7001L37.8314 23.6969ZM23.8009 11.7933C23.7489 11.7935 23.6978 11.7788 23.6537 11.7509C23.6096 11.7229 23.5744 11.6829 23.5521 11.6355C23.5265 11.5801 23.4872 11.5322 23.4378 11.4967C23.3547 11.4404 23.2533 11.4184 23.1546 11.4352C23.0823 11.4469 23.0085 11.4292 22.9492 11.386C22.8899 11.3428 22.85 11.2777 22.8384 11.2049C22.8268 11.1321 22.8443 11.0576 22.8872 10.9978C22.93 10.9381 22.9947 10.8979 23.0669 10.8862C23.3096 10.846 23.5582 10.9026 23.7602 11.044C23.8845 11.1348 23.9841 11.2558 24.0498 11.3957C24.0654 11.4287 24.0745 11.4644 24.0764 11.5009C24.0784 11.5373 24.0732 11.5738 24.0611 11.6083C24.0491 11.6427 24.0304 11.6744 24.0061 11.7015C23.9819 11.7287 23.9526 11.7507 23.9199 11.7664C23.8813 11.7854 23.8391 11.7957 23.7962 11.7964L23.8009 11.7933ZM23.8009 11.7933C23.7603 11.7928 23.7203 11.7837 23.6835 11.7664C23.6507 11.7509 23.6212 11.7289 23.5968 11.7018C23.5724 11.6748 23.5536 11.6431 23.5413 11.6086C23.5291 11.5742 23.5238 11.5376 23.5256 11.5011C23.5275 11.4646 23.5365 11.4288 23.5521 11.3957C23.6182 11.2561 23.7177 11.1352 23.8416 11.044C24.0436 10.9026 24.2922 10.846 24.5349 10.8862C24.6071 10.8979 24.6718 10.9381 24.7146 10.9978C24.7575 11.0576 24.775 11.1321 24.7634 11.2049C24.7518 11.2777 24.712 11.3428 24.6527 11.386C24.5934 11.4292 24.5195 11.4469 24.4473 11.4352C24.3485 11.4184 24.2471 11.4404 24.164 11.4967C24.1146 11.5322 24.0753 11.5801 24.0498 11.6355C24.0276 11.6843 23.9918 11.7254 23.9467 11.754C23.9017 11.7826 23.8494 11.7973 23.7962 11.7964L23.8009 11.7933ZM6.8736 27.434C6.75753 27.4347 6.64531 27.3921 6.55861 27.3143C6.4719 27.2365 6.41686 27.1291 6.40409 27.0128C6.31811 26.178 6.27476 25.3392 6.2742 24.4999C6.2742 10.9903 17.1793 0 30.5806 0C43.9819 0 54.887 10.9903 54.887 24.4999C54.887 25.3392 54.8441 26.1779 54.7587 27.0128C54.7459 27.1291 54.6909 27.2365 54.6042 27.3143C54.5175 27.3921 54.4052 27.4347 54.2892 27.434C54.2236 27.4343 54.1588 27.4207 54.0988 27.3943C54.0388 27.3678 53.9849 27.3289 53.9407 27.2802C53.8964 27.2314 53.8628 27.1739 53.842 27.1113C53.8212 27.0487 53.8135 26.9823 53.8197 26.9166C53.9007 26.1136 53.9414 25.307 53.9417 24.4999C53.9417 11.5125 43.4561 0.946489 30.5743 0.946489C17.6926 0.946489 7.20695 11.5156 7.20695 24.4999C7.20703 25.3071 7.2483 26.1137 7.33059 26.9166C7.33671 26.9823 7.3291 27.0487 7.30826 27.1113C7.28742 27.1739 7.25381 27.2314 7.20959 27.2802C7.16536 27.3289 7.1115 27.3678 7.05148 27.3943C6.99146 27.4207 6.92661 27.4343 6.86109 27.434H6.8736ZM50.0949 37.8107C50.1807 37.8105 50.2649 37.8341 50.3383 37.8788C50.4118 37.9234 50.4717 37.9876 50.5115 38.0641C50.5513 38.1407 50.5696 38.2268 50.5643 38.3131C50.559 38.3994 50.5304 38.4826 50.4815 38.5537C48.2428 41.7794 45.2651 44.4133 41.8012 46.2319C38.3373 48.0504 34.4893 49 30.5837 49C26.6781 49 22.8301 48.0504 19.3662 46.2319C15.9023 44.4133 12.9247 41.7794 10.686 38.5537C10.6371 38.4826 10.6085 38.3994 10.6032 38.3131C10.5979 38.2268 10.6161 38.1407 10.656 38.0641C10.6958 37.9876 10.7557 37.9234 10.8291 37.8788C10.9026 37.8341 10.9868 37.8105 11.0726 37.8107C11.1478 37.8109 11.222 37.8293 11.2887 37.8645C11.3555 37.8996 11.4128 37.9504 11.456 38.0126C13.6084 41.1131 16.4709 43.6446 19.8007 45.3925C23.1305 47.1404 26.8294 48.053 30.5837 48.053C34.338 48.053 38.0369 47.1404 41.3668 45.3925C44.6966 43.6446 47.5591 41.1131 49.7115 38.0126C49.7546 37.9504 49.812 37.8996 49.8787 37.8645C49.9455 37.8293 50.0196 37.8109 50.0949 37.8107Z" fill="black"/>
</svg>
