<svg width="574" height="137" viewBox="0 0 574 137" fill="none" xmlns="http://www.w3.org/2000/svg">
<path id="Imagination Manifesto" d="M0.44 44.552C1.112 44.504 1.784 44.408 2.456 44.264C3.128 44.12 3.728 43.904 4.256 43.616C4.784 43.28 5.216 42.848 5.552 42.32C5.888 41.744 6.056 41.024 6.056 40.16V17.264C6.056 16.4 5.888 15.704 5.552 15.176C5.216 14.6 4.784 14.168 4.256 13.88C3.728 13.544 3.128 13.304 2.456 13.16C1.784 13.016 1.112 12.92 0.44 12.872V1.424C2.888 1.328 5.312 1.4 7.712 1.64C10.16 1.832 12.608 1.928 15.056 1.928C17.504 1.928 19.928 1.856 22.328 1.712C24.728 1.52 27.152 1.424 29.6 1.424V12.872C28.928 12.92 28.256 13.016 27.584 13.16C26.912 13.304 26.312 13.544 25.784 13.88C25.256 14.168 24.824 14.6 24.488 15.176C24.152 15.704 23.984 16.4 23.984 17.264V40.16C23.984 41.024 24.152 41.744 24.488 42.32C24.824 42.848 25.256 43.28 25.784 43.616C26.312 43.904 26.912 44.12 27.584 44.264C28.256 44.408 28.928 44.504 29.6 44.552V56C27.152 56.096 24.728 56.048 22.328 55.856C19.928 55.616 17.504 55.496 15.056 55.496C12.608 55.496 10.16 55.592 7.712 55.784C5.312 55.928 2.888 56 0.44 56V44.552ZM32.5025 44.552C33.2225 44.504 33.9185 44.408 34.5905 44.264C35.2625 44.12 35.8625 43.88 36.3905 43.544C36.9185 43.208 37.3265 42.776 37.6145 42.248C37.9505 41.672 38.1185 40.976 38.1185 40.16V17.264C38.1185 16.448 37.9505 15.776 37.6145 15.248C37.3265 14.672 36.9185 14.216 36.3905 13.88C35.8625 13.544 35.2625 13.304 34.5905 13.16C33.9185 13.016 33.2225 12.92 32.5025 12.872V1.424C34.8545 1.616 37.1825 1.76 39.4865 1.856C41.8385 1.952 44.2145 2 46.6145 2C49.1585 2 51.6785 1.952 54.1745 1.856C56.7185 1.76 59.2625 1.616 61.8065 1.424L73.9025 34.688L85.9985 1.424C88.0625 1.616 90.1265 1.76 92.1905 1.856C94.2545 1.904 96.3425 1.928 98.4545 1.928C100.423 1.928 102.367 1.904 104.287 1.856C106.255 1.76 108.223 1.616 110.191 1.424V12.872C109.471 12.92 108.775 13.016 108.103 13.16C107.431 13.304 106.831 13.544 106.303 13.88C105.775 14.216 105.343 14.672 105.007 15.248C104.719 15.776 104.575 16.448 104.575 17.264V40.16C104.575 40.976 104.719 41.672 105.007 42.248C105.343 42.776 105.775 43.208 106.303 43.544C106.831 43.88 107.431 44.12 108.103 44.264C108.775 44.408 109.471 44.504 110.191 44.552V56H109.327C107.023 56 104.743 55.928 102.487 55.784C100.231 55.592 97.9505 55.496 95.6465 55.496C93.1985 55.496 90.7505 55.592 88.3025 55.784C85.9025 55.928 83.4785 56 81.0305 56V44.552C81.7505 44.504 82.4465 44.408 83.1185 44.264C83.7905 44.12 84.3905 43.88 84.9185 43.544C85.4465 43.208 85.8545 42.776 86.1425 42.248C86.4785 41.672 86.6465 40.976 86.6465 40.16V22.592L74.2625 56.072H58.0625L46.0385 23.528C46.0385 26.312 46.0145 29.096 45.9665 31.88C45.9665 34.616 45.9665 37.376 45.9665 40.16C45.9665 40.976 46.1105 41.672 46.3985 42.248C46.7345 42.776 47.1665 43.208 47.6945 43.544C48.2225 43.88 48.8225 44.12 49.4945 44.264C50.1665 44.408 50.8625 44.504 51.5825 44.552V56H51.0065C49.7105 56 48.4145 55.928 47.1185 55.784C45.8705 55.64 44.5985 55.568 43.3025 55.568C41.4785 55.568 39.6785 55.64 37.9025 55.784C36.1265 55.928 34.3265 56 32.5025 56V44.552ZM113.081 44.552C113.897 44.504 114.761 44.408 115.673 44.264C116.633 44.12 117.545 43.904 118.409 43.616C119.273 43.28 120.065 42.848 120.785 42.32C121.505 41.744 122.009 41.024 122.297 40.16C122.537 39.536 122.873 38.552 123.305 37.208C123.785 35.816 124.313 34.256 124.889 32.528C125.465 30.752 126.041 28.904 126.617 26.984C127.241 25.064 127.793 23.264 128.273 21.584C128.801 19.904 129.209 18.44 129.497 17.192C129.833 15.944 130.001 15.128 130.001 14.744C130.001 14.312 129.881 13.976 129.641 13.736C129.449 13.448 129.185 13.256 128.849 13.16C128.561 13.016 128.225 12.944 127.841 12.944C127.457 12.896 127.097 12.872 126.761 12.872V1.424C128.921 1.568 131.033 1.664 133.097 1.712C135.161 1.76 137.273 1.784 139.433 1.784C141.545 1.784 143.609 1.784 145.625 1.784C147.689 1.736 149.777 1.64 151.889 1.496L163.265 40.16C163.649 41.456 164.321 42.488 165.281 43.256C166.289 44.024 167.489 44.456 168.881 44.552V56C166.433 56 163.985 55.928 161.537 55.784C159.137 55.592 156.713 55.496 154.265 55.496C152.057 55.496 149.873 55.592 147.713 55.784C145.553 55.928 143.369 56 141.161 56H139.721V44.552C140.249 44.552 140.825 44.504 141.449 44.408C142.121 44.264 142.745 44.072 143.321 43.832C143.945 43.592 144.449 43.256 144.833 42.824C145.265 42.392 145.481 41.84 145.481 41.168C145.481 40.352 145.313 39.56 144.977 38.792C144.689 38.024 144.425 37.256 144.185 36.488H131.945C131.705 37.208 131.441 37.976 131.153 38.792C130.865 39.56 130.721 40.328 130.721 41.096C130.721 41.768 130.913 42.32 131.297 42.752C131.729 43.184 132.233 43.544 132.809 43.832C133.433 44.072 134.081 44.264 134.753 44.408C135.425 44.504 136.001 44.552 136.481 44.552V56C134.513 56 132.569 55.928 130.649 55.784C128.729 55.592 126.785 55.496 124.817 55.496C122.849 55.496 120.881 55.592 118.913 55.784C116.993 55.928 115.049 56 113.081 56V44.552ZM142.025 30.44L137.777 16.76L133.889 30.44H142.025ZM204.585 46.352C206.121 46.352 207.225 46.112 207.897 45.632C208.617 45.152 209.073 44.504 209.265 43.688C209.505 42.872 209.601 41.912 209.553 40.808C209.505 39.704 209.481 38.552 209.481 37.352C209.481 35.672 208.929 34.544 207.825 33.968C206.721 33.344 204.825 33.008 202.137 32.96V23.672C206.889 23.912 211.761 24.032 216.753 24.032C221.745 24.032 226.593 23.912 231.297 23.672V32.96C230.625 33.008 229.953 33.104 229.281 33.248C228.609 33.392 228.009 33.632 227.481 33.968C226.953 34.256 226.521 34.688 226.185 35.264C225.849 35.792 225.681 36.488 225.681 37.352V55.424H222.585L215.241 50.96C213.225 52.496 210.969 53.696 208.473 54.56C206.025 55.424 203.361 55.976 200.481 56.216C190.689 56.888 183.225 54.824 178.089 50.024C172.953 45.224 170.385 38.048 170.385 28.496C170.385 24.08 171.033 20.144 172.329 16.688C173.673 13.232 175.569 10.328 178.017 7.976C180.465 5.624 183.441 3.848 186.945 2.648C190.449 1.4 194.385 0.775999 198.753 0.775999C200.817 0.775999 202.857 0.967998 204.873 1.352C206.937 1.688 208.881 2.288 210.705 3.152C211.569 3.536 212.289 3.536 212.865 3.152C213.441 2.72 213.777 2.024 213.873 1.064H222.441C222.441 2.744 222.393 4.4 222.297 6.032C222.249 7.616 222.225 9.248 222.225 10.928C222.225 12.704 222.273 14.48 222.369 16.256C222.465 18.032 222.489 19.808 222.441 21.584H213.873C213.825 19.904 213.585 18.272 213.153 16.688C212.769 15.056 212.169 13.616 211.353 12.368C210.585 11.12 209.553 10.136 208.257 9.416C207.009 8.648 205.473 8.264 203.649 8.264C201.249 8.264 199.281 8.936 197.745 10.28C196.257 11.576 195.081 13.208 194.217 15.176C193.401 17.096 192.849 19.184 192.561 21.44C192.273 23.696 192.129 25.784 192.129 27.704C192.129 29.72 192.297 31.832 192.633 34.04C193.017 36.248 193.665 38.264 194.577 40.088C195.489 41.912 196.761 43.424 198.393 44.624C200.025 45.776 202.089 46.352 204.585 46.352ZM231.979 44.552C232.651 44.504 233.323 44.408 233.995 44.264C234.667 44.12 235.267 43.904 235.795 43.616C236.323 43.28 236.755 42.848 237.091 42.32C237.427 41.744 237.595 41.024 237.595 40.16V17.264C237.595 16.4 237.427 15.704 237.091 15.176C236.755 14.6 236.323 14.168 235.795 13.88C235.267 13.544 234.667 13.304 233.995 13.16C233.323 13.016 232.651 12.92 231.979 12.872V1.424C234.427 1.328 236.851 1.4 239.251 1.64C241.699 1.832 244.147 1.928 246.595 1.928C249.043 1.928 251.467 1.856 253.867 1.712C256.267 1.52 258.691 1.424 261.139 1.424V12.872C260.467 12.92 259.795 13.016 259.123 13.16C258.451 13.304 257.851 13.544 257.323 13.88C256.795 14.168 256.363 14.6 256.027 15.176C255.691 15.704 255.523 16.4 255.523 17.264V40.16C255.523 41.024 255.691 41.744 256.027 42.32C256.363 42.848 256.795 43.28 257.323 43.616C257.851 43.904 258.451 44.12 259.123 44.264C259.795 44.408 260.467 44.504 261.139 44.552V56C258.691 56.096 256.267 56.048 253.867 55.856C251.467 55.616 249.043 55.496 246.595 55.496C244.147 55.496 241.699 55.592 239.251 55.784C236.851 55.928 234.427 56 231.979 56V44.552ZM264.042 44.552C264.762 44.504 265.458 44.408 266.13 44.264C266.802 44.12 267.402 43.88 267.93 43.544C268.458 43.208 268.866 42.776 269.154 42.248C269.49 41.672 269.658 40.976 269.658 40.16V17.264C269.658 16.448 269.49 15.776 269.154 15.248C268.866 14.672 268.458 14.216 267.93 13.88C267.402 13.544 266.802 13.304 266.13 13.16C265.458 13.016 264.762 12.92 264.042 12.872V1.424C266.346 1.616 268.626 1.76 270.882 1.856C273.138 1.904 275.418 1.928 277.722 1.928C280.17 1.928 282.594 1.88 284.994 1.784C287.442 1.688 289.89 1.568 292.338 1.424L307.098 36.416V17.264C307.098 16.448 306.93 15.776 306.594 15.248C306.306 14.672 305.898 14.216 305.37 13.88C304.842 13.544 304.242 13.304 303.57 13.16C302.898 13.016 302.202 12.92 301.482 12.872V1.424H302.346C303.882 1.424 305.37 1.472 306.81 1.568C308.298 1.664 309.786 1.712 311.274 1.712C312.81 1.712 314.346 1.664 315.882 1.568C317.466 1.472 319.026 1.424 320.562 1.424V12.872C319.842 12.92 319.146 13.016 318.474 13.16C317.802 13.304 317.202 13.544 316.674 13.88C316.146 14.216 315.714 14.672 315.378 15.248C315.09 15.776 314.946 16.448 314.946 17.264V55.928C313.026 55.784 311.106 55.664 309.186 55.568C307.266 55.472 305.346 55.424 303.426 55.424C299.682 55.424 295.938 55.64 292.194 56.072L277.578 22.808C277.578 25.688 277.554 28.592 277.506 31.52C277.506 34.4 277.506 37.28 277.506 40.16C277.506 40.976 277.65 41.672 277.938 42.248C278.274 42.776 278.706 43.208 279.234 43.544C279.762 43.88 280.362 44.12 281.034 44.264C281.706 44.408 282.402 44.504 283.122 44.552V56H282.474C281.034 56 279.594 55.928 278.154 55.784C276.714 55.64 275.25 55.568 273.762 55.568C272.13 55.568 270.498 55.64 268.866 55.784C267.282 55.928 265.674 56 264.042 56V44.552ZM321.276 44.552C322.092 44.504 322.956 44.408 323.868 44.264C324.828 44.12 325.74 43.904 326.604 43.616C327.468 43.28 328.26 42.848 328.98 42.32C329.7 41.744 330.204 41.024 330.492 40.16C330.732 39.536 331.068 38.552 331.5 37.208C331.98 35.816 332.508 34.256 333.084 32.528C333.66 30.752 334.236 28.904 334.812 26.984C335.436 25.064 335.988 23.264 336.468 21.584C336.996 19.904 337.404 18.44 337.692 17.192C338.028 15.944 338.196 15.128 338.196 14.744C338.196 14.312 338.076 13.976 337.836 13.736C337.644 13.448 337.38 13.256 337.044 13.16C336.756 13.016 336.42 12.944 336.036 12.944C335.652 12.896 335.292 12.872 334.956 12.872V1.424C337.116 1.568 339.228 1.664 341.292 1.712C343.356 1.76 345.468 1.784 347.628 1.784C349.74 1.784 351.804 1.784 353.82 1.784C355.884 1.736 357.972 1.64 360.084 1.496L371.46 40.16C371.844 41.456 372.516 42.488 373.476 43.256C374.484 44.024 375.684 44.456 377.076 44.552V56C374.628 56 372.18 55.928 369.732 55.784C367.332 55.592 364.908 55.496 362.46 55.496C360.252 55.496 358.068 55.592 355.908 55.784C353.748 55.928 351.564 56 349.356 56H347.916V44.552C348.444 44.552 349.02 44.504 349.644 44.408C350.316 44.264 350.94 44.072 351.516 43.832C352.14 43.592 352.644 43.256 353.028 42.824C353.46 42.392 353.676 41.84 353.676 41.168C353.676 40.352 353.508 39.56 353.172 38.792C352.884 38.024 352.62 37.256 352.38 36.488H340.14C339.9 37.208 339.636 37.976 339.348 38.792C339.06 39.56 338.916 40.328 338.916 41.096C338.916 41.768 339.108 42.32 339.492 42.752C339.924 43.184 340.428 43.544 341.004 43.832C341.628 44.072 342.276 44.264 342.948 44.408C343.62 44.504 344.196 44.552 344.676 44.552V56C342.708 56 340.764 55.928 338.844 55.784C336.924 55.592 334.98 55.496 333.012 55.496C331.044 55.496 329.076 55.592 327.108 55.784C325.188 55.928 323.244 56 321.276 56V44.552ZM350.22 30.44L345.972 16.76L342.084 30.44H350.22ZM382.751 44.552C383.471 44.504 384.167 44.408 384.839 44.264C385.511 44.12 386.111 43.88 386.639 43.544C387.167 43.208 387.575 42.776 387.863 42.248C388.199 41.672 388.367 40.976 388.367 40.16V12.8C387.215 12.848 386.351 13.16 385.775 13.736C385.247 14.312 384.863 15.032 384.623 15.896C384.431 16.76 384.335 17.672 384.335 18.632C384.335 19.592 384.311 20.48 384.263 21.296H372.815C373.007 20.144 373.103 18.992 373.103 17.84C373.151 16.688 373.175 15.536 373.175 14.384C373.175 12.176 373.175 9.992 373.175 7.832C373.175 5.624 373.055 3.44 372.815 1.28C380.831 1.712 388.823 1.928 396.791 1.928C405.143 1.928 413.495 1.712 421.847 1.28C421.607 3.44 421.487 5.624 421.487 7.832C421.487 9.992 421.487 12.176 421.487 14.384C421.487 15.536 421.487 16.688 421.487 17.84C421.535 18.992 421.655 20.144 421.847 21.296H410.399C410.351 20.48 410.327 19.592 410.327 18.632C410.375 17.672 410.279 16.76 410.039 15.896C409.847 15.032 409.463 14.312 408.887 13.736C408.311 13.16 407.447 12.848 406.295 12.8V40.16C406.295 40.976 406.439 41.672 406.727 42.248C407.063 42.776 407.495 43.208 408.023 43.544C408.551 43.88 409.151 44.12 409.823 44.264C410.495 44.408 411.191 44.504 411.911 44.552V56C409.463 56 407.039 55.928 404.639 55.784C402.239 55.592 399.815 55.496 397.367 55.496C394.919 55.496 392.471 55.592 390.023 55.784C387.623 55.928 385.199 56 382.751 56V44.552ZM424.706 44.552C425.378 44.504 426.05 44.408 426.722 44.264C427.394 44.12 427.994 43.904 428.522 43.616C429.05 43.28 429.482 42.848 429.818 42.32C430.154 41.744 430.322 41.024 430.322 40.16V17.264C430.322 16.4 430.154 15.704 429.818 15.176C429.482 14.6 429.05 14.168 428.522 13.88C427.994 13.544 427.394 13.304 426.722 13.16C426.05 13.016 425.378 12.92 424.706 12.872V1.424C427.154 1.328 429.578 1.4 431.978 1.64C434.426 1.832 436.874 1.928 439.322 1.928C441.77 1.928 444.194 1.856 446.594 1.712C448.994 1.52 451.418 1.424 453.866 1.424V12.872C453.194 12.92 452.522 13.016 451.85 13.16C451.178 13.304 450.578 13.544 450.05 13.88C449.522 14.168 449.09 14.6 448.754 15.176C448.418 15.704 448.25 16.4 448.25 17.264V40.16C448.25 41.024 448.418 41.744 448.754 42.32C449.09 42.848 449.522 43.28 450.05 43.616C450.578 43.904 451.178 44.12 451.85 44.264C452.522 44.408 453.194 44.504 453.866 44.552V56C451.418 56.096 448.994 56.048 446.594 55.856C444.194 55.616 441.77 55.496 439.322 55.496C436.874 55.496 434.426 55.592 431.978 55.784C429.578 55.928 427.154 56 424.706 56V44.552ZM456.065 29.288C456.065 24.296 456.641 20.024 457.793 16.472C458.993 12.92 460.793 10.016 463.193 7.76C465.641 5.504 468.689 3.848 472.337 2.792C475.985 1.736 480.281 1.208 485.225 1.208C490.265 1.208 494.633 1.712 498.329 2.72C502.025 3.728 505.049 5.36 507.401 7.616C509.801 9.824 511.577 12.728 512.729 16.328C513.881 19.88 514.457 24.2 514.457 29.288C514.457 34.376 513.857 38.648 512.657 42.104C511.505 45.56 509.729 48.344 507.329 50.456C504.929 52.52 501.881 54.008 498.185 54.92C494.537 55.784 490.217 56.216 485.225 56.216C480.329 56.216 476.057 55.76 472.409 54.848C468.761 53.936 465.713 52.424 463.265 50.312C460.865 48.2 459.065 45.44 457.865 42.032C456.665 38.576 456.065 34.328 456.065 29.288ZM477.089 29.288C477.089 31.928 477.137 34.448 477.233 36.848C477.329 39.248 477.617 41.36 478.097 43.184C478.625 44.96 479.393 46.4 480.401 47.504C481.457 48.56 482.921 49.088 484.793 49.088C486.665 49.088 488.105 48.56 489.113 47.504C490.169 46.4 490.937 44.96 491.417 43.184C491.945 41.36 492.257 39.248 492.353 36.848C492.449 34.448 492.497 31.928 492.497 29.288C492.497 26.696 492.449 24.104 492.353 21.512C492.257 18.92 491.945 16.592 491.417 14.528C490.937 12.464 490.169 10.784 489.113 9.488C488.105 8.192 486.665 7.544 484.793 7.544C482.921 7.544 481.457 8.192 480.401 9.488C479.393 10.784 478.625 12.464 478.097 14.528C477.617 16.592 477.329 18.92 477.233 21.512C477.137 24.104 477.089 26.696 477.089 29.288ZM516.604 44.552C517.324 44.504 518.02 44.408 518.692 44.264C519.364 44.12 519.964 43.88 520.492 43.544C521.02 43.208 521.428 42.776 521.716 42.248C522.052 41.672 522.22 40.976 522.22 40.16V17.264C522.22 16.448 522.052 15.776 521.716 15.248C521.428 14.672 521.02 14.216 520.492 13.88C519.964 13.544 519.364 13.304 518.692 13.16C518.02 13.016 517.324 12.92 516.604 12.872V1.424C518.908 1.616 521.188 1.76 523.444 1.856C525.7 1.904 527.98 1.928 530.284 1.928C532.732 1.928 535.156 1.88 537.556 1.784C540.004 1.688 542.452 1.568 544.9 1.424L559.66 36.416V17.264C559.66 16.448 559.492 15.776 559.156 15.248C558.868 14.672 558.46 14.216 557.932 13.88C557.404 13.544 556.804 13.304 556.132 13.16C555.46 13.016 554.764 12.92 554.044 12.872V1.424H554.908C556.444 1.424 557.932 1.472 559.372 1.568C560.86 1.664 562.348 1.712 563.836 1.712C565.372 1.712 566.908 1.664 568.444 1.568C570.028 1.472 571.588 1.424 573.124 1.424V12.872C572.404 12.92 571.708 13.016 571.036 13.16C570.364 13.304 569.764 13.544 569.236 13.88C568.708 14.216 568.276 14.672 567.94 15.248C567.652 15.776 567.508 16.448 567.508 17.264V55.928C565.588 55.784 563.668 55.664 561.748 55.568C559.828 55.472 557.908 55.424 555.988 55.424C552.244 55.424 548.5 55.64 544.756 56.072L530.14 22.808C530.14 25.688 530.116 28.592 530.068 31.52C530.068 34.4 530.068 37.28 530.068 40.16C530.068 40.976 530.212 41.672 530.5 42.248C530.836 42.776 531.268 43.208 531.796 43.544C532.324 43.88 532.924 44.12 533.596 44.264C534.268 44.408 534.964 44.504 535.684 44.552V56H535.036C533.596 56 532.156 55.928 530.716 55.784C529.276 55.64 527.812 55.568 526.324 55.568C524.692 55.568 523.06 55.64 521.428 55.784C519.844 55.928 518.236 56 516.604 56V44.552ZM0.44 124.552C1.16 124.504 1.856 124.408 2.528 124.264C3.2 124.12 3.8 123.88 4.328 123.544C4.856 123.208 5.264 122.776 5.552 122.248C5.888 121.672 6.056 120.976 6.056 120.16V97.264C6.056 96.448 5.888 95.776 5.552 95.248C5.264 94.672 4.856 94.216 4.328 93.88C3.8 93.544 3.2 93.304 2.528 93.16C1.856 93.016 1.16 92.92 0.44 92.872V81.424C2.792 81.616 5.12 81.76 7.424 81.856C9.776 81.952 12.152 82 14.552 82C17.096 82 19.616 81.952 22.112 81.856C24.656 81.76 27.2 81.616 29.744 81.424L41.84 114.688L53.936 81.424C56 81.616 58.064 81.76 60.128 81.856C62.192 81.904 64.28 81.928 66.392 81.928C68.36 81.928 70.304 81.904 72.224 81.856C74.192 81.76 76.16 81.616 78.128 81.424V92.872C77.408 92.92 76.712 93.016 76.04 93.16C75.368 93.304 74.768 93.544 74.24 93.88C73.712 94.216 73.28 94.672 72.944 95.248C72.656 95.776 72.512 96.448 72.512 97.264V120.16C72.512 120.976 72.656 121.672 72.944 122.248C73.28 122.776 73.712 123.208 74.24 123.544C74.768 123.88 75.368 124.12 76.04 124.264C76.712 124.408 77.408 124.504 78.128 124.552V136H77.264C74.96 136 72.68 135.928 70.424 135.784C68.168 135.592 65.888 135.496 63.584 135.496C61.136 135.496 58.688 135.592 56.24 135.784C53.84 135.928 51.416 136 48.968 136V124.552C49.688 124.504 50.384 124.408 51.056 124.264C51.728 124.12 52.328 123.88 52.856 123.544C53.384 123.208 53.792 122.776 54.08 122.248C54.416 121.672 54.584 120.976 54.584 120.16V102.592L42.2 136.072H26L13.976 103.528C13.976 106.312 13.952 109.096 13.904 111.88C13.904 114.616 13.904 117.376 13.904 120.16C13.904 120.976 14.048 121.672 14.336 122.248C14.672 122.776 15.104 123.208 15.632 123.544C16.16 123.88 16.76 124.12 17.432 124.264C18.104 124.408 18.8 124.504 19.52 124.552V136H18.944C17.648 136 16.352 135.928 15.056 135.784C13.808 135.64 12.536 135.568 11.24 135.568C9.416 135.568 7.616 135.64 5.84 135.784C4.064 135.928 2.264 136 0.44 136V124.552ZM81.0181 124.552C81.8341 124.504 82.6981 124.408 83.6101 124.264C84.5701 124.12 85.4821 123.904 86.3461 123.616C87.2101 123.28 88.0021 122.848 88.7221 122.32C89.4421 121.744 89.9461 121.024 90.2341 120.16C90.4741 119.536 90.8101 118.552 91.2421 117.208C91.7221 115.816 92.2501 114.256 92.8261 112.528C93.4021 110.752 93.9781 108.904 94.5541 106.984C95.1781 105.064 95.7301 103.264 96.2101 101.584C96.7381 99.904 97.1461 98.44 97.4341 97.192C97.7701 95.944 97.9381 95.128 97.9381 94.744C97.9381 94.312 97.8181 93.976 97.5781 93.736C97.3861 93.448 97.1221 93.256 96.7861 93.16C96.4981 93.016 96.1621 92.944 95.7781 92.944C95.3941 92.896 95.0341 92.872 94.6981 92.872V81.424C96.8581 81.568 98.9701 81.664 101.034 81.712C103.098 81.76 105.21 81.784 107.37 81.784C109.482 81.784 111.546 81.784 113.562 81.784C115.626 81.736 117.714 81.64 119.826 81.496L131.202 120.16C131.586 121.456 132.258 122.488 133.218 123.256C134.226 124.024 135.426 124.456 136.818 124.552V136C134.37 136 131.922 135.928 129.474 135.784C127.074 135.592 124.65 135.496 122.202 135.496C119.994 135.496 117.81 135.592 115.65 135.784C113.49 135.928 111.306 136 109.098 136H107.658V124.552C108.186 124.552 108.762 124.504 109.386 124.408C110.058 124.264 110.682 124.072 111.258 123.832C111.882 123.592 112.386 123.256 112.77 122.824C113.202 122.392 113.418 121.84 113.418 121.168C113.418 120.352 113.25 119.56 112.914 118.792C112.626 118.024 112.362 117.256 112.122 116.488H99.8821C99.6421 117.208 99.3781 117.976 99.0901 118.792C98.8021 119.56 98.6581 120.328 98.6581 121.096C98.6581 121.768 98.8501 122.32 99.2341 122.752C99.6661 123.184 100.17 123.544 100.746 123.832C101.37 124.072 102.018 124.264 102.69 124.408C103.362 124.504 103.938 124.552 104.418 124.552V136C102.45 136 100.506 135.928 98.5861 135.784C96.6661 135.592 94.7221 135.496 92.7541 135.496C90.7861 135.496 88.8181 135.592 86.8501 135.784C84.9301 135.928 82.9861 136 81.0181 136V124.552ZM109.962 110.44L105.714 96.76L101.826 110.44H109.962ZM139.729 124.552C140.449 124.504 141.145 124.408 141.817 124.264C142.489 124.12 143.089 123.88 143.617 123.544C144.145 123.208 144.553 122.776 144.841 122.248C145.177 121.672 145.345 120.976 145.345 120.16V97.264C145.345 96.448 145.177 95.776 144.841 95.248C144.553 94.672 144.145 94.216 143.617 93.88C143.089 93.544 142.489 93.304 141.817 93.16C141.145 93.016 140.449 92.92 139.729 92.872V81.424C142.033 81.616 144.313 81.76 146.569 81.856C148.825 81.904 151.105 81.928 153.409 81.928C155.857 81.928 158.281 81.88 160.681 81.784C163.129 81.688 165.577 81.568 168.025 81.424L182.785 116.416V97.264C182.785 96.448 182.617 95.776 182.281 95.248C181.993 94.672 181.585 94.216 181.057 93.88C180.529 93.544 179.929 93.304 179.257 93.16C178.585 93.016 177.889 92.92 177.169 92.872V81.424H178.033C179.569 81.424 181.057 81.472 182.497 81.568C183.985 81.664 185.473 81.712 186.961 81.712C188.497 81.712 190.033 81.664 191.569 81.568C193.153 81.472 194.713 81.424 196.249 81.424V92.872C195.529 92.92 194.833 93.016 194.161 93.16C193.489 93.304 192.889 93.544 192.361 93.88C191.833 94.216 191.401 94.672 191.065 95.248C190.777 95.776 190.633 96.448 190.633 97.264V135.928C188.713 135.784 186.793 135.664 184.873 135.568C182.953 135.472 181.033 135.424 179.113 135.424C175.369 135.424 171.625 135.64 167.881 136.072L153.265 102.808C153.265 105.688 153.241 108.592 153.193 111.52C153.193 114.4 153.193 117.28 153.193 120.16C153.193 120.976 153.337 121.672 153.625 122.248C153.961 122.776 154.393 123.208 154.921 123.544C155.449 123.88 156.049 124.12 156.721 124.264C157.393 124.408 158.089 124.504 158.809 124.552V136H158.161C156.721 136 155.281 135.928 153.841 135.784C152.401 135.64 150.937 135.568 149.449 135.568C147.817 135.568 146.185 135.64 144.553 135.784C142.969 135.928 141.361 136 139.729 136V124.552ZM199.143 124.552C199.815 124.504 200.487 124.408 201.159 124.264C201.831 124.12 202.431 123.904 202.959 123.616C203.487 123.28 203.919 122.848 204.255 122.32C204.591 121.744 204.759 121.024 204.759 120.16V97.264C204.759 96.4 204.591 95.704 204.255 95.176C203.919 94.6 203.487 94.168 202.959 93.88C202.431 93.544 201.831 93.304 201.159 93.16C200.487 93.016 199.815 92.92 199.143 92.872V81.424C201.591 81.328 204.015 81.4 206.415 81.64C208.863 81.832 211.311 81.928 213.759 81.928C216.207 81.928 218.631 81.856 221.031 81.712C223.431 81.52 225.855 81.424 228.303 81.424V92.872C227.631 92.92 226.959 93.016 226.287 93.16C225.615 93.304 225.015 93.544 224.487 93.88C223.959 94.168 223.527 94.6 223.191 95.176C222.855 95.704 222.687 96.4 222.687 97.264V120.16C222.687 121.024 222.855 121.744 223.191 122.32C223.527 122.848 223.959 123.28 224.487 123.616C225.015 123.904 225.615 124.12 226.287 124.264C226.959 124.408 227.631 124.504 228.303 124.552V136C225.855 136.096 223.431 136.048 221.031 135.856C218.631 135.616 216.207 135.496 213.759 135.496C211.311 135.496 208.863 135.592 206.415 135.784C204.015 135.928 201.591 136 199.143 136V124.552ZM231.206 124.552C231.878 124.504 232.55 124.408 233.222 124.264C233.894 124.12 234.494 123.904 235.022 123.616C235.55 123.28 235.982 122.848 236.318 122.32C236.654 121.744 236.822 121.024 236.822 120.16V97.264C236.822 96.4 236.654 95.704 236.318 95.176C235.982 94.6 235.55 94.168 235.022 93.88C234.494 93.544 233.894 93.304 233.222 93.16C232.55 93.016 231.878 92.92 231.206 92.872V81.424C234.086 81.376 236.942 81.424 239.774 81.568C242.606 81.712 245.462 81.784 248.342 81.784C252.902 81.784 257.63 81.712 262.526 81.568C267.47 81.376 272.222 81.28 276.782 81.28C276.59 83.056 276.47 84.856 276.422 86.68C276.422 88.456 276.422 90.256 276.422 92.08C276.422 93.616 276.422 95.152 276.422 96.688C276.422 98.224 276.542 99.76 276.782 101.296H265.334C265.286 100.24 265.238 99.208 265.19 98.2C265.19 97.192 265.046 96.304 264.758 95.536C264.518 94.72 264.062 94.072 263.39 93.592C262.718 93.064 261.734 92.8 260.438 92.8C258.758 92.8 257.39 93.088 256.334 93.664C255.278 94.192 254.75 95.392 254.75 97.264V105.76C255.614 105.76 256.43 105.76 257.198 105.76C258.014 105.76 258.734 105.688 259.358 105.544C259.982 105.352 260.486 105.064 260.87 104.68C261.302 104.296 261.542 103.744 261.59 103.024H267.998C267.902 103.984 267.83 104.968 267.782 105.976C267.734 106.984 267.71 107.968 267.71 108.928C267.71 109.936 267.734 110.944 267.782 111.952C267.83 112.912 267.902 113.896 267.998 114.904H261.59C261.542 114.232 261.302 113.728 260.87 113.392C260.438 113.008 259.886 112.72 259.214 112.528C258.59 112.336 257.894 112.24 257.126 112.24C256.358 112.192 255.566 112.168 254.75 112.168V120.16C254.75 121.024 254.918 121.744 255.254 122.32C255.59 122.848 256.022 123.28 256.55 123.616C257.078 123.904 257.678 124.12 258.35 124.264C259.022 124.408 259.694 124.504 260.366 124.552V136C257.918 136.096 255.494 136.048 253.094 135.856C250.694 135.616 248.27 135.496 245.822 135.496C243.374 135.496 240.926 135.592 238.478 135.784C236.078 135.928 233.654 136 231.206 136V124.552ZM310.035 114.76C309.987 114.088 309.747 113.584 309.315 113.248C308.883 112.864 308.331 112.576 307.659 112.384C307.035 112.192 306.339 112.096 305.571 112.096C304.803 112.048 304.011 112.024 303.195 112.024V120.16C303.195 122.032 303.675 123.256 304.635 123.832C305.595 124.36 306.915 124.624 308.595 124.624C309.939 124.624 310.995 124.408 311.763 123.976C312.531 123.496 313.107 122.872 313.491 122.104C313.875 121.288 314.115 120.376 314.211 119.368C314.355 118.36 314.451 117.28 314.499 116.128H325.947C325.707 117.664 325.587 119.2 325.587 120.736C325.587 122.272 325.587 123.808 325.587 125.344C325.587 127.168 325.587 128.992 325.587 130.816C325.635 132.592 325.755 134.368 325.947 136.144C321.147 136.24 316.323 136.192 311.475 136C306.675 135.76 301.875 135.64 297.075 135.64C294.147 135.64 291.243 135.712 288.363 135.856C285.483 135.952 282.579 136 279.651 136V124.552C280.323 124.504 280.995 124.408 281.667 124.264C282.339 124.12 282.939 123.904 283.467 123.616C283.995 123.28 284.427 122.848 284.763 122.32C285.099 121.744 285.267 121.024 285.267 120.16V97.408C285.267 96.544 285.099 95.848 284.763 95.32C284.427 94.744 283.995 94.312 283.467 94.024C282.939 93.688 282.339 93.448 281.667 93.304C280.995 93.16 280.323 93.064 279.651 93.016V81.568C282.531 81.52 285.387 81.568 288.219 81.712C291.051 81.856 293.907 81.928 296.787 81.928C301.347 81.928 306.075 81.856 310.971 81.712C315.915 81.52 320.667 81.424 325.227 81.424C325.035 83.2 324.915 85 324.867 86.824C324.867 88.6 324.867 90.4 324.867 92.224C324.867 93.76 324.867 95.296 324.867 96.832C324.867 98.368 324.987 99.904 325.227 101.44H313.779C313.731 100.384 313.683 99.352 313.635 98.344C313.635 97.336 313.491 96.448 313.203 95.68C312.963 94.864 312.507 94.216 311.835 93.736C311.163 93.208 310.179 92.944 308.883 92.944C307.203 92.944 305.835 93.232 304.779 93.808C303.723 94.336 303.195 95.536 303.195 97.408V105.616C304.011 105.616 304.803 105.616 305.571 105.616C306.387 105.568 307.107 105.448 307.731 105.256C308.403 105.064 308.931 104.8 309.315 104.464C309.747 104.08 309.987 103.552 310.035 102.88H316.443C316.347 103.84 316.275 104.824 316.227 105.832C316.179 106.84 316.155 107.824 316.155 108.784C316.155 109.792 316.179 110.8 316.227 111.808C316.275 112.768 316.347 113.752 316.443 114.76H310.035ZM328.871 99.784C328.967 96.376 329.639 93.52 330.887 91.216C332.135 88.864 333.791 86.968 335.855 85.528C337.919 84.088 340.295 83.056 342.983 82.432C345.719 81.76 348.575 81.424 351.551 81.424C354.047 81.424 356.495 81.664 358.895 82.144C361.343 82.576 363.551 82.984 365.519 83.368C366.191 83.512 366.671 83.32 366.959 82.792C367.247 82.264 367.415 81.688 367.463 81.064H376.031C376.031 82.744 375.983 84.4 375.887 86.032C375.839 87.616 375.815 89.248 375.815 90.928C375.815 92.128 375.839 93.304 375.887 94.456C375.983 95.608 376.031 96.784 376.031 97.984H367.463C367.367 96.16 367.055 94.672 366.527 93.52C365.999 92.368 364.847 91.408 363.071 90.64C362.447 90.448 361.607 90.232 360.551 89.992C359.543 89.752 358.439 89.56 357.239 89.416C356.087 89.224 354.911 89.152 353.711 89.2C352.511 89.2 351.431 89.344 350.471 89.632C349.511 89.92 348.719 90.4 348.095 91.072C347.519 91.696 347.231 92.584 347.231 93.736C347.231 94.984 347.711 95.944 348.671 96.616C349.631 97.24 350.903 97.744 352.487 98.128C354.071 98.464 355.871 98.752 357.887 98.992C359.951 99.184 362.015 99.472 364.079 99.856C366.191 100.192 368.255 100.72 370.271 101.44C372.335 102.16 374.159 103.192 375.743 104.536C377.327 105.832 378.599 107.536 379.559 109.648C380.519 111.76 380.999 114.4 380.999 117.568C380.999 121.456 380.303 124.6 378.911 127C377.519 129.352 375.671 131.2 373.367 132.544C371.111 133.888 368.495 134.8 365.519 135.28C362.591 135.712 359.567 135.928 356.447 135.928C355.007 135.928 353.543 135.832 352.055 135.64C350.615 135.448 349.199 135.232 347.807 134.992C346.415 134.704 345.071 134.464 343.775 134.272C342.479 134.08 341.231 133.984 340.031 133.984C339.359 133.984 338.879 134.224 338.591 134.704C338.303 135.136 338.135 135.664 338.087 136.288H329.519C329.519 134.608 329.543 132.976 329.591 131.392C329.687 129.76 329.735 128.104 329.735 126.424C329.735 125.224 329.687 124.048 329.591 122.896C329.543 121.744 329.519 120.568 329.519 119.368H338.087C338.183 121.192 338.495 122.68 339.023 123.832C339.551 124.984 340.703 125.944 342.479 126.712C343.151 126.904 344.087 127.12 345.287 127.36C346.535 127.6 347.879 127.816 349.319 128.008C350.807 128.152 352.319 128.224 353.855 128.224C355.391 128.224 356.783 128.08 358.031 127.792C359.279 127.504 360.287 127.024 361.055 126.352C361.871 125.68 362.279 124.768 362.279 123.616C362.279 122.512 361.775 121.672 360.767 121.096C359.807 120.52 358.535 120.064 356.951 119.728C355.367 119.344 353.567 119.032 351.551 118.792C349.535 118.504 347.471 118.144 345.359 117.712C343.247 117.232 341.183 116.608 339.167 115.84C337.151 115.072 335.375 114.016 333.839 112.672C332.303 111.328 331.079 109.624 330.167 107.56C329.255 105.448 328.823 102.856 328.871 99.784ZM390.907 124.552C391.627 124.504 392.323 124.408 392.995 124.264C393.667 124.12 394.267 123.88 394.795 123.544C395.323 123.208 395.731 122.776 396.019 122.248C396.355 121.672 396.523 120.976 396.523 120.16V92.8C395.371 92.848 394.507 93.16 393.931 93.736C393.403 94.312 393.019 95.032 392.779 95.896C392.587 96.76 392.491 97.672 392.491 98.632C392.491 99.592 392.467 100.48 392.419 101.296H380.971C381.163 100.144 381.259 98.992 381.259 97.84C381.307 96.688 381.331 95.536 381.331 94.384C381.331 92.176 381.331 89.992 381.331 87.832C381.331 85.624 381.211 83.44 380.971 81.28C388.987 81.712 396.979 81.928 404.947 81.928C413.299 81.928 421.651 81.712 430.003 81.28C429.763 83.44 429.643 85.624 429.643 87.832C429.643 89.992 429.643 92.176 429.643 94.384C429.643 95.536 429.643 96.688 429.643 97.84C429.691 98.992 429.811 100.144 430.003 101.296H418.555C418.507 100.48 418.483 99.592 418.483 98.632C418.531 97.672 418.435 96.76 418.195 95.896C418.003 95.032 417.619 94.312 417.043 93.736C416.467 93.16 415.603 92.848 414.451 92.8V120.16C414.451 120.976 414.595 121.672 414.883 122.248C415.219 122.776 415.651 123.208 416.179 123.544C416.707 123.88 417.307 124.12 417.979 124.264C418.651 124.408 419.347 124.504 420.067 124.552V136C417.619 136 415.195 135.928 412.795 135.784C410.395 135.592 407.971 135.496 405.523 135.496C403.075 135.496 400.627 135.592 398.179 135.784C395.779 135.928 393.355 136 390.907 136V124.552ZM432.862 109.288C432.862 104.296 433.438 100.024 434.59 96.472C435.79 92.92 437.59 90.016 439.99 87.76C442.438 85.504 445.486 83.848 449.134 82.792C452.782 81.736 457.078 81.208 462.022 81.208C467.062 81.208 471.43 81.712 475.126 82.72C478.822 83.728 481.846 85.36 484.198 87.616C486.598 89.824 488.374 92.728 489.526 96.328C490.678 99.88 491.254 104.2 491.254 109.288C491.254 114.376 490.654 118.648 489.454 122.104C488.302 125.56 486.526 128.344 484.126 130.456C481.726 132.52 478.678 134.008 474.982 134.92C471.334 135.784 467.014 136.216 462.022 136.216C457.126 136.216 452.854 135.76 449.206 134.848C445.558 133.936 442.51 132.424 440.062 130.312C437.662 128.2 435.862 125.44 434.662 122.032C433.462 118.576 432.862 114.328 432.862 109.288ZM453.886 109.288C453.886 111.928 453.934 114.448 454.03 116.848C454.126 119.248 454.414 121.36 454.894 123.184C455.422 124.96 456.19 126.4 457.198 127.504C458.254 128.56 459.718 129.088 461.59 129.088C463.462 129.088 464.902 128.56 465.91 127.504C466.966 126.4 467.734 124.96 468.214 123.184C468.742 121.36 469.054 119.248 469.15 116.848C469.246 114.448 469.294 111.928 469.294 109.288C469.294 106.696 469.246 104.104 469.15 101.512C469.054 98.92 468.742 96.592 468.214 94.528C467.734 92.464 466.966 90.784 465.91 89.488C464.902 88.192 463.462 87.544 461.59 87.544C459.718 87.544 458.254 88.192 457.198 89.488C456.19 90.784 455.422 92.464 454.894 94.528C454.414 96.592 454.126 98.92 454.03 101.512C453.934 104.104 453.886 106.696 453.886 109.288Z" fill="#C41A1F"/>
</svg>
