<svg width="48" height="48" viewBox="0 0 48 48" fill="none" xmlns="http://www.w3.org/2000/svg">
<g id="sidebar_ic_top">
<path id="Vector" d="M23.8825 44.9826L24.0403 44.9363L23.9292 45L23.8825 44.9826ZM24.163 44.9826C24.3968 45.0347 24.4319 44.6994 24.5605 44.7052C24.5605 44.7052 24.5605 44.7052 24.5138 44.7052C24.4152 44.8032 24.303 44.8869 24.1806 44.9537L24.163 44.9826ZM24.6716 44.6589C24.7194 44.647 24.7618 44.6194 24.7915 44.5805C24.8213 44.5415 24.8367 44.4937 24.8352 44.445C24.8411 44.5028 24.6014 44.5837 24.6716 44.63V44.6589ZM25.0866 36.3167C25.0866 36.3167 25.0866 36.2762 25.0866 36.2878V36.3167ZM5.65116 26.6795L5.73885 26.6102L5.61609 26.6564L5.65116 26.6795ZM5.82651 26.6391C6.00187 26.7142 6.03111 26.3963 6.13048 26.431C6.13048 26.431 6.13048 26.402 6.09541 26.3963C6.01663 26.48 5.92606 26.552 5.82651 26.6102V26.6391ZM6.21817 26.4078C6.23736 26.4071 6.2562 26.4026 6.27364 26.3946C6.29109 26.3867 6.30678 26.3754 6.31981 26.3615C6.33284 26.3475 6.34297 26.3311 6.3496 26.3133C6.35623 26.2954 6.35923 26.2765 6.35845 26.2575C6.35845 26.3095 6.15972 26.3153 6.21817 26.3789V26.4078ZM42.178 26.6737L42.2599 26.6102L42.143 26.6564L42.178 26.6737ZM42.3534 26.6391C42.5229 26.7142 42.558 26.3963 42.6515 26.431C42.6515 26.431 42.6515 26.402 42.6164 26.402C42.5371 26.4811 42.4489 26.551 42.3534 26.6102V26.6391ZM42.745 26.4078C42.764 26.4071 42.7826 26.4026 42.7997 26.3946C42.8169 26.3865 42.8322 26.3752 42.8448 26.3611C42.8573 26.3471 42.8669 26.3306 42.8728 26.3128C42.8788 26.295 42.8811 26.2762 42.8795 26.2575C42.8853 26.3095 42.6807 26.3153 42.745 26.3789V26.4078ZM43.6394 25.4077C43.6394 25.4482 43.6394 25.3383 43.5751 25.4077C43.4698 25.5985 43.651 25.4828 43.5751 25.6736V25.6216C43.3997 25.8355 43.3822 26.1534 43.0724 26.3153C43.125 26.217 43.0139 26.3153 43.0139 26.2402C43.2151 26.1086 43.3781 25.9275 43.4868 25.7145C43.5954 25.5016 43.646 25.2643 43.6335 25.0261C43.6229 24.797 43.5463 24.5757 43.4127 24.3882C43.2791 24.2008 43.0941 24.0551 42.8795 23.9682C42.9145 23.9682 42.9262 23.9219 42.8795 23.8815C42.1254 23.419 41.3656 22.8814 40.6583 22.3842C40.6583 22.4304 40.6174 22.4477 40.5531 22.4188C40.4888 22.2685 40.0212 22.1298 39.8984 21.9101C39.8984 21.9101 39.951 21.9101 39.9452 21.9101C39.9393 21.9101 39.8283 21.8696 39.7757 21.8523H39.8283C39.5769 21.6789 39.3256 21.517 39.0801 21.3551L42.8795 24.1937C43.0707 24.3375 43.2124 24.536 43.2855 24.7623C43.3586 24.9886 43.3594 25.2316 43.2879 25.4584C43.2164 25.6851 43.0759 25.8847 42.8857 26.0297C42.6955 26.1748 42.4648 26.2583 42.2248 26.2691C42.2248 26.3211 42.1839 26.3732 42.1722 26.431C42.1605 26.4888 41.8624 26.5234 41.804 26.4656C42.0436 26.4656 41.804 26.3269 41.9033 26.35C41.9068 26.3367 41.9076 26.3229 41.9057 26.3093C41.9038 26.2957 41.8992 26.2826 41.8921 26.2708C41.8851 26.259 41.8757 26.2486 41.8646 26.2404C41.8535 26.2321 41.8408 26.2262 41.8273 26.2228H41.7747H41.7338C41.6804 26.2092 41.6318 26.1812 41.5935 26.1419C41.5495 26.123 41.5066 26.1018 41.4649 26.0783L41.1727 25.8529C41.0792 25.8529 40.9798 25.8529 40.9564 25.7777C40.9566 25.7374 40.942 25.6984 40.9155 25.6678L40.8278 25.6042C40.6817 25.5291 40.4595 25.5002 40.3835 25.3325V25.3788C40.1032 25.174 39.8447 24.9416 39.612 24.6851L34.9358 21.1701C33.8407 20.574 32.8385 19.8244 31.9606 18.9444L30.8442 18.0888C30.4643 17.8946 30.1189 17.6408 29.8212 17.3372C29.7043 17.2331 29.5757 17.1464 29.453 17.0481L28.9269 16.6551C28.1499 16.1827 27.4006 15.6673 26.6823 15.1115C26.1638 14.7517 25.6643 14.3658 25.1859 13.9552C25.1859 14.5969 25.186 15.2329 25.2561 15.8457C25.2912 16.5163 25.2561 17.158 25.2561 17.8691C25.2561 17.8055 25.2561 17.8286 25.221 17.8229C25.3889 20.2186 25.4103 22.6221 25.2853 25.0203C25.221 27.2403 25.3321 29.4776 25.1743 31.6629L25.2503 31.9751C25.2298 32.3457 25.2454 32.7174 25.297 33.085C25.3613 34.0158 25.1392 34.9582 25.297 35.7502C25.297 37.4325 25.3788 39.109 25.3321 40.7508C25.3964 40.7971 25.3847 40.9185 25.4198 41.0399C25.3321 41.2133 25.4198 41.618 25.3262 41.7163C25.4027 42.1786 25.4321 42.6473 25.4139 43.1153C25.4139 43.1616 25.4139 43.046 25.3555 43.1153C25.297 43.3408 25.4373 43.1674 25.4081 43.387L25.3613 43.3465C25.297 43.6645 25.3613 44.1097 25.0164 44.4161C25.069 44.2889 24.9463 44.4161 24.9463 44.3525C25.1666 44.1183 25.2987 43.8161 25.3204 43.4968C25.3204 43.2136 25.3204 42.965 25.3204 42.699C25.3277 42.1785 25.2905 41.6583 25.2093 41.144C25.2444 41.144 25.2736 41.144 25.2912 41.0919C25.2035 39.901 25.1859 38.6523 25.1567 37.4845C25.1216 37.5365 25.0807 37.4845 25.0691 37.4094C25.1509 37.2128 24.9755 36.6 25.0691 36.2531C25.0691 36.2531 25.0691 36.3225 25.1041 36.3051C25.1 36.225 25.0801 36.1465 25.0457 36.0739C25.0457 36.0739 25.0457 36.0739 25.0807 36.1259C25.0807 35.7154 25.0515 35.3166 25.034 34.9177V43.4044C25.0345 43.6994 24.921 43.9834 24.7167 44.1984C24.5124 44.4133 24.2328 44.5429 23.9351 44.5606C23.9146 44.6157 23.8911 44.6697 23.8649 44.7224C23.9117 44.8323 23.4441 44.7976 23.3681 44.7224C23.6896 44.7745 23.3681 44.5837 23.5025 44.6242C23.5025 44.5548 23.5025 44.5202 23.4265 44.4855C23.3839 44.4678 23.3428 44.4465 23.3038 44.4219C23.2441 44.3964 23.1904 44.3589 23.146 44.312C22.9628 44.162 22.8303 43.9603 22.766 43.7339C22.6842 43.6587 22.6082 43.5431 22.6608 43.4448V43.4796C22.6929 43.4418 22.7132 43.3955 22.7193 43.3465V43.1963C22.6434 42.971 22.6253 42.7306 22.6666 42.4967L22.6258 42.5314C22.6187 42.0653 22.6499 41.5993 22.7193 41.1382V33.2353C22.541 31.5712 22.541 29.8931 22.7193 28.2289V26.4194C22.6474 25.8435 22.6474 25.261 22.7193 24.6851C22.7193 24.6041 22.7193 24.5174 22.7193 24.4307V23.1183C22.6725 21.9101 22.5497 20.6845 22.6082 19.5051C22.5497 17.8575 22.7426 16.2677 22.6666 14.6201H22.7017C22.7017 14.4062 22.7017 14.1865 22.7017 13.9726C22.5147 14.1056 22.3276 14.2385 22.1172 14.4004C22.1523 14.3657 22.1172 14.3657 22.1172 14.3484C20.7972 15.5464 19.3798 16.635 17.8794 17.6032C16.5174 18.5339 15.2549 19.6208 13.8579 20.4937L13.7234 20.6903C13.49 20.8413 13.2761 21.02 13.0863 21.2222C12.5661 21.6904 11.8705 21.9332 11.514 22.4304C10.5086 23.1704 9.56749 23.9913 8.56211 24.6793C8.56211 24.7544 8.49781 24.8007 8.4452 24.8816C8.28738 24.8816 8.10615 25.136 7.98341 25.1071C7.75704 25.3719 7.49556 25.6052 7.20601 25.8008C7.17679 25.8008 7.206 25.7488 7.15924 25.7603C6.98973 25.8182 7.15922 25.8471 7.03063 25.928V25.8702C6.79682 25.9453 6.74423 26.1939 6.49873 26.3037C6.54549 26.217 6.43444 26.3037 6.44029 26.2286C7.10656 25.8263 7.71587 25.3384 8.2523 24.7775C8.25279 24.7867 8.25573 24.7956 8.26083 24.8033C8.26592 24.811 8.27299 24.8172 8.2813 24.8213C8.28962 24.8254 8.29889 24.8273 8.30817 24.8267C8.31745 24.8261 8.32642 24.8231 8.33414 24.818C8.98881 24.2399 9.71944 23.6617 10.3975 23.1125C10.3507 23.1125 10.3449 23.0548 10.3975 23.0085C10.5612 23.0085 10.8184 22.5749 11.0756 22.5171C11.0756 22.5171 11.0463 22.5691 11.0756 22.5691C11.1048 22.5691 11.1515 22.4709 11.1808 22.4188C11.21 22.3668 11.1808 22.4535 11.1808 22.4708L11.8705 21.8927L6.34675 26.0263C6.15659 26.1651 5.92833 26.2438 5.69208 26.2517C5.68089 26.3075 5.66326 26.3618 5.6395 26.4136C5.67457 26.5177 5.33554 26.5061 5.27124 26.4483C5.51674 26.4483 5.27124 26.3095 5.37645 26.3327C5.37645 26.2171 5.30047 26.1997 5.2011 26.1708C5.15632 26.1579 5.11457 26.1363 5.07834 26.1072C4.93421 26.0332 4.80844 25.9286 4.71009 25.8008V25.7603C4.61656 25.7603 4.52305 25.7025 4.53474 25.5985C4.55179 25.5537 4.55179 25.5044 4.53474 25.4597C4.53143 25.4328 4.53143 25.4057 4.53474 25.3788C4.53474 25.3441 4.4938 25.3094 4.47626 25.269C4.43738 25.2074 4.41679 25.1362 4.41679 25.0637C4.41679 24.9911 4.43738 24.92 4.47626 24.8585H4.42368C4.45397 24.6787 4.53068 24.5098 4.6464 24.368C4.76213 24.2262 4.91294 24.1164 5.08419 24.0492L9.79545 20.5226C10.6696 19.6545 11.6633 18.913 12.7473 18.32L13.8345 17.5049C14.1275 17.1964 14.469 16.9368 14.8457 16.736L15.0035 16.6319L15.7868 16.0538C16.4487 15.4521 17.1434 14.8867 17.8677 14.36C18.8146 13.5795 19.8785 13.0245 20.7903 12.2325C21.3749 11.7584 22.012 11.2728 22.6316 10.7988L23.0934 10.4461H23.1284C23.2501 10.3469 23.3915 10.274 23.5434 10.2322H23.6077H23.637C23.7148 10.2265 23.7929 10.2265 23.8708 10.2322H23.9117C23.9963 10.2397 24.0803 10.2532 24.163 10.2726H24.2332C24.3038 10.2956 24.3723 10.3246 24.4378 10.3594H24.4728C24.5429 10.3949 24.6078 10.4396 24.6657 10.4923C25.7179 11.0704 26.6823 12.007 27.7579 12.6198C28.1787 12.8858 28.5236 13.1979 28.9678 13.5101C28.9211 13.5101 28.9269 13.5101 28.9152 13.5101C30.4402 14.4411 31.8849 15.495 33.2348 16.6608C34.5149 17.7014 35.912 18.6033 37.1161 19.7075L37.3441 19.7827C37.5532 19.9636 37.785 20.117 38.0338 20.2393C38.6183 20.6035 39.0509 21.199 39.6354 21.3956C40.6291 22.1471 41.6812 22.8235 42.6281 23.5924C42.6924 23.5635 42.7626 23.5924 42.8561 23.6502C42.9496 23.708 42.9613 23.7774 43.049 23.8525C43.1367 23.9277 43.2302 24.0202 43.2244 24.0896C43.4132 24.2409 43.5532 24.4437 43.6269 24.6728C43.7006 24.9019 43.705 25.1473 43.6394 25.3788V25.4077ZM32.4633 16.3544H32.3639L32.434 16.4064L32.4633 16.3544ZM25.0515 21.6384V21.5459V21.6384ZM31.265 15.4815L31.9314 15.9786C31.7497 15.7699 31.5216 15.6056 31.265 15.4988V15.4815ZM31.1072 15.3311L31.1598 15.3717L31.1072 15.3311ZM18.1074 17.1754C18.1985 17.1291 18.2814 17.0686 18.3529 16.9961L18.1074 17.1754ZM18.4522 16.9383L18.5282 16.8632L18.4522 16.9152V16.9383ZM19.6213 16.0364L18.9491 16.5337C19.2129 16.4308 19.4476 16.2661 19.633 16.0538L19.6213 16.0364ZM19.8083 15.9266L19.7557 15.9671L19.8083 15.9266ZM25.0691 24.0202V24.4307C25.0787 24.2898 25.0728 24.1483 25.0515 24.0086L25.0691 24.0202ZM25.0691 23.8699C25.0691 23.8179 25.0691 23.7716 25.0691 23.7254V23.8468V23.8699ZM25.0691 21.8696V22.9912C25.1289 22.6153 25.123 22.232 25.0515 21.8581L25.0691 21.8696ZM32.8023 16.6666C32.7309 16.5949 32.6503 16.5327 32.5627 16.4816L32.8023 16.6666ZM44.6915 4.52623L44.674 4.51466C44.6755 4.66746 44.6464 4.81904 44.5883 4.96066C44.5303 5.10228 44.4444 5.2311 44.3357 5.3397C44.227 5.44829 44.0976 5.5345 43.955 5.59333C43.8124 5.65215 43.6594 5.68247 43.5049 5.68246H4.25414C3.94409 5.68246 3.64676 5.56062 3.42752 5.34379C3.20828 5.12695 3.08509 4.83288 3.08509 4.52623C3.08509 4.21958 3.20828 3.92543 3.42752 3.7086C3.64676 3.49176 3.94409 3.37 4.25414 3.37H43.5225C43.8325 3.37 44.1299 3.49176 44.3491 3.7086C44.5683 3.92543 44.6915 4.21958 44.6915 4.52623ZM43.5809 6.08711L43.7153 6.01774C43.651 6.01774 43.5868 6.05241 43.5225 6.06975L43.5809 6.08711ZM43.8615 6.02931C44.142 6.064 44.1771 5.71137 44.3174 5.69403C44.3174 5.69403 44.3174 5.69403 44.2648 5.69403C44.147 5.82788 44.0041 5.93779 43.844 6.01774L43.8615 6.02931ZM44.446 5.61887C44.4976 5.59606 44.5413 5.55858 44.5715 5.51125C44.6016 5.46393 44.617 5.40882 44.6155 5.35289C44.6389 5.43961 44.3408 5.57261 44.4285 5.6073L44.446 5.61887ZM45.0305 4.63025C45.0106 4.40808 44.9735 4.18774 44.9195 3.97119L44.9838 4.0117C44.8669 3.68796 44.8727 4.01172 44.7383 3.67063C44.6856 3.53767 44.8026 3.67058 44.7383 3.61276C44.5117 3.31266 44.1805 3.1066 43.8089 3.03465C43.7175 3.02608 43.6255 3.02608 43.5341 3.03465H43.3237C43.1862 3.04499 43.0495 3.06436 42.9145 3.09252C42.7859 3.00002 42.33 3.0925 42.0962 3C41.9501 3.03469 41.804 3.00002 41.7514 3.09252C39.7757 3.04049 37.7532 3.13295 35.7249 3.12717C34.778 3.30638 33.644 3.0867 32.5159 3.12717C32.0696 3.1764 31.62 3.18991 31.1715 3.16761L30.8032 3.24855C28.167 3.08668 25.4782 3.20233 22.8011 3.13295C19.9124 3.00934 17.0192 3.03055 14.1326 3.19654C14.1326 3.19654 14.1326 3.19658 14.191 3.16189C13.3376 3.20236 12.5602 3.16189 11.7536 3.16189C9.76036 3.3122 7.59765 3.16188 5.67457 3.30063H4.78023C4.46868 3.27288 4.15462 3.29632 3.85082 3.37C3.69436 3.42382 3.55062 3.50855 3.4283 3.61904C3.30598 3.72954 3.20767 3.86344 3.13932 4.01269C3.07098 4.16193 3.03405 4.3234 3.03076 4.4872C3.02747 4.65101 3.05787 4.81379 3.12016 4.9656C3.18261 5.11973 3.27666 5.25935 3.39637 5.37576C3.51609 5.49217 3.65887 5.58281 3.81575 5.64195C4.12757 5.72694 4.45291 5.75245 4.77438 5.71711H6.65656V5.75183C8.64394 5.67667 10.5612 5.86744 12.5427 5.80963C14.5769 5.89634 16.7279 5.60148 18.7854 5.71132C20.0538 5.89054 21.708 5.50898 22.918 5.71132C25.3427 5.91084 27.7808 5.88762 30.2012 5.64195C32.4633 5.74023 34.7195 5.4859 36.9115 5.68824C37.952 5.56106 39.0976 5.8501 40.255 5.81541L40.2082 5.76912C40.6232 5.90787 41.1376 5.57834 41.3772 5.76912H41.3305C41.5526 5.8674 41.8449 5.52633 41.9735 5.64774L42.0085 5.59573C42.2774 5.59573 42.0436 5.65355 42.2482 5.67667C42.3242 5.67667 42.2774 5.5784 42.4352 5.61309C42.4703 5.82121 43.0899 5.56681 43.1074 5.79805C42.9613 5.79805 43.3354 5.89054 43.0081 5.93679C43.1016 5.93679 43.5458 5.93678 43.5049 5.85006C43.464 5.76335 43.7212 5.65352 43.4465 5.57258L43.3939 5.64774C43.3003 5.57258 43.3237 5.61303 43.2945 5.55522C42.9379 5.55522 42.8912 5.43386 42.6398 5.38761C42.4608 5.44167 42.2695 5.44167 42.0904 5.38761L42.0319 5.34711C41.9501 5.25461 41.6286 5.52054 41.7396 5.34711C41.0207 5.38179 40.1965 5.38183 39.4016 5.38183C39.2905 5.43964 38.817 5.38179 38.9632 5.49163C38.6359 5.37341 38.2883 5.32035 37.9402 5.33553C37.9402 5.33553 37.9403 5.33553 37.9929 5.33553C37.5662 5.16788 37.4843 5.49165 37.081 5.28931C37.0167 5.42806 36.3503 5.24304 36.1224 5.41069C36.0717 5.376 36.0542 5.34715 36.0698 5.32403C35.345 5.32403 34.5442 5.26623 33.9246 5.26045C33.4043 5.38763 32.6562 5.20261 32.2061 5.38183C31.7066 5.31126 31.2006 5.29765 30.698 5.34132H30.7506C30.1633 5.32604 29.5758 5.3687 28.997 5.46856C28.8217 5.30091 28.5703 5.33555 28.3132 5.28352C27.9215 5.35868 27.1441 5.33554 26.5245 5.41069C26.431 5.32975 26.0277 5.41075 25.9984 5.32982C24.1503 5.51751 22.2877 5.51751 20.4396 5.32982C20.2116 5.39341 19.9545 5.52057 19.7265 5.59573C19.7265 5.59573 19.7265 5.59573 19.7557 5.59573C19.4284 5.59573 19.1186 5.50902 18.7913 5.53214C18.7913 5.53214 18.7913 5.5321 18.8497 5.49163C18.5168 5.47426 18.1831 5.47426 17.8502 5.49163L17.6222 5.53214C17.6222 5.49746 17.6222 5.43964 17.7567 5.4512C14.9393 5.41651 12.0342 5.60727 9.14079 5.57837L9.246 5.54372L8.66147 5.6073C8.66147 5.6073 8.66146 5.60727 8.71991 5.57258C8.00095 5.50899 7.26445 5.61305 6.56887 5.57258C6.56887 5.57258 6.67408 5.52055 6.56887 5.49742C6.05449 5.60148 5.7447 5.37024 5.48751 5.57837C5.47992 5.57536 5.47341 5.57017 5.46882 5.56348C5.46423 5.55678 5.46176 5.54891 5.46176 5.54082C5.46176 5.53273 5.46423 5.5248 5.46882 5.5181C5.47341 5.5114 5.47992 5.50621 5.48751 5.50321L4.40612 5.54372C4.24554 5.56022 4.08326 5.54845 3.92681 5.509C3.78154 5.46316 3.64934 5.3839 3.54104 5.27774C3.43109 5.17339 3.3486 5.0441 3.30072 4.90103C3.25284 4.75796 3.24101 4.60548 3.26629 4.45686C3.28898 4.31026 3.34634 4.17099 3.43369 4.05044C3.52104 3.9299 3.63594 3.83143 3.76901 3.76308C4.00292 3.60348 4.28759 3.53362 4.56981 3.56654C4.88545 3.56654 5.2011 3.56654 5.52258 3.56654C6.16249 3.58129 6.8027 3.55812 7.4398 3.49717V3.53182C9.05893 3.39885 10.7774 3.53182 12.455 3.53182C13.1506 3.53182 13.6241 3.50296 14.3197 3.50296V3.54918C15.4887 3.36996 16.798 3.71108 18.0255 3.50874L17.9379 3.57811C18.1308 3.47405 18.686 3.61281 18.61 3.43937L18.8263 3.49138C19.6622 3.26592 20.3461 3.59547 21.369 3.45095L21.3047 3.49138C21.5664 3.45446 21.8321 3.45446 22.0938 3.49138C22.0938 3.49138 22.0938 3.49138 22.012 3.49138C22.9104 3.5694 23.814 3.5694 24.7125 3.49138L24.6073 3.56654C25.2081 3.52044 25.811 3.50503 26.4135 3.52032L26.3784 3.55497L26.6648 3.50296V3.57233C27.4071 3.57233 28.1086 3.52031 28.8334 3.50874L28.7925 3.57233C29.4705 3.4567 30.2304 3.57235 30.9435 3.5261H30.8967C32.7088 3.5261 34.4039 3.44511 36.1575 3.39308C36.1282 3.39308 36.1224 3.39311 36.0932 3.4278C36.1827 3.39302 36.2776 3.37349 36.3737 3.37C36.3737 3.37 36.3445 3.36996 36.3153 3.40465C36.6894 3.50871 37.4259 3.33528 37.6655 3.40465C37.7707 3.40465 37.8175 3.34682 37.759 3.31213C39.1677 3.31213 40.6817 3.2659 42.1021 3.18497C42.1722 3.18497 42.1839 3.22544 42.1664 3.26012C42.4703 3.21773 42.7801 3.18881 43.0957 3.17339C43.2612 3.16414 43.4271 3.16414 43.5926 3.17339C43.7883 3.19038 43.9778 3.24961 44.1479 3.34685C44.3178 3.44265 44.4658 3.57228 44.5825 3.72751C44.6992 3.88274 44.7821 4.06023 44.826 4.24875C44.868 4.43353 44.8726 4.62465 44.8395 4.81119C44.8064 4.99774 44.7362 5.17595 44.633 5.33553C44.633 5.41069 44.7558 5.22574 44.7149 5.38183C44.8103 5.27973 44.8834 5.15928 44.9297 5.02799C44.976 4.89669 44.9944 4.75732 44.9838 4.61868L45.0305 4.63025ZM42.6691 5.37025C42.6691 5.37025 42.6047 5.37025 42.5755 5.37025H42.6691Z" fill="black"/>
</g>
</svg>
