<svg width="48" height="48" viewBox="0 0 48 48" fill="none" xmlns="http://www.w3.org/2000/svg">
<g id="sidebar_ic_manifesto">
<path id="Vector" d="M5.76563 42.0551L5.59703 41.4259C5.59703 41.3919 5.62513 41.426 5.63637 41.3806C5.57455 41.562 5.86117 41.7717 5.76563 42.0551ZM5.65322 41.1935C5.66875 41.1253 5.67079 41.0546 5.65922 40.9855C5.64765 40.9165 5.62269 40.8504 5.58578 40.7911C5.65884 40.8648 5.56892 41.2445 5.65884 41.1935H5.65322ZM5.42843 25.747C5.42281 25.7016 5.42281 25.7186 5.42843 25.747V25.747ZM43.646 45.1104C43.7265 45.0852 43.8053 45.0549 43.882 45.0197C43.7743 45.0555 43.6631 45.0802 43.5504 45.0934L43.646 45.1104ZM44.1293 44.9744C44.2237 44.9539 44.3119 44.9115 44.3871 44.8505C44.4622 44.7895 44.5221 44.7115 44.5621 44.623C44.6115 44.485 44.6776 44.3536 44.7588 44.2318C44.7251 44.2658 44.7195 44.2318 44.6914 44.2715C44.581 44.5641 44.3774 44.8113 44.1125 44.9744H44.1293ZM44.8712 43.4666C44.8983 43.5725 44.8983 43.6838 44.8712 43.7897C44.8712 43.9201 44.815 44.0221 44.8712 43.9995C44.9265 43.8832 44.9461 43.7529 44.9274 43.6253C44.9081 43.5702 44.8836 43.517 44.8543 43.4666H44.8712ZM45.0005 36.33C44.9105 36.6985 45.0005 37.5374 44.9049 37.7698C45.0117 38.7108 44.9724 39.7538 44.9892 40.7571C44.9892 40.8421 44.9892 40.604 44.933 40.7968C44.8768 41.2842 45.0117 40.9101 44.9836 41.3636L44.9443 41.2786C44.86 41.9248 45.023 42.52 44.9724 43.2285C44.9274 43.0131 44.9218 43.3249 44.8768 43.2285C44.9049 41.0122 44.9724 38.7391 44.8038 36.5738C44.8375 36.6078 44.8656 36.5737 44.8824 36.466C44.8037 33.9322 44.7813 31.2681 44.7532 28.7796C44.7251 28.8873 44.6801 28.7796 44.6689 28.6152C44.7475 28.1958 44.5789 26.9147 44.6689 26.2232C44.6689 26.2742 44.6689 26.3705 44.7082 26.3251C44.7043 26.1594 44.6856 25.9943 44.652 25.832C44.652 25.883 44.652 25.9001 44.6801 25.9454C44.6801 25.0725 44.652 24.2448 44.6351 23.3719V43.5346C44.6376 43.8105 44.5403 44.078 44.3613 44.2867C44.1823 44.4954 43.934 44.631 43.6629 44.6683C43.6629 44.7193 43.5504 44.7703 43.5111 44.8327C43.5785 44.9291 42.7973 44.9404 42.6343 44.9177C43.1964 44.8724 42.5557 44.7817 42.8086 44.7817C42.8086 44.7137 42.7018 44.691 42.5725 44.6796H40.3244C40.1234 44.7546 39.9071 44.778 39.695 44.7477H39.7737C39.6822 44.7111 39.5853 44.69 39.487 44.6853H39.1723C38.685 44.7594 38.1909 44.7765 37.6998 44.7363L37.7729 44.776C36.7781 44.776 35.7945 44.7363 34.8279 44.6853H18.147C14.6175 44.8157 11.1386 44.9007 7.58095 44.6853H4.26504C4.08495 44.6832 3.90783 44.6386 3.74795 44.555C3.48706 44.4263 3.28565 44.2008 3.18593 43.9258C3.10826 43.6148 3.07983 43.2934 3.10164 42.9734C3.10164 42.3442 3.10165 41.7377 3.14661 41.1766C3.14661 40.9952 3.14661 40.8138 3.14661 40.6097V37.8151C3.10727 35.236 2.98922 32.6285 3.04542 30.1117C2.98922 26.6086 3.17471 23.2189 3.10164 19.7101H3.13536V19.3983C3.06785 19.1863 3.06785 18.9584 3.13536 18.7464C3.13536 17.9585 3.13536 17.1649 3.13536 16.3657C3.13536 16.0879 3.13536 15.7988 3.13536 15.5211C3.14253 15.4446 3.15569 15.3688 3.17471 15.2943V14.4894C3.00605 13.6209 3.00605 12.7277 3.17471 11.8592V10.907C3.11006 10.612 3.11006 10.3063 3.17471 10.0113C3.17751 9.96599 3.17751 9.92056 3.17471 9.87525V9.17804C3.15598 8.98721 3.17507 8.79452 3.2309 8.6112C3.30246 8.37314 3.45352 8.16745 3.65842 8.02899C3.86332 7.89053 4.10943 7.82785 4.35494 7.85164C5.21484 7.79496 6.04103 7.982 6.90093 7.90831V7.94236C7.46295 7.94236 7.99124 7.90263 8.54202 7.89697H8.63193L8.59821 6.91633L8.55887 5.99804C8.51718 5.6858 8.51718 5.36931 8.55887 5.05706C8.60568 4.89632 8.68473 4.747 8.79107 4.61829C8.8974 4.48959 9.02879 4.38428 9.17711 4.30885C9.32451 4.23466 9.48489 4.19038 9.64919 4.17849C9.81218 4.17849 9.94709 4.17849 10.0988 4.17849C12.3919 4.1218 14.595 4.31452 16.9049 4.23516V4.27481C19.7712 4.22946 22.8343 4.21248 25.5489 4.22949C27.7969 4.0651 30.2699 4.22949 32.5798 4.08777C33.5127 4.0481 34.412 4.11612 35.3899 4.08777C35.3 4.08777 35.3281 4.08774 35.3224 4.12742C36.1823 4.06507 37.0085 4.03108 37.8403 4.00841C38.0766 3.9858 38.3151 4.00889 38.5428 4.07643C38.789 4.15672 39.0074 4.30617 39.1723 4.50724C39.3389 4.70752 39.446 4.95115 39.4814 5.21012C39.4917 5.32704 39.4917 5.44465 39.4814 5.56156V5.86768C39.4814 6.51955 39.4814 7.17141 39.4533 7.82895C40.1531 7.84025 40.853 7.81184 41.5496 7.74391C41.8981 7.7099 42.2353 7.74391 42.6062 7.74391C42.5725 7.74391 42.6062 7.74394 42.6062 7.77795C42.9184 7.71947 43.2337 7.67974 43.5504 7.65893C43.743 7.65047 43.9351 7.68402 44.1136 7.7574C44.2921 7.83078 44.4528 7.94224 44.5846 8.08407C44.7121 8.2271 44.8093 8.39487 44.8702 8.57715C44.931 8.75944 44.9544 8.95237 44.9387 9.14407L44.8937 10.1134C44.8319 11.2811 44.9386 12.4544 44.7869 13.6051L44.86 13.7638C44.842 13.954 44.8572 14.1458 44.9049 14.3307C44.9611 14.8238 44.7476 15.317 44.9049 15.7308C44.9049 16.6151 44.9892 17.4994 44.9387 18.361C45.0005 18.361 44.9892 18.4516 45.0286 18.514C44.9386 18.6047 45.0286 18.8144 44.933 18.8711C44.9729 18.9836 44.989 19.1032 44.9803 19.2223C44.9716 19.3414 44.9382 19.4574 44.8824 19.5627C44.9162 21.456 44.7363 23.3436 44.8824 24.9364C44.8824 28.5245 44.9667 32.0956 44.9162 35.5931C44.9775 35.8337 45.0059 36.0816 45.0005 36.33ZM42.3983 41.0178V38.5974C42.3533 36.33 42.2353 34.0626 42.2915 31.8632C42.2353 28.7966 42.4264 25.832 42.3477 22.7597H42.387L42.3533 19.4153C42.3113 19.2594 42.3113 19.095 42.3533 18.9391V18.0662L39.0992 20.5433C39.0496 20.6519 38.9853 20.753 38.9081 20.8438C38.4817 21.1447 38.0744 21.4723 37.6885 21.8244C36.6881 22.6577 35.5079 23.2869 34.7435 24.0918C32.8664 25.5089 31.0567 26.9997 29.1964 28.3488C29.1964 28.4339 29.0446 28.5302 28.9266 28.6662C28.6849 28.7399 28.2971 29.1424 28.1229 29.1651C27.6463 29.6133 27.1413 30.0299 26.6111 30.4122C26.5661 30.4462 26.6785 30.3328 26.5549 30.4122C26.2682 30.5595 26.5549 30.5198 26.2851 30.6842V30.6162C25.8973 30.8089 25.6893 31.183 25.2791 31.4154C25.3634 31.2964 25.2172 31.4154 25.2229 31.3474L25.0655 31.4722C25.031 31.5432 24.9706 31.598 24.8969 31.6251L24.8351 31.6762C24.7918 31.7166 24.7447 31.7526 24.6946 31.7839C24.6103 31.9029 24.5204 32.1184 24.2899 32.107C24.411 32.0373 24.5193 31.9472 24.6102 31.8406C24.4098 31.9701 24.1793 32.0444 23.9415 32.056C23.6045 32.0678 23.2741 31.9595 23.0085 31.7499L22.3509 31.2568L21.0527 30.2704L15.7753 26.1268C12.538 23.5873 9.1771 21.1668 6.04101 18.5934C5.94141 18.5334 5.83594 18.484 5.72628 18.446L5.68694 18.4177V18.5197C5.74314 18.5197 5.73753 18.6104 5.77125 18.6727C5.68695 18.7634 5.77123 18.9732 5.68131 19.0298C5.71906 19.1384 5.73503 19.2534 5.72827 19.3683C5.72152 19.4831 5.69218 19.5955 5.64197 19.6987V19.7668C5.70379 21.507 5.49025 23.2585 5.67009 24.7267C5.67009 27.8613 5.74878 30.962 5.70381 34.0456C5.75676 34.2299 5.78509 34.4206 5.7881 34.6124C5.70379 34.9355 5.78811 35.6724 5.69819 35.8765C5.79935 36.6984 5.76561 37.6111 5.78247 38.484C5.78247 38.5634 5.78248 38.3536 5.72066 38.5237C5.67007 38.9488 5.80498 38.6201 5.77688 39.0282L5.73191 38.9602C5.65322 39.527 5.8162 40.0429 5.76 40.6607C5.71504 40.468 5.71506 40.7401 5.67009 40.6607C5.67009 38.7221 5.76001 36.7381 5.59703 34.8449C5.63075 34.8449 5.65885 34.8448 5.67009 34.7428C5.59141 32.5264 5.57453 30.208 5.54643 28.0257C5.51271 28.1164 5.46776 28.0257 5.45652 27.8783C5.54083 27.5099 5.37222 26.3762 5.45652 25.7867C5.45652 25.8377 5.45652 25.9171 5.49024 25.8774C5.48685 25.7322 5.46799 25.5877 5.43402 25.4466C5.43402 25.4863 5.46212 25.5032 5.46774 25.5486C5.46774 24.8155 5.4509 24.0956 5.41718 23.3889V42.3386C5.35535 42.2365 6.04101 42.2252 6.18152 42.2535C5.68132 42.2989 6.25457 42.3896 6.02976 42.3896C6.02976 42.4519 6.12531 42.4803 6.24333 42.4859H8.20482C8.38177 42.4092 8.57692 42.3856 8.76685 42.4179H8.69937C8.77942 42.4526 8.86521 42.4718 8.95229 42.4746H9.22208C9.64885 42.3996 10.0838 42.3844 10.5147 42.4293L10.4473 42.384C11.3184 42.384 12.1783 42.4236 13.0213 42.4746H27.6339C30.7114 42.3017 33.7961 42.3017 36.8736 42.4746H40.2457L41.0832 42.4406C41.5384 42.4406 42.0499 42.4406 42.4039 42.4406C42.4039 42.1799 42.4039 41.8737 42.4489 41.5563C42.4039 41.3522 42.4039 41.1936 42.4095 41.0349L42.3983 41.0178ZM10.8407 9.71659V19.1489H10.9082C10.9082 19.0808 11.0655 19.1489 11.1892 19.2396L11.1554 19.1262L11.2173 19.2282C11.2711 19.2632 11.3203 19.3052 11.3634 19.353C11.1161 19.2169 11.2678 19.421 11.2341 19.4153C13.7126 21.2009 16.2923 23.2926 18.8102 25.0838C19.9342 25.9114 21.0133 26.7843 22.2273 27.6742C22.1205 27.5949 22.1486 27.6289 22.1317 27.6403L23.8965 28.876L23.9583 28.8193L24.0651 28.7286L24.3798 28.4792L25.0149 27.9804L26.2738 27.0054L28.803 25.0895L34.0466 21.1896C34.9908 20.4923 35.9294 19.7838 36.8568 19.0752L36.9017 17.6014C36.9017 17.0345 36.9017 16.4677 36.9017 15.9008H36.9354C36.8905 13.4577 36.8736 10.8502 36.8905 8.53183C36.8624 8.22573 36.8455 7.90834 36.8343 7.58524V6.73497H34.9459C34.2714 6.73497 33.597 6.73497 32.9451 6.80299C32.1582 6.84267 31.3995 6.80299 30.5677 6.80299C30.6408 6.80299 30.6183 6.80296 30.6183 6.76895C27.7295 7.00135 25.1329 6.87097 22.1879 6.83129C19.5745 6.76327 16.9443 6.871 14.3758 6.71795L14.0105 6.79164C13.5754 6.77154 13.1393 6.78668 12.7066 6.83697C12.3975 6.83697 12.094 6.83697 11.7849 6.83697H11.3353H11.0599V7.03535V7.35282C11.0648 7.56784 11.0873 7.78209 11.1273 7.99335C11.1273 9.98865 11.2116 11.9613 11.161 13.9225C11.2229 13.9792 11.2116 14.1209 11.251 14.2683C11.1611 14.4724 11.251 14.9372 11.161 15.0676C11.23 15.6183 11.2563 16.1736 11.2397 16.7285C11.2397 16.7795 11.2397 16.6434 11.1835 16.7285C11.1273 17.0006 11.2622 16.7908 11.2341 17.0572L11.1948 17.0062C11.1105 17.369 11.2735 17.6977 11.2229 18.0945C11.1779 17.9755 11.1723 18.1455 11.1273 18.0945C11.2017 16.8607 11.1772 15.6229 11.0543 14.3931C11.088 14.3931 11.1161 14.393 11.1329 14.3307C11.0543 12.9192 11.0318 11.4398 11.0037 10.051C11.0037 10.1134 10.9306 10.051 10.9194 9.9603C10.9355 9.84371 10.9355 9.72544 10.9194 9.60885C10.9005 9.65229 10.8779 9.694 10.8519 9.73354L10.8407 9.71659ZM28.3758 25.7583L28.5219 25.6506L28.3533 25.747L28.3758 25.7583ZM30.7644 23.9501C30.4047 24.1938 30.0563 24.4263 29.7247 24.67C29.8596 24.5793 29.9888 24.4942 30.1237 24.4206L30.3654 24.2505L30.7644 23.9501ZM29.5729 24.7833L29.483 24.8514L29.5729 24.7833ZM8.58137 10.6122C8.58137 10.5782 8.58137 10.5498 8.58137 10.5158C8.17231 10.5552 7.76143 10.5723 7.35054 10.5669L6.42319 10.5328C6.13655 10.5328 5.70381 10.5328 5.63075 10.4932H5.58578C5.58201 10.563 5.58201 10.633 5.58578 10.7029V11.9896C5.59549 12.5579 5.56545 13.1262 5.49587 13.6902L5.57453 13.8489C5.5548 14.0387 5.56812 14.2305 5.61387 14.4157C5.63932 14.6531 5.63932 14.8925 5.61387 15.1299L8.54202 17.3577C8.54202 16.7568 8.59261 16.1559 8.64881 15.5494V13.0893C8.56123 12.2818 8.54241 11.4682 8.59259 10.6575L8.58137 10.6122ZM5.58578 19.4267C5.61578 19.314 5.62904 19.1974 5.62512 19.0808C5.61189 18.9695 5.58933 18.8596 5.55768 18.7521V18.8485C5.58016 19.0979 5.58579 19.2906 5.59703 19.472L5.58578 19.4267ZM5.58578 18.293H5.55206V18.6954C5.55206 18.6954 5.597 18.6954 5.60825 18.6954C5.61387 18.5764 5.60827 18.4573 5.59703 18.344L5.58578 18.293ZM16.7307 26.5349C16.9217 26.7001 17.1225 26.8535 17.3321 26.9941L16.7307 26.5349ZM17.5456 27.1754L17.7704 27.3228L17.5906 27.1868L17.5456 27.1754ZM18.8495 28.1448C19.1474 28.3942 19.4116 28.6379 19.715 28.8646L19.2205 28.4282L18.8495 28.1448ZM25.2735 31.217C26.3558 30.4656 27.397 29.6557 28.3927 28.7909C27.8307 29.1934 27.2686 29.6015 26.7066 30.0606C26.7965 29.9813 26.7628 29.9984 26.7572 29.9813L25.4533 31.0583L25.2735 31.217ZM28.6456 28.5869C28.6456 28.5869 28.6849 28.5869 28.7355 28.5869L29.691 27.7989C29.3706 28.1107 29.0221 28.3942 28.7018 28.6379L28.6456 28.5869ZM30.5508 27.1017L30.6408 27.028L30.5508 27.1017ZM41.3248 10.2664C40.7011 10.3526 40.0715 10.3886 39.4421 10.3741H39.3971C39.3971 10.5895 39.3971 10.7992 39.3971 11.0146C39.3634 12.5734 39.3971 14.1436 39.3971 15.7025C39.3971 16.1786 39.3971 16.6491 39.3971 17.1252L39.7062 16.8928L42.4264 14.8465V14.5064C42.255 13.6382 42.255 12.7444 42.4264 11.8762V10.9183L42.387 10.6632C42.376 10.5501 42.376 10.4362 42.387 10.3231C42.3235 10.3161 42.2612 10.3009 42.2016 10.2778H42.0667L41.3248 10.2664ZM26.1502 6.60461H26.0434H26.1502C26.1502 6.60461 26.1839 6.66694 26.1839 6.65561L26.1502 6.60461ZM25.813 6.60461H24.4866C24.9349 6.69017 25.3934 6.70735 25.8467 6.65561L25.813 6.60461ZM23.6267 6.60461H23.4862H23.6267ZM23.2783 6.60461H22.8006C22.969 6.63796 23.1403 6.65502 23.312 6.65561L23.2783 6.60461ZM10.8182 8.57722V8.63389C10.8209 8.62081 10.8209 8.60726 10.8182 8.59418C10.8182 8.59418 10.8182 8.67926 10.8576 8.65092C10.8535 8.55775 10.8346 8.4658 10.8014 8.37877C10.8014 8.37877 10.8014 8.41284 10.8295 8.44119C10.8295 7.96503 10.8014 7.50584 10.7845 7.04102L10.8182 8.57722ZM7.24375 10.2778H7.18753L7.23813 10.3061C7.23813 10.3061 7.27747 10.3287 7.27747 10.3174L7.24375 10.2778ZM7.08637 10.2778H6.49625C6.69327 10.3639 6.91391 10.3779 7.12009 10.3174L7.08637 10.2778ZM6.11408 10.2778H6.05227H6.11408ZM5.94548 10.2778H5.77688C5.8401 10.3074 5.90956 10.321 5.9792 10.3174L5.94548 10.2778ZM44.6239 9.71092V9.88093C44.6452 9.8307 44.6566 9.77686 44.6576 9.72226L44.6239 9.71092ZM44.8656 19.1149C44.857 19.0251 44.842 18.9361 44.8206 18.8485C44.8206 19.0412 44.8206 19.2283 44.8206 19.4153V19.489C44.8688 19.374 44.8954 19.251 44.8993 19.1262L44.8656 19.1149ZM44.7981 17.9812C44.7981 18.2306 44.7981 18.4687 44.7981 18.7011C44.8052 18.7042 44.8129 18.7058 44.8206 18.7058C44.8284 18.7058 44.836 18.7042 44.8431 18.7011C44.8656 18.463 44.8487 18.2306 44.8319 17.9982L44.7981 17.9812ZM44.6408 9.60885C44.6376 9.58439 44.6376 9.55962 44.6408 9.53516V9.59751V9.60885ZM44.4609 8.58857C44.562 8.76053 44.6181 8.95559 44.6239 9.15542C44.6267 9.1139 44.6267 9.07218 44.6239 9.03066C44.6404 8.95457 44.6371 8.87546 44.6145 8.801C44.5919 8.72654 44.5506 8.65923 44.4946 8.60552L44.4609 8.58857ZM44.3991 8.44686V8.48651V8.44686ZM39.161 6.63291V7.98768C39.2309 7.54523 39.2422 7.09539 39.1948 6.64993L39.161 6.63291ZM39.1891 6.2248H39.161V6.34949L39.1891 6.2248ZM44.6576 26.2515C44.6914 26.2118 44.6914 26.2345 44.6914 26.2685L44.6576 26.2515ZM11.0655 18.5764C11.0655 18.5764 11.0655 18.5764 11.0262 18.5764L11.1892 18.9788C11.3184 18.8428 11.0318 18.7067 11.0992 18.5934L11.0655 18.5764ZM11.0655 18.4573C11.0797 18.4128 11.081 18.365 11.069 18.3198C11.057 18.2745 11.0324 18.2338 10.9981 18.2023C11.1105 18.2703 11.0318 18.5084 11.1161 18.4743L11.0655 18.4573ZM10.8351 8.62822C10.8351 8.62822 10.8857 8.62824 10.8857 8.64524L10.8351 8.62822ZM23.9133 32.1183C23.9669 32.1006 24.018 32.0759 24.0651 32.0446C23.9956 32.0695 23.9242 32.0885 23.8515 32.1013L23.9133 32.1183ZM32.3887 12.4204L32.4505 12.358L32.3606 12.3978L32.3887 12.4204ZM32.7596 12.205C32.6975 12.2818 32.6278 12.3521 32.5516 12.4148C32.709 12.4828 32.7315 12.1823 32.8102 12.222L32.7596 12.205ZM32.8327 12.205C32.9338 12.205 32.9394 12.1143 32.9451 12.086C32.99 12.171 32.8327 12.1426 32.8832 12.2163L32.8327 12.205ZM14.196 11.1337C14.1608 10.9778 14.1575 10.8164 14.1862 10.6592C14.2148 10.502 14.2748 10.3523 14.3626 10.2192C14.4504 10.0861 14.5641 9.97246 14.6968 9.88508C14.8295 9.7977 14.9784 9.73845 15.1345 9.71092C15.4265 9.69124 15.7194 9.69124 16.0113 9.71092C16.933 9.54653 17.9671 9.71092 18.9226 9.5692C19.3104 9.52953 19.6813 9.5692 20.0916 9.5692C20.0523 9.5692 20.0916 9.56917 20.0916 9.60318C21.4685 9.44047 22.8582 9.41959 24.2393 9.54083C25.5207 9.60319 26.8134 9.49552 28.0723 9.64857L28.2522 9.57488C28.4668 9.59496 28.6832 9.5796 28.8929 9.52949C29.4549 9.4728 29.972 9.6882 30.4272 9.52949C30.9105 9.52949 31.3995 9.52952 31.8772 9.49551C32.1334 9.47331 32.391 9.47331 32.6472 9.49551C32.943 9.54689 33.2115 9.70137 33.4059 9.93199C33.4734 9.93199 33.5239 9.98865 33.6082 10.0397C33.6082 10.1927 33.805 10.4251 33.7319 10.5328C33.8132 10.6894 33.8556 10.8635 33.8556 11.0402C33.8556 11.2169 33.8132 11.3909 33.7319 11.5475C33.7319 11.5475 33.7319 11.4908 33.6701 11.5475C33.6083 11.6042 33.7263 11.6212 33.6139 11.7459V11.7006C33.434 11.8253 33.3947 12.086 33.1418 12.1767C33.1811 12.0973 33.0912 12.1483 33.0968 12.0916C33.2628 12.0092 33.4097 11.8924 33.5278 11.7488C33.646 11.6052 33.7327 11.4381 33.7825 11.2584C33.8334 11.0818 33.8379 10.8949 33.7956 10.716C33.7532 10.5371 33.6654 10.3724 33.5408 10.238C33.5801 10.238 33.597 10.238 33.5914 10.1644C33.4687 9.99738 33.3107 9.85993 33.129 9.76191C32.9473 9.6639 32.7463 9.60775 32.5404 9.59751L31.495 9.63722C31.5231 9.63722 31.4951 9.71093 31.4501 9.72226C31.3377 9.64291 30.9836 9.81296 30.8038 9.72226C30.8038 9.72226 30.8431 9.72223 30.8038 9.68255C30.7644 9.64287 30.7082 9.71654 30.6689 9.73922L29.972 9.78461H32.383C32.6812 9.77935 32.9692 9.89374 33.1836 10.1026C33.3981 10.3115 33.5216 10.5978 33.5268 10.8984C33.532 11.1991 33.4186 11.4896 33.2115 11.7059C33.0044 11.9222 32.7205 12.0467 32.4224 12.052C32.4139 12.106 32.4008 12.159 32.383 12.2107C32.383 12.307 32.192 12.3184 32.147 12.2957C32.3044 12.2447 32.147 12.1597 32.192 12.1597C32.2369 12.1597 32.1919 12.069 32.1301 12.0577H31.5119C31.4557 12.1144 31.3939 12.1767 31.3433 12.1257C31.3346 12.1114 31.3232 12.099 31.3097 12.0892C31.2962 12.0795 31.2808 12.0726 31.2646 12.0689H31.1747C31.0567 12.0689 30.9049 12.205 30.7757 12.1143V12.1597C30.5051 12.1634 30.2351 12.1329 29.972 12.0689H25.414C24.4587 12.2419 23.4805 12.2419 22.5252 12.0689H21.4854C21.1591 12.1368 20.8226 12.1368 20.4963 12.0689H20.3501H19.597C18.9033 12.1523 18.2048 12.1883 17.5063 12.1767C17.0376 12.1947 16.5682 12.1814 16.1012 12.137C15.8652 12.137 15.6348 12.137 15.3987 12.103C15.1547 12.1073 14.9134 12.0508 14.6962 11.9386V11.9103C14.453 11.7242 14.2916 11.4495 14.2466 11.145L14.196 11.1337ZM23.6605 9.75624H23.8459C23.8006 9.75397 23.7553 9.7578 23.711 9.76759L23.6605 9.75624ZM23.5537 9.75624C23.5256 9.7589 23.4974 9.7589 23.4694 9.75624H23.5424H23.5537ZM22.4296 9.75624H23.0816C22.875 9.69947 22.6566 9.70341 22.4521 9.76759L22.4296 9.75624ZM22.261 9.75624H22.3228H22.261ZM32.4168 17.7942L32.4786 17.7317L32.3887 17.7715L32.4168 17.7942ZM32.5516 17.7601C32.6865 17.8395 32.709 17.5391 32.7877 17.5844C32.7877 17.5844 32.7877 17.556 32.7877 17.5504C32.7233 17.6235 32.6517 17.69 32.5741 17.7488L32.5516 17.7601ZM32.8608 17.5731C32.9619 17.5731 32.9675 17.488 32.9732 17.454C32.99 17.5163 32.8327 17.4937 32.8832 17.5617L32.8608 17.5731ZM14.2466 16.4904C14.2106 16.3341 14.2066 16.1721 14.2348 16.0142C14.263 15.8564 14.3229 15.7059 14.4108 15.5722C14.4986 15.4385 14.6126 15.3243 14.7458 15.2366C14.8789 15.1488 15.0284 15.0894 15.1851 15.0619C15.4999 15.0279 15.7472 15.0619 16.0619 15.0619C16.9836 14.9032 18.0177 15.0619 18.9732 14.9202C19.361 14.8862 19.7319 14.9202 20.1422 14.9202C20.1028 14.9202 20.1422 14.9202 20.1422 14.9542C21.5191 14.7915 22.9088 14.7707 24.2899 14.8919C25.5713 14.9543 26.864 14.8465 28.1229 14.9996L28.3027 14.9259C28.5173 14.946 28.7338 14.9307 28.9435 14.8806C29.5055 14.8182 30.0225 15.0336 30.4778 14.8806C30.9611 14.8806 31.4501 14.8805 31.9278 14.8465C32.1841 14.8271 32.4415 14.8271 32.6978 14.8465C32.9936 14.8979 33.2621 15.0524 33.4565 15.283C33.524 15.283 33.5745 15.3396 33.6588 15.3963C33.6588 15.5437 33.8555 15.7761 33.7825 15.8895C33.8637 16.045 33.9061 16.2182 33.9061 16.394C33.9061 16.5698 33.8637 16.7429 33.7825 16.8985C33.7825 16.8985 33.7825 16.8418 33.7207 16.8985C33.6588 16.9552 33.7769 16.9722 33.6645 17.1025V17.0515C33.4846 17.1763 33.4453 17.4427 33.1924 17.5277C33.2317 17.4483 33.1418 17.5277 33.1474 17.4483C33.3131 17.3641 33.4597 17.2461 33.5777 17.1016C33.6958 16.9572 33.7827 16.7896 33.8331 16.6094C33.8835 16.4327 33.8877 16.246 33.8453 16.0672C33.803 15.8884 33.7155 15.7237 33.5914 15.5891C33.6307 15.5891 33.6476 15.5608 33.642 15.5154C33.5192 15.3484 33.3613 15.211 33.1796 15.113C32.9979 15.015 32.7968 14.9588 32.591 14.9486L31.5456 14.9882C31.5737 15.0222 31.5456 15.0619 31.5007 15.0733C31.3883 14.9939 31.0342 15.164 30.8544 15.0733C30.8544 15.0733 30.8937 15.0732 30.8544 15.0392C30.815 15.0052 30.7588 15.0733 30.7195 15.096C30.6801 15.1186 30.7195 15.0959 30.7195 15.0619L30.0225 15.1073H32.4336C32.7318 15.102 33.0197 15.2164 33.2342 15.4253C33.4487 15.6342 33.5721 15.9205 33.5773 16.2211C33.5826 16.5218 33.4691 16.8122 33.262 17.0286C33.0549 17.2449 32.7711 17.3694 32.473 17.3747C32.4638 17.4267 32.4507 17.4778 32.4336 17.5277C32.4336 17.624 32.2425 17.6354 32.1976 17.6127C32.3549 17.5674 32.1976 17.4767 32.2425 17.4767C32.2875 17.4767 32.2425 17.386 32.1807 17.3747H31.5625C31.5063 17.437 31.4445 17.4937 31.3939 17.4427C31.3765 17.4125 31.3484 17.3901 31.3152 17.3803H31.2253C31.1072 17.3803 30.9555 17.5164 30.8263 17.4314V17.471C30.5555 17.4776 30.2851 17.4471 30.0225 17.3803H25.4645C24.5092 17.5532 23.531 17.5532 22.5757 17.3803H21.536C21.2097 17.4481 20.8731 17.4481 20.5468 17.3803H20.4007H19.6476C18.9541 17.4665 18.2554 17.5025 17.5569 17.488C17.0883 17.5051 16.6191 17.4937 16.1518 17.454C15.9158 17.454 15.6853 17.42 15.4493 17.4143C15.205 17.4216 14.9629 17.365 14.7467 17.2499C14.6171 17.1636 14.506 17.052 14.4201 16.9215C14.3342 16.791 14.2752 16.6444 14.2466 16.4904ZM23.6042 15.1073H23.52H23.593H23.6042ZM22.4802 15.1073H23.0816C22.8755 15.0487 22.6571 15.0506 22.4521 15.1129L22.4802 15.1073ZM22.3116 15.1073H22.3734H22.3116Z" fill="black"/>
</g>
</svg>
