<svg width="49" height="48" viewBox="0 0 49 48" fill="none" xmlns="http://www.w3.org/2000/svg">
<path d="M27.3408 13.934L27.4644 13.8926L27.3769 13.9496L27.3408 13.934ZM27.8866 13.6852C27.8866 13.6852 27.8866 13.6852 27.8454 13.6852C27.7676 13.7821 27.6735 13.8646 27.5674 13.9288C27.7579 13.9651 27.7836 13.6749 27.8866 13.6852ZM27.9793 13.6542C28.0184 13.6459 28.0535 13.6244 28.0788 13.5933C28.104 13.5622 28.118 13.5233 28.1183 13.4831C28.1183 13.5608 27.9175 13.6023 27.9793 13.6542ZM0.751416 12.4568C0.730544 12.6841 0.781559 12.9122 0.897143 13.1086C1.01273 13.305 1.18697 13.4597 1.39504 13.5505C1.59646 13.6289 1.81373 13.6574 2.02839 13.6334H2.65655V13.6645C3.98499 13.5971 5.2671 13.7682 6.59554 13.7164C7.54296 13.7682 8.53155 13.6593 9.50986 13.623H10.7765C11.2327 13.6849 11.6951 13.6849 12.1513 13.623H13.6136C14.9529 13.7811 16.306 13.7811 17.6453 13.623H24.0146C24.3858 13.6817 24.7612 13.7095 25.137 13.706V13.6645C25.3173 13.7474 25.5284 13.623 25.6983 13.623H25.8013C25.8437 13.6271 25.8836 13.6453 25.9145 13.6748H25.8836C25.9609 13.7215 26.0433 13.6645 26.1257 13.6126H26.9804C27.0041 13.6126 27.0269 13.6218 27.0442 13.6381C27.0614 13.6545 27.0717 13.677 27.0731 13.7008C26.9752 13.7008 27.2275 13.7837 27.0061 13.8252C27.0679 13.8511 27.3408 13.8407 27.3408 13.7474C27.3623 13.7019 27.3812 13.6552 27.3975 13.6075C27.5327 13.6037 27.6659 13.5732 27.7894 13.5177C27.9129 13.4621 28.0244 13.3826 28.1173 13.2837C28.2103 13.1848 28.2831 13.0684 28.3314 12.9412C28.3797 12.814 28.4027 12.6785 28.3989 12.5423C28.3952 12.4062 28.3649 12.2721 28.3097 12.1478C28.2545 12.0234 28.1755 11.9112 28.0773 11.8176C27.979 11.724 27.8634 11.6508 27.7371 11.6022C27.6107 11.5535 27.4761 11.5304 27.3408 11.5341H22.2639L23.2422 11.4875C23.2216 11.4927 23.1959 11.5186 23.1959 11.5186C23.2555 11.4891 23.3202 11.4715 23.3864 11.4667C23.4018 11.4978 23.3452 11.4979 23.3452 11.4979C23.5975 11.5808 24.0918 11.4253 24.2514 11.4979C24.3132 11.4875 24.3544 11.446 24.3132 11.4149C25.2555 11.3942 26.2647 11.3735 27.2224 11.3009C27.2636 11.3113 27.2636 11.3372 27.2636 11.3735C27.512 11.3246 27.7696 11.3621 27.9941 11.4798C28.2186 11.5975 28.3967 11.7885 28.4993 12.0214C28.6059 12.2611 28.6344 12.5285 28.5808 12.7855C28.5272 13.0425 28.3941 13.2758 28.2007 13.452C28.2007 13.5142 28.3088 13.4105 28.2625 13.5142C28.556 13.2809 28.5405 12.944 28.6384 12.6589L28.6744 12.7056C28.7105 12.4723 28.5869 12.6538 28.6281 12.4205C28.6435 12.3272 28.6744 12.4412 28.6744 12.3946C28.6544 12.149 28.5573 11.9162 28.3972 11.7298C28.2371 11.5435 28.0222 11.4132 27.7836 11.3579C27.7033 11.2806 27.5961 11.2378 27.485 11.2387C27.3749 11.2445 27.2647 11.2287 27.1606 11.1921C27.0628 11.2232 26.965 11.218 26.9289 11.275C25.6056 11.2283 24.2514 11.3061 22.8921 11.3061C22.2588 11.446 21.5019 11.2543 20.745 11.3061C20.4484 11.3496 20.1483 11.3634 19.849 11.3475L19.6019 11.4149C17.8461 11.2698 16.0336 11.3735 14.2418 11.3113C12.3083 11.203 10.3699 11.2221 8.43886 11.3683C8.44401 11.3372 8.42857 11.3372 8.48006 11.3372C7.90337 11.3631 7.36274 11.3009 6.84784 11.3372C5.5091 11.4616 4.06221 11.3164 2.77497 11.4616H2.1777C1.96934 11.4456 1.7598 11.4579 1.55466 11.4979C1.3385 11.5541 1.14508 11.6766 1.00117 11.8484C0.857248 12.0202 0.769956 12.2328 0.751416 12.4568ZM13.4694 11.5186H13.7269C13.6416 11.5065 13.5551 11.5048 13.4694 11.5134V11.5186ZM11.7033 11.5186H12.6147C12.3144 11.4547 12.0043 11.453 11.7033 11.5134V11.5186ZM16.945 21.398L17.0016 21.341L16.9244 21.3772L16.945 21.398ZM17.2745 21.2062C17.2745 21.2062 17.2745 21.2062 17.2745 21.1751C17.2181 21.244 17.1561 21.3081 17.0892 21.3669C17.187 21.4394 17.2076 21.1647 17.2745 21.2062ZM17.3415 21.2062C17.4342 21.2062 17.4342 21.1285 17.4393 21.0974C17.4599 21.1596 17.3003 21.1336 17.3415 21.201V21.2062ZM18.052 20.6309V20.6257C18.1087 20.5894 18.0984 20.6931 18.0984 20.6931C18.1787 20.5583 18.2261 20.4063 18.2369 20.2496C18.2476 20.0928 18.2213 19.9357 18.1602 19.7912C18.2322 19.6979 18.1396 19.4076 18.0726 19.3506C18.0057 19.2936 17.9593 19.2365 17.9027 19.2365C17.7404 19.0241 17.5119 18.8726 17.2539 18.8063C17.1286 18.77 16.9979 18.756 16.8678 18.7649H16.5485C16.1212 18.796 15.6886 18.796 15.2561 18.796C14.8493 18.9359 14.3654 18.7389 13.8865 18.796C13.6996 18.8416 13.5064 18.8556 13.315 18.8375L13.1554 18.9048C12.0329 18.7648 10.8795 18.8634 9.74157 18.8063C8.50892 18.6954 7.26814 18.7145 6.03944 18.8633C6.03944 18.8322 6.0034 18.8323 6.03944 18.8323C5.68416 18.8323 5.34948 18.8012 5.00964 18.8323C4.17551 18.9619 3.25384 18.8167 2.43515 18.9619C2.1674 18.9619 1.93568 18.9308 1.65249 18.9619C1.37116 19.0118 1.1201 19.1697 0.952234 19.4024C0.872622 19.5177 0.816373 19.6477 0.78674 19.785C0.757107 19.9222 0.754672 20.064 0.779543 20.2021C0.804414 20.3403 0.856104 20.4722 0.931681 20.5903C1.00726 20.7083 1.10525 20.8102 1.21999 20.89C1.60889 21.067 2.03495 21.1453 2.46089 21.1181C2.87864 21.1544 3.29822 21.1648 3.71724 21.1492C4.3384 21.1625 4.95968 21.1296 5.57602 21.0507H6.37926C6.66952 21.1127 6.96949 21.1127 7.25975 21.0507H8.19172C9.04264 21.2094 9.91529 21.2094 10.7662 21.0507H14.7618C14.9954 21.112 15.2363 21.1399 15.4776 21.1336V21.0974C15.5908 21.1751 15.7247 21.0507 15.8328 21.0507H15.9101C15.9405 21.0597 15.9663 21.0801 15.9821 21.1077C16.0285 21.1543 16.0851 21.0973 16.1366 21.0455H16.6824C16.739 21.0559 16.7802 21.1388 16.739 21.1388C16.6978 21.1388 16.8369 21.2218 16.6979 21.2632C16.7391 21.284 16.909 21.2373 16.9141 21.1855C16.9193 21.1336 16.9502 21.087 16.9502 21.0455C17.2233 21.0407 17.4833 20.9269 17.673 20.7291C17.8628 20.5313 17.9667 20.2657 17.9619 19.9907C17.9571 19.7158 17.8441 19.454 17.6476 19.263C17.451 19.072 17.1872 18.9674 16.9141 18.9722H14.8545L15.4776 18.9307C15.4467 18.9307 15.4106 18.9463 15.4467 18.9307C15.4827 18.9152 15.529 18.8426 15.5651 18.8789C15.6011 18.9152 15.5651 18.9152 15.5651 18.9152C15.7247 18.9981 16.0388 18.8426 16.1418 18.9152C16.183 18.9048 16.183 18.8686 16.183 18.8375C16.4919 18.8375 16.7699 18.8375 17.1252 18.8375C17.3059 18.8602 17.4797 18.9213 17.6351 19.017C17.7905 19.1126 17.9238 19.2405 18.0263 19.3921C18.0366 19.4543 18.0109 19.4543 17.98 19.4543C18.0853 19.58 18.1567 19.7309 18.1874 19.8925C18.2181 20.0541 18.2069 20.2209 18.155 20.3769C18.1053 20.5355 18.0233 20.6819 17.9143 20.8068C17.8052 20.9318 17.6715 21.0325 17.5217 21.1026C17.5165 21.1751 17.6041 21.1077 17.5629 21.1751C17.7946 21.1077 17.8306 20.8693 17.9954 20.7605V20.8071C18.1035 20.6982 17.9336 20.7294 18.052 20.6309ZM8.12478 18.9463H8.70662C8.51571 18.8934 8.3137 18.897 8.12478 18.9567V18.9463ZM32.4589 44.4171C32.5276 44.4001 32.5947 44.3776 32.6597 44.3497C32.5664 44.3724 32.4718 44.3897 32.3765 44.4015L32.4589 44.4171ZM32.876 44.3549C33.2519 44.3549 33.3909 44.0335 33.6278 44.0128C33.5917 44.0128 33.6278 44.0128 33.5608 44.0128C33.3435 44.1508 33.1143 44.2688 32.876 44.3653V44.3549ZM33.8337 43.9454C33.9915 43.9105 34.1319 43.8205 34.2302 43.6914C34.1684 43.8003 33.7513 43.9091 33.8337 43.9558V43.9454ZM47.4476 39.5966V39.607C47.4868 39.3402 47.44 39.0678 47.3139 38.8299C47.1879 38.592 46.9893 38.401 46.7474 38.2852C46.6302 38.223 46.5029 38.1827 46.3715 38.166L46.0317 38.1245C45.8102 38.0986 45.5888 38.0675 45.3623 38.0675C44.9195 38.0209 44.4715 38.0208 44.0287 38.0208C42.3707 38.1712 40.3472 38.2282 38.4678 38.9228C37.8448 39.1612 37.0003 39.5292 36.3001 39.8506L35.7491 40.2083C35.157 40.4933 34.5803 40.8095 34.0088 41.1257C33.7204 41.2864 33.4321 41.4418 33.1386 41.587C32.9944 41.6595 32.8451 41.7269 32.7009 41.7839C32.6522 41.8042 32.6024 41.8216 32.5516 41.8358C32.5104 41.8358 32.428 41.8721 32.428 41.8358C32.4063 41.7849 32.3941 41.7304 32.392 41.6751V40.768C32.3817 40.3534 32.3611 39.9284 32.3199 39.5033C32.2379 38.6525 32.0458 37.816 31.7484 37.0153C31.4322 36.2241 31.0533 35.4596 30.6156 34.7295C30.185 33.9759 29.607 33.3181 28.9164 32.7961C28.1295 32.2306 27.1728 31.956 26.208 32.0186C25.2904 32.0996 24.4014 32.3808 23.6026 32.8427C22.8335 33.2712 22.097 33.7563 21.3989 34.2941L20.3691 35.056C20.2043 35.1804 20.0293 35.2997 19.8542 35.4085L19.6894 35.507C19.66 35.5238 19.6289 35.5377 19.5967 35.5485C19.5738 35.4945 19.5632 35.436 19.5659 35.3774C19.5659 35.2219 19.5659 35.0405 19.5659 34.859C19.5968 34.4962 19.6431 34.1282 19.6997 33.755C19.8078 33.0138 19.952 32.2622 20.0859 31.4951C20.0859 31.5054 20.0859 31.464 20.0859 31.5988C20.3588 30.1267 20.745 28.7894 20.6935 27.3329C20.6665 26.8724 20.5728 26.4184 20.4154 25.9852C20.2455 25.5386 19.9459 25.1538 19.5555 24.8812C19.1626 24.6143 18.701 24.4685 18.2271 24.4613C17.7633 24.4552 17.3018 24.5287 16.8626 24.679C16.0118 24.9823 15.2035 25.3952 14.458 25.9074C13.7379 26.3791 13.0498 26.8986 12.3984 27.4624C10.7102 28.7944 9.12019 30.2478 7.64077 31.8112C6.1265 33.4203 4.74863 35.1542 3.52158 36.9946C2.56901 38.4511 1.68341 39.918 0.869864 41.4211C0.758556 41.6228 0.712122 41.8542 0.737023 42.0835C0.761924 42.3129 0.856912 42.5287 1.00887 42.7014C1.12662 42.832 1.27296 42.9331 1.4363 42.9968C1.59964 43.0605 1.77549 43.085 1.94988 43.0684C2.12428 43.0518 2.29244 42.9946 2.44102 42.9012C2.5896 42.8078 2.7145 42.6808 2.80586 42.5304L3.10966 41.9602C3.31047 41.5766 3.52159 41.2034 3.72755 40.8198C4.99684 38.6365 6.43437 36.5568 8.02695 34.5999C8.63109 33.8984 9.25757 33.2212 9.90634 32.5681C10.0402 32.4385 10.1689 32.3037 10.3028 32.1793C11.1524 31.4744 12.0741 30.5776 13.0163 29.7327C13.9403 28.9403 14.9175 28.2129 15.9409 27.5558C16.3797 27.305 16.8377 27.0901 17.3106 26.913C17.5498 26.8194 17.8013 26.7618 18.0572 26.742C18.1653 26.7317 18.2683 26.7576 18.3043 26.856C18.3421 26.9645 18.3629 27.0781 18.3661 27.193C18.3672 27.7143 18.3223 28.2346 18.2323 28.748C18.1499 29.2663 18.0572 29.7846 17.9593 30.303C17.7585 31.3396 17.532 32.3763 17.3878 33.4129C17.3363 33.8121 17.2642 34.2163 17.2642 34.6258C17.1561 36.0201 17.3569 37.1501 18.294 37.7358C19.5916 38.5496 21.0487 37.4559 22.5625 36.3363C24.0763 35.2167 25.791 33.9416 27.1348 34.4185C28.0926 34.745 28.7259 35.9009 29.1944 36.8183C29.6081 37.7076 29.8775 38.6579 29.9926 39.6329L30.0235 39.5551C30.036 40.0465 30.0807 40.5365 30.1573 41.022C30.1573 41.1309 30.1573 41.2345 30.1573 41.3434C30.1594 41.4397 30.1472 41.5358 30.1213 41.6285V41.5507C30.1056 41.7628 30.1503 41.9749 30.25 42.1624C30.3175 42.7025 30.5686 43.2024 30.9605 43.5774C31.032 43.6472 31.1115 43.7081 31.1974 43.7588L31.254 43.8003C31.3004 43.8314 31.3467 43.878 31.3931 43.878C31.5475 43.9609 31.6608 44.0284 31.6608 44.1009C31.4085 44.0024 32.0418 44.3238 31.4446 44.1476C31.6163 44.2371 31.8032 44.2933 31.9955 44.3134C32.2221 44.3445 32.3405 44.3238 32.3765 44.2668C32.4126 44.2097 32.5259 44.1631 32.5259 44.1164C33.4012 44.0594 34.3023 43.5359 35.3321 42.9502C36.6297 42.1554 38.0113 41.5087 39.4513 41.022C41.599 40.363 43.8615 40.1722 46.0883 40.4622C46.2235 40.4786 46.3606 40.4679 46.4918 40.4309C46.6229 40.3939 46.7456 40.3312 46.8527 40.2465C46.9598 40.1618 47.0492 40.0567 47.116 39.9372C47.1827 39.8177 47.2255 39.6861 47.2417 39.55C47.2579 39.4138 47.2473 39.2758 47.2106 39.1437C47.1738 39.0117 47.1116 38.8883 47.0274 38.7805C46.9433 38.6727 46.8389 38.5826 46.7201 38.5154C46.6014 38.4482 46.4707 38.4052 46.3355 38.3889C45.0815 38.235 43.8155 38.2072 42.5561 38.306C43.3567 38.2253 44.1617 38.1993 44.9658 38.2282C44.9195 38.2282 44.904 38.2282 44.8525 38.2282C45.0152 38.2121 45.179 38.2121 45.3417 38.2282C45.3881 38.2282 45.2954 38.2282 45.2387 38.2282C45.5683 38.3008 46.0471 38.3111 46.5054 38.3785C46.6892 38.4195 46.8566 38.515 46.986 38.6526C47.1154 38.7903 47.2009 38.9638 47.2314 39.1508C47.2829 39.3115 47.3086 39.4256 47.3395 39.3116C47.3523 39.4842 47.3263 39.6574 47.2634 39.8185C47.2004 39.9796 47.1022 40.1243 46.976 40.2419C46.8498 40.3594 46.6989 40.4468 46.5345 40.4975C46.3701 40.5483 46.1965 40.561 46.0265 40.5348C45.4005 40.4681 44.7715 40.4352 44.142 40.4363C42.8856 40.4449 41.6358 40.6192 40.4244 40.9546C40.3008 40.9702 40.3008 40.9495 40.3008 40.9132C39.2819 41.247 38.2874 41.6523 37.3247 42.1261C36.3413 42.5977 35.4041 43.1627 34.4207 43.681C34.364 43.7536 34.6421 43.6137 34.467 43.7536C35.1107 43.4582 35.5483 43.0228 36.1405 42.7792L36.089 42.8517C36.5009 42.6496 36.1198 42.7222 36.5627 42.5356C36.7429 42.4474 36.5472 42.577 36.6244 42.5356C37.474 42.0587 38.406 41.6751 39.2401 41.2915C39.477 41.2967 40.2339 40.9961 40.6046 40.9961C40.7974 40.9405 40.9865 40.873 41.171 40.794C42.0093 40.6434 42.8581 40.5602 43.7095 40.5451C44.1368 40.514 44.5693 40.5451 44.9967 40.5451C45.213 40.5555 45.4292 40.5918 45.6403 40.5918C45.8739 40.6259 46.1099 40.6398 46.3457 40.6333C46.6158 40.603 46.869 40.4857 47.0675 40.2989C47.2661 40.1121 47.3994 39.8658 47.4476 39.5966ZM27.6961 32.34C27.4824 32.26 27.259 32.2094 27.0319 32.1896C27.2582 32.2224 27.4808 32.278 27.6961 32.3555V32.34ZM22.6861 33.615C23.3183 33.1746 23.9969 32.8061 24.7097 32.5162C24.5604 32.568 24.4162 32.6199 24.2772 32.6769C23.7018 32.9117 23.1653 33.2333 22.6861 33.6306V33.615ZM30.8473 28.525H30.4868C30.4868 28.1 30.4868 27.6853 30.4868 27.2759C30.4868 27.3329 30.5435 27.3173 30.5538 27.2759C30.3839 26.9908 30.6104 26.6694 30.5538 26.1148C30.5538 26.0163 30.6053 26.1148 30.6207 26.1148C30.6551 25.3508 30.7325 24.5893 30.8524 23.8341C30.8524 23.8341 30.8524 23.8911 30.8524 23.8963C30.8524 23.6994 30.8524 23.4973 30.8833 23.3003V23.4143C31.3725 20.3821 32.0316 17.3084 33.36 14.6027C33.2931 14.7167 33.36 14.7478 33.36 14.7633L33.4321 14.5249H33.4681C33.5557 14.1362 33.8389 13.8822 33.9521 13.5712C33.9521 13.6282 33.9521 13.6282 33.9521 13.6386C34.0912 13.3172 34.3434 13.084 34.5082 12.773C34.4773 12.8196 34.5082 12.8299 34.5082 12.8144C34.5576 12.5498 34.623 12.2884 34.7039 12.0318C35.2703 11.2491 35.9448 10.4768 36.6142 9.68891C37.2835 8.90104 37.9889 8.2013 38.6326 7.55857C38.7201 7.61041 38.9878 7.2579 39.1166 7.2579C39.3586 7.04539 39.6315 6.80176 39.925 6.59961C40.2185 6.39746 40.4707 6.21605 40.6304 6.08128C40.8471 5.9446 41.0957 5.86777 41.3512 5.85843C41.8453 5.48153 42.3852 5.16971 42.9577 4.9306L42.9165 4.97211C43.3961 4.73261 43.9052 4.55831 44.4303 4.45378C44.6878 4.30035 44.9675 4.18841 45.2593 4.12204C45.4241 4.06502 45.5682 4.04947 45.7742 3.99764C46.0677 3.91989 46.3457 3.84214 46.6444 3.73848L47.6742 3.5L46.6444 4.83734L46.2943 5.30897L46.0368 5.66665C46.0368 5.63555 45.9956 5.63555 45.9441 5.66665C45.9441 5.95173 45.3983 6.43896 45.4653 6.56854C45.0843 6.82253 45.2748 7.0506 44.9092 7.35123C44.9092 7.32013 44.9092 7.30459 44.9092 7.29422C44.7282 7.6071 44.5007 7.89027 44.2347 8.13391C44.4149 8.03025 44.0956 8.45528 44.0854 8.58486C43.6626 9.2824 43.3172 10.0246 43.0556 10.7981C42.9577 10.653 43.0864 11.0365 42.9886 11.0884L42.9371 11.1298C42.8959 11.2594 42.7929 11.4927 42.8753 11.6482L42.7981 11.9073C42.7875 11.9534 42.7875 12.0012 42.7981 12.0473C42.8016 12.1092 42.8231 12.1687 42.8599 12.2184C42.8599 12.2754 42.8599 12.2184 42.8599 12.3428C42.8873 12.3457 42.9149 12.3457 42.9423 12.3428C43.004 12.4153 43.0195 12.462 43.0144 12.4879C43.7816 12.6641 48.9202 14.188 38.4729 22.0148C37.4431 22.8078 36.4597 23.5698 35.4865 24.4665L35.5123 24.4198C34.9376 24.9128 34.4053 25.4538 33.9212 26.037V25.9645C33.4063 26.5295 32.9532 27.1204 32.4795 27.7424L32.428 27.7113L32.2787 27.9808V27.929C31.8977 28.4352 31.5683 28.9787 31.2952 29.5513V29.4269L31.2644 29.4995L31.1717 30.0178L31.0378 29.9764V30.0075L30.94 30.2252L30.976 29.9919V29.9556L30.8473 29.9193C30.8988 29.8053 30.9657 29.6965 31.0224 29.5825C31.0585 28.9711 31.1781 28.3676 31.3776 27.789C31.3776 27.8564 31.3776 27.846 31.3776 27.8771C31.3994 27.8252 31.4166 27.7714 31.4291 27.7164V27.6646C31.4755 27.4832 31.5115 27.2603 31.5475 27.0634V27.1308C31.5452 27.1049 31.5452 27.0789 31.5475 27.053C31.6162 26.6615 31.7285 26.2789 31.8822 25.9126C32.0161 25.5135 32.15 25.1196 32.2941 24.7412C32.2941 24.6842 32.2942 24.6272 32.3302 24.565L32.4229 24.4198V24.3628C32.289 24.3628 32.598 23.8808 32.598 23.6631V23.7719C32.9584 22.4916 33.8646 21.4083 34.3898 20.2732H34.431C34.8223 19.6408 35.0643 19.2054 35.5071 18.6094C34.5208 19.512 33.677 20.5607 33.0047 21.7194V21.6934C32.4023 22.8648 31.666 24.0985 31.46 25.3632C31.1279 26.3879 30.9221 27.4498 30.8473 28.525ZM42.69 11.9384C42.69 11.8711 42.69 11.7933 42.69 11.7052C42.69 11.6171 42.69 11.6638 42.69 11.643C42.679 11.7412 42.679 11.8403 42.69 11.9384ZM42.8342 10.9018C42.9062 10.85 42.8908 10.7308 42.8805 10.596C42.7678 10.905 42.6951 11.2272 42.6642 11.5549C42.6642 11.4564 42.7003 11.3787 42.7621 11.3787C42.8135 11.218 42.726 11.2543 42.7621 11.1713C42.829 10.964 42.8341 11.2179 42.8856 10.9484L42.8342 10.9018ZM43.1431 9.93251C43.1122 9.99471 43.0916 10.0569 43.0658 10.1191C43.1122 10.0569 43.1379 9.99989 43.1637 9.92732L43.1431 9.93251ZM42.5767 5.36598C42.2163 5.55776 41.8713 5.75993 41.5469 5.97245C43.2037 5.05708 44.9882 4.3983 46.8401 4.01833C46.8401 4.01833 45.5322 5.74437 44.3788 7.64665C44.7362 7.17884 45.0613 6.68703 45.352 6.17461C45.6146 5.83769 45.8669 5.49559 46.1346 5.13794L47.0769 3.86287C46.6496 3.96135 46.1398 4.10125 45.7536 4.19973C45.3674 4.29822 45.0431 4.43301 44.6826 4.54704C44.3222 4.66107 43.9824 4.80102 43.6528 4.93579L43.1379 5.13794L42.5767 5.36598ZM36.5678 10.0932C36.0556 10.6065 35.6218 11.1934 35.2806 11.8348C35.6918 11.2114 36.1389 10.6125 36.6193 10.0413L36.5678 10.0932ZM33.2931 15.5305C33.4836 15.0847 33.6844 14.6441 33.9058 14.2036C33.6849 14.6331 33.4872 15.0743 33.3136 15.5253L33.2931 15.5305ZM42.9423 11.5911C42.9423 11.5911 42.9423 11.5342 42.9423 11.5083V11.5911Z" fill="#C41A1F"/>
</svg>
