<svg width="817" height="136" viewBox="0 0 817 136" fill="none" xmlns="http://www.w3.org/2000/svg">
<path d="M31.9091 0.423999C34.3571 0.519998 36.7571 0.591997 39.1091 0.639996C41.5091 0.687998 43.9331 0.711999 46.3811 0.711999C48.7331 0.711999 51.0611 0.687998 53.3651 0.639996C55.6691 0.591997 57.9971 0.519998 60.3491 0.423999V11.872C59.8691 11.872 59.3411 11.944 58.7651 12.088C58.2371 12.184 57.7331 12.352 57.2531 12.592C56.7731 12.832 56.3891 13.168 56.1011 13.6C55.8131 14.032 55.6691 14.56 55.6691 15.184L62.0771 41.104L67.9091 15.328C68.0051 14.656 67.8851 14.104 67.5491 13.672C67.2611 13.24 66.8531 12.904 66.3251 12.664C65.7971 12.376 65.2211 12.184 64.5971 12.088C63.9731 11.944 63.3971 11.872 62.8691 11.872V0.423999C64.6931 0.423999 66.5171 0.519999 68.3411 0.711999C70.1651 0.855998 71.9891 0.927997 73.8131 0.927997C75.5411 0.927997 77.2451 0.855998 78.9251 0.711999C80.6531 0.519999 82.3811 0.423999 84.1091 0.423999V11.872C83.3891 11.92 82.6211 12.04 81.8051 12.232C80.9891 12.376 80.1971 12.616 79.4291 12.952C78.7091 13.288 78.0611 13.72 77.4851 14.248C76.9571 14.776 76.5731 15.448 76.3331 16.264L66.1091 55C62.8931 54.568 59.6531 54.352 56.3891 54.352C54.8531 54.352 53.3411 54.4 51.8531 54.496C50.3651 54.592 48.8531 54.736 47.3171 54.928L41.4851 32.032L35.8691 55C34.2371 54.808 32.6051 54.664 30.9731 54.568C29.3891 54.472 27.7811 54.424 26.1491 54.424C24.6131 54.424 23.1011 54.472 21.6131 54.568C20.1251 54.664 18.6131 54.784 17.0771 54.928L6.56506 16.264C6.18106 14.872 5.36506 13.816 4.11706 13.096C2.86906 12.376 1.57306 11.968 0.229063 11.872V0.423999C2.82106 0.423999 5.36506 0.519999 7.86106 0.711999C10.4051 0.855998 12.9731 0.927997 15.5651 0.927997C17.6291 0.927997 19.6931 0.855998 21.7571 0.711999C23.8211 0.519999 25.8851 0.423999 27.9491 0.423999H29.3891V11.872C28.9091 11.872 28.3811 11.944 27.8051 12.088C27.2771 12.184 26.7731 12.352 26.2931 12.592C25.8131 12.832 25.4051 13.144 25.0691 13.528C24.7811 13.912 24.6371 14.416 24.6371 15.04L31.8371 41.104L36.8051 16.264C36.8531 16.072 36.8771 15.784 36.8771 15.4C36.8771 14.728 36.7091 14.176 36.3731 13.744C36.0851 13.312 35.7011 12.976 35.2211 12.736C34.7411 12.448 34.1891 12.256 33.5651 12.16C32.9891 12.016 32.4371 11.92 31.9091 11.872V0.423999ZM86.9947 43.552C87.6667 43.504 88.3387 43.408 89.0107 43.264C89.6827 43.12 90.2827 42.904 90.8107 42.616C91.3387 42.28 91.7707 41.848 92.1067 41.32C92.4427 40.744 92.6107 40.024 92.6107 39.16V16.264C92.6107 15.4 92.4427 14.704 92.1067 14.176C91.7707 13.6 91.3387 13.168 90.8107 12.88C90.2827 12.544 89.6827 12.304 89.0107 12.16C88.3387 12.016 87.6667 11.92 86.9947 11.872V0.423999C89.4427 0.327997 91.8667 0.399996 94.2667 0.639996C96.7147 0.831996 99.1627 0.927997 101.611 0.927997C104.059 0.927997 106.483 0.855998 108.883 0.711999C111.283 0.519999 113.707 0.423999 116.155 0.423999V11.872C115.483 11.92 114.811 12.016 114.139 12.16C113.467 12.304 112.867 12.544 112.339 12.88C111.811 13.168 111.379 13.6 111.043 14.176C110.707 14.704 110.539 15.4 110.539 16.264V25.408H126.451V16.264C126.451 15.4 126.283 14.704 125.947 14.176C125.611 13.6 125.179 13.168 124.651 12.88C124.123 12.544 123.523 12.304 122.851 12.16C122.179 12.016 121.507 11.92 120.835 11.872V0.423999C123.283 0.327997 125.707 0.399996 128.107 0.639996C130.555 0.831996 133.003 0.927997 135.451 0.927997C137.899 0.927997 140.323 0.855998 142.723 0.711999C145.123 0.519999 147.547 0.423999 149.995 0.423999V11.872C149.323 11.92 148.651 12.016 147.979 12.16C147.307 12.304 146.707 12.544 146.179 12.88C145.651 13.168 145.219 13.6 144.883 14.176C144.547 14.704 144.379 15.4 144.379 16.264V39.16C144.379 40.024 144.547 40.744 144.883 41.32C145.219 41.848 145.651 42.28 146.179 42.616C146.707 42.904 147.307 43.12 147.979 43.264C148.651 43.408 149.323 43.504 149.995 43.552V55C147.547 55.096 145.123 55.048 142.723 54.856C140.323 54.616 137.899 54.496 135.451 54.496C133.003 54.496 130.555 54.592 128.107 54.784C125.707 54.928 123.283 55 120.835 55V43.552C121.507 43.504 122.179 43.408 122.851 43.264C123.523 43.12 124.123 42.904 124.651 42.616C125.179 42.28 125.611 41.848 125.947 41.32C126.283 40.744 126.451 40.024 126.451 39.16V31.816H110.539V39.16C110.539 40.024 110.707 40.744 111.043 41.32C111.379 41.848 111.811 42.28 112.339 42.616C112.867 42.904 113.467 43.12 114.139 43.264C114.811 43.408 115.483 43.504 116.155 43.552V55C113.707 55.096 111.283 55.048 108.883 54.856C106.483 54.616 104.059 54.496 101.611 54.496C99.1627 54.496 96.7147 54.592 94.2667 54.784C91.8667 54.928 89.4427 55 86.9947 55V43.552ZM152.878 43.552C153.694 43.504 154.558 43.408 155.47 43.264C156.43 43.12 157.342 42.904 158.206 42.616C159.07 42.28 159.862 41.848 160.582 41.32C161.302 40.744 161.806 40.024 162.094 39.16C162.334 38.536 162.67 37.552 163.102 36.208C163.582 34.816 164.11 33.256 164.686 31.528C165.262 29.752 165.838 27.904 166.414 25.984C167.038 24.064 167.59 22.264 168.07 20.584C168.598 18.904 169.006 17.44 169.294 16.192C169.63 14.944 169.798 14.128 169.798 13.744C169.798 13.312 169.678 12.976 169.438 12.736C169.246 12.448 168.982 12.256 168.646 12.16C168.358 12.016 168.022 11.944 167.638 11.944C167.254 11.896 166.894 11.872 166.558 11.872V0.423999C168.718 0.567997 170.83 0.663997 172.894 0.711999C174.958 0.759999 177.07 0.783998 179.23 0.783998C181.342 0.783998 183.406 0.783998 185.422 0.783998C187.486 0.735999 189.574 0.639999 191.686 0.495998L203.062 39.16C203.446 40.456 204.118 41.488 205.078 42.256C206.086 43.024 207.286 43.456 208.678 43.552V55C206.23 55 203.782 54.928 201.334 54.784C198.934 54.592 196.51 54.496 194.062 54.496C191.854 54.496 189.67 54.592 187.51 54.784C185.35 54.928 183.166 55 180.958 55H179.518V43.552C180.046 43.552 180.622 43.504 181.246 43.408C181.918 43.264 182.542 43.072 183.118 42.832C183.742 42.592 184.246 42.256 184.63 41.824C185.062 41.392 185.278 40.84 185.278 40.168C185.278 39.352 185.11 38.56 184.774 37.792C184.486 37.024 184.222 36.256 183.982 35.488H171.742C171.502 36.208 171.238 36.976 170.95 37.792C170.662 38.56 170.518 39.328 170.518 40.096C170.518 40.768 170.71 41.32 171.094 41.752C171.526 42.184 172.03 42.544 172.605 42.832C173.23 43.072 173.878 43.264 174.55 43.408C175.222 43.504 175.798 43.552 176.278 43.552V55C174.31 55 172.366 54.928 170.445 54.784C168.526 54.592 166.582 54.496 164.614 54.496C162.646 54.496 160.678 54.592 158.71 54.784C156.79 54.928 154.846 55 152.878 55V43.552ZM181.822 29.44L177.574 15.76L173.686 29.44H181.822ZM214.353 43.552C215.073 43.504 215.769 43.408 216.441 43.264C217.113 43.12 217.713 42.88 218.241 42.544C218.769 42.208 219.177 41.776 219.465 41.248C219.801 40.672 219.969 39.976 219.969 39.16V11.8C218.817 11.848 217.953 12.16 217.377 12.736C216.849 13.312 216.465 14.032 216.225 14.896C216.033 15.76 215.937 16.672 215.937 17.632C215.937 18.592 215.913 19.48 215.865 20.296H204.417C204.609 19.144 204.705 17.992 204.705 16.84C204.753 15.688 204.777 14.536 204.777 13.384C204.777 11.176 204.777 8.992 204.777 6.832C204.777 4.624 204.657 2.44 204.417 0.279996C212.433 0.711997 220.425 0.927997 228.393 0.927997C236.745 0.927997 245.097 0.711997 253.449 0.279996C253.209 2.44 253.089 4.624 253.089 6.832C253.089 8.992 253.089 11.176 253.089 13.384C253.089 14.536 253.089 15.688 253.089 16.84C253.137 17.992 253.257 19.144 253.449 20.296H242.001C241.953 19.48 241.929 18.592 241.929 17.632C241.977 16.672 241.881 15.76 241.641 14.896C241.449 14.032 241.065 13.312 240.489 12.736C239.913 12.16 239.049 11.848 237.897 11.8V39.16C237.897 39.976 238.041 40.672 238.329 41.248C238.665 41.776 239.097 42.208 239.625 42.544C240.153 42.88 240.753 43.12 241.425 43.264C242.097 43.408 242.793 43.504 243.513 43.552V55C241.065 55 238.641 54.928 236.241 54.784C233.841 54.592 231.417 54.496 228.969 54.496C226.521 54.496 224.073 54.592 221.625 54.784C219.225 54.928 216.801 55 214.353 55V43.552ZM270.721 43.552C271.393 43.504 272.065 43.408 272.737 43.264C273.409 43.12 274.009 42.904 274.537 42.616C275.065 42.28 275.497 41.848 275.833 41.32C276.169 40.744 276.337 40.024 276.337 39.16V16.264C276.337 15.4 276.169 14.704 275.833 14.176C275.497 13.6 275.065 13.168 274.537 12.88C274.009 12.544 273.409 12.304 272.737 12.16C272.065 12.016 271.393 11.92 270.721 11.872V0.423999C273.169 0.327997 275.593 0.399996 277.993 0.639996C280.441 0.831996 282.889 0.927997 285.337 0.927997C287.785 0.927997 290.209 0.855998 292.609 0.711999C295.009 0.519999 297.433 0.423999 299.881 0.423999V11.872C299.209 11.92 298.537 12.016 297.865 12.16C297.193 12.304 296.593 12.544 296.065 12.88C295.537 13.168 295.105 13.6 294.769 14.176C294.433 14.704 294.265 15.4 294.265 16.264V39.16C294.265 40.024 294.433 40.744 294.769 41.32C295.105 41.848 295.537 42.28 296.065 42.616C296.593 42.904 297.193 43.12 297.865 43.264C298.537 43.408 299.209 43.504 299.881 43.552V55C297.433 55.096 295.009 55.048 292.609 54.856C290.209 54.616 287.785 54.496 285.337 54.496C282.889 54.496 280.441 54.592 277.993 54.784C275.593 54.928 273.169 55 270.721 55V43.552ZM302.856 18.784C302.952 15.376 303.624 12.52 304.872 10.216C306.12 7.864 307.776 5.968 309.84 4.528C311.904 3.088 314.28 2.056 316.968 1.432C319.704 0.759999 322.56 0.423999 325.536 0.423999C328.032 0.423999 330.48 0.663999 332.88 1.144C335.328 1.576 337.536 1.984 339.504 2.368C340.176 2.512 340.656 2.32 340.944 1.792C341.232 1.264 341.4 0.687997 341.448 0.0639992H350.016C350.016 1.744 349.968 3.4 349.872 5.032C349.824 6.616 349.8 8.248 349.8 9.928C349.8 11.128 349.824 12.304 349.872 13.456C349.968 14.608 350.016 15.784 350.016 16.984H341.448C341.352 15.16 341.04 13.672 340.512 12.52C339.984 11.368 338.832 10.408 337.056 9.64C336.432 9.448 335.592 9.232 334.536 8.992C333.528 8.752 332.424 8.56 331.224 8.416C330.072 8.224 328.896 8.152 327.696 8.2C326.496 8.2 325.416 8.344 324.456 8.632C323.496 8.92 322.704 9.4 322.08 10.072C321.504 10.696 321.216 11.584 321.216 12.736C321.216 13.984 321.696 14.944 322.656 15.616C323.616 16.24 324.888 16.744 326.472 17.128C328.056 17.464 329.856 17.752 331.872 17.992C333.936 18.184 336 18.472 338.064 18.856C340.176 19.192 342.24 19.72 344.256 20.44C346.32 21.16 348.144 22.192 349.728 23.536C351.312 24.832 352.584 26.536 353.544 28.648C354.504 30.76 354.984 33.4 354.984 36.568C354.984 40.456 354.288 43.6 352.896 46C351.504 48.352 349.656 50.2 347.352 51.544C345.096 52.888 342.48 53.8 339.504 54.28C336.576 54.712 333.552 54.928 330.432 54.928C328.992 54.928 327.528 54.832 326.04 54.64C324.6 54.448 323.184 54.232 321.792 53.992C320.4 53.704 319.056 53.464 317.76 53.272C316.464 53.08 315.216 52.984 314.016 52.984C313.344 52.984 312.864 53.224 312.576 53.704C312.288 54.136 312.12 54.664 312.072 55.288H303.504C303.504 53.608 303.528 51.976 303.576 50.392C303.672 48.76 303.72 47.104 303.72 45.424C303.72 44.224 303.672 43.048 303.576 41.896C303.528 40.744 303.504 39.568 303.504 38.368H312.072C312.168 40.192 312.48 41.68 313.008 42.832C313.536 43.984 314.688 44.944 316.464 45.712C317.136 45.904 318.072 46.12 319.272 46.36C320.52 46.6 321.864 46.816 323.304 47.008C324.792 47.152 326.304 47.224 327.84 47.224C329.376 47.224 330.768 47.08 332.016 46.792C333.264 46.504 334.272 46.024 335.04 45.352C335.856 44.68 336.264 43.768 336.264 42.616C336.264 41.512 335.76 40.672 334.752 40.096C333.792 39.52 332.52 39.064 330.936 38.728C329.352 38.344 327.552 38.032 325.536 37.792C323.52 37.504 321.456 37.144 319.344 36.712C317.232 36.232 315.168 35.608 313.152 34.84C311.136 34.072 309.36 33.016 307.824 31.672C306.288 30.328 305.064 28.624 304.152 26.56C303.24 24.448 302.808 21.856 302.856 18.784ZM372.253 43.552C372.925 43.552 373.597 43.48 374.269 43.336C374.941 43.144 375.541 42.88 376.069 42.544C376.597 42.208 377.029 41.776 377.365 41.248C377.701 40.672 377.869 39.976 377.869 39.16V16.408C377.869 15.544 377.701 14.848 377.365 14.32C377.029 13.744 376.597 13.312 376.069 13.024C375.541 12.688 374.941 12.448 374.269 12.304C373.597 12.16 372.925 12.064 372.253 12.016V0.567997C374.701 0.471998 377.125 0.543999 379.525 0.783998C381.973 0.975999 384.421 1.072 386.869 1.072C389.317 1.072 391.741 0.999999 394.141 0.855998C396.541 0.663997 398.965 0.567997 401.413 0.567997V12.016C400.741 12.064 400.069 12.16 399.397 12.304C398.725 12.448 398.125 12.688 397.597 13.024C397.069 13.312 396.637 13.744 396.301 14.32C395.965 14.848 395.797 15.544 395.797 16.408V39.16C395.797 40.888 396.205 42.064 397.021 42.688C397.837 43.312 399.061 43.672 400.693 43.768C403.141 43.912 404.989 43.648 406.237 42.976C407.485 42.304 408.373 41.344 408.901 40.096C409.429 38.848 409.717 37.384 409.765 35.704C409.813 33.976 409.885 32.104 409.981 30.088H421.429C421.189 31.96 421.069 33.88 421.069 35.848C421.069 37.768 421.069 39.664 421.069 41.536C421.069 43.84 421.069 46.12 421.069 48.376C421.069 50.632 421.189 52.888 421.429 55.144C416.341 55.24 411.253 55.192 406.165 55C401.077 54.76 395.989 54.64 390.901 54.64C387.781 54.64 384.661 54.712 381.541 54.856C378.469 54.952 375.373 55 372.253 55V43.552ZM424.284 43.552C425.1 43.504 425.964 43.408 426.876 43.264C427.836 43.12 428.748 42.904 429.612 42.616C430.476 42.28 431.268 41.848 431.988 41.32C432.708 40.744 433.212 40.024 433.5 39.16C433.74 38.536 434.076 37.552 434.508 36.208C434.988 34.816 435.516 33.256 436.092 31.528C436.668 29.752 437.244 27.904 437.82 25.984C438.444 24.064 438.996 22.264 439.476 20.584C440.004 18.904 440.412 17.44 440.7 16.192C441.036 14.944 441.204 14.128 441.204 13.744C441.204 13.312 441.084 12.976 440.844 12.736C440.652 12.448 440.388 12.256 440.052 12.16C439.764 12.016 439.428 11.944 439.044 11.944C438.66 11.896 438.3 11.872 437.964 11.872V0.423999C440.124 0.567997 442.236 0.663997 444.3 0.711999C446.364 0.759999 448.476 0.783998 450.636 0.783998C452.748 0.783998 454.812 0.783998 456.828 0.783998C458.892 0.735999 460.98 0.639999 463.092 0.495998L474.468 39.16C474.852 40.456 475.524 41.488 476.484 42.256C477.492 43.024 478.692 43.456 480.084 43.552V55C477.636 55 475.188 54.928 472.74 54.784C470.34 54.592 467.916 54.496 465.468 54.496C463.26 54.496 461.076 54.592 458.916 54.784C456.756 54.928 454.572 55 452.364 55H450.924V43.552C451.452 43.552 452.028 43.504 452.652 43.408C453.324 43.264 453.948 43.072 454.524 42.832C455.148 42.592 455.652 42.256 456.036 41.824C456.468 41.392 456.684 40.84 456.684 40.168C456.684 39.352 456.516 38.56 456.18 37.792C455.892 37.024 455.628 36.256 455.388 35.488H443.148C442.908 36.208 442.644 36.976 442.356 37.792C442.068 38.56 441.924 39.328 441.924 40.096C441.924 40.768 442.116 41.32 442.5 41.752C442.932 42.184 443.436 42.544 444.012 42.832C444.636 43.072 445.284 43.264 445.956 43.408C446.628 43.504 447.204 43.552 447.684 43.552V55C445.716 55 443.772 54.928 441.852 54.784C439.932 54.592 437.988 54.496 436.02 54.496C434.052 54.496 432.084 54.592 430.116 54.784C428.196 54.928 426.252 55 424.284 55V43.552ZM453.228 29.44L448.98 15.76L445.092 29.44H453.228ZM482.995 43.552C483.667 43.504 484.339 43.408 485.011 43.264C485.683 43.12 486.283 42.904 486.811 42.616C487.339 42.28 487.771 41.848 488.107 41.32C488.443 40.744 488.611 40.024 488.611 39.16V16.264C488.611 15.4 488.443 14.704 488.107 14.176C487.771 13.6 487.339 13.168 486.811 12.88C486.283 12.544 485.683 12.304 485.011 12.16C484.339 12.016 483.667 11.92 482.995 11.872V0.423999C485.443 0.327997 487.867 0.399996 490.267 0.639996C492.715 0.831996 495.163 0.927997 497.611 0.927997C500.059 0.927997 502.483 0.855998 504.883 0.711999C507.283 0.519999 509.707 0.423999 512.155 0.423999V11.872C511.483 11.92 510.811 12.016 510.139 12.16C509.467 12.304 508.867 12.544 508.339 12.88C507.811 13.168 507.379 13.6 507.043 14.176C506.707 14.704 506.539 15.4 506.539 16.264V39.16C506.539 40.024 506.707 40.744 507.043 41.32C507.379 41.848 507.811 42.28 508.339 42.616C508.867 42.904 509.467 43.12 510.139 43.264C510.811 43.408 511.483 43.504 512.155 43.552V55C509.707 55.096 507.283 55.048 504.883 54.856C502.483 54.616 500.059 54.496 497.611 54.496C495.163 54.496 492.715 54.592 490.267 54.784C487.867 54.928 485.443 55 482.995 55V43.552ZM515.057 43.552C515.777 43.552 516.473 43.48 517.145 43.336C517.817 43.144 518.417 42.88 518.945 42.544C519.473 42.208 519.881 41.776 520.169 41.248C520.505 40.672 520.673 39.976 520.673 39.16V16.264C520.673 15.448 520.505 14.776 520.169 14.248C519.881 13.672 519.473 13.216 518.945 12.88C518.417 12.544 517.817 12.304 517.145 12.16C516.473 11.968 515.777 11.872 515.057 11.872V0.423999C517.505 0.567997 519.929 0.663997 522.329 0.711999C524.777 0.759999 527.225 0.783998 529.673 0.783998C531.257 0.783998 532.673 0.759999 533.921 0.711999C535.217 0.663997 536.465 0.615996 537.665 0.567997C538.913 0.471998 540.185 0.399998 541.481 0.351995C542.777 0.303996 544.193 0.279996 545.729 0.279996C550.049 0.279996 553.601 1.096 556.385 2.728C559.217 4.312 561.449 6.424 563.081 9.064C564.713 11.704 565.841 14.704 566.465 18.064C567.089 21.424 567.401 24.832 567.401 28.288C567.401 32.08 567.089 35.608 566.465 38.872C565.889 42.136 564.761 44.944 563.081 47.296C561.449 49.648 559.145 51.496 556.169 52.84C553.193 54.184 549.353 54.856 544.649 54.856C543.209 54.856 541.865 54.856 540.617 54.856C539.417 54.808 538.217 54.76 537.017 54.712C535.817 54.664 534.593 54.64 533.345 54.64C532.145 54.592 530.825 54.568 529.385 54.568C526.985 54.568 524.585 54.64 522.185 54.784C519.833 54.928 517.457 55 515.057 55V43.552ZM538.601 47.008C540.857 47.008 542.585 46.36 543.785 45.064C544.985 43.72 545.849 42.112 546.377 40.24C546.905 38.32 547.217 36.304 547.313 34.192C547.409 32.08 547.457 30.232 547.457 28.648C547.457 27.688 547.433 26.56 547.385 25.264C547.337 23.92 547.217 22.552 547.025 21.16C546.881 19.768 546.617 18.4 546.233 17.056C545.849 15.712 545.321 14.512 544.649 13.456C544.025 12.352 543.209 11.488 542.201 10.864C541.193 10.192 539.993 9.856 538.601 9.856V47.008ZM584.667 55V43.552C585.387 43.552 586.083 43.48 586.755 43.336C587.427 43.144 588.027 42.88 588.555 42.544C589.083 42.208 589.491 41.776 589.779 41.248C590.115 40.672 590.283 39.976 590.283 39.16V16.264C590.283 15.448 590.115 14.776 589.779 14.248C589.491 13.672 589.083 13.216 588.555 12.88C588.027 12.544 587.427 12.304 586.755 12.16C586.083 11.968 585.387 11.872 584.667 11.872V0.423999C588.843 0.711998 593.043 0.855998 597.267 0.855998C600.723 0.855998 604.131 0.783997 607.491 0.639996C610.851 0.447996 614.259 0.351995 617.715 0.351995C620.115 0.351995 622.347 0.567996 624.411 0.999996C626.523 1.432 628.347 2.176 629.883 3.232C631.419 4.288 632.619 5.704 633.483 7.48C634.395 9.256 634.851 11.488 634.851 14.176C634.851 15.136 634.731 16.12 634.491 17.128C634.251 18.136 633.891 19.096 633.411 20.008C632.931 20.872 632.307 21.64 631.539 22.312C630.819 22.984 629.979 23.488 629.019 23.824C630.651 24.352 632.019 25.12 633.123 26.128C634.227 27.088 635.115 28.216 635.787 29.512C636.507 30.808 637.011 32.224 637.299 33.76C637.587 35.248 637.731 36.784 637.731 38.368C637.731 41.392 637.227 43.96 636.219 46.072C635.259 48.184 633.915 49.888 632.187 51.184C630.459 52.48 628.419 53.416 626.067 53.992C623.715 54.568 621.147 54.856 618.363 54.856C614.859 54.856 611.355 54.808 607.851 54.712C604.395 54.616 600.915 54.568 597.411 54.568C593.187 54.568 588.939 54.712 584.667 55ZM608.211 20.584C609.459 20.536 610.563 20.464 611.523 20.368C612.531 20.224 613.395 19.936 614.115 19.504C614.835 19.072 615.387 18.448 615.771 17.632C616.155 16.768 616.347 15.616 616.347 14.176C616.347 12.88 616.107 11.896 615.627 11.224C615.147 10.504 614.523 10 613.755 9.712C612.987 9.376 612.099 9.208 611.091 9.208C610.131 9.16 609.171 9.136 608.211 9.136V20.584ZM608.211 46.288C609.891 46.288 611.331 46.168 612.531 45.928C613.731 45.688 614.715 45.256 615.483 44.632C616.251 43.96 616.827 43.072 617.211 41.968C617.595 40.816 617.787 39.352 617.787 37.576C617.787 35.704 617.595 34.216 617.211 33.112C616.875 31.96 616.323 31.096 615.555 30.52C614.787 29.944 613.779 29.56 612.531 29.368C611.331 29.176 609.891 29.08 608.211 29.08V46.288ZM640.635 43.552C641.451 43.504 642.315 43.408 643.227 43.264C644.187 43.12 645.099 42.904 645.963 42.616C646.827 42.28 647.619 41.848 648.339 41.32C649.059 40.744 649.563 40.024 649.851 39.16C650.091 38.536 650.427 37.552 650.859 36.208C651.339 34.816 651.867 33.256 652.443 31.528C653.019 29.752 653.595 27.904 654.171 25.984C654.795 24.064 655.347 22.264 655.827 20.584C656.355 18.904 656.763 17.44 657.051 16.192C657.387 14.944 657.555 14.128 657.555 13.744C657.555 13.312 657.435 12.976 657.195 12.736C657.003 12.448 656.739 12.256 656.403 12.16C656.115 12.016 655.779 11.944 655.395 11.944C655.011 11.896 654.651 11.872 654.315 11.872V0.423999C656.475 0.567997 658.587 0.663997 660.651 0.711999C662.715 0.759999 664.827 0.783998 666.987 0.783998C669.099 0.783998 671.163 0.783998 673.179 0.783998C675.243 0.735999 677.331 0.639999 679.443 0.495998L690.819 39.16C691.203 40.456 691.875 41.488 692.835 42.256C693.843 43.024 695.043 43.456 696.435 43.552V55C693.987 55 691.539 54.928 689.091 54.784C686.691 54.592 684.267 54.496 681.819 54.496C679.611 54.496 677.427 54.592 675.267 54.784C673.107 54.928 670.923 55 668.715 55H667.275V43.552C667.803 43.552 668.379 43.504 669.003 43.408C669.675 43.264 670.299 43.072 670.875 42.832C671.499 42.592 672.003 42.256 672.387 41.824C672.819 41.392 673.035 40.84 673.035 40.168C673.035 39.352 672.867 38.56 672.531 37.792C672.243 37.024 671.979 36.256 671.739 35.488H659.499C659.259 36.208 658.995 36.976 658.707 37.792C658.419 38.56 658.275 39.328 658.275 40.096C658.275 40.768 658.467 41.32 658.851 41.752C659.283 42.184 659.787 42.544 660.363 42.832C660.987 43.072 661.635 43.264 662.307 43.408C662.979 43.504 663.555 43.552 664.035 43.552V55C662.067 55 660.123 54.928 658.203 54.784C656.283 54.592 654.339 54.496 652.371 54.496C650.403 54.496 648.435 54.592 646.467 54.784C644.547 54.928 642.603 55 640.635 55V43.552ZM669.579 29.44L665.331 15.76L661.443 29.44H669.579ZM731.204 45.568C732.548 45.616 733.916 45.448 735.308 45.064C736.7 44.68 737.948 44.08 739.052 43.264C740.204 42.4 741.14 41.32 741.86 40.024C742.58 38.68 742.916 37.072 742.868 35.2H752.084C752.084 38.944 751.436 42.112 750.14 44.704C748.892 47.248 747.164 49.312 744.956 50.896C742.796 52.48 740.252 53.632 737.324 54.352C734.396 55.072 731.3 55.456 728.036 55.504C723.524 55.6 719.42 55.096 715.724 53.992C712.028 52.888 708.86 51.184 706.22 48.88C703.58 46.576 701.54 43.672 700.1 40.168C698.66 36.664 697.94 32.536 697.94 27.784C697.94 23.368 698.588 19.432 699.884 15.976C701.228 12.52 703.124 9.616 705.572 7.264C708.02 4.912 710.996 3.136 714.5 1.936C718.004 0.687998 721.94 0.0639992 726.308 0.0639992C727.892 0.0639992 729.356 0.183999 730.7 0.423999C732.044 0.615999 733.244 0.855999 734.3 1.144C735.404 1.432 736.364 1.72 737.18 2.008C738.044 2.296 738.812 2.512 739.484 2.656C740.156 2.8 740.636 2.608 740.924 2.08C741.212 1.552 741.38 0.975996 741.428 0.351995H749.996C749.996 2.032 749.948 3.688 749.852 5.32C749.804 6.904 749.78 8.536 749.78 10.216C749.78 11.992 749.828 13.768 749.924 15.544C750.02 17.32 750.044 19.096 749.996 20.872H741.428C741.38 19.192 741.14 17.56 740.708 15.976C740.324 14.344 739.724 12.904 738.908 11.656C738.14 10.408 737.108 9.424 735.812 8.704C734.564 7.936 733.028 7.552 731.204 7.552C728.804 7.552 726.836 8.224 725.3 9.568C723.812 10.864 722.636 12.496 721.772 14.464C720.956 16.384 720.404 18.472 720.116 20.728C719.828 22.984 719.684 25.072 719.684 26.992C719.684 29.008 719.804 31.096 720.044 33.256C720.332 35.416 720.86 37.408 721.628 39.232C722.444 41.008 723.62 42.496 725.156 43.696C726.692 44.848 728.708 45.472 731.204 45.568ZM754.963 43.552C755.635 43.504 756.307 43.408 756.979 43.264C757.651 43.12 758.251 42.904 758.779 42.616C759.307 42.28 759.739 41.848 760.075 41.32C760.411 40.744 760.579 40.024 760.579 39.16V16.264C760.579 15.4 760.411 14.704 760.075 14.176C759.739 13.6 759.307 13.168 758.779 12.88C758.251 12.544 757.651 12.304 756.979 12.16C756.307 12.016 755.635 11.92 754.963 11.872V0.423999C757.411 0.327997 759.835 0.399996 762.235 0.639996C764.683 0.831996 767.131 0.927997 769.579 0.927997C772.027 0.927997 774.451 0.855998 776.851 0.711999C779.251 0.519999 781.675 0.423999 784.123 0.423999V11.872C783.451 11.92 782.779 12.016 782.107 12.16C781.435 12.304 780.835 12.544 780.307 12.88C779.779 13.168 779.347 13.6 779.011 14.176C778.675 14.704 778.507 15.4 778.507 16.264V28.216L791.755 16.048C793.147 14.752 793.555 13.744 792.979 13.024C792.403 12.256 790.891 11.896 788.443 11.944V0.567997C790.459 0.519998 792.451 0.543997 794.419 0.639996C796.387 0.687998 798.379 0.711999 800.395 0.711999C802.459 0.711999 804.499 0.687998 806.515 0.639996C808.579 0.543997 810.643 0.519998 812.707 0.567997V11.944C811.075 11.896 809.659 11.92 808.459 12.016C807.259 12.112 806.155 12.352 805.147 12.736C804.139 13.072 803.155 13.576 802.195 14.248C801.235 14.872 800.179 15.712 799.027 16.768L792.547 22.744H800.971C802.171 25.336 803.347 27.88 804.499 30.376C805.699 32.872 806.899 35.416 808.099 38.008C808.963 39.832 810.115 41.2 811.555 42.112C813.043 42.976 814.771 43.456 816.739 43.552L816.523 55C814.075 55.048 811.627 54.976 809.179 54.784C806.731 54.592 804.283 54.496 801.835 54.496C799.483 54.496 797.131 54.592 794.779 54.784C792.475 54.928 790.147 55 787.795 55L787.579 43.552C788.251 43.552 788.803 43.384 789.235 43.048C789.667 42.664 789.883 42.136 789.883 41.464C789.883 41.08 789.715 40.456 789.379 39.592C789.091 38.68 788.707 37.672 788.227 36.568C787.747 35.416 787.219 34.24 786.643 33.04C786.115 31.84 785.587 30.712 785.059 29.656L778.507 35.632V39.16C778.507 40.024 778.675 40.744 779.011 41.32C779.347 41.848 779.779 42.28 780.307 42.616C780.835 42.904 781.435 43.12 782.107 43.264C782.779 43.408 783.451 43.504 784.123 43.552V55C781.675 55.096 779.251 55.048 776.851 54.856C774.451 54.616 772.027 54.496 769.579 54.496C767.131 54.496 764.683 54.592 762.235 54.784C759.835 54.928 757.411 55 754.963 55V43.552ZM62.2798 123.552C62.9998 123.552 63.6958 123.48 64.3678 123.336C65.0398 123.144 65.6398 122.88 66.1678 122.544C66.6958 122.208 67.1038 121.776 67.3918 121.248C67.7278 120.672 67.8958 119.976 67.8958 119.16V96.264C67.8958 95.448 67.7278 94.776 67.3918 94.248C67.1038 93.672 66.6958 93.216 66.1678 92.88C65.6398 92.544 65.0398 92.304 64.3678 92.16C63.6958 91.968 62.9998 91.872 62.2798 91.872V80.424C64.7278 80.568 67.1518 80.664 69.5518 80.712C71.9998 80.76 74.4478 80.784 76.8958 80.784C78.4798 80.784 79.8958 80.76 81.1438 80.712C82.4398 80.664 83.6878 80.616 84.8878 80.568C86.1358 80.472 87.4078 80.4 88.7038 80.352C89.9998 80.304 91.4158 80.28 92.9518 80.28C97.2718 80.28 100.824 81.096 103.608 82.728C106.44 84.312 108.672 86.424 110.304 89.064C111.936 91.704 113.064 94.704 113.688 98.064C114.312 101.424 114.624 104.832 114.624 108.288C114.624 112.08 114.312 115.608 113.688 118.872C113.112 122.136 111.984 124.944 110.304 127.296C108.672 129.648 106.368 131.496 103.392 132.84C100.416 134.184 96.5758 134.856 91.8718 134.856C90.4318 134.856 89.0878 134.856 87.8398 134.856C86.6398 134.808 85.4398 134.76 84.2398 134.712C83.0398 134.664 81.8158 134.64 80.5678 134.64C79.3678 134.592 78.0478 134.568 76.6078 134.568C74.2078 134.568 71.8078 134.64 69.4078 134.784C67.0558 134.928 64.6798 135 62.2798 135V123.552ZM85.8238 127.008C88.0798 127.008 89.8078 126.36 91.0078 125.064C92.2078 123.72 93.0718 122.112 93.5998 120.24C94.1278 118.32 94.4398 116.304 94.5358 114.192C94.6318 112.08 94.6798 110.232 94.6798 108.648C94.6798 107.688 94.6558 106.56 94.6078 105.264C94.5598 103.92 94.4398 102.552 94.2478 101.16C94.1038 99.768 93.8398 98.4 93.4558 97.056C93.0718 95.712 92.5438 94.512 91.8718 93.456C91.2478 92.352 90.4318 91.488 89.4238 90.864C88.4158 90.192 87.2158 89.856 85.8238 89.856V127.008ZM116.772 123.552C117.444 123.504 118.116 123.408 118.788 123.264C119.46 123.12 120.06 122.904 120.588 122.616C121.116 122.28 121.548 121.848 121.884 121.32C122.22 120.744 122.388 120.024 122.388 119.16V96.264C122.388 95.4 122.22 94.704 121.884 94.176C121.548 93.6 121.116 93.168 120.588 92.88C120.06 92.544 119.46 92.304 118.788 92.16C118.116 92.016 117.444 91.92 116.772 91.872V80.424C118.836 80.328 120.9 80.4 122.964 80.64C125.028 80.832 127.116 80.928 129.228 80.928C132.924 80.928 136.572 80.832 140.172 80.64C143.82 80.448 147.492 80.352 151.188 80.352C153.924 80.352 156.468 80.592 158.82 81.072C161.172 81.552 163.212 82.392 164.94 83.592C166.668 84.792 168.036 86.4 169.044 88.416C170.052 90.432 170.556 93 170.556 96.12C170.556 98.088 170.292 99.84 169.764 101.376C169.236 102.864 168.492 104.16 167.532 105.264C166.62 106.368 165.516 107.304 164.22 108.072C162.924 108.792 161.532 109.392 160.044 109.872C162.012 110.256 163.524 110.856 164.58 111.672C165.636 112.488 166.428 113.424 166.956 114.48C167.484 115.488 167.844 116.544 168.036 117.648C168.228 118.752 168.468 119.76 168.756 120.672C169.092 121.584 169.548 122.328 170.124 122.904C170.748 123.48 171.708 123.768 173.004 123.768V135C171.612 135.144 170.22 135.288 168.828 135.432C167.484 135.624 166.116 135.72 164.724 135.72C161.652 135.72 158.868 135.168 156.372 134.064C153.924 132.912 151.98 130.92 150.54 128.088C149.82 126.648 149.316 125.04 149.028 123.264C148.788 121.488 148.476 119.784 148.092 118.152C147.756 116.52 147.18 115.104 146.364 113.904C145.596 112.704 144.348 111.984 142.62 111.744H140.316V119.16C140.316 120.024 140.484 120.744 140.82 121.32C141.156 121.848 141.588 122.28 142.116 122.616C142.644 122.904 143.244 123.12 143.916 123.264C144.588 123.408 145.26 123.504 145.932 123.552V135C143.484 135.096 141.06 135.048 138.66 134.856C136.26 134.616 133.836 134.496 131.388 134.496C128.94 134.496 126.492 134.592 124.044 134.784C121.644 134.928 119.22 135 116.772 135V123.552ZM140.316 103.248C141.66 103.248 142.956 103.248 144.204 103.248C145.452 103.2 146.532 102.984 147.444 102.6C148.404 102.216 149.172 101.568 149.748 100.656C150.324 99.744 150.612 98.424 150.612 96.696C150.612 93.672 149.988 91.632 148.74 90.576C147.54 89.472 145.5 88.92 142.62 88.92H140.316V103.248ZM206.289 113.76C206.241 113.088 206.001 112.584 205.569 112.248C205.137 111.864 204.585 111.576 203.913 111.384C203.289 111.192 202.593 111.096 201.825 111.096C201.057 111.048 200.265 111.024 199.449 111.024V119.16C199.449 121.032 199.929 122.256 200.889 122.832C201.849 123.36 203.169 123.624 204.849 123.624C206.193 123.624 207.249 123.408 208.017 122.976C208.785 122.496 209.361 121.872 209.745 121.104C210.129 120.288 210.369 119.376 210.465 118.368C210.609 117.36 210.705 116.28 210.753 115.128H222.201C221.961 116.664 221.841 118.2 221.841 119.736C221.841 121.272 221.841 122.808 221.841 124.344C221.841 126.168 221.841 127.992 221.841 129.816C221.889 131.592 222.009 133.368 222.201 135.144C217.401 135.24 212.577 135.192 207.729 135C202.929 134.76 198.129 134.64 193.329 134.64C190.401 134.64 187.497 134.712 184.617 134.856C181.737 134.952 178.833 135 175.905 135V123.552C176.577 123.504 177.249 123.408 177.921 123.264C178.593 123.12 179.193 122.904 179.721 122.616C180.249 122.28 180.681 121.848 181.017 121.32C181.353 120.744 181.521 120.024 181.521 119.16V96.408C181.521 95.544 181.353 94.848 181.017 94.32C180.681 93.744 180.249 93.312 179.721 93.024C179.193 92.688 178.593 92.448 177.921 92.304C177.249 92.16 176.577 92.064 175.905 92.016V80.568C178.785 80.52 181.641 80.568 184.473 80.712C187.305 80.856 190.161 80.928 193.041 80.928C197.601 80.928 202.329 80.856 207.225 80.712C212.169 80.52 216.921 80.424 221.481 80.424C221.289 82.2 221.169 84 221.121 85.824C221.121 87.6 221.121 89.4 221.121 91.224C221.121 92.76 221.121 94.296 221.121 95.832C221.121 97.368 221.241 98.904 221.481 100.44H210.033C209.985 99.384 209.937 98.352 209.889 97.344C209.889 96.336 209.745 95.448 209.457 94.68C209.217 93.864 208.761 93.216 208.089 92.736C207.417 92.208 206.433 91.944 205.137 91.944C203.457 91.944 202.089 92.232 201.033 92.808C199.977 93.336 199.449 94.536 199.449 96.408V104.616C200.265 104.616 201.057 104.616 201.825 104.616C202.641 104.568 203.361 104.448 203.985 104.256C204.657 104.064 205.185 103.8 205.569 103.464C206.001 103.08 206.241 102.552 206.289 101.88H212.697C212.601 102.84 212.529 103.824 212.481 104.832C212.433 105.84 212.409 106.824 212.409 107.784C212.409 108.792 212.433 109.8 212.481 110.808C212.529 111.768 212.601 112.752 212.697 113.76H206.289ZM225.053 123.552C225.869 123.504 226.733 123.408 227.645 123.264C228.605 123.12 229.517 122.904 230.381 122.616C231.245 122.28 232.037 121.848 232.757 121.32C233.477 120.744 233.981 120.024 234.269 119.16C234.509 118.536 234.845 117.552 235.277 116.208C235.757 114.816 236.285 113.256 236.861 111.528C237.437 109.752 238.013 107.904 238.589 105.984C239.213 104.064 239.765 102.264 240.245 100.584C240.773 98.904 241.181 97.44 241.469 96.192C241.805 94.944 241.973 94.128 241.973 93.744C241.973 93.312 241.853 92.976 241.613 92.736C241.421 92.448 241.157 92.256 240.821 92.16C240.533 92.016 240.197 91.944 239.813 91.944C239.429 91.896 239.069 91.872 238.733 91.872V80.424C240.893 80.568 243.005 80.664 245.069 80.712C247.133 80.76 249.245 80.784 251.405 80.784C253.517 80.784 255.581 80.784 257.597 80.784C259.661 80.736 261.749 80.64 263.861 80.496L275.237 119.16C275.621 120.456 276.293 121.488 277.253 122.256C278.261 123.024 279.461 123.456 280.853 123.552V135C278.405 135 275.957 134.928 273.509 134.784C271.109 134.592 268.685 134.496 266.237 134.496C264.029 134.496 261.845 134.592 259.685 134.784C257.525 134.928 255.341 135 253.133 135H251.693V123.552C252.221 123.552 252.797 123.504 253.421 123.408C254.093 123.264 254.717 123.072 255.293 122.832C255.917 122.592 256.421 122.256 256.805 121.824C257.237 121.392 257.453 120.84 257.453 120.168C257.453 119.352 257.285 118.56 256.949 117.792C256.661 117.024 256.397 116.256 256.157 115.488H243.917C243.677 116.208 243.413 116.976 243.125 117.792C242.837 118.56 242.693 119.328 242.693 120.096C242.693 120.768 242.885 121.32 243.269 121.752C243.701 122.184 244.205 122.544 244.781 122.832C245.405 123.072 246.053 123.264 246.725 123.408C247.397 123.504 247.973 123.552 248.453 123.552V135C246.485 135 244.541 134.928 242.621 134.784C240.701 134.592 238.757 134.496 236.789 134.496C234.821 134.496 232.853 134.592 230.885 134.784C228.965 134.928 227.021 135 225.053 135V123.552ZM253.997 109.44L249.749 95.76L245.861 109.44H253.997ZM283.764 123.552C284.484 123.504 285.18 123.408 285.852 123.264C286.524 123.12 287.124 122.88 287.652 122.544C288.18 122.208 288.588 121.776 288.876 121.248C289.212 120.672 289.38 119.976 289.38 119.16V96.264C289.38 95.448 289.212 94.776 288.876 94.248C288.588 93.672 288.18 93.216 287.652 92.88C287.124 92.544 286.524 92.304 285.852 92.16C285.18 92.016 284.484 91.92 283.764 91.872V80.424C286.116 80.616 288.444 80.76 290.748 80.856C293.1 80.952 295.476 81 297.876 81C300.42 81 302.94 80.952 305.436 80.856C307.98 80.76 310.524 80.616 313.068 80.424L325.164 113.688L337.26 80.424C339.324 80.616 341.388 80.76 343.452 80.856C345.516 80.904 347.604 80.928 349.716 80.928C351.684 80.928 353.628 80.904 355.548 80.856C357.516 80.76 359.484 80.616 361.452 80.424V91.872C360.732 91.92 360.036 92.016 359.364 92.16C358.692 92.304 358.092 92.544 357.564 92.88C357.036 93.216 356.604 93.672 356.268 94.248C355.98 94.776 355.836 95.448 355.836 96.264V119.16C355.836 119.976 355.98 120.672 356.268 121.248C356.604 121.776 357.036 122.208 357.564 122.544C358.092 122.88 358.692 123.12 359.364 123.264C360.036 123.408 360.732 123.504 361.452 123.552V135H360.588C358.284 135 356.004 134.928 353.748 134.784C351.492 134.592 349.212 134.496 346.908 134.496C344.46 134.496 342.012 134.592 339.564 134.784C337.164 134.928 334.74 135 332.292 135V123.552C333.012 123.504 333.708 123.408 334.38 123.264C335.052 123.12 335.652 122.88 336.18 122.544C336.708 122.208 337.116 121.776 337.404 121.248C337.74 120.672 337.908 119.976 337.908 119.16V101.592L325.524 135.072H309.324L297.3 102.528C297.3 105.312 297.276 108.096 297.228 110.88C297.228 113.616 297.228 116.376 297.228 119.16C297.228 119.976 297.372 120.672 297.66 121.248C297.996 121.776 298.428 122.208 298.956 122.544C299.484 122.88 300.084 123.12 300.756 123.264C301.428 123.408 302.124 123.504 302.844 123.552V135H302.268C300.972 135 299.676 134.928 298.38 134.784C297.132 134.64 295.86 134.568 294.564 134.568C292.74 134.568 290.94 134.64 289.164 134.784C287.388 134.928 285.588 135 283.764 135V123.552ZM394.726 113.76C394.678 113.088 394.438 112.584 394.006 112.248C393.574 111.864 393.022 111.576 392.35 111.384C391.726 111.192 391.03 111.096 390.262 111.096C389.494 111.048 388.702 111.024 387.886 111.024V119.16C387.886 121.032 388.366 122.256 389.326 122.832C390.286 123.36 391.606 123.624 393.286 123.624C394.63 123.624 395.686 123.408 396.454 122.976C397.222 122.496 397.798 121.872 398.182 121.104C398.566 120.288 398.806 119.376 398.902 118.368C399.046 117.36 399.142 116.28 399.19 115.128H410.638C410.398 116.664 410.278 118.2 410.278 119.736C410.278 121.272 410.278 122.808 410.278 124.344C410.278 126.168 410.278 127.992 410.278 129.816C410.326 131.592 410.446 133.368 410.638 135.144C405.838 135.24 401.014 135.192 396.166 135C391.366 134.76 386.566 134.64 381.766 134.64C378.838 134.64 375.934 134.712 373.054 134.856C370.174 134.952 367.27 135 364.342 135V123.552C365.014 123.504 365.686 123.408 366.358 123.264C367.03 123.12 367.63 122.904 368.158 122.616C368.686 122.28 369.118 121.848 369.454 121.32C369.79 120.744 369.958 120.024 369.958 119.16V96.408C369.958 95.544 369.79 94.848 369.454 94.32C369.118 93.744 368.686 93.312 368.158 93.024C367.63 92.688 367.03 92.448 366.358 92.304C365.686 92.16 365.014 92.064 364.342 92.016V80.568C367.222 80.52 370.078 80.568 372.91 80.712C375.742 80.856 378.598 80.928 381.478 80.928C386.038 80.928 390.766 80.856 395.662 80.712C400.606 80.52 405.358 80.424 409.918 80.424C409.726 82.2 409.606 84 409.558 85.824C409.558 87.6 409.558 89.4 409.558 91.224C409.558 92.76 409.558 94.296 409.558 95.832C409.558 97.368 409.678 98.904 409.918 100.44H398.47C398.422 99.384 398.374 98.352 398.326 97.344C398.326 96.336 398.182 95.448 397.894 94.68C397.654 93.864 397.198 93.216 396.526 92.736C395.854 92.208 394.87 91.944 393.574 91.944C391.894 91.944 390.526 92.232 389.47 92.808C388.414 93.336 387.886 94.536 387.886 96.408V104.616C388.702 104.616 389.494 104.616 390.262 104.616C391.078 104.568 391.798 104.448 392.422 104.256C393.094 104.064 393.622 103.8 394.006 103.464C394.438 103.08 394.678 102.552 394.726 101.88H401.134C401.038 102.84 400.966 103.824 400.918 104.832C400.87 105.84 400.846 106.824 400.846 107.784C400.846 108.792 400.87 109.8 400.918 110.808C400.966 111.768 401.038 112.752 401.134 113.76H394.726ZM413.491 123.552C414.163 123.504 414.835 123.408 415.507 123.264C416.179 123.12 416.779 122.904 417.307 122.616C417.835 122.28 418.267 121.848 418.603 121.32C418.939 120.744 419.107 120.024 419.107 119.16V96.264C419.107 95.4 418.939 94.704 418.603 94.176C418.267 93.6 417.835 93.168 417.307 92.88C416.779 92.544 416.179 92.304 415.507 92.16C414.835 92.016 414.163 91.92 413.491 91.872V80.424C415.555 80.328 417.619 80.4 419.683 80.64C421.747 80.832 423.835 80.928 425.947 80.928C429.643 80.928 433.291 80.832 436.891 80.64C440.539 80.448 444.211 80.352 447.907 80.352C450.643 80.352 453.187 80.592 455.539 81.072C457.891 81.552 459.931 82.392 461.659 83.592C463.387 84.792 464.755 86.4 465.763 88.416C466.771 90.432 467.275 93 467.275 96.12C467.275 98.088 467.011 99.84 466.483 101.376C465.955 102.864 465.211 104.16 464.251 105.264C463.339 106.368 462.235 107.304 460.939 108.072C459.643 108.792 458.251 109.392 456.763 109.872C458.731 110.256 460.243 110.856 461.299 111.672C462.355 112.488 463.147 113.424 463.675 114.48C464.203 115.488 464.563 116.544 464.755 117.648C464.947 118.752 465.187 119.76 465.475 120.672C465.811 121.584 466.267 122.328 466.843 122.904C467.467 123.48 468.427 123.768 469.723 123.768V135C468.331 135.144 466.939 135.288 465.547 135.432C464.203 135.624 462.835 135.72 461.443 135.72C458.371 135.72 455.587 135.168 453.091 134.064C450.643 132.912 448.699 130.92 447.259 128.088C446.539 126.648 446.035 125.04 445.747 123.264C445.507 121.488 445.195 119.784 444.811 118.152C444.475 116.52 443.899 115.104 443.083 113.904C442.315 112.704 441.067 111.984 439.339 111.744H437.035V119.16C437.035 120.024 437.203 120.744 437.539 121.32C437.875 121.848 438.307 122.28 438.835 122.616C439.363 122.904 439.963 123.12 440.635 123.264C441.307 123.408 441.979 123.504 442.651 123.552V135C440.203 135.096 437.779 135.048 435.379 134.856C432.979 134.616 430.555 134.496 428.107 134.496C425.659 134.496 423.211 134.592 420.763 134.784C418.363 134.928 415.939 135 413.491 135V123.552ZM437.035 103.248C438.379 103.248 439.675 103.248 440.923 103.248C442.171 103.2 443.251 102.984 444.163 102.6C445.123 102.216 445.891 101.568 446.467 100.656C447.043 99.744 447.331 98.424 447.331 96.696C447.331 93.672 446.707 91.632 445.459 90.576C444.259 89.472 442.219 88.92 439.339 88.92H437.035V103.248ZM520.302 125.568C521.646 125.616 523.014 125.448 524.406 125.064C525.798 124.68 527.046 124.08 528.15 123.264C529.302 122.4 530.238 121.32 530.958 120.024C531.678 118.68 532.014 117.072 531.966 115.2H541.182C541.182 118.944 540.534 122.112 539.238 124.704C537.99 127.248 536.262 129.312 534.054 130.896C531.894 132.48 529.35 133.632 526.422 134.352C523.494 135.072 520.398 135.456 517.134 135.504C512.622 135.6 508.518 135.096 504.822 133.992C501.126 132.888 497.958 131.184 495.318 128.88C492.678 126.576 490.638 123.672 489.198 120.168C487.758 116.664 487.038 112.536 487.038 107.784C487.038 103.368 487.686 99.432 488.982 95.976C490.326 92.52 492.222 89.616 494.67 87.264C497.118 84.912 500.094 83.136 503.598 81.936C507.102 80.688 511.038 80.064 515.406 80.064C516.99 80.064 518.454 80.184 519.798 80.424C521.142 80.616 522.342 80.856 523.398 81.144C524.502 81.432 525.462 81.72 526.278 82.008C527.142 82.296 527.91 82.512 528.582 82.656C529.254 82.8 529.734 82.608 530.022 82.08C530.31 81.552 530.478 80.976 530.526 80.352H539.094C539.094 82.032 539.046 83.688 538.95 85.32C538.902 86.904 538.878 88.536 538.878 90.216C538.878 91.992 538.926 93.768 539.022 95.544C539.118 97.32 539.142 99.096 539.094 100.872H530.526C530.478 99.192 530.238 97.56 529.806 95.976C529.422 94.344 528.822 92.904 528.006 91.656C527.238 90.408 526.206 89.424 524.91 88.704C523.662 87.936 522.126 87.552 520.302 87.552C517.902 87.552 515.934 88.224 514.398 89.568C512.91 90.864 511.734 92.496 510.87 94.464C510.054 96.384 509.502 98.472 509.214 100.728C508.926 102.984 508.782 105.072 508.782 106.992C508.782 109.008 508.902 111.096 509.142 113.256C509.43 115.416 509.958 117.408 510.726 119.232C511.542 121.008 512.718 122.496 514.254 123.696C515.79 124.848 517.806 125.472 520.302 125.568ZM544.061 123.552C544.733 123.552 545.405 123.48 546.077 123.336C546.749 123.144 547.349 122.88 547.877 122.544C548.405 122.208 548.837 121.776 549.173 121.248C549.509 120.672 549.677 119.976 549.677 119.16V96.408C549.677 95.544 549.509 94.848 549.173 94.32C548.837 93.744 548.405 93.312 547.877 93.024C547.349 92.688 546.749 92.448 546.077 92.304C545.405 92.16 544.733 92.064 544.061 92.016V80.568C546.509 80.472 548.933 80.544 551.333 80.784C553.781 80.976 556.229 81.072 558.677 81.072C561.125 81.072 563.549 81 565.949 80.856C568.349 80.664 570.773 80.568 573.221 80.568V92.016C572.549 92.064 571.877 92.16 571.205 92.304C570.533 92.448 569.933 92.688 569.405 93.024C568.877 93.312 568.445 93.744 568.109 94.32C567.773 94.848 567.605 95.544 567.605 96.408V119.16C567.605 120.888 568.013 122.064 568.829 122.688C569.645 123.312 570.869 123.672 572.501 123.768C574.949 123.912 576.797 123.648 578.045 122.976C579.293 122.304 580.181 121.344 580.709 120.096C581.237 118.848 581.525 117.384 581.573 115.704C581.621 113.976 581.693 112.104 581.789 110.088H593.237C592.997 111.96 592.877 113.88 592.877 115.848C592.877 117.768 592.877 119.664 592.877 121.536C592.877 123.84 592.877 126.12 592.877 128.376C592.877 130.632 592.997 132.888 593.237 135.144C588.149 135.24 583.061 135.192 577.973 135C572.885 134.76 567.797 134.64 562.709 134.64C559.589 134.64 556.469 134.712 553.349 134.856C550.277 134.952 547.181 135 544.061 135V123.552ZM652.178 91.872C651.506 91.92 650.786 92.016 650.018 92.16C649.298 92.304 648.626 92.544 648.002 92.88C647.378 93.216 646.85 93.672 646.418 94.248C646.034 94.776 645.842 95.448 645.842 96.264V118.656C645.842 122.4 645.266 125.376 644.114 127.584C643.01 129.744 641.498 131.4 639.578 132.552C637.658 133.704 635.426 134.448 632.882 134.784C630.386 135.12 627.722 135.288 624.89 135.288C623.162 135.288 621.314 135.24 619.346 135.144C617.378 135.096 615.41 134.928 613.442 134.64C611.522 134.304 609.674 133.8 607.898 133.128C606.17 132.456 604.61 131.52 603.218 130.32C601.874 129.12 600.794 127.608 599.978 125.784C599.21 123.96 598.826 121.728 598.826 119.088V96.264C598.826 95.448 598.658 94.776 598.322 94.248C598.034 93.672 597.626 93.216 597.098 92.88C596.57 92.544 595.97 92.304 595.298 92.16C594.626 92.016 593.93 91.92 593.21 91.872V80.424C595.658 80.424 598.082 80.52 600.482 80.712C602.882 80.856 605.306 80.928 607.754 80.928C610.202 80.928 612.626 80.856 615.026 80.712C617.474 80.52 619.922 80.424 622.37 80.424V91.872C621.65 91.92 620.954 92.016 620.282 92.16C619.61 92.304 619.01 92.544 618.482 92.88C617.954 93.216 617.522 93.672 617.186 94.248C616.898 94.776 616.754 95.448 616.754 96.264V116.856C616.754 118.632 616.946 120.264 617.33 121.752C617.714 123.192 618.338 124.416 619.202 125.424C620.114 126.432 621.29 127.2 622.73 127.728C624.17 128.208 625.922 128.376 627.986 128.232C630.722 128.04 632.81 127.08 634.25 125.352C635.738 123.576 636.482 121.032 636.482 117.72C636.482 114.12 636.482 110.544 636.482 106.992C636.53 103.44 636.554 99.864 636.554 96.264C636.554 95.448 636.338 94.776 635.906 94.248C635.522 93.672 635.018 93.216 634.394 92.88C633.77 92.544 633.074 92.304 632.306 92.16C631.586 92.016 630.89 91.92 630.218 91.872V80.424C631.754 80.424 633.482 80.496 635.402 80.64C637.37 80.784 639.122 80.856 640.658 80.856C642.578 80.856 644.498 80.784 646.418 80.64C648.338 80.496 650.258 80.424 652.178 80.424V91.872ZM655.085 135V123.552C655.805 123.552 656.501 123.48 657.173 123.336C657.845 123.144 658.445 122.88 658.973 122.544C659.501 122.208 659.909 121.776 660.197 121.248C660.533 120.672 660.701 119.976 660.701 119.16V96.264C660.701 95.448 660.533 94.776 660.197 94.248C659.909 93.672 659.501 93.216 658.973 92.88C658.445 92.544 657.845 92.304 657.173 92.16C656.501 91.968 655.805 91.872 655.085 91.872V80.424C659.261 80.712 663.461 80.856 667.685 80.856C671.141 80.856 674.549 80.784 677.909 80.64C681.269 80.448 684.677 80.352 688.133 80.352C690.533 80.352 692.765 80.568 694.829 81C696.941 81.432 698.765 82.176 700.301 83.232C701.837 84.288 703.037 85.704 703.901 87.48C704.813 89.256 705.269 91.488 705.269 94.176C705.269 95.136 705.149 96.12 704.909 97.128C704.669 98.136 704.309 99.096 703.829 100.008C703.349 100.872 702.725 101.64 701.957 102.312C701.237 102.984 700.397 103.488 699.437 103.824C701.069 104.352 702.437 105.12 703.541 106.128C704.645 107.088 705.533 108.216 706.205 109.512C706.925 110.808 707.429 112.224 707.717 113.76C708.005 115.248 708.149 116.784 708.149 118.368C708.149 121.392 707.645 123.96 706.637 126.072C705.677 128.184 704.333 129.888 702.605 131.184C700.877 132.48 698.837 133.416 696.485 133.992C694.133 134.568 691.565 134.856 688.781 134.856C685.277 134.856 681.773 134.808 678.269 134.712C674.813 134.616 671.333 134.568 667.829 134.568C663.605 134.568 659.357 134.712 655.085 135ZM678.629 100.584C679.877 100.536 680.981 100.464 681.941 100.368C682.949 100.224 683.813 99.936 684.533 99.504C685.253 99.072 685.805 98.448 686.189 97.632C686.573 96.768 686.765 95.616 686.765 94.176C686.765 92.88 686.525 91.896 686.045 91.224C685.565 90.504 684.941 90 684.173 89.712C683.405 89.376 682.517 89.208 681.509 89.208C680.549 89.16 679.589 89.136 678.629 89.136V100.584ZM678.629 126.288C680.309 126.288 681.749 126.168 682.949 125.928C684.149 125.688 685.133 125.256 685.901 124.632C686.669 123.96 687.245 123.072 687.629 121.968C688.013 120.816 688.205 119.352 688.205 117.576C688.205 115.704 688.013 114.216 687.629 113.112C687.293 111.96 686.741 111.096 685.973 110.52C685.205 109.944 684.197 109.56 682.949 109.368C681.749 109.176 680.309 109.08 678.629 109.08V126.288ZM723.797 119.664C723.797 116.784 724.085 114.528 724.661 112.896C725.237 111.264 725.957 109.944 726.821 108.936C727.685 107.928 728.621 107.112 729.629 106.488C730.637 105.864 731.573 105.144 732.437 104.328C733.301 103.464 734.021 102.384 734.597 101.088C735.173 99.744 735.461 97.872 735.461 95.472C735.461 95.088 735.413 94.632 735.317 94.104C735.221 93.576 735.053 93.072 734.813 92.592C734.573 92.112 734.237 91.728 733.805 91.44C733.421 91.104 732.917 90.936 732.293 90.936C731.525 90.936 730.877 91.248 730.349 91.872C729.869 92.496 729.485 93.24 729.197 94.104C728.909 94.968 728.717 95.832 728.621 96.696C728.525 97.56 728.477 98.232 728.477 98.712H711.125C711.077 96.552 711.293 94.344 711.773 92.088C712.301 89.784 713.357 87.72 714.941 85.896C716.525 84.024 718.781 82.512 721.709 81.36C724.685 80.16 728.621 79.56 733.517 79.56C737.501 79.56 740.885 79.992 743.669 80.856C746.453 81.72 748.685 82.968 750.365 84.6C752.045 86.232 753.221 88.248 753.893 90.648C754.565 93.048 754.805 95.76 754.613 98.784C754.469 101.28 753.869 103.368 752.813 105.048C751.757 106.68 750.485 108.048 748.997 109.152C747.557 110.256 745.997 111.192 744.317 111.96C742.637 112.728 741.077 113.472 739.637 114.192C738.197 114.912 736.997 115.704 736.037 116.568C735.077 117.384 734.573 118.416 734.525 119.664H723.797ZM723.581 123.48H735.101V134.856H723.581V123.48Z" fill="#C41A1F"/>
</svg>
