<svg width="847" height="134" viewBox="0 0 847 134" fill="none" xmlns="http://www.w3.org/2000/svg">
<path d="M31.7919 0.423999C34.2399 0.519998 36.6399 0.591997 38.9919 0.639996C41.3919 0.687998 43.8159 0.711999 46.2639 0.711999C48.6159 0.711999 50.9439 0.687998 53.2479 0.639996C55.5519 0.591997 57.8799 0.519998 60.2319 0.423999V11.872C59.7519 11.872 59.2239 11.944 58.6479 12.088C58.1199 12.184 57.6159 12.352 57.1359 12.592C56.6559 12.832 56.2719 13.168 55.9839 13.6C55.6959 14.032 55.5519 14.56 55.5519 15.184L61.9599 41.104L67.7919 15.328C67.8879 14.656 67.7679 14.104 67.4319 13.672C67.1439 13.24 66.7359 12.904 66.2079 12.664C65.6799 12.376 65.1039 12.184 64.4799 12.088C63.8559 11.944 63.2799 11.872 62.7519 11.872V0.423999C64.5759 0.423999 66.3999 0.519999 68.2239 0.711999C70.0479 0.855998 71.8719 0.927997 73.6959 0.927997C75.4239 0.927997 77.1279 0.855998 78.8079 0.711999C80.5359 0.519999 82.2639 0.423999 83.9919 0.423999V11.872C83.2719 11.92 82.5039 12.04 81.6879 12.232C80.8719 12.376 80.0799 12.616 79.3119 12.952C78.5919 13.288 77.9439 13.72 77.3679 14.248C76.8399 14.776 76.4559 15.448 76.2159 16.264L65.9919 55C62.7759 54.568 59.5359 54.352 56.2719 54.352C54.7359 54.352 53.2239 54.4 51.7359 54.496C50.2479 54.592 48.7359 54.736 47.1999 54.928L41.3679 32.032L35.7519 55C34.1199 54.808 32.4879 54.664 30.8559 54.568C29.2719 54.472 27.6639 54.424 26.0319 54.424C24.4959 54.424 22.9839 54.472 21.4959 54.568C20.0079 54.664 18.4959 54.784 16.9599 54.928L6.44788 16.264C6.06388 14.872 5.24788 13.816 3.99988 13.096C2.75188 12.376 1.45588 11.968 0.111875 11.872V0.423999C2.70388 0.423999 5.24788 0.519999 7.74388 0.711999C10.2879 0.855998 12.8559 0.927997 15.4479 0.927997C17.5119 0.927997 19.5759 0.855998 21.6399 0.711999C23.7039 0.519999 25.7679 0.423999 27.8319 0.423999H29.2719V11.872C28.7919 11.872 28.2639 11.944 27.6879 12.088C27.1599 12.184 26.6559 12.352 26.1759 12.592C25.6959 12.832 25.2879 13.144 24.9519 13.528C24.6639 13.912 24.5199 14.416 24.5199 15.04L31.7199 41.104L36.6879 16.264C36.7359 16.072 36.7599 15.784 36.7599 15.4C36.7599 14.728 36.5919 14.176 36.2559 13.744C35.9679 13.312 35.5839 12.976 35.1039 12.736C34.6239 12.448 34.0719 12.256 33.4479 12.16C32.8719 12.016 32.3199 11.92 31.7919 11.872V0.423999ZM86.8775 43.552C87.5495 43.504 88.2215 43.408 88.8935 43.264C89.5655 43.12 90.1655 42.904 90.6935 42.616C91.2215 42.28 91.6535 41.848 91.9895 41.32C92.3255 40.744 92.4935 40.024 92.4935 39.16V16.264C92.4935 15.4 92.3255 14.704 91.9895 14.176C91.6535 13.6 91.2215 13.168 90.6935 12.88C90.1655 12.544 89.5655 12.304 88.8935 12.16C88.2215 12.016 87.5495 11.92 86.8775 11.872V0.423999C89.3255 0.327997 91.7495 0.399996 94.1495 0.639996C96.5975 0.831996 99.0455 0.927997 101.494 0.927997C103.942 0.927997 106.366 0.855998 108.766 0.711999C111.166 0.519999 113.59 0.423999 116.038 0.423999V11.872C115.366 11.92 114.694 12.016 114.022 12.16C113.35 12.304 112.75 12.544 112.222 12.88C111.694 13.168 111.262 13.6 110.926 14.176C110.59 14.704 110.422 15.4 110.422 16.264V25.408H126.334V16.264C126.334 15.4 126.166 14.704 125.83 14.176C125.494 13.6 125.062 13.168 124.534 12.88C124.006 12.544 123.406 12.304 122.734 12.16C122.062 12.016 121.39 11.92 120.718 11.872V0.423999C123.166 0.327997 125.59 0.399996 127.99 0.639996C130.438 0.831996 132.886 0.927997 135.334 0.927997C137.782 0.927997 140.206 0.855998 142.606 0.711999C145.006 0.519999 147.43 0.423999 149.878 0.423999V11.872C149.206 11.92 148.534 12.016 147.862 12.16C147.19 12.304 146.59 12.544 146.062 12.88C145.534 13.168 145.102 13.6 144.766 14.176C144.43 14.704 144.262 15.4 144.262 16.264V39.16C144.262 40.024 144.43 40.744 144.766 41.32C145.102 41.848 145.534 42.28 146.062 42.616C146.59 42.904 147.19 43.12 147.862 43.264C148.534 43.408 149.206 43.504 149.878 43.552V55C147.43 55.096 145.006 55.048 142.606 54.856C140.206 54.616 137.782 54.496 135.334 54.496C132.886 54.496 130.438 54.592 127.99 54.784C125.59 54.928 123.166 55 120.718 55V43.552C121.39 43.504 122.062 43.408 122.734 43.264C123.406 43.12 124.006 42.904 124.534 42.616C125.062 42.28 125.494 41.848 125.83 41.32C126.166 40.744 126.334 40.024 126.334 39.16V31.816H110.422V39.16C110.422 40.024 110.59 40.744 110.926 41.32C111.262 41.848 111.694 42.28 112.222 42.616C112.75 42.904 113.35 43.12 114.022 43.264C114.694 43.408 115.366 43.504 116.038 43.552V55C113.59 55.096 111.166 55.048 108.766 54.856C106.366 54.616 103.942 54.496 101.494 54.496C99.0455 54.496 96.5975 54.592 94.1495 54.784C91.7495 54.928 89.3255 55 86.8775 55V43.552ZM152.76 43.552C153.576 43.504 154.44 43.408 155.352 43.264C156.312 43.12 157.224 42.904 158.088 42.616C158.952 42.28 159.744 41.848 160.464 41.32C161.184 40.744 161.688 40.024 161.976 39.16C162.216 38.536 162.552 37.552 162.984 36.208C163.464 34.816 163.992 33.256 164.568 31.528C165.144 29.752 165.72 27.904 166.296 25.984C166.92 24.064 167.472 22.264 167.952 20.584C168.48 18.904 168.888 17.44 169.176 16.192C169.512 14.944 169.68 14.128 169.68 13.744C169.68 13.312 169.56 12.976 169.32 12.736C169.128 12.448 168.864 12.256 168.528 12.16C168.24 12.016 167.904 11.944 167.52 11.944C167.136 11.896 166.776 11.872 166.44 11.872V0.423999C168.6 0.567997 170.712 0.663997 172.776 0.711999C174.84 0.759999 176.952 0.783998 179.112 0.783998C181.224 0.783998 183.288 0.783998 185.304 0.783998C187.368 0.735999 189.456 0.639999 191.568 0.495998L202.944 39.16C203.328 40.456 204 41.488 204.96 42.256C205.968 43.024 207.168 43.456 208.56 43.552V55C206.112 55 203.664 54.928 201.216 54.784C198.816 54.592 196.392 54.496 193.944 54.496C191.736 54.496 189.552 54.592 187.392 54.784C185.232 54.928 183.048 55 180.84 55H179.4V43.552C179.928 43.552 180.504 43.504 181.128 43.408C181.8 43.264 182.424 43.072 183 42.832C183.624 42.592 184.128 42.256 184.512 41.824C184.944 41.392 185.16 40.84 185.16 40.168C185.16 39.352 184.992 38.56 184.656 37.792C184.368 37.024 184.104 36.256 183.864 35.488H171.624C171.384 36.208 171.12 36.976 170.832 37.792C170.544 38.56 170.4 39.328 170.4 40.096C170.4 40.768 170.592 41.32 170.976 41.752C171.408 42.184 171.912 42.544 172.488 42.832C173.112 43.072 173.76 43.264 174.432 43.408C175.104 43.504 175.68 43.552 176.16 43.552V55C174.192 55 172.248 54.928 170.328 54.784C168.408 54.592 166.464 54.496 164.496 54.496C162.528 54.496 160.56 54.592 158.592 54.784C156.672 54.928 154.728 55 152.76 55V43.552ZM181.704 29.44L177.456 15.76L173.568 29.44H181.704ZM214.235 43.552C214.955 43.504 215.651 43.408 216.323 43.264C216.995 43.12 217.595 42.88 218.123 42.544C218.651 42.208 219.059 41.776 219.347 41.248C219.683 40.672 219.851 39.976 219.851 39.16V11.8C218.699 11.848 217.835 12.16 217.259 12.736C216.731 13.312 216.347 14.032 216.107 14.896C215.915 15.76 215.819 16.672 215.819 17.632C215.819 18.592 215.795 19.48 215.747 20.296H204.299C204.491 19.144 204.587 17.992 204.587 16.84C204.635 15.688 204.659 14.536 204.659 13.384C204.659 11.176 204.659 8.992 204.659 6.832C204.659 4.624 204.539 2.44 204.299 0.279996C212.315 0.711997 220.307 0.927997 228.275 0.927997C236.627 0.927997 244.979 0.711997 253.331 0.279996C253.091 2.44 252.971 4.624 252.971 6.832C252.971 8.992 252.971 11.176 252.971 13.384C252.971 14.536 252.971 15.688 252.971 16.84C253.019 17.992 253.139 19.144 253.331 20.296H241.883C241.835 19.48 241.811 18.592 241.811 17.632C241.859 16.672 241.763 15.76 241.523 14.896C241.331 14.032 240.947 13.312 240.371 12.736C239.795 12.16 238.931 11.848 237.779 11.8V39.16C237.779 39.976 237.923 40.672 238.211 41.248C238.547 41.776 238.979 42.208 239.507 42.544C240.035 42.88 240.635 43.12 241.307 43.264C241.979 43.408 242.675 43.504 243.395 43.552V55C240.947 55 238.523 54.928 236.123 54.784C233.723 54.592 231.299 54.496 228.851 54.496C226.403 54.496 223.955 54.592 221.507 54.784C219.107 54.928 216.683 55 214.235 55V43.552ZM270.604 55V43.552C271.324 43.552 272.02 43.48 272.692 43.336C273.364 43.144 273.964 42.88 274.492 42.544C275.02 42.208 275.428 41.776 275.716 41.248C276.052 40.672 276.22 39.976 276.22 39.16V16.264C276.22 15.448 276.052 14.776 275.716 14.248C275.428 13.672 275.02 13.216 274.492 12.88C273.964 12.544 273.364 12.304 272.692 12.16C272.02 11.968 271.324 11.872 270.604 11.872V0.423999C274.78 0.711998 278.98 0.855998 283.204 0.855998C286.66 0.855998 290.068 0.783997 293.428 0.639996C296.788 0.447996 300.196 0.351995 303.652 0.351995C306.052 0.351995 308.284 0.567996 310.348 0.999996C312.46 1.432 314.284 2.176 315.82 3.232C317.356 4.288 318.556 5.704 319.42 7.48C320.332 9.256 320.788 11.488 320.788 14.176C320.788 15.136 320.668 16.12 320.428 17.128C320.188 18.136 319.828 19.096 319.348 20.008C318.868 20.872 318.244 21.64 317.476 22.312C316.756 22.984 315.916 23.488 314.956 23.824C316.588 24.352 317.956 25.12 319.06 26.128C320.164 27.088 321.052 28.216 321.724 29.512C322.444 30.808 322.948 32.224 323.236 33.76C323.524 35.248 323.668 36.784 323.668 38.368C323.668 41.392 323.164 43.96 322.156 46.072C321.196 48.184 319.852 49.888 318.124 51.184C316.396 52.48 314.356 53.416 312.004 53.992C309.652 54.568 307.084 54.856 304.3 54.856C300.796 54.856 297.292 54.808 293.788 54.712C290.332 54.616 286.852 54.568 283.348 54.568C279.124 54.568 274.876 54.712 270.604 55ZM294.148 20.584C295.396 20.536 296.5 20.464 297.46 20.368C298.468 20.224 299.332 19.936 300.052 19.504C300.772 19.072 301.324 18.448 301.708 17.632C302.092 16.768 302.284 15.616 302.284 14.176C302.284 12.88 302.044 11.896 301.564 11.224C301.084 10.504 300.46 10 299.692 9.712C298.924 9.376 298.036 9.208 297.028 9.208C296.068 9.16 295.108 9.136 294.148 9.136V20.584ZM294.148 46.288C295.828 46.288 297.268 46.168 298.468 45.928C299.668 45.688 300.652 45.256 301.42 44.632C302.188 43.96 302.764 43.072 303.148 41.968C303.532 40.816 303.724 39.352 303.724 37.576C303.724 35.704 303.532 34.216 303.148 33.112C302.812 31.96 302.26 31.096 301.492 30.52C300.724 29.944 299.716 29.56 298.468 29.368C297.268 29.176 295.828 29.08 294.148 29.08V46.288ZM356.957 33.76C356.909 33.088 356.669 32.584 356.237 32.248C355.805 31.864 355.253 31.576 354.581 31.384C353.957 31.192 353.261 31.096 352.493 31.096C351.725 31.048 350.933 31.024 350.117 31.024V39.16C350.117 41.032 350.597 42.256 351.557 42.832C352.517 43.36 353.837 43.624 355.517 43.624C356.861 43.624 357.917 43.408 358.685 42.976C359.453 42.496 360.029 41.872 360.413 41.104C360.797 40.288 361.037 39.376 361.133 38.368C361.277 37.36 361.373 36.28 361.421 35.128H372.869C372.629 36.664 372.509 38.2 372.509 39.736C372.509 41.272 372.509 42.808 372.509 44.344C372.509 46.168 372.509 47.992 372.509 49.816C372.557 51.592 372.677 53.368 372.869 55.144C368.069 55.24 363.245 55.192 358.397 55C353.597 54.76 348.797 54.64 343.997 54.64C341.069 54.64 338.165 54.712 335.285 54.856C332.405 54.952 329.501 55 326.573 55V43.552C327.245 43.504 327.917 43.408 328.589 43.264C329.261 43.12 329.861 42.904 330.389 42.616C330.917 42.28 331.349 41.848 331.685 41.32C332.021 40.744 332.189 40.024 332.189 39.16V16.408C332.189 15.544 332.021 14.848 331.685 14.32C331.349 13.744 330.917 13.312 330.389 13.024C329.861 12.688 329.261 12.448 328.589 12.304C327.917 12.16 327.245 12.064 326.573 12.016V0.567997C329.453 0.519998 332.309 0.567998 335.141 0.711999C337.973 0.855998 340.829 0.927997 343.709 0.927997C348.269 0.927997 352.997 0.855998 357.893 0.711999C362.837 0.519999 367.589 0.423999 372.149 0.423999C371.957 2.2 371.837 4 371.789 5.824C371.789 7.6 371.789 9.4 371.789 11.224C371.789 12.76 371.789 14.296 371.789 15.832C371.789 17.368 371.909 18.904 372.149 20.44H360.701C360.653 19.384 360.605 18.352 360.557 17.344C360.557 16.336 360.413 15.448 360.125 14.68C359.885 13.864 359.429 13.216 358.757 12.736C358.085 12.208 357.101 11.944 355.805 11.944C354.125 11.944 352.757 12.232 351.701 12.808C350.645 13.336 350.117 14.536 350.117 16.408V24.616C350.933 24.616 351.725 24.616 352.493 24.616C353.309 24.568 354.029 24.448 354.653 24.256C355.325 24.064 355.853 23.8 356.237 23.464C356.669 23.08 356.909 22.552 356.957 21.88H363.365C363.269 22.84 363.197 23.824 363.149 24.832C363.101 25.84 363.077 26.824 363.077 27.784C363.077 28.792 363.101 29.8 363.149 30.808C363.197 31.768 363.269 32.752 363.365 33.76H356.957ZM375.721 43.552C376.441 43.504 377.137 43.408 377.809 43.264C378.481 43.12 379.081 42.88 379.609 42.544C380.137 42.208 380.545 41.776 380.833 41.248C381.169 40.672 381.337 39.976 381.337 39.16V16.264C381.337 15.448 381.169 14.776 380.833 14.248C380.545 13.672 380.137 13.216 379.609 12.88C379.081 12.544 378.481 12.304 377.809 12.16C377.137 12.016 376.441 11.92 375.721 11.872V0.423999C378.025 0.615999 380.305 0.759999 382.561 0.855998C384.817 0.903997 387.097 0.927997 389.401 0.927997C391.849 0.927997 394.273 0.879997 396.673 0.783998C399.121 0.687997 401.569 0.567997 404.017 0.423999L418.777 35.416V16.264C418.777 15.448 418.609 14.776 418.273 14.248C417.985 13.672 417.577 13.216 417.049 12.88C416.521 12.544 415.921 12.304 415.249 12.16C414.577 12.016 413.881 11.92 413.161 11.872V0.423999H414.025C415.561 0.423999 417.049 0.471998 418.489 0.567997C419.977 0.663999 421.465 0.711999 422.953 0.711999C424.489 0.711999 426.025 0.663999 427.561 0.567997C429.145 0.471998 430.705 0.423999 432.241 0.423999V11.872C431.521 11.92 430.825 12.016 430.153 12.16C429.481 12.304 428.881 12.544 428.353 12.88C427.825 13.216 427.393 13.672 427.057 14.248C426.769 14.776 426.625 15.448 426.625 16.264V54.928C424.705 54.784 422.785 54.664 420.865 54.568C418.945 54.472 417.025 54.424 415.105 54.424C411.361 54.424 407.617 54.64 403.873 55.072L389.257 21.808C389.257 24.688 389.233 27.592 389.185 30.52C389.185 33.4 389.185 36.28 389.185 39.16C389.185 39.976 389.329 40.672 389.617 41.248C389.953 41.776 390.385 42.208 390.913 42.544C391.441 42.88 392.041 43.12 392.713 43.264C393.385 43.408 394.081 43.504 394.801 43.552V55H394.153C392.713 55 391.273 54.928 389.833 54.784C388.393 54.64 386.929 54.568 385.441 54.568C383.809 54.568 382.177 54.64 380.545 54.784C378.961 54.928 377.353 55 375.721 55V43.552ZM465.519 33.76C465.471 33.088 465.231 32.584 464.799 32.248C464.367 31.864 463.815 31.576 463.143 31.384C462.519 31.192 461.823 31.096 461.055 31.096C460.287 31.048 459.495 31.024 458.679 31.024V39.16C458.679 41.032 459.159 42.256 460.119 42.832C461.079 43.36 462.399 43.624 464.079 43.624C465.423 43.624 466.479 43.408 467.247 42.976C468.015 42.496 468.591 41.872 468.975 41.104C469.359 40.288 469.599 39.376 469.695 38.368C469.839 37.36 469.935 36.28 469.983 35.128H481.431C481.191 36.664 481.071 38.2 481.071 39.736C481.071 41.272 481.071 42.808 481.071 44.344C481.071 46.168 481.071 47.992 481.071 49.816C481.119 51.592 481.239 53.368 481.431 55.144C476.631 55.24 471.807 55.192 466.959 55C462.159 54.76 457.359 54.64 452.559 54.64C449.631 54.64 446.727 54.712 443.847 54.856C440.967 54.952 438.063 55 435.135 55V43.552C435.807 43.504 436.479 43.408 437.151 43.264C437.823 43.12 438.423 42.904 438.951 42.616C439.479 42.28 439.911 41.848 440.247 41.32C440.583 40.744 440.751 40.024 440.751 39.16V16.408C440.751 15.544 440.583 14.848 440.247 14.32C439.911 13.744 439.479 13.312 438.951 13.024C438.423 12.688 437.823 12.448 437.151 12.304C436.479 12.16 435.807 12.064 435.135 12.016V0.567997C438.015 0.519998 440.871 0.567998 443.703 0.711999C446.535 0.855998 449.391 0.927997 452.271 0.927997C456.831 0.927997 461.559 0.855998 466.455 0.711999C471.399 0.519999 476.151 0.423999 480.711 0.423999C480.519 2.2 480.399 4 480.351 5.824C480.351 7.6 480.351 9.4 480.351 11.224C480.351 12.76 480.351 14.296 480.351 15.832C480.351 17.368 480.471 18.904 480.711 20.44H469.263C469.215 19.384 469.167 18.352 469.119 17.344C469.119 16.336 468.975 15.448 468.687 14.68C468.447 13.864 467.991 13.216 467.319 12.736C466.647 12.208 465.663 11.944 464.367 11.944C462.687 11.944 461.319 12.232 460.263 12.808C459.207 13.336 458.679 14.536 458.679 16.408V24.616C459.495 24.616 460.287 24.616 461.055 24.616C461.871 24.568 462.591 24.448 463.215 24.256C463.887 24.064 464.415 23.8 464.799 23.464C465.231 23.08 465.471 22.552 465.519 21.88H471.927C471.831 22.84 471.759 23.824 471.711 24.832C471.663 25.84 471.639 26.824 471.639 27.784C471.639 28.792 471.663 29.8 471.711 30.808C471.759 31.768 471.831 32.752 471.927 33.76H465.519ZM484.284 43.552C484.956 43.504 485.628 43.408 486.3 43.264C486.972 43.12 487.572 42.904 488.1 42.616C488.628 42.28 489.06 41.848 489.396 41.32C489.732 40.744 489.9 40.024 489.9 39.16V16.264C489.9 15.4 489.732 14.704 489.396 14.176C489.06 13.6 488.628 13.168 488.1 12.88C487.572 12.544 486.972 12.304 486.3 12.16C485.628 12.016 484.956 11.92 484.284 11.872V0.423999C487.164 0.375997 490.02 0.423996 492.852 0.567997C495.684 0.711998 498.54 0.783998 501.42 0.783998C505.98 0.783998 510.708 0.711998 515.604 0.567997C520.548 0.375997 525.3 0.279996 529.86 0.279996C529.668 2.056 529.548 3.856 529.5 5.68C529.5 7.456 529.5 9.256 529.5 11.08C529.5 12.616 529.5 14.152 529.5 15.688C529.5 17.224 529.62 18.76 529.86 20.296H518.412C518.364 19.24 518.316 18.208 518.268 17.2C518.268 16.192 518.124 15.304 517.836 14.536C517.596 13.72 517.14 13.072 516.468 12.592C515.796 12.064 514.812 11.8 513.516 11.8C511.836 11.8 510.468 12.088 509.412 12.664C508.356 13.192 507.828 14.392 507.828 16.264V24.76C508.692 24.76 509.508 24.76 510.276 24.76C511.092 24.76 511.812 24.688 512.436 24.544C513.06 24.352 513.564 24.064 513.948 23.68C514.38 23.296 514.62 22.744 514.668 22.024H521.076C520.98 22.984 520.908 23.968 520.86 24.976C520.812 25.984 520.788 26.968 520.788 27.928C520.788 28.936 520.812 29.944 520.86 30.952C520.908 31.912 520.98 32.896 521.076 33.904H514.668C514.62 33.232 514.38 32.728 513.948 32.392C513.516 32.008 512.964 31.72 512.292 31.528C511.668 31.336 510.972 31.24 510.204 31.24C509.436 31.192 508.644 31.168 507.828 31.168V39.16C507.828 40.024 507.996 40.744 508.332 41.32C508.668 41.848 509.1 42.28 509.628 42.616C510.156 42.904 510.756 43.12 511.428 43.264C512.1 43.408 512.772 43.504 513.444 43.552V55C510.996 55.096 508.572 55.048 506.172 54.856C503.772 54.616 501.348 54.496 498.9 54.496C496.452 54.496 494.004 54.592 491.556 54.784C489.156 54.928 486.732 55 484.284 55V43.552ZM532.729 43.552C533.401 43.504 534.073 43.408 534.745 43.264C535.417 43.12 536.017 42.904 536.545 42.616C537.073 42.28 537.505 41.848 537.841 41.32C538.177 40.744 538.345 40.024 538.345 39.16V16.264C538.345 15.4 538.177 14.704 537.841 14.176C537.505 13.6 537.073 13.168 536.545 12.88C536.017 12.544 535.417 12.304 534.745 12.16C534.073 12.016 533.401 11.92 532.729 11.872V0.423999C535.177 0.327997 537.601 0.399996 540.001 0.639996C542.449 0.831996 544.897 0.927997 547.345 0.927997C549.793 0.927997 552.217 0.855998 554.617 0.711999C557.017 0.519999 559.441 0.423999 561.889 0.423999V11.872C561.217 11.92 560.545 12.016 559.873 12.16C559.201 12.304 558.601 12.544 558.073 12.88C557.545 13.168 557.113 13.6 556.777 14.176C556.441 14.704 556.273 15.4 556.273 16.264V39.16C556.273 40.024 556.441 40.744 556.777 41.32C557.113 41.848 557.545 42.28 558.073 42.616C558.601 42.904 559.201 43.12 559.873 43.264C560.545 43.408 561.217 43.504 561.889 43.552V55C559.441 55.096 557.017 55.048 554.617 54.856C552.217 54.616 549.793 54.496 547.345 54.496C544.897 54.496 542.449 54.592 540.001 54.784C537.601 54.928 535.177 55 532.729 55V43.552ZM574.728 43.552C575.448 43.504 576.144 43.408 576.816 43.264C577.488 43.12 578.088 42.88 578.616 42.544C579.144 42.208 579.552 41.776 579.84 41.248C580.176 40.672 580.344 39.976 580.344 39.16V11.8C579.192 11.848 578.328 12.16 577.752 12.736C577.224 13.312 576.84 14.032 576.6 14.896C576.408 15.76 576.312 16.672 576.312 17.632C576.312 18.592 576.288 19.48 576.24 20.296H564.792C564.984 19.144 565.08 17.992 565.08 16.84C565.128 15.688 565.152 14.536 565.152 13.384C565.152 11.176 565.152 8.992 565.152 6.832C565.152 4.624 565.032 2.44 564.792 0.279996C572.808 0.711997 580.8 0.927997 588.768 0.927997C597.12 0.927997 605.472 0.711997 613.824 0.279996C613.584 2.44 613.464 4.624 613.464 6.832C613.464 8.992 613.464 11.176 613.464 13.384C613.464 14.536 613.464 15.688 613.464 16.84C613.512 17.992 613.632 19.144 613.824 20.296H602.376C602.328 19.48 602.304 18.592 602.304 17.632C602.352 16.672 602.256 15.76 602.016 14.896C601.824 14.032 601.44 13.312 600.864 12.736C600.288 12.16 599.424 11.848 598.272 11.8V39.16C598.272 39.976 598.416 40.672 598.704 41.248C599.04 41.776 599.472 42.208 600 42.544C600.528 42.88 601.128 43.12 601.8 43.264C602.472 43.408 603.168 43.504 603.888 43.552V55C601.44 55 599.016 54.928 596.616 54.784C594.216 54.592 591.792 54.496 589.344 54.496C586.896 54.496 584.448 54.592 582 54.784C579.6 54.928 577.176 55 574.728 55V43.552ZM616.754 18.784C616.85 15.376 617.522 12.52 618.77 10.216C620.018 7.864 621.674 5.968 623.738 4.528C625.802 3.088 628.178 2.056 630.866 1.432C633.602 0.759999 636.458 0.423999 639.434 0.423999C641.93 0.423999 644.378 0.663999 646.778 1.144C649.226 1.576 651.434 1.984 653.402 2.368C654.074 2.512 654.554 2.32 654.842 1.792C655.13 1.264 655.298 0.687997 655.346 0.0639992H663.914C663.914 1.744 663.866 3.4 663.77 5.032C663.722 6.616 663.698 8.248 663.698 9.928C663.698 11.128 663.722 12.304 663.77 13.456C663.866 14.608 663.914 15.784 663.914 16.984H655.346C655.25 15.16 654.938 13.672 654.41 12.52C653.882 11.368 652.73 10.408 650.954 9.64C650.33 9.448 649.49 9.232 648.434 8.992C647.426 8.752 646.322 8.56 645.122 8.416C643.97 8.224 642.794 8.152 641.594 8.2C640.394 8.2 639.314 8.344 638.354 8.632C637.394 8.92 636.602 9.4 635.978 10.072C635.402 10.696 635.114 11.584 635.114 12.736C635.114 13.984 635.594 14.944 636.554 15.616C637.514 16.24 638.786 16.744 640.37 17.128C641.954 17.464 643.754 17.752 645.77 17.992C647.834 18.184 649.898 18.472 651.962 18.856C654.074 19.192 656.138 19.72 658.154 20.44C660.218 21.16 662.042 22.192 663.626 23.536C665.21 24.832 666.482 26.536 667.442 28.648C668.402 30.76 668.882 33.4 668.882 36.568C668.882 40.456 668.186 43.6 666.794 46C665.402 48.352 663.554 50.2 661.25 51.544C658.994 52.888 656.378 53.8 653.402 54.28C650.474 54.712 647.45 54.928 644.33 54.928C642.89 54.928 641.426 54.832 639.938 54.64C638.498 54.448 637.082 54.232 635.69 53.992C634.298 53.704 632.954 53.464 631.658 53.272C630.362 53.08 629.114 52.984 627.914 52.984C627.242 52.984 626.762 53.224 626.474 53.704C626.186 54.136 626.018 54.664 625.97 55.288H617.402C617.402 53.608 617.426 51.976 617.474 50.392C617.57 48.76 617.618 47.104 617.618 45.424C617.618 44.224 617.57 43.048 617.474 41.896C617.426 40.744 617.402 39.568 617.402 38.368H625.97C626.066 40.192 626.378 41.68 626.906 42.832C627.434 43.984 628.586 44.944 630.362 45.712C631.034 45.904 631.97 46.12 633.17 46.36C634.418 46.6 635.762 46.816 637.202 47.008C638.69 47.152 640.202 47.224 641.738 47.224C643.274 47.224 644.666 47.08 645.914 46.792C647.162 46.504 648.17 46.024 648.938 45.352C649.754 44.68 650.162 43.768 650.162 42.616C650.162 41.512 649.658 40.672 648.65 40.096C647.69 39.52 646.418 39.064 644.834 38.728C643.25 38.344 641.45 38.032 639.434 37.792C637.418 37.504 635.354 37.144 633.242 36.712C631.13 36.232 629.066 35.608 627.05 34.84C625.034 34.072 623.258 33.016 621.722 31.672C620.186 30.328 618.962 28.624 618.05 26.56C617.138 24.448 616.706 21.856 616.754 18.784ZM686.151 43.552C686.871 43.552 687.567 43.48 688.239 43.336C688.911 43.144 689.511 42.88 690.039 42.544C690.567 42.208 690.975 41.776 691.263 41.248C691.599 40.672 691.767 39.976 691.767 39.16V16.264C691.767 15.448 691.599 14.776 691.263 14.248C690.975 13.672 690.567 13.216 690.039 12.88C689.511 12.544 688.911 12.304 688.239 12.16C687.567 11.968 686.871 11.872 686.151 11.872V0.423999C688.599 0.567997 691.023 0.663997 693.423 0.711999C695.871 0.759999 698.319 0.783998 700.767 0.783998C702.351 0.783998 703.767 0.759999 705.015 0.711999C706.311 0.663997 707.559 0.615996 708.759 0.567997C710.007 0.471998 711.279 0.399998 712.575 0.351995C713.871 0.303996 715.287 0.279996 716.823 0.279996C721.143 0.279996 724.695 1.096 727.479 2.728C730.311 4.312 732.543 6.424 734.175 9.064C735.807 11.704 736.935 14.704 737.559 18.064C738.183 21.424 738.495 24.832 738.495 28.288C738.495 32.08 738.183 35.608 737.559 38.872C736.983 42.136 735.855 44.944 734.175 47.296C732.543 49.648 730.239 51.496 727.263 52.84C724.287 54.184 720.447 54.856 715.743 54.856C714.303 54.856 712.959 54.856 711.711 54.856C710.511 54.808 709.311 54.76 708.111 54.712C706.911 54.664 705.687 54.64 704.439 54.64C703.239 54.592 701.919 54.568 700.479 54.568C698.079 54.568 695.679 54.64 693.279 54.784C690.927 54.928 688.551 55 686.151 55V43.552ZM709.695 47.008C711.951 47.008 713.679 46.36 714.879 45.064C716.079 43.72 716.943 42.112 717.471 40.24C717.999 38.32 718.311 36.304 718.407 34.192C718.503 32.08 718.551 30.232 718.551 28.648C718.551 27.688 718.527 26.56 718.479 25.264C718.431 23.92 718.311 22.552 718.119 21.16C717.975 19.768 717.711 18.4 717.327 17.056C716.943 15.712 716.415 14.512 715.743 13.456C715.119 12.352 714.303 11.488 713.295 10.864C712.287 10.192 711.087 9.856 709.695 9.856V47.008ZM742.049 28.288C742.049 23.296 742.625 19.024 743.777 15.472C744.977 11.92 746.777 9.016 749.177 6.76C751.625 4.504 754.673 2.848 758.321 1.792C761.969 0.735998 766.265 0.207997 771.209 0.207997C776.249 0.207997 780.617 0.711998 784.313 1.72C788.009 2.728 791.033 4.36 793.385 6.616C795.785 8.824 797.561 11.728 798.713 15.328C799.865 18.88 800.441 23.2 800.441 28.288C800.441 33.376 799.841 37.648 798.641 41.104C797.489 44.56 795.713 47.344 793.313 49.456C790.913 51.52 787.865 53.008 784.169 53.92C780.521 54.784 776.201 55.216 771.209 55.216C766.313 55.216 762.041 54.76 758.393 53.848C754.745 52.936 751.697 51.424 749.249 49.312C746.849 47.2 745.049 44.44 743.849 41.032C742.649 37.576 742.049 33.328 742.049 28.288ZM763.073 28.288C763.073 30.928 763.121 33.448 763.217 35.848C763.313 38.248 763.601 40.36 764.081 42.184C764.609 43.96 765.377 45.4 766.385 46.504C767.441 47.56 768.905 48.088 770.777 48.088C772.649 48.088 774.089 47.56 775.097 46.504C776.153 45.4 776.921 43.96 777.401 42.184C777.929 40.36 778.241 38.248 778.337 35.848C778.433 33.448 778.481 30.928 778.481 28.288C778.481 25.696 778.433 23.104 778.337 20.512C778.241 17.92 777.929 15.592 777.401 13.528C776.921 11.464 776.153 9.784 775.097 8.488C774.089 7.192 772.649 6.544 770.777 6.544C768.905 6.544 767.441 7.192 766.385 8.488C765.377 9.784 764.609 11.464 764.081 13.528C763.601 15.592 763.313 17.92 763.217 20.512C763.121 23.104 763.073 25.696 763.073 28.288ZM817.706 43.552C818.378 43.504 819.05 43.408 819.722 43.264C820.394 43.12 820.994 42.904 821.522 42.616C822.05 42.28 822.482 41.848 822.818 41.32C823.154 40.744 823.322 40.024 823.322 39.16V16.264C823.322 15.4 823.154 14.704 822.818 14.176C822.482 13.6 822.05 13.168 821.522 12.88C820.994 12.544 820.394 12.304 819.722 12.16C819.05 12.016 818.378 11.92 817.706 11.872V0.423999C820.154 0.327997 822.578 0.399996 824.978 0.639996C827.426 0.831996 829.874 0.927997 832.322 0.927997C834.77 0.927997 837.194 0.855998 839.594 0.711999C841.994 0.519999 844.418 0.423999 846.866 0.423999V11.872C846.194 11.92 845.522 12.016 844.85 12.16C844.178 12.304 843.578 12.544 843.05 12.88C842.522 13.168 842.09 13.6 841.754 14.176C841.418 14.704 841.25 15.4 841.25 16.264V39.16C841.25 40.024 841.418 40.744 841.754 41.32C842.09 41.848 842.522 42.28 843.05 42.616C843.578 42.904 844.178 43.12 844.85 43.264C845.522 43.408 846.194 43.504 846.866 43.552V55C844.418 55.096 841.994 55.048 839.594 54.856C837.194 54.616 834.77 54.496 832.322 54.496C829.874 54.496 827.426 54.592 824.978 54.784C822.578 54.928 820.154 55 817.706 55V43.552ZM173.285 122.352C174.821 122.352 175.925 122.112 176.597 121.632C177.317 121.152 177.773 120.504 177.965 119.688C178.205 118.872 178.301 117.912 178.253 116.808C178.205 115.704 178.181 114.552 178.181 113.352C178.181 111.672 177.629 110.544 176.525 109.968C175.421 109.344 173.525 109.008 170.837 108.96V99.672C175.589 99.912 180.461 100.032 185.453 100.032C190.445 100.032 195.293 99.912 199.997 99.672V108.96C199.325 109.008 198.653 109.104 197.981 109.248C197.309 109.392 196.709 109.632 196.181 109.968C195.653 110.256 195.221 110.688 194.885 111.264C194.549 111.792 194.381 112.488 194.381 113.352V131.424H191.285L183.941 126.96C181.925 128.496 179.669 129.696 177.173 130.56C174.725 131.424 172.061 131.976 169.181 132.216C159.389 132.888 151.925 130.824 146.789 126.024C141.653 121.224 139.085 114.048 139.085 104.496C139.085 100.08 139.733 96.144 141.029 92.688C142.373 89.232 144.269 86.328 146.717 83.976C149.165 81.624 152.141 79.848 155.645 78.648C159.149 77.4 163.085 76.776 167.453 76.776C169.517 76.776 171.557 76.968 173.573 77.352C175.637 77.688 177.581 78.288 179.405 79.152C180.269 79.536 180.989 79.536 181.565 79.152C182.141 78.72 182.477 78.024 182.573 77.064H191.141C191.141 78.744 191.093 80.4 190.997 82.032C190.949 83.616 190.925 85.248 190.925 86.928C190.925 88.704 190.973 90.48 191.069 92.256C191.165 94.032 191.189 95.808 191.141 97.584H182.573C182.525 95.904 182.285 94.272 181.853 92.688C181.469 91.056 180.869 89.616 180.053 88.368C179.285 87.12 178.253 86.136 176.957 85.416C175.709 84.648 174.173 84.264 172.349 84.264C169.949 84.264 167.981 84.936 166.445 86.28C164.957 87.576 163.781 89.208 162.917 91.176C162.101 93.096 161.549 95.184 161.261 97.44C160.973 99.696 160.829 101.784 160.829 103.704C160.829 105.72 160.997 107.832 161.333 110.04C161.717 112.248 162.365 114.264 163.277 116.088C164.189 117.912 165.461 119.424 167.093 120.624C168.725 121.776 170.789 122.352 173.285 122.352ZM230.359 110.76C230.311 110.088 230.071 109.584 229.639 109.248C229.207 108.864 228.655 108.576 227.983 108.384C227.359 108.192 226.663 108.096 225.895 108.096C225.127 108.048 224.335 108.024 223.519 108.024V116.16C223.519 118.032 223.999 119.256 224.959 119.832C225.919 120.36 227.239 120.624 228.919 120.624C230.263 120.624 231.319 120.408 232.087 119.976C232.855 119.496 233.431 118.872 233.815 118.104C234.199 117.288 234.439 116.376 234.535 115.368C234.679 114.36 234.775 113.28 234.823 112.128H246.271C246.031 113.664 245.911 115.2 245.911 116.736C245.911 118.272 245.911 119.808 245.911 121.344C245.911 123.168 245.911 124.992 245.911 126.816C245.959 128.592 246.079 130.368 246.271 132.144C241.471 132.24 236.647 132.192 231.799 132C226.999 131.76 222.199 131.64 217.399 131.64C214.471 131.64 211.567 131.712 208.687 131.856C205.807 131.952 202.903 132 199.975 132V120.552C200.647 120.504 201.319 120.408 201.991 120.264C202.663 120.12 203.263 119.904 203.791 119.616C204.319 119.28 204.751 118.848 205.087 118.32C205.423 117.744 205.591 117.024 205.591 116.16V93.408C205.591 92.544 205.423 91.848 205.087 91.32C204.751 90.744 204.319 90.312 203.791 90.024C203.263 89.688 202.663 89.448 201.991 89.304C201.319 89.16 200.647 89.064 199.975 89.016V77.568C202.855 77.52 205.711 77.568 208.543 77.712C211.375 77.856 214.231 77.928 217.111 77.928C221.671 77.928 226.399 77.856 231.295 77.712C236.239 77.52 240.991 77.424 245.551 77.424C245.359 79.2 245.239 81 245.191 82.824C245.191 84.6 245.191 86.4 245.191 88.224C245.191 89.76 245.191 91.296 245.191 92.832C245.191 94.368 245.311 95.904 245.551 97.44H234.103C234.055 96.384 234.007 95.352 233.959 94.344C233.959 93.336 233.815 92.448 233.527 91.68C233.287 90.864 232.831 90.216 232.159 89.736C231.487 89.208 230.503 88.944 229.207 88.944C227.527 88.944 226.159 89.232 225.103 89.808C224.047 90.336 223.519 91.536 223.519 93.408V101.616C224.335 101.616 225.127 101.616 225.895 101.616C226.711 101.568 227.431 101.448 228.055 101.256C228.727 101.064 229.255 100.8 229.639 100.464C230.071 100.08 230.311 99.552 230.359 98.88H236.767C236.671 99.84 236.599 100.824 236.551 101.832C236.503 102.84 236.479 103.824 236.479 104.784C236.479 105.792 236.503 106.8 236.551 107.808C236.599 108.768 236.671 109.752 236.767 110.76H230.359ZM259.06 120.552C259.78 120.504 260.476 120.408 261.148 120.264C261.82 120.12 262.42 119.88 262.948 119.544C263.476 119.208 263.884 118.776 264.172 118.248C264.508 117.672 264.676 116.976 264.676 116.16V88.8C263.524 88.848 262.66 89.16 262.084 89.736C261.556 90.312 261.172 91.032 260.932 91.896C260.74 92.76 260.644 93.672 260.644 94.632C260.644 95.592 260.62 96.48 260.572 97.296H249.124C249.316 96.144 249.412 94.992 249.412 93.84C249.46 92.688 249.484 91.536 249.484 90.384C249.484 88.176 249.484 85.992 249.484 83.832C249.484 81.624 249.364 79.44 249.124 77.28C257.14 77.712 265.132 77.928 273.1 77.928C281.452 77.928 289.804 77.712 298.156 77.28C297.916 79.44 297.796 81.624 297.796 83.832C297.796 85.992 297.796 88.176 297.796 90.384C297.796 91.536 297.796 92.688 297.796 93.84C297.844 94.992 297.964 96.144 298.156 97.296H286.708C286.66 96.48 286.636 95.592 286.636 94.632C286.684 93.672 286.588 92.76 286.348 91.896C286.156 91.032 285.772 90.312 285.196 89.736C284.62 89.16 283.756 88.848 282.604 88.8V116.16C282.604 116.976 282.748 117.672 283.036 118.248C283.372 118.776 283.804 119.208 284.332 119.544C284.86 119.88 285.46 120.12 286.132 120.264C286.804 120.408 287.5 120.504 288.22 120.552V132C285.772 132 283.348 131.928 280.948 131.784C278.548 131.592 276.124 131.496 273.676 131.496C271.228 131.496 268.78 131.592 266.332 131.784C263.932 131.928 261.508 132 259.06 132V120.552ZM315.428 120.552C316.1 120.504 316.772 120.408 317.444 120.264C318.116 120.12 318.716 119.904 319.244 119.616C319.772 119.28 320.204 118.848 320.54 118.32C320.876 117.744 321.044 117.024 321.044 116.16V93.264C321.044 92.4 320.876 91.704 320.54 91.176C320.204 90.6 319.772 90.168 319.244 89.88C318.716 89.544 318.116 89.304 317.444 89.16C316.772 89.016 316.1 88.92 315.428 88.872V77.424C317.876 77.328 320.3 77.4 322.7 77.64C325.148 77.832 327.596 77.928 330.044 77.928C332.492 77.928 334.916 77.856 337.316 77.712C339.716 77.52 342.14 77.424 344.588 77.424V88.872C343.916 88.92 343.244 89.016 342.572 89.16C341.9 89.304 341.3 89.544 340.772 89.88C340.244 90.168 339.812 90.6 339.476 91.176C339.14 91.704 338.972 92.4 338.972 93.264V116.16C338.972 117.024 339.14 117.744 339.476 118.32C339.812 118.848 340.244 119.28 340.772 119.616C341.3 119.904 341.9 120.12 342.572 120.264C343.244 120.408 343.916 120.504 344.588 120.552V132C342.14 132.096 339.716 132.048 337.316 131.856C334.916 131.616 332.492 131.496 330.044 131.496C327.596 131.496 325.148 131.592 322.7 131.784C320.3 131.928 317.876 132 315.428 132V120.552ZM347.491 120.552C348.163 120.504 348.835 120.408 349.507 120.264C350.179 120.12 350.779 119.904 351.307 119.616C351.835 119.28 352.267 118.848 352.603 118.32C352.939 117.744 353.107 117.024 353.107 116.16V93.264C353.107 92.4 352.939 91.704 352.603 91.176C352.267 90.6 351.835 90.168 351.307 89.88C350.779 89.544 350.179 89.304 349.507 89.16C348.835 89.016 348.163 88.92 347.491 88.872V77.424C350.371 77.376 353.227 77.424 356.059 77.568C358.891 77.712 361.747 77.784 364.627 77.784C369.187 77.784 373.915 77.712 378.811 77.568C383.755 77.376 388.507 77.28 393.067 77.28C392.875 79.056 392.755 80.856 392.707 82.68C392.707 84.456 392.707 86.256 392.707 88.08C392.707 89.616 392.707 91.152 392.707 92.688C392.707 94.224 392.827 95.76 393.067 97.296H381.619C381.571 96.24 381.523 95.208 381.475 94.2C381.475 93.192 381.331 92.304 381.043 91.536C380.803 90.72 380.347 90.072 379.675 89.592C379.003 89.064 378.019 88.8 376.723 88.8C375.043 88.8 373.675 89.088 372.619 89.664C371.563 90.192 371.035 91.392 371.035 93.264V101.76C371.899 101.76 372.715 101.76 373.483 101.76C374.299 101.76 375.019 101.688 375.643 101.544C376.267 101.352 376.771 101.064 377.155 100.68C377.587 100.296 377.827 99.744 377.875 99.024H384.283C384.187 99.984 384.115 100.968 384.067 101.976C384.019 102.984 383.995 103.968 383.995 104.928C383.995 105.936 384.019 106.944 384.067 107.952C384.115 108.912 384.187 109.896 384.283 110.904H377.875C377.827 110.232 377.587 109.728 377.155 109.392C376.723 109.008 376.171 108.72 375.499 108.528C374.875 108.336 374.179 108.24 373.411 108.24C372.643 108.192 371.851 108.168 371.035 108.168V116.16C371.035 117.024 371.203 117.744 371.539 118.32C371.875 118.848 372.307 119.28 372.835 119.616C373.363 119.904 373.963 120.12 374.635 120.264C375.307 120.408 375.979 120.504 376.651 120.552V132C374.203 132.096 371.779 132.048 369.379 131.856C366.979 131.616 364.555 131.496 362.107 131.496C359.659 131.496 357.211 131.592 354.763 131.784C352.363 131.928 349.939 132 347.491 132V120.552ZM410.35 120.552C411.022 120.504 411.694 120.408 412.366 120.264C413.038 120.12 413.638 119.904 414.166 119.616C414.694 119.28 415.126 118.848 415.462 118.32C415.798 117.744 415.966 117.024 415.966 116.16V93.264C415.966 92.4 415.798 91.704 415.462 91.176C415.126 90.6 414.694 90.168 414.166 89.88C413.638 89.544 413.038 89.304 412.366 89.16C411.694 89.016 411.022 88.92 410.35 88.872V77.424C412.798 77.328 415.222 77.4 417.622 77.64C420.07 77.832 422.518 77.928 424.966 77.928C427.414 77.928 429.838 77.856 432.238 77.712C434.638 77.52 437.062 77.424 439.51 77.424V88.872C438.838 88.92 438.166 89.016 437.494 89.16C436.822 89.304 436.222 89.544 435.694 89.88C435.166 90.168 434.734 90.6 434.398 91.176C434.062 91.704 433.894 92.4 433.894 93.264V116.16C433.894 117.024 434.062 117.744 434.398 118.32C434.734 118.848 435.166 119.28 435.694 119.616C436.222 119.904 436.822 120.12 437.494 120.264C438.166 120.408 438.838 120.504 439.51 120.552V132C437.062 132.096 434.638 132.048 432.238 131.856C429.838 131.616 427.414 131.496 424.966 131.496C422.518 131.496 420.07 131.592 417.622 131.784C415.222 131.928 412.798 132 410.35 132V120.552ZM456.899 95.784C456.995 92.376 457.667 89.52 458.915 87.216C460.163 84.864 461.819 82.968 463.883 81.528C465.947 80.088 468.323 79.056 471.011 78.432C473.747 77.76 476.603 77.424 479.579 77.424C482.075 77.424 484.523 77.664 486.923 78.144C489.371 78.576 491.579 78.984 493.547 79.368C494.219 79.512 494.699 79.32 494.987 78.792C495.275 78.264 495.443 77.688 495.491 77.064H504.059C504.059 78.744 504.011 80.4 503.915 82.032C503.867 83.616 503.843 85.248 503.843 86.928C503.843 88.128 503.867 89.304 503.915 90.456C504.011 91.608 504.059 92.784 504.059 93.984H495.491C495.395 92.16 495.083 90.672 494.555 89.52C494.027 88.368 492.875 87.408 491.099 86.64C490.475 86.448 489.635 86.232 488.579 85.992C487.571 85.752 486.467 85.56 485.267 85.416C484.115 85.224 482.939 85.152 481.739 85.2C480.539 85.2 479.459 85.344 478.499 85.632C477.539 85.92 476.747 86.4 476.123 87.072C475.547 87.696 475.259 88.584 475.259 89.736C475.259 90.984 475.739 91.944 476.699 92.616C477.659 93.24 478.931 93.744 480.515 94.128C482.099 94.464 483.899 94.752 485.915 94.992C487.979 95.184 490.043 95.472 492.107 95.856C494.219 96.192 496.283 96.72 498.299 97.44C500.363 98.16 502.187 99.192 503.771 100.536C505.355 101.832 506.627 103.536 507.587 105.648C508.547 107.76 509.027 110.4 509.027 113.568C509.027 117.456 508.331 120.6 506.939 123C505.547 125.352 503.699 127.2 501.395 128.544C499.139 129.888 496.523 130.8 493.547 131.28C490.619 131.712 487.595 131.928 484.475 131.928C483.035 131.928 481.571 131.832 480.083 131.64C478.643 131.448 477.227 131.232 475.835 130.992C474.443 130.704 473.099 130.464 471.803 130.272C470.507 130.08 469.259 129.984 468.059 129.984C467.387 129.984 466.907 130.224 466.619 130.704C466.331 131.136 466.163 131.664 466.115 132.288H457.547C457.547 130.608 457.571 128.976 457.619 127.392C457.715 125.76 457.763 124.104 457.763 122.424C457.763 121.224 457.715 120.048 457.619 118.896C457.571 117.744 457.547 116.568 457.547 115.368H466.115C466.211 117.192 466.523 118.68 467.051 119.832C467.579 120.984 468.731 121.944 470.507 122.712C471.179 122.904 472.115 123.12 473.315 123.36C474.563 123.6 475.907 123.816 477.347 124.008C478.835 124.152 480.347 124.224 481.883 124.224C483.419 124.224 484.811 124.08 486.059 123.792C487.307 123.504 488.315 123.024 489.083 122.352C489.899 121.68 490.307 120.768 490.307 119.616C490.307 118.512 489.803 117.672 488.795 117.096C487.835 116.52 486.563 116.064 484.979 115.728C483.395 115.344 481.595 115.032 479.579 114.792C477.563 114.504 475.499 114.144 473.387 113.712C471.275 113.232 469.211 112.608 467.195 111.84C465.179 111.072 463.403 110.016 461.867 108.672C460.331 107.328 459.107 105.624 458.195 103.56C457.283 101.448 456.851 98.856 456.899 95.784ZM511.881 120.552C512.553 120.504 513.225 120.408 513.897 120.264C514.569 120.12 515.169 119.904 515.697 119.616C516.225 119.28 516.657 118.848 516.993 118.32C517.329 117.744 517.497 117.024 517.497 116.16V93.264C517.497 92.4 517.329 91.704 516.993 91.176C516.657 90.6 516.225 90.168 515.697 89.88C515.169 89.544 514.569 89.304 513.897 89.16C513.225 89.016 512.553 88.92 511.881 88.872V77.424C514.329 77.328 516.753 77.4 519.153 77.64C521.601 77.832 524.049 77.928 526.497 77.928C528.945 77.928 531.369 77.856 533.769 77.712C536.169 77.52 538.593 77.424 541.041 77.424V88.872C540.369 88.92 539.697 89.016 539.025 89.16C538.353 89.304 537.753 89.544 537.225 89.88C536.697 90.168 536.265 90.6 535.929 91.176C535.593 91.704 535.425 92.4 535.425 93.264V116.16C535.425 117.024 535.593 117.744 535.929 118.32C536.265 118.848 536.697 119.28 537.225 119.616C537.753 119.904 538.353 120.12 539.025 120.264C539.697 120.408 540.369 120.504 541.041 120.552V132C538.593 132.096 536.169 132.048 533.769 131.856C531.369 131.616 528.945 131.496 526.497 131.496C524.049 131.496 521.601 131.592 519.153 131.784C516.753 131.928 514.329 132 511.881 132V120.552ZM577.441 122.352C578.977 122.352 580.081 122.112 580.753 121.632C581.473 121.152 581.929 120.504 582.121 119.688C582.361 118.872 582.457 117.912 582.409 116.808C582.361 115.704 582.337 114.552 582.337 113.352C582.337 111.672 581.785 110.544 580.681 109.968C579.577 109.344 577.681 109.008 574.993 108.96V99.672C579.745 99.912 584.617 100.032 589.609 100.032C594.601 100.032 599.449 99.912 604.153 99.672V108.96C603.481 109.008 602.809 109.104 602.137 109.248C601.465 109.392 600.865 109.632 600.337 109.968C599.809 110.256 599.377 110.688 599.041 111.264C598.705 111.792 598.537 112.488 598.537 113.352V131.424H595.441L588.097 126.96C586.081 128.496 583.825 129.696 581.329 130.56C578.881 131.424 576.217 131.976 573.337 132.216C563.545 132.888 556.081 130.824 550.945 126.024C545.809 121.224 543.241 114.048 543.241 104.496C543.241 100.08 543.889 96.144 545.185 92.688C546.529 89.232 548.425 86.328 550.873 83.976C553.321 81.624 556.297 79.848 559.801 78.648C563.305 77.4 567.241 76.776 571.609 76.776C573.673 76.776 575.713 76.968 577.729 77.352C579.793 77.688 581.737 78.288 583.561 79.152C584.425 79.536 585.145 79.536 585.721 79.152C586.297 78.72 586.633 78.024 586.729 77.064H595.297C595.297 78.744 595.249 80.4 595.153 82.032C595.105 83.616 595.081 85.248 595.081 86.928C595.081 88.704 595.129 90.48 595.225 92.256C595.321 94.032 595.345 95.808 595.297 97.584H586.729C586.681 95.904 586.441 94.272 586.009 92.688C585.625 91.056 585.025 89.616 584.209 88.368C583.441 87.12 582.409 86.136 581.113 85.416C579.865 84.648 578.329 84.264 576.505 84.264C574.105 84.264 572.137 84.936 570.601 86.28C569.113 87.576 567.937 89.208 567.073 91.176C566.257 93.096 565.705 95.184 565.417 97.44C565.129 99.696 564.985 101.784 564.985 103.704C564.985 105.72 565.153 107.832 565.489 110.04C565.873 112.248 566.521 114.264 567.433 116.088C568.345 117.912 569.617 119.424 571.249 120.624C572.881 121.776 574.945 122.352 577.441 122.352ZM604.835 120.552C605.555 120.504 606.251 120.408 606.923 120.264C607.595 120.12 608.195 119.88 608.723 119.544C609.251 119.208 609.659 118.776 609.947 118.248C610.283 117.672 610.451 116.976 610.451 116.16V93.264C610.451 92.448 610.283 91.776 609.947 91.248C609.659 90.672 609.251 90.216 608.723 89.88C608.195 89.544 607.595 89.304 606.923 89.16C606.251 89.016 605.555 88.92 604.835 88.872V77.424C607.139 77.616 609.419 77.76 611.675 77.856C613.931 77.904 616.211 77.928 618.515 77.928C620.963 77.928 623.387 77.88 625.787 77.784C628.235 77.688 630.683 77.568 633.131 77.424L647.891 112.416V93.264C647.891 92.448 647.723 91.776 647.387 91.248C647.099 90.672 646.691 90.216 646.163 89.88C645.635 89.544 645.035 89.304 644.363 89.16C643.691 89.016 642.995 88.92 642.275 88.872V77.424H643.139C644.675 77.424 646.163 77.472 647.603 77.568C649.091 77.664 650.579 77.712 652.067 77.712C653.603 77.712 655.139 77.664 656.675 77.568C658.259 77.472 659.819 77.424 661.355 77.424V88.872C660.635 88.92 659.939 89.016 659.267 89.16C658.595 89.304 657.995 89.544 657.467 89.88C656.939 90.216 656.507 90.672 656.171 91.248C655.883 91.776 655.739 92.448 655.739 93.264V131.928C653.819 131.784 651.899 131.664 649.979 131.568C648.059 131.472 646.139 131.424 644.219 131.424C640.475 131.424 636.731 131.64 632.987 132.072L618.371 98.808C618.371 101.688 618.347 104.592 618.299 107.52C618.299 110.4 618.299 113.28 618.299 116.16C618.299 116.976 618.443 117.672 618.731 118.248C619.067 118.776 619.499 119.208 620.027 119.544C620.555 119.88 621.155 120.12 621.827 120.264C622.499 120.408 623.195 120.504 623.915 120.552V132H623.267C621.827 132 620.387 131.928 618.947 131.784C617.507 131.64 616.043 131.568 614.555 131.568C612.923 131.568 611.291 131.64 609.659 131.784C608.075 131.928 606.467 132 604.835 132V120.552ZM676.993 116.664C676.993 113.784 677.281 111.528 677.857 109.896C678.433 108.264 679.153 106.944 680.017 105.936C680.881 104.928 681.817 104.112 682.825 103.488C683.833 102.864 684.769 102.144 685.633 101.328C686.497 100.464 687.217 99.384 687.793 98.088C688.369 96.744 688.657 94.872 688.657 92.472C688.657 92.088 688.609 91.632 688.513 91.104C688.417 90.576 688.249 90.072 688.009 89.592C687.769 89.112 687.433 88.728 687.001 88.44C686.617 88.104 686.113 87.936 685.489 87.936C684.721 87.936 684.073 88.248 683.545 88.872C683.065 89.496 682.681 90.24 682.393 91.104C682.105 91.968 681.913 92.832 681.817 93.696C681.721 94.56 681.673 95.232 681.673 95.712H664.321C664.273 93.552 664.489 91.344 664.969 89.088C665.497 86.784 666.553 84.72 668.137 82.896C669.721 81.024 671.977 79.512 674.905 78.36C677.881 77.16 681.817 76.56 686.713 76.56C690.697 76.56 694.081 76.992 696.865 77.856C699.649 78.72 701.881 79.968 703.561 81.6C705.241 83.232 706.417 85.248 707.089 87.648C707.761 90.048 708.001 92.76 707.809 95.784C707.665 98.28 707.065 100.368 706.009 102.048C704.953 103.68 703.681 105.048 702.193 106.152C700.753 107.256 699.193 108.192 697.513 108.96C695.833 109.728 694.273 110.472 692.833 111.192C691.393 111.912 690.193 112.704 689.233 113.568C688.273 114.384 687.769 115.416 687.721 116.664H676.993ZM676.777 120.48H688.297V131.856H676.777V120.48Z" fill="#C41A1F"/>
</svg>
