<svg width="1085" height="211" viewBox="0 0 1085 211" fill="none" xmlns="http://www.w3.org/2000/svg">
<path d="M165.61 50.552C166.33 50.504 167.026 50.408 167.698 50.264C168.37 50.12 168.97 49.88 169.498 49.544C170.026 49.208 170.434 48.776 170.722 48.248C171.058 47.672 171.226 46.976 171.226 46.16V18.8C170.074 18.848 169.21 19.16 168.634 19.736C168.106 20.312 167.722 21.032 167.482 21.896C167.29 22.76 167.194 23.672 167.194 24.632C167.194 25.592 167.17 26.48 167.122 27.296H155.674C155.866 26.144 155.962 24.992 155.962 23.84C156.01 22.688 156.034 21.536 156.034 20.384C156.034 18.176 156.034 15.992 156.034 13.832C156.034 11.624 155.914 9.44 155.674 7.28C163.69 7.712 171.682 7.928 179.65 7.928C188.002 7.928 196.354 7.712 204.706 7.28C204.466 9.44 204.346 11.624 204.346 13.832C204.346 15.992 204.346 18.176 204.346 20.384C204.346 21.536 204.346 22.688 204.346 23.84C204.394 24.992 204.514 26.144 204.706 27.296H193.258C193.21 26.48 193.186 25.592 193.186 24.632C193.234 23.672 193.138 22.76 192.898 21.896C192.706 21.032 192.322 20.312 191.746 19.736C191.17 19.16 190.306 18.848 189.154 18.8V46.16C189.154 46.976 189.298 47.672 189.586 48.248C189.922 48.776 190.354 49.208 190.882 49.544C191.41 49.88 192.01 50.12 192.682 50.264C193.354 50.408 194.05 50.504 194.77 50.552V62C192.322 62 189.898 61.928 187.498 61.784C185.098 61.592 182.674 61.496 180.226 61.496C177.778 61.496 175.33 61.592 172.882 61.784C170.482 61.928 168.058 62 165.61 62V50.552ZM207.565 50.552C208.237 50.504 208.909 50.408 209.581 50.264C210.253 50.12 210.853 49.904 211.381 49.616C211.909 49.28 212.341 48.848 212.677 48.32C213.013 47.744 213.181 47.024 213.181 46.16V23.264C213.181 22.4 213.013 21.704 212.677 21.176C212.341 20.6 211.909 20.168 211.381 19.88C210.853 19.544 210.253 19.304 209.581 19.16C208.909 19.016 208.237 18.92 207.565 18.872V7.424C210.013 7.328 212.437 7.4 214.837 7.64C217.285 7.832 219.733 7.928 222.181 7.928C224.629 7.928 227.053 7.856 229.453 7.712C231.853 7.52 234.277 7.424 236.725 7.424V18.872C236.053 18.92 235.381 19.016 234.709 19.16C234.037 19.304 233.437 19.544 232.909 19.88C232.381 20.168 231.949 20.6 231.613 21.176C231.277 21.704 231.109 22.4 231.109 23.264V32.408H247.021V23.264C247.021 22.4 246.853 21.704 246.517 21.176C246.181 20.6 245.749 20.168 245.221 19.88C244.693 19.544 244.093 19.304 243.421 19.16C242.749 19.016 242.077 18.92 241.405 18.872V7.424C243.853 7.328 246.277 7.4 248.677 7.64C251.125 7.832 253.573 7.928 256.021 7.928C258.469 7.928 260.893 7.856 263.293 7.712C265.693 7.52 268.117 7.424 270.565 7.424V18.872C269.893 18.92 269.221 19.016 268.549 19.16C267.877 19.304 267.277 19.544 266.749 19.88C266.221 20.168 265.789 20.6 265.453 21.176C265.117 21.704 264.949 22.4 264.949 23.264V46.16C264.949 47.024 265.117 47.744 265.453 48.32C265.789 48.848 266.221 49.28 266.749 49.616C267.277 49.904 267.877 50.12 268.549 50.264C269.221 50.408 269.893 50.504 270.565 50.552V62C268.117 62.096 265.693 62.048 263.293 61.856C260.893 61.616 258.469 61.496 256.021 61.496C253.573 61.496 251.125 61.592 248.677 61.784C246.277 61.928 243.853 62 241.405 62V50.552C242.077 50.504 242.749 50.408 243.421 50.264C244.093 50.12 244.693 49.904 245.221 49.616C245.749 49.28 246.181 48.848 246.517 48.32C246.853 47.744 247.021 47.024 247.021 46.16V38.816H231.109V46.16C231.109 47.024 231.277 47.744 231.613 48.32C231.949 48.848 232.381 49.28 232.909 49.616C233.437 49.904 234.037 50.12 234.709 50.264C235.381 50.408 236.053 50.504 236.725 50.552V62C234.277 62.096 231.853 62.048 229.453 61.856C227.053 61.616 224.629 61.496 222.181 61.496C219.733 61.496 217.285 61.592 214.837 61.784C212.437 61.928 210.013 62 207.565 62V50.552ZM303.832 40.76C303.784 40.088 303.544 39.584 303.112 39.248C302.68 38.864 302.128 38.576 301.456 38.384C300.832 38.192 300.136 38.096 299.368 38.096C298.6 38.048 297.808 38.024 296.992 38.024V46.16C296.992 48.032 297.472 49.256 298.432 49.832C299.392 50.36 300.712 50.624 302.392 50.624C303.736 50.624 304.792 50.408 305.56 49.976C306.328 49.496 306.904 48.872 307.288 48.104C307.672 47.288 307.912 46.376 308.008 45.368C308.152 44.36 308.248 43.28 308.296 42.128H319.744C319.504 43.664 319.384 45.2 319.384 46.736C319.384 48.272 319.384 49.808 319.384 51.344C319.384 53.168 319.384 54.992 319.384 56.816C319.432 58.592 319.552 60.368 319.744 62.144C314.944 62.24 310.12 62.192 305.272 62C300.472 61.76 295.672 61.64 290.872 61.64C287.944 61.64 285.04 61.712 282.16 61.856C279.28 61.952 276.376 62 273.448 62V50.552C274.12 50.504 274.792 50.408 275.464 50.264C276.136 50.12 276.736 49.904 277.264 49.616C277.792 49.28 278.224 48.848 278.56 48.32C278.896 47.744 279.064 47.024 279.064 46.16V23.408C279.064 22.544 278.896 21.848 278.56 21.32C278.224 20.744 277.792 20.312 277.264 20.024C276.736 19.688 276.136 19.448 275.464 19.304C274.792 19.16 274.12 19.064 273.448 19.016V7.568C276.328 7.52 279.184 7.568 282.016 7.712C284.848 7.856 287.704 7.928 290.584 7.928C295.144 7.928 299.872 7.856 304.768 7.712C309.712 7.52 314.464 7.424 319.024 7.424C318.832 9.2 318.712 11 318.664 12.824C318.664 14.6 318.664 16.4 318.664 18.224C318.664 19.76 318.664 21.296 318.664 22.832C318.664 24.368 318.784 25.904 319.024 27.44H307.576C307.528 26.384 307.48 25.352 307.432 24.344C307.432 23.336 307.288 22.448 307 21.68C306.76 20.864 306.304 20.216 305.632 19.736C304.96 19.208 303.976 18.944 302.68 18.944C301 18.944 299.632 19.232 298.576 19.808C297.52 20.336 296.992 21.536 296.992 23.408V31.616C297.808 31.616 298.6 31.616 299.368 31.616C300.184 31.568 300.904 31.448 301.528 31.256C302.2 31.064 302.728 30.8 303.112 30.464C303.544 30.08 303.784 29.552 303.832 28.88H310.24C310.144 29.84 310.072 30.824 310.024 31.832C309.976 32.84 309.952 33.824 309.952 34.784C309.952 35.792 309.976 36.8 310.024 37.808C310.072 38.768 310.144 39.752 310.24 40.76H303.832ZM337.01 50.552C337.73 50.504 338.426 50.408 339.098 50.264C339.77 50.12 340.37 49.88 340.898 49.544C341.426 49.208 341.834 48.776 342.122 48.248C342.458 47.672 342.626 46.976 342.626 46.16V23.264C342.626 22.448 342.458 21.776 342.122 21.248C341.834 20.672 341.426 20.216 340.898 19.88C340.37 19.544 339.77 19.304 339.098 19.16C338.426 19.016 337.73 18.92 337.01 18.872V7.424C339.362 7.616 341.69 7.76 343.994 7.856C346.346 7.952 348.722 8 351.122 8C353.666 8 356.186 7.952 358.682 7.856C361.226 7.76 363.77 7.616 366.314 7.424L378.41 40.688L390.506 7.424C392.57 7.616 394.634 7.76 396.698 7.856C398.762 7.904 400.85 7.928 402.962 7.928C404.93 7.928 406.874 7.904 408.794 7.856C410.762 7.76 412.73 7.616 414.698 7.424V18.872C413.978 18.92 413.282 19.016 412.61 19.16C411.938 19.304 411.338 19.544 410.81 19.88C410.282 20.216 409.85 20.672 409.514 21.248C409.226 21.776 409.082 22.448 409.082 23.264V46.16C409.082 46.976 409.226 47.672 409.514 48.248C409.85 48.776 410.282 49.208 410.81 49.544C411.338 49.88 411.938 50.12 412.61 50.264C413.282 50.408 413.978 50.504 414.698 50.552V62H413.834C411.53 62 409.25 61.928 406.994 61.784C404.738 61.592 402.458 61.496 400.154 61.496C397.706 61.496 395.258 61.592 392.81 61.784C390.41 61.928 387.986 62 385.538 62V50.552C386.258 50.504 386.954 50.408 387.626 50.264C388.298 50.12 388.898 49.88 389.426 49.544C389.954 49.208 390.362 48.776 390.65 48.248C390.986 47.672 391.154 46.976 391.154 46.16V28.592L378.77 62.072H362.57L350.546 29.528C350.546 32.312 350.522 35.096 350.474 37.88C350.474 40.616 350.474 43.376 350.474 46.16C350.474 46.976 350.618 47.672 350.906 48.248C351.242 48.776 351.674 49.208 352.202 49.544C352.73 49.88 353.33 50.12 354.002 50.264C354.674 50.408 355.37 50.504 356.09 50.552V62H355.514C354.218 62 352.922 61.928 351.626 61.784C350.378 61.64 349.106 61.568 347.81 61.568C345.986 61.568 344.186 61.64 342.41 61.784C340.634 61.928 338.834 62 337.01 62V50.552ZM417.588 50.552C418.308 50.504 419.148 50.408 420.108 50.264C421.068 50.12 422.004 49.88 422.916 49.544C423.828 49.208 424.644 48.776 425.364 48.248C426.084 47.672 426.564 46.976 426.804 46.16C426.996 45.536 427.308 44.552 427.74 43.208C428.22 41.816 428.748 40.256 429.324 38.528C429.9 36.752 430.476 34.928 431.052 33.056C431.676 31.136 432.228 29.336 432.708 27.656C433.236 25.928 433.668 24.464 434.004 23.264C434.34 22.016 434.508 21.176 434.508 20.744C434.508 20.312 434.388 19.976 434.148 19.736C433.956 19.448 433.692 19.256 433.356 19.16C433.068 19.064 432.732 18.992 432.348 18.944C431.964 18.896 431.604 18.872 431.268 18.872V7.424C433.38 7.568 435.468 7.664 437.532 7.712C439.644 7.76 441.78 7.784 443.94 7.784C446.052 7.784 448.116 7.784 450.132 7.784C452.196 7.736 454.284 7.64 456.396 7.496L467.772 46.16C468.156 47.504 468.828 48.56 469.788 49.328C470.796 50.048 471.996 50.456 473.388 50.552V62C470.94 62 468.492 61.928 466.044 61.784C463.644 61.592 461.22 61.496 458.772 61.496C456.564 61.496 454.38 61.592 452.22 61.784C450.06 61.928 447.876 62 445.668 62H444.228V50.552C444.756 50.552 445.332 50.504 445.956 50.408C446.628 50.264 447.252 50.072 447.828 49.832C448.452 49.592 448.956 49.256 449.34 48.824C449.772 48.392 449.988 47.84 449.988 47.168C449.988 46.4 449.82 45.608 449.484 44.792C449.196 43.976 448.932 43.208 448.692 42.488H436.452C436.212 43.208 435.948 43.976 435.66 44.792C435.372 45.608 435.228 46.376 435.228 47.096C435.228 47.768 435.42 48.32 435.804 48.752C436.236 49.184 436.74 49.544 437.316 49.832C437.94 50.072 438.588 50.264 439.26 50.408C439.932 50.504 440.508 50.552 440.988 50.552V62H439.62C437.892 62 436.164 61.928 434.436 61.784C432.756 61.592 431.052 61.496 429.324 61.496C427.356 61.496 425.388 61.592 423.42 61.784C421.5 61.928 419.556 62 417.588 62V50.552ZM446.532 36.44L442.284 22.76L438.396 36.44H446.532ZM476.299 50.552C477.019 50.504 477.715 50.408 478.387 50.264C479.059 50.12 479.659 49.88 480.187 49.544C480.715 49.208 481.123 48.776 481.411 48.248C481.747 47.672 481.915 46.976 481.915 46.16V23.264C481.915 22.448 481.747 21.776 481.411 21.248C481.123 20.672 480.715 20.216 480.187 19.88C479.659 19.544 479.059 19.304 478.387 19.16C477.715 19.016 477.019 18.92 476.299 18.872V7.424C478.603 7.616 480.883 7.76 483.139 7.856C485.395 7.904 487.675 7.928 489.979 7.928C492.427 7.928 494.851 7.88 497.251 7.784C499.699 7.688 502.147 7.568 504.595 7.424L519.355 42.416V23.264C519.355 22.448 519.187 21.776 518.851 21.248C518.563 20.672 518.155 20.216 517.627 19.88C517.099 19.544 516.499 19.304 515.827 19.16C515.155 19.016 514.459 18.92 513.739 18.872V7.424H514.603C516.139 7.424 517.627 7.472 519.067 7.568C520.555 7.664 522.043 7.712 523.531 7.712C525.067 7.712 526.603 7.664 528.139 7.568C529.723 7.472 531.283 7.424 532.819 7.424V18.872C532.099 18.92 531.403 19.016 530.731 19.16C530.059 19.304 529.459 19.544 528.931 19.88C528.403 20.216 527.971 20.672 527.635 21.248C527.347 21.776 527.203 22.448 527.203 23.264V61.928C525.283 61.784 523.363 61.664 521.443 61.568C519.523 61.472 517.603 61.424 515.683 61.424C511.939 61.424 508.195 61.64 504.451 62.072L489.835 28.808C489.835 31.688 489.811 34.592 489.763 37.52C489.763 40.4 489.763 43.28 489.763 46.16C489.763 46.976 489.907 47.672 490.195 48.248C490.531 48.776 490.963 49.208 491.491 49.544C492.019 49.88 492.619 50.12 493.291 50.264C493.963 50.408 494.659 50.504 495.379 50.552V62H494.731C493.291 62 491.851 61.928 490.411 61.784C488.971 61.64 487.507 61.568 486.019 61.568C484.387 61.568 482.755 61.64 481.123 61.784C479.539 61.928 477.931 62 476.299 62V50.552ZM535.713 50.552C536.385 50.504 537.057 50.408 537.729 50.264C538.401 50.12 539.001 49.904 539.529 49.616C540.057 49.28 540.489 48.848 540.825 48.32C541.161 47.744 541.329 47.024 541.329 46.16V23.264C541.329 22.4 541.161 21.704 540.825 21.176C540.489 20.6 540.057 20.168 539.529 19.88C539.001 19.544 538.401 19.304 537.729 19.16C537.057 19.016 536.385 18.92 535.713 18.872V7.424C538.161 7.328 540.585 7.4 542.985 7.64C545.433 7.832 547.881 7.928 550.329 7.928C552.777 7.928 555.201 7.856 557.601 7.712C560.001 7.52 562.425 7.424 564.873 7.424V18.872C564.201 18.92 563.529 19.016 562.857 19.16C562.185 19.304 561.585 19.544 561.057 19.88C560.529 20.168 560.097 20.6 559.761 21.176C559.425 21.704 559.257 22.4 559.257 23.264V46.16C559.257 47.024 559.425 47.744 559.761 48.32C560.097 48.848 560.529 49.28 561.057 49.616C561.585 49.904 562.185 50.12 562.857 50.264C563.529 50.408 564.201 50.504 564.873 50.552V62C562.425 62.096 560.001 62.048 557.601 61.856C555.201 61.616 552.777 61.496 550.329 61.496C547.881 61.496 545.433 61.592 542.985 61.784C540.585 61.928 538.161 62 535.713 62V50.552ZM567.776 50.552C568.448 50.504 569.12 50.408 569.792 50.264C570.464 50.12 571.064 49.904 571.592 49.616C572.12 49.28 572.552 48.848 572.888 48.32C573.224 47.744 573.392 47.024 573.392 46.16V23.264C573.392 22.4 573.224 21.704 572.888 21.176C572.552 20.6 572.12 20.168 571.592 19.88C571.064 19.544 570.464 19.304 569.792 19.16C569.12 19.016 568.448 18.92 567.776 18.872V7.424C570.656 7.376 573.512 7.424 576.344 7.568C579.176 7.712 582.032 7.784 584.912 7.784C589.472 7.784 594.2 7.712 599.096 7.568C604.04 7.376 608.792 7.28 613.352 7.28C613.16 9.056 613.04 10.856 612.992 12.68C612.992 14.456 612.992 16.256 612.992 18.08C612.992 19.616 612.992 21.152 612.992 22.688C612.992 24.224 613.112 25.76 613.352 27.296H601.904C601.856 26.24 601.808 25.208 601.76 24.2C601.76 23.192 601.616 22.304 601.328 21.536C601.088 20.72 600.632 20.072 599.96 19.592C599.288 19.064 598.304 18.8 597.008 18.8C595.328 18.8 593.96 19.088 592.904 19.664C591.848 20.192 591.32 21.392 591.32 23.264V31.76C592.184 31.76 593 31.76 593.768 31.76C594.584 31.76 595.304 31.688 595.928 31.544C596.552 31.352 597.056 31.064 597.44 30.68C597.872 30.296 598.112 29.744 598.16 29.024H604.568C604.472 29.984 604.4 30.968 604.352 31.976C604.304 32.984 604.28 33.968 604.28 34.928C604.28 35.936 604.304 36.944 604.352 37.952C604.4 38.912 604.472 39.896 604.568 40.904H598.16C598.112 40.232 597.872 39.728 597.44 39.392C597.008 39.008 596.456 38.72 595.784 38.528C595.16 38.336 594.464 38.24 593.696 38.24C592.928 38.192 592.136 38.168 591.32 38.168V46.16C591.32 47.024 591.488 47.744 591.824 48.32C592.16 48.848 592.592 49.28 593.12 49.616C593.648 49.904 594.248 50.12 594.92 50.264C595.592 50.408 596.264 50.504 596.936 50.552V62C594.488 62.096 592.064 62.048 589.664 61.856C587.264 61.616 584.84 61.496 582.392 61.496C579.944 61.496 577.496 61.592 575.048 61.784C572.648 61.928 570.224 62 567.776 62V50.552ZM646.605 40.76C646.557 40.088 646.317 39.584 645.885 39.248C645.453 38.864 644.901 38.576 644.229 38.384C643.605 38.192 642.909 38.096 642.141 38.096C641.373 38.048 640.581 38.024 639.765 38.024V46.16C639.765 48.032 640.245 49.256 641.205 49.832C642.165 50.36 643.485 50.624 645.165 50.624C646.509 50.624 647.565 50.408 648.333 49.976C649.101 49.496 649.677 48.872 650.061 48.104C650.445 47.288 650.685 46.376 650.781 45.368C650.925 44.36 651.021 43.28 651.069 42.128H662.517C662.277 43.664 662.157 45.2 662.157 46.736C662.157 48.272 662.157 49.808 662.157 51.344C662.157 53.168 662.157 54.992 662.157 56.816C662.205 58.592 662.325 60.368 662.517 62.144C657.717 62.24 652.893 62.192 648.045 62C643.245 61.76 638.445 61.64 633.645 61.64C630.717 61.64 627.813 61.712 624.933 61.856C622.053 61.952 619.149 62 616.221 62V50.552C616.893 50.504 617.565 50.408 618.237 50.264C618.909 50.12 619.509 49.904 620.037 49.616C620.565 49.28 620.997 48.848 621.333 48.32C621.669 47.744 621.837 47.024 621.837 46.16V23.408C621.837 22.544 621.669 21.848 621.333 21.32C620.997 20.744 620.565 20.312 620.037 20.024C619.509 19.688 618.909 19.448 618.237 19.304C617.565 19.16 616.893 19.064 616.221 19.016V7.568C619.101 7.52 621.957 7.568 624.789 7.712C627.621 7.856 630.477 7.928 633.357 7.928C637.917 7.928 642.645 7.856 647.541 7.712C652.485 7.52 657.237 7.424 661.797 7.424C661.605 9.2 661.485 11 661.437 12.824C661.437 14.6 661.437 16.4 661.437 18.224C661.437 19.76 661.437 21.296 661.437 22.832C661.437 24.368 661.557 25.904 661.797 27.44H650.349C650.301 26.384 650.253 25.352 650.205 24.344C650.205 23.336 650.061 22.448 649.773 21.68C649.533 20.864 649.077 20.216 648.405 19.736C647.733 19.208 646.749 18.944 645.453 18.944C643.773 18.944 642.405 19.232 641.349 19.808C640.293 20.336 639.765 21.536 639.765 23.408V31.616C640.581 31.616 641.373 31.616 642.141 31.616C642.957 31.568 643.677 31.448 644.301 31.256C644.973 31.064 645.501 30.8 645.885 30.464C646.317 30.08 646.557 29.552 646.605 28.88H653.013C652.917 29.84 652.845 30.824 652.797 31.832C652.749 32.84 652.725 33.824 652.725 34.784C652.725 35.792 652.749 36.8 652.797 37.808C652.845 38.768 652.917 39.752 653.013 40.76H646.605ZM665.442 25.784C665.538 22.376 666.21 19.52 667.458 17.216C668.706 14.864 670.362 12.968 672.426 11.528C674.49 10.088 676.866 9.056 679.554 8.432C682.29 7.76 685.146 7.424 688.122 7.424C690.618 7.424 693.066 7.664 695.466 8.144C697.914 8.576 700.122 8.984 702.09 9.368C702.762 9.512 703.242 9.32 703.53 8.792C703.818 8.264 703.986 7.688 704.034 7.064H712.602C712.602 8.744 712.554 10.4 712.458 12.032C712.41 13.616 712.386 15.248 712.386 16.928C712.386 18.128 712.41 19.304 712.458 20.456C712.554 21.608 712.602 22.784 712.602 23.984H704.034C703.938 22.16 703.626 20.672 703.098 19.52C702.57 18.368 701.418 17.408 699.642 16.64C699.018 16.448 698.178 16.232 697.122 15.992C696.114 15.752 695.01 15.56 693.81 15.416C692.658 15.224 691.482 15.152 690.282 15.2C689.082 15.2 688.002 15.344 687.042 15.632C686.082 15.92 685.29 16.4 684.666 17.072C684.09 17.696 683.802 18.584 683.802 19.736C683.802 20.984 684.282 21.944 685.242 22.616C686.202 23.24 687.474 23.744 689.058 24.128C690.642 24.464 692.442 24.752 694.458 24.992C696.522 25.184 698.586 25.472 700.65 25.856C702.762 26.192 704.826 26.72 706.842 27.44C708.906 28.16 710.73 29.192 712.314 30.536C713.898 31.832 715.17 33.536 716.13 35.648C717.09 37.76 717.57 40.4 717.57 43.568C717.57 47.456 716.874 50.6 715.482 53C714.09 55.352 712.242 57.2 709.938 58.544C707.682 59.888 705.066 60.8 702.09 61.28C699.162 61.712 696.138 61.928 693.018 61.928C691.578 61.928 690.114 61.832 688.626 61.64C687.186 61.448 685.77 61.232 684.378 60.992C682.986 60.704 681.642 60.464 680.346 60.272C679.05 60.08 677.802 59.984 676.602 59.984C675.93 59.984 675.45 60.224 675.162 60.704C674.874 61.136 674.706 61.664 674.658 62.288H666.09C666.09 60.608 666.114 58.976 666.162 57.392C666.258 55.76 666.306 54.104 666.306 52.424C666.306 51.224 666.258 50.048 666.162 48.896C666.114 47.744 666.09 46.568 666.09 45.368H674.658C674.754 47.192 675.066 48.68 675.594 49.832C676.122 50.984 677.274 51.944 679.05 52.712C679.722 52.904 680.658 53.12 681.858 53.36C683.106 53.6 684.45 53.816 685.89 54.008C687.378 54.152 688.89 54.224 690.426 54.224C691.962 54.224 693.354 54.08 694.602 53.792C695.85 53.504 696.858 53.024 697.626 52.352C698.442 51.68 698.85 50.768 698.85 49.616C698.85 48.512 698.346 47.672 697.338 47.096C696.378 46.52 695.106 46.064 693.522 45.728C691.938 45.344 690.138 45.032 688.122 44.792C686.106 44.504 684.042 44.144 681.93 43.712C679.818 43.232 677.754 42.608 675.738 41.84C673.722 41.072 671.946 40.016 670.41 38.672C668.874 37.328 667.65 35.624 666.738 33.56C665.826 31.448 665.394 28.856 665.442 25.784ZM727.478 50.552C728.198 50.504 728.894 50.408 729.566 50.264C730.238 50.12 730.838 49.88 731.366 49.544C731.894 49.208 732.302 48.776 732.59 48.248C732.926 47.672 733.094 46.976 733.094 46.16V18.8C731.942 18.848 731.078 19.16 730.502 19.736C729.974 20.312 729.59 21.032 729.35 21.896C729.158 22.76 729.062 23.672 729.062 24.632C729.062 25.592 729.038 26.48 728.99 27.296H717.542C717.734 26.144 717.83 24.992 717.83 23.84C717.878 22.688 717.902 21.536 717.902 20.384C717.902 18.176 717.902 15.992 717.902 13.832C717.902 11.624 717.782 9.44 717.542 7.28C725.558 7.712 733.55 7.928 741.518 7.928C749.87 7.928 758.222 7.712 766.574 7.28C766.334 9.44 766.214 11.624 766.214 13.832C766.214 15.992 766.214 18.176 766.214 20.384C766.214 21.536 766.214 22.688 766.214 23.84C766.262 24.992 766.382 26.144 766.574 27.296H755.126C755.078 26.48 755.054 25.592 755.054 24.632C755.102 23.672 755.006 22.76 754.766 21.896C754.574 21.032 754.19 20.312 753.614 19.736C753.038 19.16 752.174 18.848 751.022 18.8V46.16C751.022 46.976 751.166 47.672 751.454 48.248C751.79 48.776 752.222 49.208 752.75 49.544C753.278 49.88 753.878 50.12 754.55 50.264C755.222 50.408 755.918 50.504 756.638 50.552V62C754.19 62 751.766 61.928 749.366 61.784C746.966 61.592 744.542 61.496 742.094 61.496C739.646 61.496 737.198 61.592 734.75 61.784C732.35 61.928 729.926 62 727.478 62V50.552ZM769.432 35.288C769.432 30.296 770.008 26.024 771.16 22.472C772.36 18.92 774.16 16.016 776.56 13.76C779.008 11.504 782.056 9.848 785.704 8.792C789.352 7.736 793.648 7.208 798.592 7.208C803.632 7.208 808 7.712 811.696 8.72C815.392 9.728 818.416 11.36 820.768 13.616C823.168 15.824 824.944 18.728 826.096 22.328C827.248 25.88 827.824 30.2 827.824 35.288C827.824 40.376 827.224 44.648 826.024 48.104C824.872 51.56 823.096 54.344 820.696 56.456C818.296 58.52 815.248 60.008 811.552 60.92C807.904 61.784 803.584 62.216 798.592 62.216C793.696 62.216 789.424 61.76 785.776 60.848C782.128 59.936 779.08 58.424 776.632 56.312C774.232 54.2 772.432 51.44 771.232 48.032C770.032 44.576 769.432 40.328 769.432 35.288ZM790.456 35.288C790.456 37.928 790.504 40.448 790.6 42.848C790.696 45.248 790.984 47.36 791.464 49.184C791.992 50.96 792.76 52.4 793.768 53.504C794.824 54.56 796.288 55.088 798.16 55.088C800.032 55.088 801.472 54.56 802.48 53.504C803.536 52.4 804.304 50.96 804.784 49.184C805.312 47.36 805.624 45.248 805.72 42.848C805.816 40.448 805.864 37.928 805.864 35.288C805.864 32.696 805.816 30.104 805.72 27.512C805.624 24.92 805.312 22.592 804.784 20.528C804.304 18.464 803.536 16.784 802.48 15.488C801.472 14.192 800.032 13.544 798.16 13.544C796.288 13.544 794.824 14.192 793.768 15.488C792.76 16.784 791.992 18.464 791.464 20.528C790.984 22.592 790.696 24.92 790.6 27.512C790.504 30.104 790.456 32.696 790.456 35.288ZM845.088 50.552C845.76 50.504 846.432 50.408 847.104 50.264C847.776 50.12 848.376 49.904 848.904 49.616C849.432 49.28 849.864 48.848 850.2 48.32C850.536 47.744 850.704 47.024 850.704 46.16V23.264C850.704 22.4 850.536 21.704 850.2 21.176C849.864 20.6 849.432 20.168 848.904 19.88C848.376 19.544 847.776 19.304 847.104 19.16C846.432 19.016 845.76 18.92 845.088 18.872V7.424C847.536 7.328 849.96 7.4 852.36 7.64C854.808 7.832 857.256 7.928 859.704 7.928C862.152 7.928 864.576 7.856 866.976 7.712C869.376 7.52 871.8 7.424 874.248 7.424V18.872C873.576 18.92 872.904 19.016 872.232 19.16C871.56 19.304 870.96 19.544 870.432 19.88C869.904 20.168 869.472 20.6 869.136 21.176C868.8 21.704 868.632 22.4 868.632 23.264V46.16C868.632 47.024 868.8 47.744 869.136 48.32C869.472 48.848 869.904 49.28 870.432 49.616C870.96 49.904 871.56 50.12 872.232 50.264C872.904 50.408 873.576 50.504 874.248 50.552V62C871.8 62.096 869.376 62.048 866.976 61.856C864.576 61.616 862.152 61.496 859.704 61.496C857.256 61.496 854.808 61.592 852.36 61.784C849.96 61.928 847.536 62 845.088 62V50.552ZM877.223 25.784C877.319 22.376 877.991 19.52 879.239 17.216C880.487 14.864 882.143 12.968 884.207 11.528C886.271 10.088 888.647 9.056 891.335 8.432C894.071 7.76 896.927 7.424 899.903 7.424C902.399 7.424 904.847 7.664 907.247 8.144C909.695 8.576 911.903 8.984 913.871 9.368C914.543 9.512 915.023 9.32 915.311 8.792C915.599 8.264 915.767 7.688 915.815 7.064H924.383C924.383 8.744 924.335 10.4 924.239 12.032C924.191 13.616 924.167 15.248 924.167 16.928C924.167 18.128 924.191 19.304 924.239 20.456C924.335 21.608 924.383 22.784 924.383 23.984H915.815C915.719 22.16 915.407 20.672 914.879 19.52C914.351 18.368 913.199 17.408 911.423 16.64C910.799 16.448 909.959 16.232 908.903 15.992C907.895 15.752 906.791 15.56 905.591 15.416C904.439 15.224 903.263 15.152 902.063 15.2C900.863 15.2 899.783 15.344 898.823 15.632C897.863 15.92 897.071 16.4 896.447 17.072C895.871 17.696 895.583 18.584 895.583 19.736C895.583 20.984 896.063 21.944 897.023 22.616C897.983 23.24 899.255 23.744 900.839 24.128C902.423 24.464 904.223 24.752 906.239 24.992C908.303 25.184 910.367 25.472 912.431 25.856C914.543 26.192 916.607 26.72 918.623 27.44C920.687 28.16 922.511 29.192 924.095 30.536C925.679 31.832 926.951 33.536 927.911 35.648C928.871 37.76 929.351 40.4 929.351 43.568C929.351 47.456 928.655 50.6 927.263 53C925.871 55.352 924.023 57.2 921.719 58.544C919.463 59.888 916.847 60.8 913.871 61.28C910.943 61.712 907.919 61.928 904.799 61.928C903.359 61.928 901.895 61.832 900.407 61.64C898.967 61.448 897.551 61.232 896.159 60.992C894.767 60.704 893.423 60.464 892.127 60.272C890.831 60.08 889.583 59.984 888.383 59.984C887.711 59.984 887.231 60.224 886.943 60.704C886.655 61.136 886.487 61.664 886.439 62.288H877.871C877.871 60.608 877.895 58.976 877.943 57.392C878.039 55.76 878.087 54.104 878.087 52.424C878.087 51.224 878.039 50.048 877.943 48.896C877.895 47.744 877.871 46.568 877.871 45.368H886.439C886.535 47.192 886.847 48.68 887.375 49.832C887.903 50.984 889.055 51.944 890.831 52.712C891.503 52.904 892.439 53.12 893.639 53.36C894.887 53.6 896.231 53.816 897.671 54.008C899.159 54.152 900.671 54.224 902.207 54.224C903.743 54.224 905.135 54.08 906.383 53.792C907.631 53.504 908.639 53.024 909.407 52.352C910.223 51.68 910.631 50.768 910.631 49.616C910.631 48.512 910.127 47.672 909.119 47.096C908.159 46.52 906.887 46.064 905.303 45.728C903.719 45.344 901.919 45.032 899.903 44.792C897.887 44.504 895.823 44.144 893.711 43.712C891.599 43.232 889.535 42.608 887.519 41.84C885.503 41.072 883.727 40.016 882.191 38.672C880.655 37.328 879.431 35.624 878.519 33.56C877.607 31.448 877.175 28.856 877.223 25.784ZM323.969 102.784C324.065 99.376 324.737 96.52 325.985 94.216C327.233 91.864 328.889 89.968 330.953 88.528C333.017 87.088 335.393 86.056 338.081 85.432C340.817 84.76 343.673 84.424 346.649 84.424C349.145 84.424 351.593 84.664 353.993 85.144C356.441 85.576 358.649 85.984 360.617 86.368C361.289 86.512 361.769 86.32 362.057 85.792C362.345 85.264 362.513 84.688 362.561 84.064H371.129C371.129 85.744 371.081 87.4 370.985 89.032C370.937 90.616 370.913 92.248 370.913 93.928C370.913 95.128 370.937 96.304 370.985 97.456C371.081 98.608 371.129 99.784 371.129 100.984H362.561C362.465 99.16 362.153 97.672 361.625 96.52C361.097 95.368 359.945 94.408 358.169 93.64C357.545 93.448 356.705 93.232 355.649 92.992C354.641 92.752 353.537 92.56 352.337 92.416C351.185 92.224 350.009 92.152 348.809 92.2C347.609 92.2 346.529 92.344 345.569 92.632C344.609 92.92 343.817 93.4 343.193 94.072C342.617 94.696 342.329 95.584 342.329 96.736C342.329 97.984 342.809 98.944 343.769 99.616C344.729 100.24 346.001 100.744 347.585 101.128C349.169 101.464 350.969 101.752 352.985 101.992C355.049 102.184 357.113 102.472 359.177 102.856C361.289 103.192 363.353 103.72 365.369 104.44C367.433 105.16 369.257 106.192 370.841 107.536C372.425 108.832 373.697 110.536 374.657 112.648C375.617 114.76 376.097 117.4 376.097 120.568C376.097 124.456 375.401 127.6 374.009 130C372.617 132.352 370.769 134.2 368.465 135.544C366.209 136.888 363.593 137.8 360.617 138.28C357.689 138.712 354.665 138.928 351.545 138.928C350.105 138.928 348.641 138.832 347.153 138.64C345.713 138.448 344.297 138.232 342.905 137.992C341.513 137.704 340.169 137.464 338.873 137.272C337.577 137.08 336.329 136.984 335.129 136.984C334.457 136.984 333.977 137.224 333.689 137.704C333.401 138.136 333.233 138.664 333.185 139.288H324.617C324.617 137.608 324.641 135.976 324.689 134.392C324.785 132.76 324.833 131.104 324.833 129.424C324.833 128.224 324.785 127.048 324.689 125.896C324.641 124.744 324.617 123.568 324.617 122.368H333.185C333.281 124.192 333.593 125.68 334.121 126.832C334.649 127.984 335.801 128.944 337.577 129.712C338.249 129.904 339.185 130.12 340.385 130.36C341.633 130.6 342.977 130.816 344.417 131.008C345.905 131.152 347.417 131.224 348.953 131.224C350.489 131.224 351.881 131.08 353.129 130.792C354.377 130.504 355.385 130.024 356.153 129.352C356.969 128.68 357.377 127.768 357.377 126.616C357.377 125.512 356.873 124.672 355.865 124.096C354.905 123.52 353.633 123.064 352.049 122.728C350.465 122.344 348.665 122.032 346.649 121.792C344.633 121.504 342.569 121.144 340.457 120.712C338.345 120.232 336.281 119.608 334.265 118.84C332.249 118.072 330.473 117.016 328.937 115.672C327.401 114.328 326.177 112.624 325.265 110.56C324.353 108.448 323.921 105.856 323.969 102.784ZM378.952 127.552C379.624 127.504 380.296 127.408 380.968 127.264C381.64 127.12 382.24 126.904 382.768 126.616C383.296 126.28 383.728 125.848 384.064 125.32C384.4 124.744 384.568 124.024 384.568 123.16V100.264C384.568 99.4 384.4 98.704 384.064 98.176C383.728 97.6 383.296 97.168 382.768 96.88C382.24 96.544 381.64 96.304 380.968 96.16C380.296 96.016 379.624 95.92 378.952 95.872V84.424C381.4 84.328 383.824 84.4 386.224 84.64C388.672 84.832 391.12 84.928 393.568 84.928C396.016 84.928 398.44 84.856 400.84 84.712C403.24 84.52 405.664 84.424 408.112 84.424V95.872C407.44 95.92 406.768 96.016 406.096 96.16C405.424 96.304 404.824 96.544 404.296 96.88C403.768 97.168 403.336 97.6 403 98.176C402.664 98.704 402.496 99.4 402.496 100.264V123.16C402.496 124.024 402.664 124.744 403 125.32C403.336 125.848 403.768 126.28 404.296 126.616C404.824 126.904 405.424 127.12 406.096 127.264C406.768 127.408 407.44 127.504 408.112 127.552V139C405.664 139.096 403.24 139.048 400.84 138.856C398.44 138.616 396.016 138.496 393.568 138.496C391.12 138.496 388.672 138.592 386.224 138.784C383.824 138.928 381.4 139 378.952 139V127.552ZM444.511 129.352C446.047 129.352 447.151 129.112 447.823 128.632C448.543 128.152 448.999 127.504 449.191 126.688C449.431 125.872 449.527 124.912 449.479 123.808C449.431 122.704 449.407 121.552 449.407 120.352C449.407 118.672 448.855 117.544 447.751 116.968C446.647 116.344 444.751 116.008 442.063 115.96V106.672C446.815 106.912 451.687 107.032 456.679 107.032C461.671 107.032 466.519 106.912 471.223 106.672V115.96C470.551 116.008 469.879 116.104 469.207 116.248C468.535 116.392 467.935 116.632 467.407 116.968C466.879 117.256 466.447 117.688 466.111 118.264C465.775 118.792 465.607 119.488 465.607 120.352V138.424H462.511L455.167 133.96C453.151 135.496 450.895 136.696 448.399 137.56C445.951 138.424 443.287 138.976 440.407 139.216C430.615 139.888 423.151 137.824 418.015 133.024C412.879 128.224 410.311 121.048 410.311 111.496C410.311 107.08 410.959 103.144 412.255 99.688C413.599 96.232 415.495 93.328 417.943 90.976C420.391 88.624 423.367 86.848 426.871 85.648C430.375 84.4 434.311 83.776 438.679 83.776C440.743 83.776 442.783 83.968 444.799 84.352C446.863 84.688 448.807 85.288 450.631 86.152C451.495 86.536 452.215 86.536 452.791 86.152C453.367 85.72 453.703 85.024 453.799 84.064H462.367C462.367 85.744 462.319 87.4 462.223 89.032C462.175 90.616 462.151 92.248 462.151 93.928C462.151 95.704 462.199 97.48 462.295 99.256C462.391 101.032 462.415 102.808 462.367 104.584H453.799C453.751 102.904 453.511 101.272 453.079 99.688C452.695 98.056 452.095 96.616 451.279 95.368C450.511 94.12 449.479 93.136 448.183 92.416C446.935 91.648 445.399 91.264 443.575 91.264C441.175 91.264 439.207 91.936 437.671 93.28C436.183 94.576 435.007 96.208 434.143 98.176C433.327 100.096 432.775 102.184 432.487 104.44C432.199 106.696 432.055 108.784 432.055 110.704C432.055 112.72 432.223 114.832 432.559 117.04C432.943 119.248 433.591 121.264 434.503 123.088C435.415 124.912 436.687 126.424 438.319 127.624C439.951 128.776 442.015 129.352 444.511 129.352ZM471.905 127.552C472.625 127.504 473.321 127.408 473.993 127.264C474.665 127.12 475.265 126.88 475.793 126.544C476.321 126.208 476.729 125.776 477.017 125.248C477.353 124.672 477.521 123.976 477.521 123.16V100.264C477.521 99.448 477.353 98.776 477.017 98.248C476.729 97.672 476.321 97.216 475.793 96.88C475.265 96.544 474.665 96.304 473.993 96.16C473.321 96.016 472.625 95.92 471.905 95.872V84.424C474.209 84.616 476.489 84.76 478.745 84.856C481.001 84.904 483.281 84.928 485.585 84.928C488.033 84.928 490.457 84.88 492.857 84.784C495.305 84.688 497.753 84.568 500.201 84.424L514.961 119.416V100.264C514.961 99.448 514.793 98.776 514.457 98.248C514.169 97.672 513.761 97.216 513.233 96.88C512.705 96.544 512.105 96.304 511.433 96.16C510.761 96.016 510.065 95.92 509.345 95.872V84.424H510.209C511.745 84.424 513.233 84.472 514.673 84.568C516.161 84.664 517.649 84.712 519.137 84.712C520.673 84.712 522.209 84.664 523.745 84.568C525.329 84.472 526.889 84.424 528.425 84.424V95.872C527.705 95.92 527.009 96.016 526.337 96.16C525.665 96.304 525.065 96.544 524.537 96.88C524.009 97.216 523.577 97.672 523.241 98.248C522.953 98.776 522.809 99.448 522.809 100.264V138.928C520.889 138.784 518.969 138.664 517.049 138.568C515.129 138.472 513.209 138.424 511.289 138.424C507.545 138.424 503.801 138.64 500.057 139.072L485.441 105.808C485.441 108.688 485.417 111.592 485.369 114.52C485.369 117.4 485.369 120.28 485.369 123.16C485.369 123.976 485.513 124.672 485.801 125.248C486.137 125.776 486.569 126.208 487.097 126.544C487.625 126.88 488.225 127.12 488.897 127.264C489.569 127.408 490.265 127.504 490.985 127.552V139H490.337C488.897 139 487.457 138.928 486.017 138.784C484.577 138.64 483.113 138.568 481.625 138.568C479.993 138.568 478.361 138.64 476.729 138.784C475.145 138.928 473.537 139 471.905 139V127.552ZM561.703 117.76C561.655 117.088 561.415 116.584 560.983 116.248C560.551 115.864 559.999 115.576 559.327 115.384C558.703 115.192 558.007 115.096 557.239 115.096C556.471 115.048 555.679 115.024 554.863 115.024V123.16C554.863 125.032 555.343 126.256 556.303 126.832C557.263 127.36 558.583 127.624 560.263 127.624C561.607 127.624 562.663 127.408 563.431 126.976C564.199 126.496 564.775 125.872 565.159 125.104C565.543 124.288 565.783 123.376 565.879 122.368C566.023 121.36 566.119 120.28 566.167 119.128H577.615C577.375 120.664 577.255 122.2 577.255 123.736C577.255 125.272 577.255 126.808 577.255 128.344C577.255 130.168 577.255 131.992 577.255 133.816C577.303 135.592 577.423 137.368 577.615 139.144C572.815 139.24 567.991 139.192 563.143 139C558.343 138.76 553.543 138.64 548.743 138.64C545.815 138.64 542.911 138.712 540.031 138.856C537.151 138.952 534.247 139 531.319 139V127.552C531.991 127.504 532.663 127.408 533.335 127.264C534.007 127.12 534.607 126.904 535.135 126.616C535.663 126.28 536.095 125.848 536.431 125.32C536.767 124.744 536.935 124.024 536.935 123.16V100.408C536.935 99.544 536.767 98.848 536.431 98.32C536.095 97.744 535.663 97.312 535.135 97.024C534.607 96.688 534.007 96.448 533.335 96.304C532.663 96.16 531.991 96.064 531.319 96.016V84.568C534.199 84.52 537.055 84.568 539.887 84.712C542.719 84.856 545.575 84.928 548.455 84.928C553.015 84.928 557.743 84.856 562.639 84.712C567.583 84.52 572.335 84.424 576.895 84.424C576.703 86.2 576.583 88 576.535 89.824C576.535 91.6 576.535 93.4 576.535 95.224C576.535 96.76 576.535 98.296 576.535 99.832C576.535 101.368 576.655 102.904 576.895 104.44H565.447C565.399 103.384 565.351 102.352 565.303 101.344C565.303 100.336 565.159 99.448 564.871 98.68C564.631 97.864 564.175 97.216 563.503 96.736C562.831 96.208 561.847 95.944 560.551 95.944C558.871 95.944 557.503 96.232 556.447 96.808C555.391 97.336 554.863 98.536 554.863 100.408V108.616C555.679 108.616 556.471 108.616 557.239 108.616C558.055 108.568 558.775 108.448 559.399 108.256C560.071 108.064 560.599 107.8 560.983 107.464C561.415 107.08 561.655 106.552 561.703 105.88H568.111C568.015 106.84 567.943 107.824 567.895 108.832C567.847 109.84 567.823 110.824 567.823 111.784C567.823 112.792 567.847 113.8 567.895 114.808C567.943 115.768 568.015 116.752 568.111 117.76H561.703ZM580.467 127.552C581.187 127.552 581.883 127.48 582.555 127.336C583.227 127.144 583.827 126.88 584.355 126.544C584.883 126.208 585.291 125.776 585.579 125.248C585.915 124.672 586.083 123.976 586.083 123.16V100.264C586.083 99.448 585.915 98.776 585.579 98.248C585.291 97.672 584.883 97.216 584.355 96.88C583.827 96.544 583.227 96.304 582.555 96.16C581.883 95.968 581.187 95.872 580.467 95.872V84.424C582.915 84.568 585.339 84.664 587.739 84.712C590.187 84.76 592.635 84.784 595.083 84.784C596.667 84.784 598.083 84.76 599.331 84.712C600.627 84.664 601.875 84.616 603.075 84.568C604.323 84.472 605.595 84.4 606.891 84.352C608.187 84.304 609.603 84.28 611.139 84.28C615.459 84.28 619.011 85.096 621.795 86.728C624.627 88.312 626.859 90.424 628.491 93.064C630.123 95.704 631.251 98.704 631.875 102.064C632.499 105.424 632.811 108.832 632.811 112.288C632.811 116.08 632.499 119.608 631.875 122.872C631.299 126.136 630.171 128.944 628.491 131.296C626.859 133.648 624.555 135.496 621.579 136.84C618.603 138.184 614.763 138.856 610.059 138.856C608.619 138.856 607.275 138.856 606.027 138.856C604.827 138.808 603.627 138.76 602.427 138.712C601.227 138.664 600.003 138.64 598.755 138.64C597.555 138.592 596.235 138.568 594.795 138.568C592.395 138.568 589.995 138.64 587.595 138.784C585.243 138.928 582.867 139 580.467 139V127.552ZM604.011 131.008C606.267 131.008 607.995 130.36 609.195 129.064C610.395 127.72 611.259 126.112 611.787 124.24C612.315 122.32 612.627 120.304 612.723 118.192C612.819 116.08 612.867 114.232 612.867 112.648C612.867 111.688 612.843 110.56 612.795 109.264C612.747 107.92 612.627 106.552 612.435 105.16C612.291 103.768 612.027 102.4 611.643 101.056C611.259 99.712 610.731 98.512 610.059 97.456C609.435 96.352 608.619 95.488 607.611 94.864C606.603 94.192 605.403 93.856 604.011 93.856V131.008ZM650.077 139V127.552C650.797 127.552 651.493 127.48 652.165 127.336C652.837 127.144 653.437 126.88 653.965 126.544C654.493 126.208 654.901 125.776 655.189 125.248C655.525 124.672 655.693 123.976 655.693 123.16V100.264C655.693 99.448 655.525 98.776 655.189 98.248C654.901 97.672 654.493 97.216 653.965 96.88C653.437 96.544 652.837 96.304 652.165 96.16C651.493 95.968 650.797 95.872 650.077 95.872V84.424C654.253 84.712 658.453 84.856 662.677 84.856C666.133 84.856 669.541 84.784 672.901 84.64C676.261 84.448 679.669 84.352 683.125 84.352C685.525 84.352 687.757 84.568 689.821 85C691.933 85.432 693.757 86.176 695.293 87.232C696.829 88.288 698.029 89.704 698.893 91.48C699.805 93.256 700.261 95.488 700.261 98.176C700.261 99.136 700.141 100.12 699.901 101.128C699.661 102.136 699.301 103.096 698.821 104.008C698.341 104.872 697.717 105.64 696.949 106.312C696.229 106.984 695.389 107.488 694.429 107.824C696.061 108.352 697.429 109.12 698.533 110.128C699.637 111.088 700.525 112.216 701.197 113.512C701.917 114.808 702.421 116.224 702.709 117.76C702.997 119.248 703.141 120.784 703.141 122.368C703.141 125.392 702.637 127.96 701.629 130.072C700.669 132.184 699.325 133.888 697.597 135.184C695.869 136.48 693.829 137.416 691.477 137.992C689.125 138.568 686.557 138.856 683.773 138.856C680.269 138.856 676.765 138.808 673.261 138.712C669.805 138.616 666.325 138.568 662.821 138.568C658.597 138.568 654.349 138.712 650.077 139ZM673.621 104.584C674.869 104.536 675.973 104.464 676.933 104.368C677.941 104.224 678.805 103.936 679.525 103.504C680.245 103.072 680.797 102.448 681.181 101.632C681.565 100.768 681.757 99.616 681.757 98.176C681.757 96.88 681.517 95.896 681.037 95.224C680.557 94.504 679.933 94 679.165 93.712C678.397 93.376 677.509 93.208 676.501 93.208C675.541 93.16 674.581 93.136 673.621 93.136V104.584ZM673.621 130.288C675.301 130.288 676.741 130.168 677.941 129.928C679.141 129.688 680.125 129.256 680.893 128.632C681.661 127.96 682.237 127.072 682.621 125.968C683.005 124.816 683.197 123.352 683.197 121.576C683.197 119.704 683.005 118.216 682.621 117.112C682.285 115.96 681.733 115.096 680.965 114.52C680.197 113.944 679.189 113.56 677.941 113.368C676.741 113.176 675.301 113.08 673.621 113.08V130.288ZM761.123 96.016C759.731 96.112 758.339 96.496 756.947 97.168C755.603 97.792 754.403 98.872 753.347 100.408L741.323 116.32V123.16C741.323 124.024 741.491 124.744 741.827 125.32C742.163 125.848 742.595 126.28 743.123 126.616C743.651 126.904 744.251 127.12 744.923 127.264C745.595 127.408 746.267 127.504 746.939 127.552V139C744.491 139.096 742.067 139.048 739.667 138.856C737.267 138.616 734.843 138.496 732.395 138.496C729.947 138.496 727.499 138.592 725.051 138.784C722.651 138.928 720.227 139 717.779 139V127.552C718.451 127.504 719.123 127.408 719.795 127.264C720.467 127.12 721.067 126.904 721.595 126.616C722.123 126.28 722.555 125.848 722.891 125.32C723.227 124.744 723.395 124.024 723.395 123.16V116.464L710.291 99.544C709.667 98.776 709.067 98.176 708.491 97.744C707.963 97.312 707.411 96.976 706.835 96.736C706.259 96.448 705.659 96.28 705.035 96.232C704.459 96.136 703.835 96.064 703.163 96.016V84.568C705.611 84.568 708.155 84.664 710.795 84.856C713.483 85 716.051 85.072 718.499 85.072C720.947 85.072 723.611 84.976 726.491 84.784C729.371 84.544 732.035 84.472 734.483 84.568V96.016C733.091 96.112 732.227 96.52 731.891 97.24C731.555 97.96 731.867 99.016 732.827 100.408L737.147 106.672L741.179 100.408C742.139 98.968 742.379 97.912 741.899 97.24C741.467 96.52 740.555 96.112 739.163 96.016V84.568C740.363 84.52 741.419 84.52 742.331 84.568C743.243 84.616 744.131 84.688 744.995 84.784C745.859 84.832 746.747 84.904 747.659 85C748.571 85.048 749.627 85.072 750.827 85.072C752.075 85.072 753.059 85.048 753.779 85C754.547 84.952 755.267 84.904 755.939 84.856C756.659 84.76 757.403 84.688 758.171 84.64C758.939 84.592 759.923 84.568 761.123 84.568V96.016Z" fill="#C41A1F"/>
<path d="M1008 204.01C1007.8 204.08 1008.27 204.5 1007 204.47C1007.02 204.63 1005.81 204.1 1008 204.01ZM985.4 205.42L985.78 205.25L982.6 205.67L985.4 205.42ZM965.23 205.42C967.13 206.13 972.53 205.3 976.13 205.56L976.72 205.72L978.34 205.15C973.97 205.23 968.3 205.63 965.23 205.41V205.42ZM954.47 203.88C955.14 204.15 952.15 204.11 956.98 203.96L956.53 203.89C956.09 203.89 955.49 203.89 954.47 203.87V203.88ZM956.53 203.88C958.65 203.88 955.14 203.65 956.53 203.88V203.88ZM946.72 204.04L949.51 203.79C948.93 203.63 946.44 203.59 947.36 203.47C944.49 203.63 945.08 203.77 946.72 204.04V204.04ZM944.06 204.56L945.51 204.46C945.026 204.367 944.526 204.401 944.06 204.56V204.56ZM948.59 204.24L945.51 204.46C945.92 204.57 945.96 204.8 946.93 204.38C946.67 204.63 947.28 204.39 948.59 204.24V204.24ZM950.33 204.34C951.9 204.5 953.93 204.6 951.12 204.84C956.47 204.75 955.68 204.24 950.33 204.34V204.34ZM964.2 206.15L966.29 206.36L968.11 206.12C967.2 206.24 964.07 205.92 964.2 206.15V206.15ZM929.29 203.63C929.11 203.78 930.23 204.04 930.44 204.23L932.5 204.06C931.41 203.99 929.41 203.9 929.29 203.63ZM930.44 204.23L927.34 204.49C930.11 204.56 930.61 204.44 930.41 204.27L930.44 204.23ZM943.56 205.31L948.64 204.77L942.64 205.32L943.56 205.31ZM917.48 203.61L919.23 203.26L916.11 203.79L917.48 203.61ZM909.64 203.67C910.94 203.38 907.87 203.18 909.24 203C907.371 203.063 905.507 203.24 903.66 203.53C905.655 203.416 907.656 203.477 909.64 203.71V203.67ZM900.91 203.86C901.78 203.79 902.68 203.66 903.66 203.53C902.737 203.603 901.819 203.726 900.91 203.9V203.86ZM922.08 204.42C921.304 204.112 920.474 203.962 919.64 203.98L920.86 204.41L922.08 204.42ZM920.9 204.42H918.27H920.9ZM922.38 204.42H922.08C922.127 204.453 922.182 204.475 922.24 204.482C922.298 204.489 922.356 204.481 922.41 204.46L922.38 204.42ZM935.46 204.93C933.64 205.17 929.85 205.42 933.52 205.79C934.82 205.54 932.72 205.33 935.46 204.97V204.93ZM923.89 204.93L927.18 205.03C927.11 204.92 926.52 204.75 927.42 204.63L923.89 204.93ZM922.29 205.07L923.89 204.93H922.68L922.29 205.07ZM906.53 204.24C904.962 204.4 903.386 204.477 901.81 204.47C903.69 204.55 905.63 204.6 907.48 204.6C907.74 204.52 908.55 204.28 906.53 204.3V204.24ZM913.53 204.36H913.21C913.41 204.48 913.55 204.49 913.52 204.42L913.53 204.36ZM884.53 204.47L884.81 204.54L884.87 204.47H884.53ZM907.77 204.68C908.792 204.75 909.82 204.697 910.83 204.52C909.83 204.52 908.66 204.59 907.46 204.6C907.41 204.72 907.34 204.76 907.79 204.74L907.77 204.68ZM896.07 204.04C896.81 204.13 897.64 204.2 898.52 204.27C897.72 204.116 896.904 204.059 896.09 204.1L896.07 204.04ZM912.71 204.26H912.92C912.47 204.21 912.53 204.26 912.73 204.32L912.71 204.26ZM912.71 204.26C911.98 204.32 911.41 204.43 910.83 204.52C911.69 204.52 912.49 204.44 913.18 204.38C913.029 204.37 912.878 204.35 912.73 204.32L912.71 204.26ZM879.3 207.26C879.55 206.86 883.3 206.5 886.47 206.92C889.63 206.62 887.56 205.32 884.81 204.59C884.71 204.77 884.71 204.93 881.47 205.16C882.6 205.38 888.67 205.67 885.93 206.02C881.63 206.23 882.41 205.88 880.32 205.67C882.09 206.17 874.85 206.39 875.78 207.12L879.55 206.86C879.64 206.99 878.28 207.17 879.32 207.27L879.3 207.26ZM891.01 204.63L892.35 204.58C890.8 204.5 889.257 204.323 887.73 204.05C885.51 204.24 885.05 204.39 884.89 204.52H891.47L891.01 204.63ZM898.35 204.58C897.35 205.01 894.1 205.2 896.06 205.66C899.98 205.66 898.81 205.3 901.15 205.12C894.82 205.22 902.97 204.88 898.39 204.63C899.64 204.56 900.76 204.54 901.81 204.52C900.67 204.47 899.57 204.4 898.54 204.32H898.68C898.95 204.38 899.04 204.41 898.73 204.38H898.6C898.52 204.454 898.424 204.509 898.32 204.54C896.48 204.45 898.03 204.43 898.6 204.38C898.6 204.38 898.67 204.38 898.68 204.31L892.35 204.54C893.69 204.63 895.41 204.63 898.35 204.63V204.58ZM930.14 206.74C929.94 206.74 929.95 206.68 929.94 206.64C929.53 206.71 929.41 206.74 930.14 206.75V206.74ZM927.53 206.48C928.302 206.315 929.092 206.254 929.88 206.3C931.17 206.43 929.88 206.5 929.94 206.64C930.84 206.53 933.1 206.34 930.27 206.13H929.82C928.005 206.081 926.201 205.832 924.44 205.39C925.408 205.91 926.451 206.281 927.53 206.49V206.48ZM912.76 205.64L907.48 205.85L910.17 206.23L910.03 206C913.03 206.1 912.41 205.83 912.76 205.63V205.64ZM883.95 204.3L884.65 203.85L881.6 204.49L883.95 204.3ZM877.09 204.36L877.35 203.96L875.54 204.2L877.09 204.36ZM490.2 209.27L488.65 209.38C489.41 209.35 489.85 209.32 490.2 209.28V209.27ZM501.42 209.27L501.7 209.08C501.18 209.22 500.96 209.29 501.41 209.3L501.42 209.27ZM708.71 204.38C706.45 204.01 703.93 203.44 704.2 203.88L704.89 204.32C706.164 204.26 707.44 204.29 708.71 204.41V204.38ZM593.41 207L594.07 207.13L595.59 206.72L593.41 207ZM591.82 208.8L588.82 208.52C589.49 208.63 590.41 208.71 591.8 208.8H591.82ZM428.92 209.74L427.11 210.18C429.92 210.18 428.68 209.95 428.9 209.74H428.92ZM806.92 204.53C804.97 204.36 803.42 204.28 802.06 204.26C804.41 204.51 806.25 204.89 806.87 204.53H806.92ZM494.61 204.63C493.66 204.71 493.26 204.8 493.29 204.9C494.26 204.86 494.82 204.78 494.61 204.63ZM796.38 204.23L797.38 204.33C798.81 204.25 800.24 204.2 801.98 204.22C800.129 203.997 798.257 204.014 796.41 204.27L796.38 204.23ZM206.59 209.34C206.43 209.34 206.24 209.34 206.09 209.28C205.94 209.22 206.27 209.39 206.59 209.38V209.34ZM141.83 204.96C142.47 204.96 143.51 204.96 144.49 204.96C144.01 204.94 143.21 204.94 141.83 205V204.96ZM849.51 204.14C850.96 204.14 849.74 204.14 849.51 204.14V204.14ZM856.58 205.85C856.27 205.85 856.03 205.96 856 206.06C856.176 205.956 856.375 205.897 856.58 205.89V205.85ZM781.9 206.93H781.77C782.21 207.05 782.13 207.03 781.9 206.97V206.93ZM851.7 204.33C851.15 204.33 850.52 204.24 849.84 204.2C850.14 204.28 850.7 204.32 851.7 204.37V204.33ZM851.4 204.13H852.67C852.86 204.14 852.69 204.09 851.41 204.17L851.4 204.13ZM847.48 204.13C848.31 204.13 849.09 204.13 849.84 204.13C849.55 204.13 849.43 204.13 849.51 204.07L847.48 204.13ZM325.71 208.13H325.39C323.93 208.35 324.57 208.33 325.71 208.22V208.13ZM670.86 208.83H671.03H670.81H670.86ZM665.64 209.15C667.328 208.724 669.079 208.602 670.81 208.79L669.09 207.54L665.64 209.15ZM467.64 209.23C463.655 208.881 459.642 209.049 455.7 209.73C453.86 209.54 457.14 208.73 451.9 208.94C444.5 209.2 453.3 209.94 448.9 210.09L445.68 209.39C440.01 209.92 435.76 209.44 430.98 209.39C430.348 209.398 429.718 209.468 429.1 209.6C424 209.29 418.42 210.29 414.58 210.06C415.48 209.91 412.38 209.61 411.92 209.44L404.99 209.88C408.06 209.69 407.92 209.29 408.48 208.88C406.32 208.88 405.3 209.14 403.82 209.19C404.72 209.05 405.63 208.9 404.49 208.72L397.21 209.39C397.874 209.466 398.542 209.502 399.21 209.5C396.428 209.644 393.639 209.621 390.86 209.43C391.09 209.28 391.98 209.13 392.2 208.97C393.713 209.307 395.289 209.227 396.76 208.74C391.76 208.81 395.51 208.64 393.09 208.35C389.55 208.35 388.09 208.9 389.03 209.24C385.915 209.011 382.786 209.061 379.68 209.39L380.46 208.84L376.7 209.01L379.75 208.34C372.55 207.97 378.42 209.28 370.43 208.97V208.49C367.35 208.68 366.3 209.49 363.91 208.91C360.91 209.2 369.02 209.59 362 209.69C360.041 209.404 358.068 209.227 356.09 209.16C353.85 209.38 357.79 209.73 359.23 209.67C348.64 209.9 352.66 208.02 343.23 208.67C346.47 209.02 340.53 209.61 348.23 209.59C344.56 209.88 341.02 208.89 337.23 209.42L339.72 208.8C338.496 208.831 337.274 208.928 336.06 209.09L336.37 208.62C331.65 209.45 327.59 208.22 324.79 209.31C326.74 208.45 321.27 209.31 319.4 209.03C323.28 208.42 330.53 209.03 331.04 208.25C329.24 208.01 327.62 208.4 325.88 208.17C327.042 208.08 328.198 207.917 329.34 207.68C323.34 207.23 319.98 208.16 316.34 208.36L322.73 208.18C322.22 208.97 319.86 208.31 318.07 208.94C314.87 208.51 312.37 209.13 309.76 208.86C310.45 208.86 310.5 208.79 311.19 208.8C304.19 208.8 302.29 207.53 299.53 207.5C296.77 207.47 291.66 207.83 293.53 208.17C291.3 208.39 302.78 207.93 298.8 208.96C294.8 207.77 290.63 209.4 281.96 208.59C285.75 208.17 279.73 207.92 283.12 207.59C281.063 207.547 279.008 207.752 277 208.2L275.76 207.83C270.36 208.66 274.49 208.57 266.32 209.01C269.06 208.72 263.05 208.47 265.13 208.21C263.085 208.177 261.041 208.281 259.01 208.52H259.31C251.04 208.71 252.54 208.05 245.01 208.46L245.76 208.69C235.9 209.29 223.43 208.9 213.23 209.18L216.82 209.36C215.73 209.25 209.94 209.72 206.76 209.36C207.4 209.36 208.5 209.23 209.09 209.26C209 209.01 207.76 208.64 205.31 208.58L204.37 208.96L203.37 208.67C199.63 208.67 204.46 209.21 200.72 209.21C198.54 208.11 184.63 209.06 181.4 208.1C178.86 208.89 188.48 208.21 185.69 208.93C184.272 208.735 182.842 208.635 181.41 208.63L182.24 209.1C170.93 208.83 166.61 208.43 156.54 208.53L156.95 208.43C154.575 208.175 152.174 208.279 149.83 208.74C149.08 208.52 151.67 208.4 150.27 208.21C143.95 209.42 137.65 207.32 133.8 208.21C134.3 207.21 126.05 206.34 129.49 205.59L126.9 205.7C127.75 205.07 135.02 205.7 136.51 205.03L144.68 205.69C144.42 205.45 145.76 205.1 144.45 205.02C146.45 205.02 148.23 205.02 145.58 204.63C165.09 206.24 185.14 204.63 204.35 205.54C205.65 205.48 204.9 205.26 204.4 205.11C207.94 205.72 207.78 204.79 209.72 204.7L214.9 205.58C217 205.32 215.36 205.05 215.51 204.88C225.32 204.7 234.87 205.56 242.8 205.04C245.33 205.35 242.2 205.75 245.53 205.86C241.01 204.95 255.25 205.43 252.36 204.79C255.59 205.79 264.36 205 262.9 206.34C266.9 206.42 266.21 205.77 265.06 205.65C269.117 205.775 273.178 205.651 277.22 205.28C279.75 205.6 298.38 204.95 302.51 205.96C299.7 205.3 302.73 205.62 305.43 205.33L302.99 204.76L309.09 204.82C310.34 204.76 310.69 204.82 310.68 204.82C311.68 204.82 310.44 205.15 313.06 205.3C315.288 205.369 317.517 205.174 319.7 204.72L319.07 204.63H321.88C323.96 204.63 314.55 205.2 321.32 205.5C323.233 204.958 325.232 204.784 327.21 204.99C323.75 204.99 324.21 205.37 325.46 205.54H330.3L328.7 204.81C342.59 204.81 357.03 205.37 371.85 205.32C371.65 205.96 382.35 205.32 381.01 206.32L380.44 206.23C376.8 206.32 381.5 206.97 384.44 206.86C381.34 206.56 389.99 205.92 382.44 205.78L388.26 205.33C391.5 203.53 403.79 205.49 412.62 204.9C412.314 204.897 412.014 204.976 411.75 205.13C419.6 204.55 429.34 205.61 431.15 205.33L431.85 205.82C436.98 205.094 442.173 204.92 447.34 205.3C447.24 205.38 446.34 205.53 447.58 205.63C450.652 205.038 453.786 204.826 456.91 205L456.69 205.15L465.25 205.07C465.19 206.6 479.92 204.14 482.49 205.79C484.16 205.35 490.42 205.21 493.21 205C493.21 205.06 493.4 205.13 493.86 205.2C497.15 204.38 503.35 205.46 506.99 205.36C509.37 205.17 508.34 204.91 507.31 204.65C512 205.3 520.31 203.92 521.99 204.2C525.43 204.26 523.27 204.78 524.21 205.12C529.33 204.97 523.35 203.74 530.21 204.35C529.41 204.41 527.93 204.47 528.51 204.56C531.13 204.69 535.81 206.44 538.42 206.09L536.7 205.81C541.48 205.42 548 207.06 548.77 206.03L548.32 205.55C556.56 206.18 551.81 205.36 560.16 205.92L560.06 206C563.7 205.9 565.67 206.5 567.45 205.73L566.2 205.63C570.71 205.57 571.12 205.63 575.72 205.63C576.85 205.51 577.99 205.51 579.12 205.63C579.33 204.99 589.8 205.33 591.85 205.37C588.2 205.46 589.93 205.74 590.96 206C593.121 205.463 595.371 205.395 597.56 205.8C597.99 205 598.56 204.15 604.44 204.1C603.53 204.22 602.11 204.29 602.69 204.46C603.496 204.546 604.311 204.519 605.11 204.38C605.7 204.54 603.81 204.67 604.47 204.95C608.47 204.19 611.32 204.89 617.05 204.62C615.23 204.86 616.8 205.02 617.46 205.29C617.9 204.39 625.31 206.08 623.13 204.91C634.37 205.61 651.67 204.91 656.05 205.72C657.23 206.04 660.36 205.51 662.32 205.5L662.05 205.89C667.53 205.18 666.31 205.63 672.76 204.89C670.09 205.36 671.2 205.58 673.89 205.95L678.31 205.13L679.17 205.74C681.123 205.569 683.087 205.569 685.04 205.74C684.04 205.74 684.59 205.8 684.65 205.91C685.65 205.06 693.53 205.16 694.76 204.75C696.76 205.58 700.05 204.54 701.5 205.32C702.15 205.2 702.99 205.11 703.9 205.03C702.95 204.67 702.6 204.26 704.38 204.44H704.8L705.58 204.92C707.39 204.81 709.25 204.75 710.47 204.74C709.92 204.74 709.28 204.61 708.62 204.5C709.4 204.57 710.12 204.66 710.82 204.74H711.47C711.34 204.751 711.21 204.751 711.08 204.74C712.356 204.881 713.644 204.881 714.92 204.74C721.28 205.48 729.06 203.74 736.07 204.74C735.095 204.598 734.105 204.598 733.13 204.74C739 204.74 744.83 205.38 748.54 205.01L748.28 204.56C752.58 204.36 755.9 204.21 759.37 204.24L759.56 203.74C764.56 203.92 775.41 203.1 778.5 204.15C779.73 203.74 785.5 204.27 788.33 204.15L789.06 204.54C792.79 204.67 795.06 204.54 797.32 204.42C804.9 205.23 811.91 204.42 818.54 204.48L818.6 204.6L825.32 204.32C823.56 204.67 826.64 204.08 828.66 204.17C831.367 204.005 834.083 204.062 836.78 204.34H841.07C836.31 204.6 841.4 204.9 841.67 205.34L844.41 204.99C845.51 205.2 842.65 205.34 844.67 205.43C846.5 205.19 851.91 205.21 853.6 204.74C853.032 204.577 852.449 204.477 851.86 204.44C851.63 204.44 851.65 204.44 851.79 204.44H851.61H851.83C852.083 204.395 852.334 204.335 852.58 204.26C855.98 204.36 854.74 204.18 854.58 203.97C858.44 204.67 860.58 204.2 863.58 204.97C859.58 204.05 872.43 204.97 869.94 204.08C872.82 204.79 871.94 204.08 873.75 204.72C869.953 204.7 866.16 204.957 862.4 205.49L865.61 205.91C863.52 206.72 858.41 205.61 856.5 205.91C857.927 205.754 859.37 205.811 860.78 206.08L859.92 205.47C856.088 205.347 852.253 205.528 848.45 206.01C851.52 206.21 844.74 206.38 846.96 206.81L849.38 206.74C850.49 206.95 848.15 207.14 846.79 207.32C839.13 206.87 825.11 207.26 822.37 206.78C824.304 206.899 826.245 206.846 828.17 206.62L824.58 206.37C827.5 206.37 829.8 206.89 834.11 206.69C833.38 206.3 836.5 205.77 833.23 205.23C824.99 204.62 826.46 206.23 816.54 206.1C815.62 206.22 818.62 205.46 813.33 205.67C806.69 206.06 801.82 206.94 801.83 207.79C804.63 207.54 810.22 207.05 811.08 207.66C808.29 207.91 803.46 208.06 803.22 208.45C800.32 207.74 808.49 208.24 804.69 207.65C803.445 207.667 802.204 207.791 800.98 208.02C802.28 207.73 799.22 207.53 798.63 207.36C792.27 207.36 788.63 207.05 781.79 206.99C781.43 206.88 780.68 206.66 780.87 206.48C777.54 206.68 772.79 207.74 774.03 208.18C770.13 208.18 769.92 207.87 766.59 208.07C771.9 208.7 765.59 207.96 764.98 208.64C761.58 208.73 763.79 208.31 762.23 208.16C761.542 208.211 760.866 208.373 760.23 208.64C758.14 208.12 764.28 207.29 761.82 206.69C760.12 206.31 752.82 205.63 752.3 205.58C750.68 206.15 751.15 208.53 753.58 209.29C753.32 209.69 750.36 208.87 748.87 208.83C744.56 208.18 742.28 209.33 738.69 209.08L741.43 208.72C739.186 208.615 736.938 208.705 734.71 208.99C734.57 208.77 737.44 207.84 735.8 207.57C729.35 207.45 723.23 208.69 723.63 209.36L733.52 208.67C733.87 209.23 726.52 209.23 726.9 209.9L717.79 209.7C718.94 209.7 722.46 209.52 721.08 209.21C717.16 209.21 719.08 209.12 716.43 208.86C720.92 208.15 729.14 206.32 732.07 205.46L727.36 205.83L726.19 205.5C721.636 205.956 717.167 207.039 712.91 208.72C709.39 208.57 710.62 207.38 711.46 207.14C704.53 207.14 704.62 208.84 697.64 208.67L700.26 208.93C698.61 209.04 692.62 208.8 693.26 209.02C691.88 208.7 690.61 207.95 692.15 207.75L685.97 208.87C686.88 208.75 686.28 207.79 686.67 207.62C684.19 207.62 682.44 208.73 684.01 208.89C679.16 208.19 680.36 208.57 676.43 207.76C675 207.83 676.56 208.76 677.61 208.88C675.387 209.068 673.153 209.068 670.93 208.88C676.28 208.47 672.39 206.73 673.4 206L661.88 208.86C662.27 208.69 663.18 207.78 663.12 207.67C662.12 208.52 648.95 208.67 642.5 208.51H643.5C644.8 208.22 639.25 207.98 636.98 208.28C637.595 208.132 638.231 208.088 638.86 208.15C634.54 207.51 633.26 209.44 628.86 208.69C632.86 208.77 633.63 208.43 633.43 208.09C630.16 208.4 622.6 208.09 624.18 209.09C622.09 208.88 620.18 209 620.38 208.5L612.38 209.09C612.97 208.99 613.49 208.69 611.14 208.63C615.64 208.76 620 207.82 622.37 208.48C622.48 207.86 620.79 207.48 622.95 207.01C614.26 207.3 609.51 208.36 604.04 209.08L596.41 208.63L596.09 208.91L594.76 208.2C594.184 208.344 593.594 208.425 593 208.44C592.82 208.37 593.06 208.28 593.44 208.17C592.8 208.189 592.162 208.25 591.53 208.35C591.23 207.97 592.53 207.54 594.02 207.15L596.12 207.55C597.62 207.19 598.7 206.82 596.61 206.55L595.54 206.71C596.54 206.44 597.09 206.22 596.38 206.12L590.54 206.46C591.21 206.56 592.2 206.76 593.36 206.99C589.7 207.46 585.52 207.99 588.79 208.51L584.34 208.09C579.11 208.79 580.02 208.65 573.65 209.17C573.3 208.93 575 208.72 573.85 208.53C569.21 209.33 562.53 207.6 561.52 208.3C557.77 208.48 559.96 208.92 557.57 209.12C557.69 209.04 557.91 208.88 557.22 208.87L554.39 209.38C553.24 209.2 556.99 209.03 553.8 208.81C549.407 209.24 544.99 209.374 540.58 209.21C534.09 209.33 543.36 210.21 537.87 210.12C537.07 209.7 536.36 209.21 532.93 209.12C531.12 209.41 531.37 209.74 528.29 209.92L528.49 209.28C525.65 209.28 523.37 209.43 523.35 208.95C521.645 209.167 519.923 209.207 518.21 209.07C513.9 209.41 521.38 210.37 522.39 210.62C518.15 210.14 515.22 210.42 512.8 209.62L516.55 209.44C508.55 208.65 508.96 210.35 505.25 208.99C507.99 208.99 511.25 208.7 509.67 208.35L505.67 208.68C505.21 208.51 507.94 208.56 506.12 208.37C504.99 208.51 502.67 208.83 501.65 209.05H501.7L494.52 209.16C495.89 209.16 496.22 208.95 494.85 208.92L490.15 209.26C491.59 209.09 490.15 208.9 488 208.79C481.94 208.6 483.15 210.23 478.45 209.58C479.13 209.58 479.25 209.52 479.94 209.58L477.52 209.29C477.01 210.65 463.27 209.43 462.75 210.79C459.31 210.24 462.51 210.46 466.94 209.79L463.27 209.4C464.81 209.35 466.06 209.45 467.65 209.32L467.64 209.23ZM514.17 209.13C514.95 209.41 517.06 209.13 518.17 209C516.32 208.93 515.41 208.63 514.18 209.22L514.17 209.13ZM598.06 207.74C599.179 207.937 600.321 207.971 601.45 207.84C600.325 207.756 599.195 207.752 598.07 207.83L598.06 207.74ZM833.41 204.63H833.53C831.93 204.48 831.09 204.4 833.41 204.63ZM835.99 204.71C836.894 204.782 837.803 204.752 838.7 204.62C838.91 204.68 838.94 204.75 838.45 204.82C837.639 204.915 836.817 204.851 836.03 204.63L835.99 204.71ZM311.09 205.13L310.14 205.01C309.58 205.11 308.97 205.23 311.13 205.09L311.09 205.13ZM592.01 208.63C591.832 208.604 591.671 208.511 591.56 208.37C591.14 208.41 591.13 208.5 592.01 208.63ZM429.23 209.63H429.07C429.007 209.647 428.949 209.678 428.9 209.72L429.23 209.63ZM762.23 208.85C761.574 208.82 760.922 208.737 760.28 208.6C760.27 208.74 760.73 208.84 762.28 208.87L762.23 208.85ZM864.51 203.94L861.36 204.06C862.306 204.045 863.251 204.098 864.19 204.22C864.17 204.13 863.57 203.97 864.56 203.96L864.51 203.94ZM891.86 206.94C892.32 206.88 892.86 206.94 893.29 206.88L893.17 206.65C891.25 206.63 889.88 206.85 891.91 206.94H891.86ZM867.43 205.56C867.68 205.97 869.65 205.83 871.86 205.75H871.47C872.17 205.19 869.82 205.37 867.48 205.56H867.43ZM872.37 205.74C873.05 205.74 873.75 205.74 874.37 205.74C874.72 205.5 873.63 205.68 872.41 205.74H872.37ZM844.68 204.51C845.68 204.61 845.34 203.99 845.93 204.16C847.15 203.63 839 204.78 844.73 204.51H844.68ZM869.21 206.9L868.42 206.4L867.18 206.8L869.21 206.9ZM851.78 206.53L855.31 206.67C855.26 206.59 855.71 206.54 856.26 206.5C854.785 206.404 853.304 206.414 851.83 206.53H851.78ZM856.26 206.53C857.204 206.556 858.149 206.53 859.09 206.45C858.53 206.42 857.21 206.44 856.31 206.5L856.26 206.53ZM864.39 207.08L863.39 206.97H860.9L864.39 207.08ZM813.87 206.46L810.02 206.61C809.63 206.78 810.67 206.88 812.11 206.82C813.08 206.63 814.51 206.63 813.92 206.43L813.87 206.46ZM825.51 207.84C824.929 207.788 824.357 207.66 823.81 207.46L823.69 208.08L825.51 207.84ZM814.28 207.98C813.9 208.15 808.7 208.48 813.58 208.44C814.02 208.24 817.87 208.09 814.33 207.95L814.28 207.98ZM756.28 207.2H757.28L757.14 206.2L756.28 207.2ZM705.21 209.63C709.77 209.88 706.29 209 710.41 209.31C711.48 209.07 707.04 209.06 708.14 208.85C705.41 209.08 703.94 208.93 705.21 209.63ZM708.14 208.85L709.55 208.7C708.75 208.73 708.41 208.78 708.14 208.82V208.85ZM131.08 204.48L128.15 204.27L130.04 204.61L131.08 204.48ZM125.45 205.24L124.76 204.59L123 205.18C123.802 205.101 124.61 205.111 125.41 205.21L125.45 205.24ZM526.28 210.43L526.51 210.27C525.684 210.084 524.836 210.014 523.99 210.06L526.28 210.43ZM486.5 209.94H487.19L485.91 209.36L486.5 209.94ZM453.11 210.69C454.47 210.69 456.11 210.58 457.45 210.61C454.47 210.68 452.74 209.93 453.11 210.63V210.69Z" fill="#1B1B1B"/>
</svg>
