<svg width="1601" height="3" viewBox="0 0 1601 3" fill="none" xmlns="http://www.w3.org/2000/svg">
<path d="M1597.96 0.209961L1599.96 0L1600.71 0.079834L1597.96 0.209961ZM1587.79 0.539795C1588.17 0.539795 1587.99 0.639932 1588.37 0.679932L1595.93 0.0898438C1592.55 -0.250156 1590.02 0.769795 1587.79 0.539795ZM1585.57 0.47998C1583.95 0.360592 1582.33 0.441191 1580.73 0.719971C1581.76 0.499971 1586.2 0.77998 1585.57 0.47998ZM1327.33 0.619873H1328.24C1327.94 0.60679 1327.63 0.613491 1327.33 0.639893V0.619873ZM1259.95 1.56982L1259.25 1.78979C1271.82 1.38979 1286 1.78987 1299.3 1.61987L1298.4 1.69995C1332.13 1.78995 1363.25 1.42 1396.72 1.25C1396.2 1.25 1396.02 1.33986 1395.48 1.35986C1397.1 1.27986 1398.89 1.13991 1400.7 1.15991C1401.17 1.20991 1400.19 1.25979 1399.61 1.28979C1406.68 1.64979 1420.37 1.04979 1424.79 1.28979C1426.79 1.28979 1427.66 1.08998 1426.55 0.97998C1452.75 0.87998 1480.78 0.809785 1507.46 0.529785C1508.74 0.529785 1508.98 0.679805 1508.62 0.799805C1531.43 0.209805 1555.34 0.439795 1578.62 0.539795C1579.52 0.379795 1576.24 0.369961 1578.54 0.209961C1571.04 0.0199609 1564.8 0.599814 1558 0.309814L1558.87 0.159912C1553.87 0.0599121 1557.87 0.539854 1552.73 0.349854C1550.73 0.219854 1553.23 0.149893 1552.29 0.139893C1541.77 0.199893 1530.79 0.0699414 1520.88 0.439941C1518.44 0.109941 1509.58 0.439863 1505.69 0.109863C1502.97 0.239863 1500.23 0.209922 1499.2 0.419922C1462.37 0.249922 1424.74 0.569795 1387.01 0.539795C1369.36 1.17979 1348.21 0.419883 1327.26 0.629883C1327.11 0.629883 1327.14 0.629824 1327.26 0.569824C1320.43 0.729824 1310.47 0.799971 1302.32 0.719971L1295.41 0.98999C1246.35 0.43999 1196.21 0.829854 1146.41 0.599854C1089.79 0.439854 1040.17 -0.0201758 985.03 0.819824C985.1 0.759824 984.65 0.719951 986.03 0.699951C970.11 0.819951 955.61 0.599951 940.62 0.699951V0.639893C903.43 1.15989 863.21 0.569883 827.36 1.12988C783.71 1.06988 734.36 1.12979 688.16 1.28979L688.27 1.16992C651.27 1.42992 615.58 0.769971 578.7 0.969971C540.77 0.679971 500.7 1.6898 462.44 1.2998C438.78 0.689805 407.69 2.00987 385.44 1.36987C339.77 0.369873 295.44 1.02985 249.8 1.59985C207.67 1.25985 165.61 2.13994 124.8 1.43994C105.47 1.88994 84.1203 0.889775 62.6103 1.01978L63.3803 1.16992C55.6503 0.699922 46.1703 1.82992 41.3803 1.16992H42.1903C38.1103 0.809922 32.7003 2.00983 30.1903 1.57983L29.5303 1.76001C24.5803 1.76001 28.9503 1.55999 25.1303 1.48999C23.6903 1.48999 24.5803 1.80996 21.5803 1.70996C20.9303 0.989961 9.46026 1.86981 9.12026 1.05981C11.8303 1.05981 4.88026 0.739824 10.9603 0.569824C9.22026 0.489824 0.96028 0.569873 1.67028 0.869873C0.97028 1.23987 -2.26974 1.55987 2.77026 1.86987L3.77026 1.59985C4.41462 1.63918 5.05226 1.75337 5.67028 1.93994C12.2603 1.93994 13.1403 2.35978 17.8603 2.51978C17.8103 2.51978 17.7703 2.51978 17.8603 2.51978C21.2731 2.31231 24.6944 2.28243 28.1103 2.42993L29.1103 2.57983C30.6703 2.88983 36.6103 1.98001 34.6003 2.51001C48.0003 2.38001 63.3503 2.37988 78.3103 2.37988C80.4103 2.16988 89.7703 2.38001 86.5003 2.01001C90.2403 2.45001 101.38 2.55979 105.5 2.53979C105.175 2.62778 104.836 2.65498 104.5 2.61987C112.5 3.18987 114 2.07979 121.5 2.78979C122.67 2.28979 135.15 2.94986 139.41 2.35986C140.33 2.46986 140.64 2.56991 140.31 2.65991C153.84 2.65991 168.79 2.84987 180.24 2.86987C190.02 2.43987 203.93 3.06997 212.34 2.46997C219.34 2.59997 230.59 2.84986 240.34 2.60986L239.4 2.67993C250.4 2.67993 264.09 2.60998 271.62 2.22998C274.87 2.80998 279.62 2.69988 284.36 2.87988C291.69 2.60988 306.49 2.68995 317.68 2.44995C319.39 2.70995 326.9 2.33997 327.48 2.71997C358.82 1.97997 397.57 2.2398 431.03 2.7998H430.55C434.89 2.5898 439.9 2.11985 444.31 1.84985C444.75 1.84985 444.7 1.93994 443.77 1.93994C449.88 1.86994 455.6 2.24993 461.7 2.17993C461.65 2.23993 461.65 2.2398 460.7 2.2998C466.43 2.1298 472.54 2.6098 479.31 2.2998L479.69 2.3999L483.99 2.26001C483.88 2.39001 483.71 2.57979 481.42 2.53979C533.89 2.65979 588.06 1.99985 641.93 2.09985L639.93 2.21997L650.38 2C650.055 2.08965 649.718 2.13329 649.38 2.12988C662.68 2.33988 676.49 1.97979 689.46 2.03979C689.4 2.09979 687.46 2.21979 689.25 2.28979C698.85 1.93979 704.67 2.73978 709.48 2.01978C709.93 2.01978 710.23 2.21979 709.25 2.27979C735.96 2.03979 763.39 2.04992 790.25 2.16992C812.66 1.50992 837.71 2.10984 860.99 1.58984L860.87 1.71997C891.01 1.25997 922.98 1.71991 954.21 1.65991C967.21 1.65991 975.94 1.5498 988.98 1.5498L989.3 1.70996C1011.24 1.08996 1035.42 2.25983 1058.3 1.57983L1056.72 1.7998C1060.27 1.4598 1070.56 1.92984 1069.21 1.33984L1073.21 1.51978C1088.76 0.739775 1101.51 1.86987 1120.56 1.36987L1119.31 1.51001C1124.38 1.40001 1130.31 1.31994 1134.04 1.43994C1133.45 1.43994 1133.73 1.50979 1132.52 1.53979C1148.39 2.08979 1166.05 1.47979 1182.79 1.53979L1180.9 1.78979C1188.99 1.48979 1203.83 1.78988 1214.47 1.62988L1213.82 1.76001L1219.21 1.57983L1219.35 1.82983C1233.41 1.80983 1246.47 1.63982 1259.95 1.56982ZM1399.61 1.28979H1399.47C1399.05 1.29979 1399.25 1.29979 1399.61 1.28979ZM19.7203 2.5498H18.0203C18.1503 2.5498 19.1803 2.5398 19.7203 2.5498Z" fill="black"/>
</svg>
